<svg width="448" height="406" viewBox="0 0 448 406" fill="none" xmlns="http://www.w3.org/2000/svg">
<path d="M254.495 239.876C302.445 198.542 328.55 150.225 312.802 131.956C297.054 113.687 245.416 132.384 197.466 173.718C149.516 215.051 123.411 263.369 139.159 281.638C154.907 299.907 206.545 281.209 254.495 239.876Z" fill="#F56060"/>
<path d="M273.117 255.182C237.022 286.296 191.092 302.711 144.02 302.022C138.253 301.906 132.388 299.048 128.474 294.507C124.56 289.967 122.877 284.069 123.333 278.023C129.311 231.04 152.922 188.075 188.691 157.242C224.786 126.128 270.716 109.712 317.788 110.402C323.556 110.517 329.42 113.376 333.334 117.916C337.248 122.456 338.931 128.354 338.475 134.4C332.218 181.06 309.211 224.068 273.117 255.182ZM170.747 258.068C198.136 253.678 224.259 241.9 245.721 223.4C267.182 204.9 282.961 181.123 291.061 154.356C263.672 158.746 237.549 170.524 216.088 189.024C194.626 207.524 179.452 231.345 170.747 258.068Z" fill="#4D4D4D"/>
<path d="M191.452 170.657C196.209 107.615 180.538 55.0886 156.45 53.3359C132.362 51.5832 108.978 101.268 104.221 164.31C99.4641 227.352 115.135 279.878 139.223 281.631C163.312 283.384 186.695 233.699 191.452 170.657Z" fill="#F56060"/>
<path d="M153.182 297.247C148.955 300.891 143.655 302.633 137.887 302.517C131.84 302.077 126.58 299.263 122.992 294.442C94.1916 257.087 80.4012 210.185 83.9596 163.026C87.518 115.866 108.197 71.4723 142.289 38.6931C146.562 34.4446 152.512 32.1418 158.234 32.8622C164.282 33.3022 169.542 36.1166 173.13 40.9372C201.93 78.2925 215.72 125.195 212.162 172.354C208.604 219.513 187.924 263.907 153.833 296.687C153.833 296.687 153.507 296.967 153.182 297.247ZM153.758 88.1618C137.465 110.686 127.225 137.601 125.406 165.737C123.262 194.154 129.071 221.934 141.805 246.569C158.098 224.046 168.337 197.13 170.156 168.994C172.58 140.901 166.771 113.122 153.758 88.1618Z" fill="#4D4D4D"/>
<path d="M367.365 298.118C369.182 274.034 319.539 250.791 256.485 246.203C193.43 241.615 140.842 257.419 139.024 281.503C137.207 305.586 186.85 328.829 249.904 333.417C312.959 338.005 365.547 322.201 367.365 298.118Z" fill="#F56060"/>
<path d="M381.163 313.837C380.838 314.118 380.513 314.398 380.188 314.678C342.741 343.566 295.784 357.475 248.615 354.043C201.446 350.611 157.09 330.057 124.388 296.065C120.149 291.805 117.861 285.864 118.597 280.142C119.053 274.096 122.207 268.55 126.714 265.23C164.161 236.343 211.118 222.434 258.287 225.866C305.456 229.298 349.813 249.851 382.515 283.843C386.754 288.103 389.041 294.045 388.306 299.767C387.895 305.208 385.391 310.193 381.163 313.837ZM173.952 283.866C196.442 300.092 223.341 310.257 251.484 312C279.906 314.069 307.712 308.189 332.391 295.394C309.901 279.167 283.002 269.003 254.859 267.259C227.042 265.235 198.957 270.791 173.952 283.866Z" fill="#4D4D4D"/>
</svg>
