<?xml version="1.0" standalone="no"?>
<!DOCTYPE svg PUBLIC "-//W3C//DTD SVG 20010904//EN"
 "http://www.w3.org/TR/2001/REC-SVG-20010904/DTD/svg10.dtd">
<svg version="1.0" xmlns="http://www.w3.org/2000/svg"
 width="896.000000pt" height="896.000000pt" viewBox="0 0 896.000000 896.000000"
 preserveAspectRatio="xMidYMid meet">
<metadata>
Created by potrace 1.11, written by Peter Selinger 2001-2013
</metadata>
<g transform="translate(0.000000,896.000000) scale(0.100000,-0.100000)"
fill="#000000" stroke="none">
<path d="M3068 7879 c-6 -4 -16 -5 -20 -2 -5 2 -15 -1 -23 -7 -8 -7 -15 -10
-15 -6 0 3 -27 -7 -59 -24 -41 -20 -91 -61 -158 -129 -114 -115 -212 -221
-204 -221 4 0 2 -4 -4 -8 -18 -13 -100 -115 -163 -202 -34 -47 -66 -90 -70
-95 -37 -51 -150 -230 -163 -259 -6 -12 -21 -39 -34 -61 -14 -22 -32 -57 -41
-77 -9 -21 -21 -38 -27 -38 -6 0 -8 -3 -5 -6 3 -3 -14 -46 -39 -95 -24 -49
-51 -108 -59 -131 -8 -23 -18 -46 -22 -52 -5 -6 -19 -40 -31 -76 -12 -36 -26
-74 -31 -85 -10 -25 -42 -118 -41 -122 0 -2 -6 -18 -15 -38 -8 -19 -14 -37
-13 -40 0 -3 -7 -31 -16 -63 -16 -54 -19 -65 -30 -113 -2 -11 -6 -28 -9 -37
-3 -9 -7 -29 -10 -45 -3 -15 -7 -35 -10 -45 -6 -18 -8 -33 -30 -162 -16 -92
-27 -161 -31 -200 -2 -14 -6 -59 -11 -100 -15 -141 -8 -710 10 -797 3 -12 7
-50 11 -85 3 -35 8 -71 11 -80 6 -20 9 -38 19 -98 8 -51 39 -195 56 -254 6
-22 13 -49 15 -60 9 -38 12 -51 14 -51 1 0 3 -7 5 -15 11 -55 104 -313 146
-407 10 -24 19 -45 19 -48 0 -13 152 -310 201 -392 181 -307 307 -463 538
-663 35 -30 69 -59 75 -65 6 -5 38 -30 71 -55 33 -25 62 -47 65 -50 28 -29
192 -138 337 -226 107 -64 363 -196 449 -231 95 -39 190 -76 199 -77 5 -1 19
-7 30 -13 11 -6 36 -14 55 -18 19 -4 41 -11 50 -16 14 -8 199 -62 250 -73 14
-3 43 -10 65 -15 74 -17 150 -33 170 -36 11 -2 34 -6 50 -9 17 -3 50 -8 75
-11 25 -3 59 -8 75 -12 17 -4 39 -7 50 -8 11 -2 58 -6 105 -11 187 -18 772 -6
830 16 3 1 9 2 13 1 7 -1 106 14 157 24 13 2 42 7 65 10 22 3 48 8 57 11 9 3
25 7 35 9 113 24 172 38 248 61 50 15 110 32 135 39 25 7 62 20 83 28 20 9 37
13 37 10 0 -3 6 -1 13 5 7 6 35 18 62 27 28 10 74 28 103 41 29 13 56 24 59
24 10 0 317 152 323 160 3 4 12 9 22 13 9 3 53 28 98 56 45 28 84 51 87 51 2
0 11 6 18 13 34 30 43 35 49 30 3 -4 6 -1 6 5 0 6 9 14 20 17 11 3 26 12 32
19 7 6 44 34 81 60 79 56 123 96 159 146 70 97 94 249 56 363 -11 34 -23 64
-27 67 -3 3 -18 23 -33 45 -36 53 -229 239 -348 335 -24 19 -57 46 -74 60 -17
14 -32 28 -34 33 -2 4 -10 7 -18 7 -8 0 -14 5 -14 10 0 6 -5 10 -11 10 -7 0
-19 8 -28 18 -16 17 -196 142 -206 142 -3 0 -14 8 -25 18 -11 9 -24 17 -28 17
-4 1 -25 12 -47 26 -186 119 -515 268 -775 351 -52 16 -112 35 -132 42 l-37
12 22 25 c12 13 35 42 52 64 16 22 33 45 38 50 30 36 147 206 147 215 0 5 4
10 10 10 5 0 12 11 16 25 3 14 10 25 16 25 5 0 14 14 19 30 6 17 15 30 20 30
5 0 9 5 9 11 0 6 15 37 34 68 78 129 251 497 270 576 3 10 7 22 29 80 6 17 12
35 14 40 1 6 13 48 28 95 27 86 70 247 79 298 3 15 7 38 10 52 3 14 8 37 11
52 7 30 15 80 19 119 2 14 5 30 8 35 11 18 5 178 -8 221 -45 148 -167 266
-313 303 -41 11 -231 14 -361 6 -87 -6 -221 -17 -243 -22 -11 -2 -45 -6 -76
-10 -31 -4 -63 -8 -71 -9 -8 -1 -26 -4 -40 -8 -14 -3 -43 -9 -65 -12 -22 -3
-69 -13 -105 -21 -36 -8 -74 -17 -85 -18 -11 -2 -27 -6 -35 -9 -8 -3 -67 -19
-130 -37 -63 -17 -176 -54 -250 -82 -74 -27 -139 -51 -145 -52 -17 -5 -105
-45 -212 -97 -56 -27 -106 -49 -112 -49 -5 0 -11 -4 -13 -8 -1 -5 -37 -26 -78
-48 -41 -21 -97 -53 -124 -71 -27 -18 -52 -30 -56 -28 -4 2 -8 27 -9 56 -1 28
-3 55 -6 59 -2 3 -7 35 -10 71 -4 35 -8 70 -11 78 -3 8 -7 30 -10 50 -16 105
-88 404 -111 461 -4 8 -8 22 -9 30 -1 8 -12 42 -24 75 -44 123 -63 171 -76
203 -8 17 -21 49 -30 70 -54 130 -279 554 -304 572 -4 3 -22 30 -41 60 -18 30
-35 57 -39 60 -10 10 -90 119 -90 124 0 3 -20 25 -45 49 -45 44 -126 94 -167
103 -61 13 -77 16 -125 18 -29 2 -58 -1 -65 -5z"/>
</g>
</svg>
