<svg width="759" height="661" viewBox="0 0 759 661" fill="none" xmlns="http://www.w3.org/2000/svg">
<g clip-path="url(#clip0)">
<path d="M250.73 149.4C196.61 204 131.8 242.77 122.13 290.29C112.46 337.81 157.78 394 211.91 424.48C266.04 454.96 328.91 459.77 407.77 473.8C486.63 487.83 581.12 511.41 650.12 480.89C719.12 450.37 762.7 366 758.51 285.26C754.51 204.52 702.8 127.5 633.81 72.9C564.82 18.3 478.35 -13.52 413.26 5.54C348.17 24.6 304.86 94.92 250.73 149.4Z" fill="#F9F9F9"/>
<path d="M517.32 372.62L517.39 362.11C517.419 352.3 513.566 342.878 506.671 335.9C499.775 328.923 490.399 324.957 480.59 324.87L321.98 323.87C312.17 323.841 302.748 327.694 295.77 334.589C288.792 341.485 284.827 350.861 284.74 360.67L284.68 371.17C284.65 377.175 286.082 383.097 288.852 388.424C291.622 393.752 295.647 398.326 300.58 401.75C296.153 404.61 292.509 408.528 289.976 413.149C287.442 417.77 286.1 422.95 286.07 428.22L285.07 588.74C285.037 592.915 285.828 597.056 287.398 600.925C288.967 604.795 291.284 608.316 294.217 611.289C297.149 614.261 300.639 616.626 304.487 618.248C308.335 619.869 312.465 620.716 316.64 620.74L482.29 621.74C486.461 621.766 490.597 620.97 494.46 619.398C498.324 617.825 501.839 615.507 504.806 612.575C507.773 609.643 510.134 606.156 511.752 602.311C513.371 598.467 514.216 594.341 514.24 590.17L515.24 429.66C515.277 424.387 513.999 419.188 511.521 414.533C509.044 409.878 505.445 405.914 501.05 403C506.023 399.636 510.103 395.113 512.938 389.82C515.772 384.527 517.276 378.624 517.32 372.62Z" fill="#FFCB77"/>
<path d="M484.977 413.671L316.46 412.642C308.171 412.591 301.41 419.27 301.359 427.56L300.368 589.717C300.318 598.007 306.997 604.768 315.286 604.818L483.803 605.848C492.093 605.899 498.854 599.219 498.905 590.93L499.895 428.773C499.946 420.483 493.267 413.722 484.977 413.671Z" fill="#FFCB77"/>
<path d="M474.959 334.854L326.111 333.945C308.555 333.838 294.235 347.983 294.128 365.54C294.02 383.097 308.166 397.416 325.723 397.524L474.57 398.433C492.127 398.54 506.446 384.394 506.554 366.838C506.661 349.281 492.515 334.961 474.959 334.854Z" fill="#FFCB77"/>
<path d="M469.305 386.189L331.137 385.345C322.13 385.29 314.783 392.547 314.728 401.555L314.678 409.735C314.623 418.743 321.881 426.089 330.888 426.144L469.056 426.988C478.063 427.043 485.41 419.786 485.465 410.778L485.515 402.598C485.57 393.591 478.312 386.244 469.305 386.189Z" fill="#FFCB77"/>
<path d="M502.1 372.62L502.16 362.11C502.192 352.301 498.341 342.879 491.447 335.901C484.553 328.923 475.178 324.957 465.37 324.87L306.75 323.87C296.941 323.843 287.52 327.698 280.543 334.592C273.566 341.487 269.6 350.862 269.51 360.67L269.45 371.17C269.42 377.175 270.852 383.097 273.622 388.424C276.392 393.752 280.417 398.326 285.35 401.75C280.925 404.611 277.281 408.529 274.748 413.15C272.215 417.771 270.872 422.95 270.84 428.22L269.84 588.74C269.808 592.915 270.6 597.055 272.17 600.924C273.74 604.793 276.058 608.314 278.99 611.286C281.922 614.258 285.412 616.623 289.259 618.245C293.106 619.867 297.235 620.715 301.41 620.74L467.06 621.74C471.235 621.773 475.376 620.982 479.245 619.412C483.115 617.843 486.636 615.525 489.609 612.593C492.581 609.66 494.946 606.171 496.568 602.323C498.189 598.475 499.036 594.345 499.06 590.17L500.06 429.66C500.092 424.382 498.806 419.18 496.319 414.525C493.833 409.87 490.224 405.908 485.82 403C490.791 399.634 494.871 395.11 497.707 389.818C500.543 384.526 502.05 378.624 502.1 372.62Z" fill="#FFCB77"/>
<path d="M469.748 413.668L301.231 412.639C292.941 412.588 286.18 419.267 286.129 427.557L285.139 589.714C285.088 598.004 291.767 604.765 300.057 604.815L468.574 605.845C476.863 605.895 483.624 599.216 483.675 590.927L484.666 428.77C484.716 420.48 478.037 413.719 469.748 413.668Z" fill="#FFCB77"/>
<path d="M459.739 334.851L310.892 333.942C293.335 333.835 279.015 347.98 278.908 365.537C278.801 383.094 292.947 397.413 310.503 397.521L459.351 398.43C476.907 398.537 491.227 384.391 491.334 366.835C491.441 349.278 477.296 334.958 459.739 334.851Z" fill="#FFCB77"/>
<path d="M454.085 386.186L315.918 385.342C306.91 385.287 299.563 392.544 299.508 401.552L299.458 409.732C299.403 418.74 306.661 426.086 315.668 426.141L453.836 426.985C462.843 427.04 470.19 419.783 470.245 410.775L470.295 402.595C470.35 393.588 463.093 386.241 454.085 386.186Z" fill="#FFCB77"/>
<path d="M487.77 372.62L487.83 362.11C487.859 352.295 484.002 342.868 477.1 335.89C470.198 328.911 460.814 324.949 451 324.87L292.39 323.87C282.58 323.841 273.158 327.694 266.18 334.589C259.203 341.485 255.237 350.861 255.15 360.67L255.09 371.17C255.054 377.182 256.485 383.113 259.257 388.448C262.029 393.784 266.06 398.363 271 401.79C266.575 404.651 262.931 408.569 260.398 413.19C257.865 417.811 256.522 422.99 256.49 428.26L255.49 588.78C255.458 592.955 256.25 597.095 257.82 600.964C259.39 604.833 261.708 608.354 264.64 611.326C267.572 614.298 271.062 616.663 274.909 618.285C278.756 619.907 282.885 620.755 287.06 620.78L452.71 621.78C456.881 621.806 461.017 621.01 464.88 619.438C468.744 617.865 472.259 615.547 475.226 612.615C478.194 609.683 480.554 606.196 482.173 602.351C483.791 598.507 484.636 594.381 484.66 590.21L485.66 429.7C485.706 424.422 484.434 419.216 481.96 414.554C479.486 409.891 475.887 405.92 471.49 403C476.462 399.634 480.541 395.11 483.377 389.818C486.213 384.526 487.72 378.624 487.77 372.62Z" fill="#FFCB77"/>
<path d="M455.418 413.671L286.901 412.641C278.611 412.591 271.85 419.27 271.8 427.56L270.809 589.716C270.758 598.006 277.437 604.767 285.727 604.818L454.244 605.847C462.533 605.898 469.295 599.219 469.345 590.929L470.336 428.772C470.386 420.483 463.707 413.722 455.418 413.671Z" fill="#FFCB77"/>
<path d="M445.409 334.854L296.562 333.944C279.005 333.837 264.686 347.983 264.578 365.539C264.471 383.096 278.617 397.416 296.173 397.523L445.021 398.432C462.577 398.54 476.897 384.394 477.004 366.837C477.112 349.28 462.966 334.961 445.409 334.854Z" fill="#FFCB77"/>
<path d="M439.745 386.188L301.578 385.344C292.57 385.289 285.224 392.547 285.169 401.554L285.119 409.734C285.064 418.742 292.321 426.089 301.329 426.144L439.496 426.988C448.504 427.043 455.85 419.785 455.906 410.778L455.955 402.598C456.01 393.59 448.753 386.243 439.745 386.188Z" fill="#FFCB77"/>
<path d="M476.12 372.62L476.19 362.11C476.219 352.3 472.366 342.878 465.471 335.9C458.576 328.923 449.199 324.957 439.39 324.87L280.78 323.87C270.97 323.841 261.548 327.694 254.57 334.589C247.593 341.485 243.627 350.861 243.54 360.67L243.47 371.17C243.446 377.175 244.882 383.095 247.653 388.422C250.425 393.749 254.449 398.323 259.38 401.75C254.953 404.61 251.309 408.528 248.776 413.149C246.242 417.77 244.9 422.95 244.87 428.22L243.87 588.74C243.837 592.915 244.628 597.056 246.198 600.925C247.767 604.795 250.085 608.316 253.017 611.289C255.95 614.261 259.439 616.626 263.287 618.248C267.135 619.869 271.265 620.716 275.44 620.74L441.09 621.74C445.261 621.766 449.397 620.97 453.26 619.398C457.124 617.825 460.639 615.507 463.606 612.575C466.574 609.643 468.934 606.156 470.553 602.311C472.171 598.467 473.016 594.341 473.04 590.17L474.04 429.66C474.077 424.387 472.799 419.188 470.322 414.533C467.844 409.878 464.245 405.914 459.85 403C464.823 399.636 468.903 395.113 471.738 389.82C474.573 384.527 476.077 378.624 476.12 372.62Z" fill="#FFCB77"/>
<path d="M443.778 413.67L275.261 412.64C266.972 412.59 260.21 419.269 260.16 427.558L259.169 589.715C259.119 598.005 265.798 604.766 274.087 604.817L442.604 605.846C450.894 605.897 457.655 599.218 457.705 590.928L458.696 428.771C458.747 420.482 452.068 413.72 443.778 413.67Z" fill="#FFCB77"/>
<path d="M433.759 334.852L284.912 333.943C267.355 333.836 253.036 347.982 252.928 365.538C252.821 383.095 266.967 397.415 284.524 397.522L433.371 398.431C450.928 398.538 465.247 384.393 465.355 366.836C465.462 349.279 451.316 334.96 433.759 334.852Z" fill="#FFCB77"/>
<path d="M428.106 386.187L289.938 385.343C280.931 385.288 273.584 392.546 273.529 401.553L273.479 409.733C273.424 418.741 280.681 426.088 289.689 426.143L427.856 426.987C436.864 427.042 444.211 419.784 444.266 410.777L444.316 402.597C444.371 393.589 437.113 386.242 428.106 386.187Z" fill="#FFCB77"/>
<path d="M462.69 372.62L462.75 362.11C462.782 352.308 458.936 342.891 452.051 335.915C445.166 328.938 435.801 324.968 426 324.87L267.39 323.87C257.579 323.841 248.156 327.694 241.177 334.589C234.197 341.484 230.23 350.86 230.14 360.67L230.08 371.17C230.05 377.175 231.482 383.097 234.252 388.424C237.022 393.752 241.047 398.326 245.98 401.75C241.555 404.611 237.911 408.529 235.378 413.15C232.845 417.771 231.502 422.95 231.47 428.22L230.47 588.74C230.438 592.916 231.231 597.057 232.801 600.926C234.372 604.795 236.69 608.317 239.623 611.289C242.557 614.262 246.047 616.626 249.896 618.248C253.744 619.87 257.874 620.716 262.05 620.74L427.69 621.74C431.865 621.772 436.005 620.98 439.874 619.41C443.742 617.84 447.264 615.522 450.236 612.59C453.208 609.658 455.573 606.168 457.195 602.321C458.817 598.474 459.665 594.345 459.69 590.17L460.69 429.66C460.717 424.38 459.426 419.177 456.934 414.521C454.442 409.866 450.828 405.906 446.42 403C451.389 399.632 455.466 395.107 458.3 389.816C461.134 384.524 462.64 378.623 462.69 372.62Z" fill="#FFCB77"/>
<path d="M430.338 413.668L261.821 412.638C253.532 412.588 246.771 419.267 246.72 427.556L245.73 589.713C245.679 598.003 252.358 604.764 260.648 604.815L429.164 605.844C437.454 605.895 444.215 599.216 444.266 590.926L445.256 428.769C445.307 420.479 438.628 413.718 430.338 413.668Z" fill="#FFCB77"/>
<path d="M420.33 334.85L271.482 333.941C253.926 333.834 239.606 347.979 239.499 365.536C239.392 383.093 253.537 397.413 271.094 397.52L419.941 398.429C437.498 398.536 451.818 384.391 451.925 366.834C452.032 349.277 437.886 334.958 420.33 334.85Z" fill="#FFCB77"/>
<path d="M414.676 386.185L276.508 385.341C267.501 385.286 260.154 392.544 260.099 401.551L260.049 409.731C259.994 418.739 267.252 426.086 276.259 426.141L414.427 426.985C423.434 427.04 430.781 419.782 430.836 410.774L430.886 402.595C430.941 393.587 423.683 386.24 414.676 386.185Z" fill="#FFCB77"/>
<path d="M450.15 372.62L450.21 362.11C450.242 352.301 446.391 342.879 439.497 335.901C432.604 328.923 423.228 324.957 413.42 324.87L254.81 323.87C245 323.843 235.578 327.697 228.599 334.592C221.621 341.486 217.652 350.861 217.56 360.67L217.5 371.17C217.47 377.175 218.902 383.097 221.672 388.424C224.442 393.752 228.467 398.326 233.4 401.75C228.975 404.611 225.331 408.529 222.798 413.15C220.265 417.771 218.922 422.95 218.89 428.22L217.89 588.74C217.857 592.915 218.648 597.056 220.218 600.925C221.787 604.795 224.105 608.316 227.037 611.289C229.969 614.261 233.459 616.626 237.307 618.248C241.155 619.869 245.285 620.716 249.46 620.74L415.1 621.74C419.275 621.772 423.415 620.98 427.284 619.41C431.153 617.84 434.674 615.522 437.646 612.59C440.618 609.658 442.983 606.168 444.605 602.321C446.227 598.474 447.075 594.345 447.1 590.17L448.1 429.66C448.129 424.385 446.845 419.186 444.362 414.531C441.88 409.877 438.277 405.914 433.88 403C438.849 399.632 442.926 395.107 445.76 389.816C448.594 384.524 450.101 378.623 450.15 372.62Z" fill="#FFCB77"/>
<path d="M417.799 413.671L249.282 412.642C240.992 412.591 234.231 419.27 234.18 427.56L233.19 589.717C233.139 598.006 239.818 604.767 248.108 604.818L416.625 605.848C424.914 605.898 431.675 599.219 431.726 590.929L432.717 428.773C432.767 420.483 426.088 413.722 417.799 413.671Z" fill="#FFCB77"/>
<path d="M407.79 334.844L258.943 333.934C241.386 333.827 227.066 347.973 226.959 365.53C226.852 383.087 240.997 397.406 258.554 397.513L407.401 398.423C424.958 398.53 439.278 384.384 439.385 366.827C439.492 349.271 425.347 334.951 407.79 334.844Z" fill="#FFCB77"/>
<path d="M402.136 386.189L263.969 385.345C254.961 385.29 247.614 392.547 247.559 401.555L247.509 409.735C247.454 418.742 254.712 426.089 263.72 426.144L401.887 426.988C410.895 427.043 418.241 419.786 418.296 410.778L418.346 402.598C418.401 393.59 411.144 386.244 402.136 386.189Z" fill="#FFCB77"/>
<path d="M440.42 372.62L440.49 362.11C440.519 352.3 436.666 342.878 429.771 335.9C422.875 328.923 413.499 324.957 403.69 324.87L245.08 323.87C235.27 323.841 225.848 327.694 218.87 334.589C211.893 341.485 207.927 350.861 207.84 360.67L207.78 371.17C207.75 377.175 209.182 383.097 211.952 388.424C214.722 393.752 218.747 398.326 223.68 401.75C219.255 404.611 215.611 408.529 213.078 413.15C210.545 417.771 209.202 422.95 209.17 428.22L208.17 588.74C208.138 592.915 208.93 597.055 210.5 600.924C212.07 604.793 214.388 608.314 217.32 611.286C220.252 614.258 223.742 616.623 227.589 618.245C231.436 619.867 235.565 620.715 239.74 620.74L405.39 621.74C409.561 621.766 413.697 620.97 417.56 619.398C421.424 617.825 424.939 615.507 427.906 612.575C430.874 609.643 433.234 606.156 434.853 602.311C436.471 598.467 437.316 594.341 437.34 590.17L438.34 429.66C438.377 424.387 437.099 419.188 434.622 414.533C432.144 409.878 428.545 405.914 424.15 403C429.123 399.636 433.203 395.113 436.038 389.82C438.873 384.527 440.377 378.624 440.42 372.62Z" fill="#FFCB77"/>
<path d="M408.079 413.672L239.562 412.642C231.272 412.592 224.511 419.271 224.46 427.56L223.47 589.717C223.419 598.007 230.098 604.768 238.388 604.819L406.905 605.848C415.194 605.899 421.956 599.22 422.006 590.93L422.997 428.773C423.047 420.483 416.368 413.722 408.079 413.672Z" fill="#FFCB77"/>
<path d="M398.07 334.844L249.223 333.935C231.666 333.828 217.346 347.974 217.239 365.53C217.132 383.087 231.278 397.407 248.834 397.514L397.682 398.423C415.238 398.53 429.558 384.385 429.665 366.828C429.772 349.271 415.627 334.952 398.07 334.844Z" fill="#FFCB77"/>
<path d="M392.406 386.189L254.239 385.345C245.231 385.29 237.885 392.548 237.83 401.555L237.78 409.735C237.725 418.743 244.982 426.089 253.99 426.144L392.157 426.989C401.165 427.044 408.511 419.786 408.566 410.778L408.616 402.599C408.671 393.591 401.414 386.244 392.406 386.189Z" fill="#FFCB77"/>
<path d="M426.12 372.62L426.19 362.11C426.219 352.3 422.366 342.878 415.471 335.9C408.575 328.923 399.199 324.957 389.39 324.87L230.78 323.87C220.97 323.841 211.548 327.694 204.57 334.589C197.593 341.485 193.627 350.861 193.54 360.67L193.48 371.17C193.45 377.175 194.882 383.097 197.652 388.424C200.422 393.752 204.447 398.326 209.38 401.75C204.955 404.611 201.311 408.529 198.778 413.15C196.245 417.771 194.902 422.95 194.87 428.22L193.87 588.74C193.838 592.915 194.63 597.055 196.2 600.924C197.77 604.793 200.088 608.314 203.02 611.286C205.952 614.258 209.442 616.623 213.289 618.245C217.136 619.867 221.265 620.715 225.44 620.74L391.09 621.74C395.261 621.766 399.397 620.97 403.26 619.398C407.124 617.825 410.639 615.507 413.606 612.575C416.574 609.643 418.934 606.156 420.552 602.311C422.171 598.467 423.016 594.341 423.04 590.17L424.04 429.66C424.077 424.387 422.799 419.188 420.321 414.533C417.844 409.878 414.245 405.914 409.85 403C414.823 399.636 418.903 395.113 421.738 389.82C424.573 384.527 426.076 378.624 426.12 372.62Z" fill="#FFCB77"/>
<path d="M393.779 413.664L225.262 412.635C216.973 412.584 210.211 419.263 210.161 427.553L209.17 589.71C209.12 598 215.799 604.761 224.088 604.811L392.605 605.841C400.895 605.891 407.656 599.212 407.706 590.923L408.697 428.766C408.748 420.476 402.069 413.715 393.779 413.664Z" fill="#FFCB77"/>
<path d="M383.77 334.847L234.923 333.938C217.366 333.83 203.047 347.976 202.939 365.533C202.832 383.09 216.978 397.409 234.535 397.517L383.382 398.426C400.939 398.533 415.258 384.387 415.366 366.831C415.473 349.274 401.327 334.954 383.77 334.847Z" fill="#FFCB77"/>
<path d="M378.107 386.182L239.939 385.338C230.932 385.283 223.585 392.54 223.53 401.548L223.48 409.728C223.425 418.735 230.682 426.082 239.69 426.137L377.857 426.981C386.865 427.036 394.212 419.779 394.267 410.771L394.317 402.591C394.372 393.584 387.114 386.237 378.107 386.182Z" fill="#FFCB77"/>
<path d="M413.54 372.62L413.6 362.11C413.632 352.301 409.781 342.879 402.887 335.901C395.993 328.923 386.618 324.957 376.81 324.87L218.2 323.87C208.39 323.851 198.972 327.715 192.002 334.618C185.032 341.52 181.077 350.901 181 360.71L180.93 371.21C180.906 377.215 182.342 383.135 185.113 388.462C187.885 393.789 191.909 398.363 196.84 401.79C192.412 404.648 188.766 408.565 186.232 413.187C183.699 417.809 182.357 422.989 182.33 428.26L181.33 588.78C181.297 592.955 182.088 597.096 183.658 600.965C185.227 604.835 187.545 608.356 190.477 611.329C193.409 614.301 196.899 616.666 200.747 618.288C204.595 619.91 208.725 620.757 212.9 620.78L378.54 621.78C382.715 621.812 386.855 621.02 390.724 619.45C394.593 617.88 398.114 615.562 401.086 612.63C404.058 609.698 406.423 606.208 408.045 602.361C409.667 598.514 410.515 594.385 410.54 590.21L411.54 429.7C411.571 424.414 410.282 419.203 407.79 414.541C405.298 409.879 401.682 405.912 397.27 403C402.243 399.636 406.323 395.113 409.158 389.82C411.993 384.527 413.496 378.624 413.54 372.62Z" fill="#FFCB77"/>
<path d="M381.199 413.668L212.682 412.638C204.393 412.587 197.632 419.266 197.581 427.556L196.59 589.713C196.54 598.003 203.219 604.764 211.508 604.814L380.025 605.844C388.315 605.895 395.076 599.216 395.127 590.926L396.117 428.769C396.168 420.479 389.489 413.718 381.199 413.668Z" fill="#FFCB77"/>
<path d="M371.181 334.85L222.333 333.941C204.777 333.834 190.457 347.979 190.35 365.536C190.243 383.093 204.388 397.412 221.945 397.52L370.792 398.429C388.349 398.536 402.669 384.391 402.776 366.834C402.883 349.277 388.737 334.957 371.181 334.85Z" fill="#FFCB77"/>
<path d="M365.527 386.185L227.359 385.341C218.352 385.286 211.005 392.543 210.95 401.551L210.9 409.731C210.845 418.739 218.103 426.085 227.11 426.14L365.278 426.984C374.285 427.039 381.632 419.782 381.687 410.774L381.737 402.594C381.792 393.587 374.534 386.24 365.527 386.185Z" fill="#FFCB77"/>
<path d="M401 372.62L401.06 362.11C401.092 352.301 397.241 342.879 390.347 335.901C383.453 328.923 374.078 324.957 364.27 324.87L205.65 323.87C195.841 323.843 186.42 327.698 179.443 334.592C172.466 341.487 168.5 350.862 168.41 360.67L168.35 371.17C168.32 377.175 169.752 383.097 172.522 388.424C175.292 393.752 179.317 398.326 184.25 401.75C179.825 404.611 176.181 408.529 173.648 413.15C171.115 417.771 169.772 422.95 169.74 428.22L168.74 588.74C168.708 592.915 169.5 597.055 171.07 600.924C172.64 604.793 174.958 608.314 177.89 611.286C180.822 614.258 184.312 616.623 188.159 618.245C192.006 619.867 196.135 620.715 200.31 620.74L365.96 621.74C370.135 621.773 374.276 620.982 378.145 619.412C382.015 617.843 385.536 615.525 388.509 612.593C391.481 609.66 393.846 606.171 395.468 602.323C397.09 598.475 397.936 594.345 397.96 590.17L398.96 429.66C398.988 424.38 397.698 419.176 395.206 414.52C392.714 409.865 389.1 405.905 384.69 403C389.667 399.637 393.752 395.115 396.593 389.822C399.435 384.53 400.947 378.626 401 372.62Z" fill="#FFCB77"/>
<path d="M368.619 413.671L200.103 412.641C191.813 412.591 185.052 419.27 185.001 427.559L184.011 589.716C183.96 598.006 190.639 604.767 198.929 604.818L367.446 605.847C375.735 605.898 382.496 599.219 382.547 590.929L383.537 428.772C383.588 420.482 376.909 413.721 368.619 413.671Z" fill="#FFCB77"/>
<path d="M358.611 334.843L209.764 333.934C192.207 333.827 177.887 347.972 177.78 365.529C177.673 383.086 191.818 397.406 209.375 397.513L358.222 398.422C375.779 398.529 390.099 384.384 390.206 366.827C390.313 349.27 376.168 334.951 358.611 334.843Z" fill="#FFCB77"/>
<path d="M352.957 386.178L214.79 385.334C205.782 385.279 198.435 392.537 198.38 401.544L198.33 409.724C198.275 418.732 205.533 426.078 214.54 426.134L352.708 426.978C361.715 427.033 369.062 419.775 369.117 410.767L369.167 402.588C369.222 393.58 361.965 386.233 352.957 386.178Z" fill="#FFCB77"/>
<path d="M393.53 372.62L393.59 362.11C393.622 352.301 389.771 342.879 382.877 335.901C375.984 328.923 366.608 324.957 356.8 324.87L198.19 323.87C188.382 323.854 178.966 327.719 171.998 334.621C165.03 341.524 161.077 350.902 161 360.71L160.93 371.21C160.906 377.215 162.342 383.135 165.113 388.462C167.885 393.789 171.909 398.363 176.84 401.79C172.412 404.648 168.766 408.565 166.232 413.187C163.699 417.809 162.357 422.989 162.33 428.26L161.33 588.78C161.297 592.955 162.088 597.096 163.658 600.965C165.227 604.835 167.545 608.356 170.477 611.329C173.409 614.301 176.899 616.666 180.747 618.288C184.595 619.91 188.725 620.757 192.9 620.78L358.54 621.78C362.715 621.812 366.855 621.02 370.724 619.45C374.593 617.88 378.114 615.562 381.086 612.63C384.058 609.698 386.423 606.208 388.045 602.361C389.667 598.514 390.515 594.385 390.54 590.21L391.54 429.7C391.57 424.413 390.279 419.202 387.785 414.539C385.292 409.877 381.674 405.911 377.26 403C382.233 399.636 386.313 395.113 389.148 389.82C391.983 384.527 393.486 378.624 393.53 372.62Z" fill="#FFCB77"/>
<path d="M361.19 413.665L192.673 412.636C184.383 412.585 177.622 419.264 177.571 427.554L176.581 589.711C176.53 598.001 183.209 604.762 191.499 604.812L360.016 605.842C368.305 605.892 375.066 599.213 375.117 590.924L376.108 428.767C376.158 420.477 369.479 413.716 361.19 413.665Z" fill="#FFCB77"/>
<path d="M351.171 334.848L202.324 333.939C184.767 333.831 170.447 347.977 170.34 365.534C170.233 383.091 184.379 397.41 201.935 397.517L350.783 398.427C368.339 398.534 382.659 384.388 382.766 366.831C382.873 349.275 368.728 334.955 351.171 334.848Z" fill="#FFCB77"/>
<path d="M345.517 386.183L207.35 385.339C198.342 385.284 190.995 392.541 190.94 401.549L190.89 409.729C190.835 418.736 198.093 426.083 207.101 426.138L345.268 426.982C354.276 427.037 361.622 419.78 361.677 410.772L361.727 402.592C361.782 393.585 354.525 386.238 345.517 386.183Z" fill="#FFCB77"/>
<path d="M381.52 372.62L381.58 362.11C381.612 352.301 377.761 342.879 370.867 335.901C363.974 328.923 354.598 324.957 344.79 324.87L186.18 323.87C176.37 323.843 166.948 327.697 159.969 334.592C152.991 341.486 149.022 350.861 148.93 360.67L148.87 371.17C148.84 377.175 150.272 383.097 153.042 388.424C155.812 393.752 159.837 398.326 164.77 401.75C160.345 404.611 156.701 408.529 154.168 413.15C151.635 417.771 150.292 422.95 150.26 428.22L149.26 588.74C149.227 592.915 150.018 597.056 151.588 600.925C153.157 604.795 155.475 608.316 158.407 611.289C161.339 614.261 164.829 616.626 168.677 618.248C172.525 619.869 176.655 620.716 180.83 620.74L346.47 621.74C350.645 621.772 354.785 620.98 358.654 619.41C362.523 617.84 366.044 615.522 369.016 612.59C371.988 609.658 374.353 606.168 375.975 602.321C377.597 598.474 378.445 594.345 378.47 590.17L379.47 429.66C379.499 424.385 378.215 419.186 375.732 414.531C373.25 409.877 369.647 405.914 365.25 403C370.219 399.632 374.296 395.107 377.13 389.816C379.964 384.524 381.471 378.623 381.52 372.62Z" fill="#FFCB77"/>
<path d="M349.17 413.662L180.653 412.632C172.363 412.582 165.602 419.261 165.552 427.551L164.561 589.707C164.51 597.997 171.189 604.758 179.479 604.809L347.996 605.838C356.286 605.889 363.047 599.21 363.097 590.92L364.088 428.763C364.139 420.474 357.46 413.713 349.17 413.662Z" fill="#FFCB77"/>
<path d="M339.161 334.844L190.314 333.935C172.757 333.828 158.438 347.974 158.33 365.53C158.223 383.087 172.369 397.407 189.926 397.514L338.773 398.423C356.33 398.531 370.649 384.385 370.756 366.828C370.864 349.271 356.718 334.952 339.161 334.844Z" fill="#FFCB77"/>
<path d="M333.507 386.179L195.34 385.335C186.332 385.28 178.986 392.538 178.931 401.545L178.881 409.725C178.826 418.733 186.083 426.08 195.091 426.135L333.258 426.979C342.266 427.034 349.612 419.776 349.667 410.769L349.717 402.589C349.772 393.581 342.515 386.234 333.507 386.179Z" fill="#FFCB77"/>
<path d="M370.51 372.62L370.57 362.11C370.602 352.301 366.751 342.879 359.857 335.901C352.963 328.923 343.588 324.957 333.78 324.87L175.16 323.87C165.351 323.843 155.93 327.698 148.953 334.592C141.976 341.487 138.01 350.862 137.92 360.67L137.86 371.17C137.83 377.175 139.262 383.097 142.032 388.424C144.802 393.752 148.827 398.326 153.76 401.75C149.335 404.611 145.691 408.529 143.158 413.15C140.625 417.771 139.282 422.95 139.25 428.22L138.25 588.74C138.218 592.916 139.011 597.057 140.581 600.926C142.152 604.795 144.47 608.317 147.403 611.289C150.337 614.262 153.827 616.626 157.676 618.248C161.524 619.87 165.654 620.716 169.83 620.74L335.47 621.74C339.645 621.772 343.785 620.98 347.654 619.41C351.523 617.84 355.044 615.522 358.016 612.59C360.988 609.658 363.353 606.168 364.975 602.321C366.597 598.474 367.445 594.345 367.47 590.17L368.47 429.66C368.501 424.384 367.216 419.183 364.731 414.528C362.247 409.873 358.641 405.911 354.24 403C359.209 399.632 363.286 395.107 366.12 389.816C368.954 384.524 370.461 378.623 370.51 372.62Z" fill="#FFCB77"/>
<path d="M338.16 413.665L169.643 412.635C161.353 412.585 154.592 419.264 154.542 427.553L153.551 589.71C153.501 598 160.18 604.761 168.469 604.812L336.986 605.841C345.276 605.892 352.037 599.213 352.087 590.923L353.078 428.766C353.129 420.476 346.45 413.715 338.16 413.665Z" fill="#FFCB77"/>
<path d="M328.151 334.847L179.304 333.938C161.747 333.831 147.428 347.976 147.32 365.533C147.213 383.09 161.359 397.41 178.916 397.517L327.763 398.426C345.32 398.533 359.639 384.388 359.746 366.831C359.854 349.274 345.708 334.954 328.151 334.847Z" fill="#FFCB77"/>
<path d="M322.498 386.182L184.33 385.338C175.323 385.283 167.976 392.541 167.921 401.548L167.871 409.728C167.816 418.736 175.073 426.082 184.081 426.137L322.248 426.981C331.256 427.036 338.603 419.779 338.658 410.771L338.708 402.592C338.763 393.584 331.505 386.237 322.498 386.182Z" fill="#FFCB77"/>
<path d="M359.77 372.62L359.83 362.11C359.859 352.295 356.002 342.868 349.1 335.89C342.198 328.911 332.814 324.949 323 324.87L164.39 323.87C154.58 323.841 145.158 327.694 138.18 334.589C131.203 341.485 127.237 350.861 127.15 360.67L127.09 371.17C127.054 377.182 128.485 383.113 131.257 388.448C134.029 393.784 138.06 398.363 143 401.79C138.575 404.651 134.931 408.569 132.398 413.19C129.865 417.811 128.522 422.99 128.49 428.26L127.49 588.78C127.458 592.955 128.25 597.095 129.82 600.964C131.39 604.833 133.708 608.354 136.64 611.326C139.572 614.298 143.062 616.663 146.909 618.285C150.756 619.907 154.885 620.755 159.06 620.78L324.71 621.78C328.881 621.806 333.017 621.01 336.88 619.438C340.744 617.865 344.259 615.547 347.226 612.615C350.194 609.683 352.554 606.196 354.173 602.351C355.791 598.507 356.636 594.381 356.66 590.21L357.66 429.7C357.706 424.422 356.434 419.216 353.96 414.554C351.486 409.891 347.887 405.92 343.49 403C348.462 399.634 352.541 395.11 355.377 389.818C358.213 384.526 359.72 378.624 359.77 372.62Z" fill="#FFCB77"/>
<path d="M327.42 413.659L158.903 412.63C150.614 412.579 143.853 419.258 143.802 427.548L142.811 589.705C142.761 597.994 149.44 604.755 157.729 604.806L326.246 605.835C334.536 605.886 341.297 599.207 341.348 590.917L342.338 428.76C342.389 420.471 335.71 413.71 327.42 413.659Z" fill="#FFCB77"/>
<path d="M317.412 334.842L168.564 333.932C151.007 333.825 136.688 347.971 136.581 365.528C136.473 383.084 150.619 397.404 168.176 397.511L317.023 398.42C334.58 398.528 348.899 384.382 349.007 366.825C349.114 349.268 334.968 334.949 317.412 334.842Z" fill="#FFCB77"/>
<path d="M311.748 386.177L173.58 385.332C164.573 385.277 157.226 392.535 157.171 401.543L157.121 409.722C157.066 418.73 164.324 426.077 173.331 426.132L311.499 426.976C320.506 427.031 327.853 419.773 327.908 410.766L327.958 402.586C328.013 393.578 320.755 386.232 311.748 386.177Z" fill="#FFCB77"/>
<path d="M341.53 372.62L341.59 362.11C341.622 352.301 337.771 342.879 330.877 335.901C323.984 328.923 314.608 324.957 304.8 324.87L146.19 323.87C136.38 323.843 126.958 327.697 119.979 334.592C113.001 341.486 109.032 350.861 108.94 360.67L108.88 371.17C108.85 377.175 110.282 383.097 113.052 388.424C115.822 393.752 119.847 398.326 124.78 401.75C120.355 404.611 116.711 408.529 114.178 413.15C111.645 417.771 110.302 422.95 110.27 428.22L109.27 588.74C109.237 592.915 110.028 597.056 111.598 600.925C113.167 604.795 115.485 608.316 118.417 611.289C121.349 614.261 124.839 616.626 128.687 618.248C132.535 619.869 136.665 620.716 140.84 620.74L306.48 621.74C310.655 621.772 314.795 620.98 318.664 619.41C322.533 617.84 326.054 615.522 329.026 612.59C331.998 609.658 334.363 606.168 335.985 602.321C337.607 598.474 338.455 594.345 338.48 590.17L339.48 429.66C339.509 424.385 338.225 419.186 335.742 414.531C333.26 409.877 329.657 405.914 325.26 403C330.229 399.632 334.306 395.107 337.14 389.816C339.974 384.524 341.481 378.623 341.53 372.62Z" fill="#FFCB77"/>
<path d="M309.181 413.658L140.664 412.628C132.374 412.578 125.613 419.257 125.562 427.546L124.572 589.703C124.521 597.993 131.2 604.754 139.49 604.805L308.007 605.834C316.296 605.885 323.057 599.206 323.108 590.916L324.099 428.759C324.149 420.469 317.47 413.708 309.181 413.658Z" fill="#FFCB77"/>
<path d="M299.162 334.84L150.315 333.931C132.758 333.824 118.438 347.969 118.331 365.526C118.224 383.083 132.369 397.403 149.926 397.51L298.774 398.419C316.33 398.526 330.65 384.381 330.757 366.824C330.864 349.267 316.719 334.947 299.162 334.84Z" fill="#FFCB77"/>
<path d="M293.518 386.175L155.351 385.331C146.343 385.276 138.996 392.534 138.941 401.541L138.891 409.721C138.836 418.729 146.094 426.075 155.101 426.13L293.269 426.974C302.277 427.029 309.623 419.772 309.678 410.764L309.728 402.584C309.783 393.577 302.526 386.23 293.518 386.175Z" fill="#FFCB77"/>
<path d="M333.79 372.62L333.86 362.11C333.889 352.3 330.036 342.878 323.141 335.9C316.245 328.923 306.869 324.957 297.06 324.87L138.45 323.87C128.64 323.841 119.218 327.694 112.24 334.589C105.263 341.485 101.297 350.861 101.21 360.67L101.14 371.17C101.116 377.175 102.552 383.095 105.323 388.422C108.095 393.749 112.119 398.323 117.05 401.75C112.623 404.61 108.979 408.528 106.446 413.149C103.912 417.77 102.57 422.95 102.54 428.22L101.54 588.74C101.507 592.915 102.298 597.056 103.868 600.925C105.437 604.795 107.754 608.316 110.687 611.289C113.619 614.261 117.109 616.626 120.957 618.248C124.805 619.869 128.935 620.716 133.11 620.74L298.76 621.74C302.931 621.766 307.067 620.97 310.93 619.398C314.794 617.825 318.309 615.507 321.276 612.575C324.243 609.643 326.604 606.156 328.222 602.311C329.841 598.467 330.686 594.341 330.71 590.17L331.71 429.66C331.747 424.387 330.469 419.188 327.991 414.533C325.514 409.878 321.915 405.914 317.52 403C322.493 399.636 326.573 395.113 329.408 389.82C332.242 384.527 333.746 378.624 333.79 372.62Z" fill="#FFCB77"/>
<path d="M301.451 413.66L132.934 412.631C124.644 412.58 117.883 419.259 117.833 427.549L116.842 589.706C116.791 597.996 123.47 604.757 131.76 604.807L300.277 605.837C308.566 605.887 315.328 599.208 315.378 590.919L316.369 428.762C316.419 420.472 309.74 413.711 301.451 413.66Z" fill="#FFCB77"/>
<path d="M291.422 334.843L142.575 333.934C125.018 333.826 110.698 347.972 110.591 365.529C110.484 383.086 124.63 397.405 142.186 397.513L291.034 398.422C308.59 398.529 322.91 384.383 323.017 366.827C323.124 349.27 308.979 334.95 291.422 334.843Z" fill="#FFCB77"/>
<path d="M285.778 386.178L147.611 385.334C138.603 385.279 131.257 392.536 131.202 401.544L131.152 409.724C131.097 418.731 138.354 426.078 147.362 426.133L285.529 426.977C294.537 427.032 301.883 419.775 301.938 410.767L301.988 402.587C302.043 393.58 294.786 386.233 285.778 386.178Z" fill="#FFCB77"/>
<path d="M324.07 372.62L324.13 362.11C324.162 352.301 320.311 342.879 313.417 335.901C306.524 328.923 297.148 324.957 287.34 324.87L128.73 323.87C118.92 323.843 109.498 327.697 102.519 334.592C95.5409 341.486 91.5724 350.861 91.48 360.67L91.42 371.17C91.3899 377.175 92.8217 383.097 95.5918 388.424C98.362 393.752 102.387 398.326 107.32 401.75C102.895 404.611 99.2512 408.529 96.7181 413.15C94.185 417.771 92.8419 422.95 92.81 428.22L91.81 588.74C91.7784 592.916 92.5706 597.057 94.1413 600.926C95.712 604.795 98.0303 608.317 100.964 611.289C103.897 614.262 107.387 616.626 111.236 618.248C115.084 619.87 119.214 620.716 123.39 620.74L289.03 621.74C293.205 621.772 297.345 620.98 301.214 619.41C305.083 617.84 308.604 615.522 311.576 612.59C314.548 609.658 316.913 606.168 318.535 602.321C320.157 598.474 321.005 594.345 321.03 590.17L322.03 429.66C322.058 424.384 320.772 419.184 318.288 414.53C315.804 409.875 312.199 405.913 307.8 403C312.769 399.632 316.846 395.107 319.68 389.816C322.514 384.524 324.021 378.623 324.07 372.62Z" fill="#FFCB77"/>
<path d="M291.721 413.661L123.204 412.631C114.914 412.581 108.153 419.26 108.103 427.55L107.112 589.706C107.061 597.996 113.74 604.757 122.03 604.808L290.547 605.837C298.837 605.888 305.598 599.209 305.648 590.919L306.639 428.762C306.69 420.473 300.011 413.712 291.721 413.661Z" fill="#FFCB77"/>
<path d="M281.702 334.844L132.855 333.934C115.298 333.827 100.979 347.973 100.871 365.53C100.764 383.086 114.91 397.406 132.467 397.513L281.314 398.422C298.871 398.53 313.19 384.384 313.297 366.827C313.405 349.27 299.259 334.951 281.702 334.844Z" fill="#FFCB77"/>
<path d="M276.059 386.179L137.891 385.334C128.884 385.279 121.537 392.537 121.482 401.545L121.432 409.724C121.377 418.732 128.634 426.079 137.642 426.134L275.809 426.978C284.817 427.033 292.164 419.775 292.219 410.768L292.269 402.588C292.324 393.58 285.066 386.234 276.059 386.179Z" fill="#FFCB77"/>
<path d="M314.34 372.62L314.41 362.11C314.439 352.3 310.586 342.878 303.691 335.9C296.795 328.923 287.419 324.957 277.61 324.87L119 323.87C109.19 323.841 99.7677 327.694 92.7901 334.589C85.8125 341.485 81.8471 350.861 81.7599 360.67L81.6999 371.17C81.6698 377.175 83.1016 383.097 85.8717 388.424C88.6419 393.752 92.6671 398.326 97.5999 401.75C93.1746 404.611 89.5311 408.529 86.998 413.15C84.4649 417.771 83.1218 422.95 83.0899 428.22L82.0899 588.74C82.057 592.915 82.848 597.056 84.4175 600.925C85.9871 604.795 88.3045 608.316 91.237 611.289C94.1694 614.261 97.6594 616.626 101.507 618.248C105.355 619.869 109.485 620.716 113.66 620.74L279.31 621.74C283.485 621.773 287.626 620.982 291.495 619.412C295.365 617.843 298.886 615.525 301.859 612.593C304.831 609.66 307.196 606.171 308.818 602.323C310.439 598.475 311.286 594.345 311.31 590.17L312.31 429.66C312.342 424.382 311.056 419.18 308.569 414.525C306.083 409.87 302.474 405.908 298.07 403C303.043 399.636 307.123 395.113 309.958 389.82C312.792 384.527 314.296 378.624 314.34 372.62Z" fill="#FFCB77"/>
<path d="M282.001 413.662L113.484 412.632C105.195 412.582 98.4334 419.261 98.3828 427.55L97.3922 589.707C97.3416 597.997 104.021 604.758 112.31 604.809L280.827 605.838C289.117 605.889 295.878 599.21 295.929 590.92L296.919 428.763C296.97 420.473 290.291 413.712 282.001 413.662Z" fill="#FED385"/>
<path d="M271.972 334.834L123.125 333.925C105.568 333.818 91.2488 347.963 91.1415 365.52C91.0343 383.077 105.18 397.396 122.737 397.504L271.584 398.413C289.141 398.52 303.46 384.375 303.568 366.818C303.675 349.261 289.529 334.941 271.972 334.834Z" fill="#FED385"/>
<path d="M266.329 386.179L128.161 385.335C119.154 385.28 111.807 392.538 111.752 401.545L111.702 409.725C111.647 418.733 118.904 426.079 127.912 426.134L266.079 426.978C275.087 427.033 282.434 419.776 282.489 410.768L282.539 402.588C282.594 393.581 275.336 386.234 266.329 386.179Z" fill="#FED385"/>
<path d="M232.7 360.14L231.62 349.69C230.578 339.941 225.722 330.999 218.112 324.817C210.502 318.634 200.756 315.713 191 316.69L33.22 332.94C23.4707 333.982 14.5292 338.838 8.34673 346.448C2.16431 354.058 -0.757121 363.804 0.219978 373.56L1.26998 384C1.89709 389.972 3.96581 395.703 7.29816 400.699C10.6305 405.695 15.1267 409.807 20.4 412.68C16.3111 416.004 13.1149 420.295 11.1001 425.164C9.08528 430.034 8.3154 435.328 8.85998 440.57L25.33 600.24C25.7571 604.389 26.9975 608.414 28.9801 612.083C30.9627 615.753 33.6488 618.997 36.885 621.628C40.1212 624.26 43.8441 626.228 47.841 627.421C51.838 628.614 56.0308 629.008 60.18 628.58L224.95 611.58C229.099 611.153 233.124 609.913 236.794 607.93C240.463 605.947 243.707 603.261 246.338 600.025C248.97 596.789 250.938 593.066 252.131 589.069C253.324 585.072 253.718 580.879 253.29 576.73L236.82 417.06C236.282 411.816 234.446 406.79 231.478 402.434C228.51 398.077 224.503 394.529 219.82 392.11C224.397 388.224 227.96 383.283 230.204 377.714C232.448 372.145 233.304 366.114 232.7 360.14Z" fill="#FFCB77"/>
<path d="M205.03 404.415L37.3993 421.708C29.1532 422.559 23.1581 429.933 24.0088 438.179L40.6495 599.483C41.5002 607.729 48.8745 613.725 57.1206 612.874L224.751 595.58C232.997 594.73 238.992 587.355 238.141 579.109L221.501 417.806C220.65 409.559 213.276 403.564 205.03 404.415Z" fill="#FED385"/>
<path d="M186.505 327.159L38.4413 342.434C20.9768 344.236 8.27965 359.854 10.0813 377.319C11.883 394.783 27.5013 407.48 44.9658 405.679L193.03 390.404C210.494 388.602 223.192 372.984 221.39 355.519C219.588 338.055 203.97 325.358 186.505 327.159Z" fill="#FED385"/>
<path d="M186.463 378.816L49.0225 392.995C40.0623 393.92 33.5479 401.933 34.4723 410.893L35.3117 419.03C36.2361 427.99 44.2491 434.504 53.2093 433.58L190.65 419.401C199.61 418.477 206.124 410.464 205.2 401.504L204.361 393.367C203.436 384.406 195.423 377.892 186.463 378.816Z" fill="#FED385"/>
<path d="M522.4 164.45H358.4L396.81 107.1H560.63L522.4 164.45Z" fill="#17C3B2"/>
<path d="M522.4 644.45L358.4 622.95V164.45H522.4V644.45Z" fill="#17C3B2"/>
<path d="M483 107.1H560.63V72.35C560.631 70.7935 560.326 69.252 559.731 67.8136C559.136 66.3753 558.263 65.0685 557.162 63.9679C556.061 62.8672 554.755 61.9944 553.316 61.3994C551.878 60.8043 550.337 60.4987 548.78 60.5H408.66C405.517 60.5 402.503 61.7485 400.281 63.9708C398.058 66.1931 396.81 69.2072 396.81 72.35V107.1H418.6" fill="#17C3B2"/>
<path d="M482.5 101.5L489.36 127.07C491.82 136.21 478.47 147.75 459.54 152.84C440.61 157.93 423.28 154.65 420.82 145.51L413.82 119.51" fill="#FFCB77"/>
<path d="M589.69 605.96L522.4 644.45V164.45L591.05 164.95L589.69 605.96Z" fill="#227C9D"/>
<path d="M452.54 126.826C471.467 121.733 484.817 110.194 482.358 101.053C479.898 91.9122 462.561 88.6305 443.633 93.7233C424.706 98.8161 411.356 110.355 413.816 119.496C416.275 128.637 433.613 131.919 452.54 126.826Z" fill="#FFD98E"/>
<path d="M560.63 107.1L522.4 164.45L591.05 164.95L560.63 107.1Z" fill="#227C9D"/>
<path d="M497 296.34L382.39 295.22C380.214 295.202 378.134 294.324 376.602 292.779C375.069 291.234 374.21 289.146 374.21 286.97V193.34C374.211 192.249 374.428 191.17 374.849 190.164C375.27 189.157 375.886 188.244 376.661 187.477C377.436 186.71 378.356 186.104 379.367 185.695C380.378 185.285 381.459 185.079 382.55 185.09L497.16 186.2C499.336 186.224 501.415 187.104 502.946 188.65C504.477 190.196 505.337 192.284 505.34 194.46V288.08C505.339 289.171 505.121 290.251 504.701 291.258C504.28 292.265 503.665 293.178 502.889 293.946C502.114 294.714 501.195 295.321 500.184 295.732C499.173 296.142 498.091 296.349 497 296.34Z" fill="#227C9D"/>
<path d="M709.37 414.38H579.67V447.7H709.37V414.38Z" fill="#FE6D73"/>
<path d="M699.62 424.53H589.4C561.289 424.53 538.5 447.319 538.5 475.43V591.51C538.5 619.621 561.289 642.41 589.4 642.41H699.62C727.731 642.41 750.52 619.621 750.52 591.51V475.43C750.52 447.319 727.731 424.53 699.62 424.53Z" fill="#FE6D73"/>
<path d="M718.21 381.43H570.82C562.751 381.43 556.21 387.971 556.21 396.04V405.09C556.21 413.159 562.751 419.7 570.82 419.7H718.21C726.279 419.7 732.82 413.159 732.82 405.09V396.04C732.82 387.971 726.279 381.43 718.21 381.43Z" fill="#FFD98E"/>
<path d="M538.5 591.51H750.53" stroke="#FFD98E" stroke-width="8.52" stroke-miterlimit="10"/>
<path d="M538.5 473.07H750.53" stroke="#FFD98E" stroke-width="8.52" stroke-miterlimit="10"/>
<path d="M644.51 576.65C668.358 576.65 687.69 557.318 687.69 533.47C687.69 509.622 668.358 490.29 644.51 490.29C620.662 490.29 601.33 509.622 601.33 533.47C601.33 557.318 620.662 576.65 644.51 576.65Z" fill="#17C3B2"/>
<path d="M404.42 365.12H243.85V660.49H404.42V365.12Z" fill="#EFEFEF"/>
<path d="M324.13 378.9C368.467 378.9 404.41 372.525 404.41 364.66C404.41 356.795 368.467 350.42 324.13 350.42C279.793 350.42 243.85 356.795 243.85 364.66C243.85 372.525 279.793 378.9 324.13 378.9Z" fill="#E5E5E5"/>
<path d="M374.92 432.24C365.58 432.24 360.82 417.83 343.3 417.83C313.11 417.83 319.07 432.24 276.95 432.24H273.35C271.614 432.239 269.896 432.579 268.292 433.243C266.688 433.906 265.23 434.879 264.003 436.106C262.775 437.332 261.801 438.789 261.137 440.392C260.472 441.996 260.13 443.714 260.13 445.45V629.65C260.133 633.154 261.527 636.514 264.006 638.991C266.485 641.469 269.846 642.86 273.35 642.86H374.92C378.424 642.86 381.784 641.468 384.261 638.991C386.738 636.514 388.13 633.154 388.13 629.65V445.45C388.131 443.715 387.791 441.996 387.127 440.393C386.464 438.79 385.491 437.333 384.264 436.106C383.037 434.879 381.58 433.906 379.977 433.243C378.374 432.579 376.655 432.239 374.92 432.24Z" fill="#FE6D73"/>
<path d="M635.67 347.67C644.286 347.67 651.27 340.686 651.27 332.07C651.27 323.454 644.286 316.47 635.67 316.47C627.054 316.47 620.07 323.454 620.07 332.07C620.07 340.686 627.054 347.67 635.67 347.67Z" fill="#FFCB77"/>
<path d="M671.34 316.47C677.465 316.47 682.43 311.505 682.43 305.38C682.43 299.255 677.465 294.29 671.34 294.29C665.215 294.29 660.25 299.255 660.25 305.38C660.25 311.505 665.215 316.47 671.34 316.47Z" fill="#FFCB77"/>
<path d="M677.33 344.04C680.638 344.04 683.32 341.358 683.32 338.05C683.32 334.742 680.638 332.06 677.33 332.06C674.022 332.06 671.34 334.742 671.34 338.05C671.34 341.358 674.022 344.04 677.33 344.04Z" fill="#FFCB77"/>
<path d="M256.65 221.41C263.719 221.41 269.45 215.679 269.45 208.61C269.45 201.541 263.719 195.81 256.65 195.81C249.581 195.81 243.85 201.541 243.85 208.61C243.85 215.679 249.581 221.41 256.65 221.41Z" fill="#227C9D"/>
<path d="M276.99 251.35C281.16 251.35 284.54 247.97 284.54 243.8C284.54 239.63 281.16 236.25 276.99 236.25C272.82 236.25 269.44 239.63 269.44 243.8C269.44 247.97 272.82 251.35 276.99 251.35Z" fill="#17C3B2"/>
</g>
<defs>
<clipPath id="clip0">
<rect width="758.79" height="660.49" fill="white"/>
</clipPath>
</defs>
</svg>
