<svg width="754" height="540" viewBox="0 0 754 540" fill="none" xmlns="http://www.w3.org/2000/svg">
<path d="M626.72 198.413C747 336.179 766.298 354 747 421.5C702.686 576.5 61.7205 550.5 61.7205 294.5C61.7205 183.767 88 63.1568 305.22 63.1568C466.073 63.1568 497.506 50.4131 626.72 198.413Z" fill="#F9F9F9"/>
<g clip-path="url(#clip0)">
<path d="M320.11 461.9C354.965 461.9 383.22 455.654 383.22 447.95C383.22 440.246 354.965 434 320.11 434C285.255 434 257 440.246 257 447.95C257 455.654 285.255 461.9 320.11 461.9Z" fill="black"/>
<path d="M320.11 447.95L284.65 558.89" stroke="black" stroke-width="4" stroke-miterlimit="10" stroke-linecap="round"/>
<path d="M320.11 447.95L355.56 558.89" stroke="black" stroke-width="4" stroke-miterlimit="10" stroke-linecap="round"/>
<path d="M296.29 522.47L335.82 497.13" stroke="black" stroke-width="2" stroke-miterlimit="10" stroke-linecap="round"/>
<path d="M304.24 497.13L343.76 522.47" stroke="black" stroke-width="2" stroke-miterlimit="10" stroke-linecap="round"/>
<path d="M525.659 387.94C526.499 392.94 540.759 507.25 543.069 509.14C545.379 511.03 569.909 515.22 572.009 512.07C572.429 507.07 573.009 427.36 574.309 420.23" fill="#1F161E"/>
<path d="M249.76 364.09C239.87 359.21 260.49 455.75 314.76 455.75C369.03 455.75 460.38 373.08 475.17 373.08C507.82 373.08 585.11 437.19 591.17 437.19C595.81 432.55 605.09 424.43 605.09 421.24C605.09 418.05 531.09 296.24 475.72 296.24C454.25 296.22 272.09 375.12 249.76 364.09Z" fill="#227C9D"/>
<path d="M276 176.5C277.75 173 297.5 173.5 297.5 173.5C297.5 173.5 302.633 194.944 296 201C289.944 206.53 269 206 274 196.5C279 187 274.25 180 276 176.5Z" fill="#4E2E11"/>
<path d="M280.3 365.73C291.15 363.27 304.65 356.9 316.6 350.38C284.09 361 257.45 367.89 249.76 364.09C244.52 361.51 247.84 387.35 260.16 412.24C257.93 407.42 254.75 371.52 280.3 365.73Z" fill="#1F161E"/>
<path d="M368.431 206.953L368.431 206.953C369.506 207.961 370.925 210.264 372.6 213.666C374.263 217.044 376.147 221.437 378.167 226.558C382.207 236.798 386.781 249.922 391.207 263.597C399.981 290.709 408.157 319.933 410.445 333.122C407.976 334.421 404.05 337.12 399.011 340.592L398.746 340.774C393.504 344.385 387.044 348.835 379.683 353.492C364.708 362.964 346.028 373.273 326.348 379.082C306.667 384.891 286.035 386.185 267.113 377.696C248.213 369.217 230.925 350.934 217.996 317.397C217.97 316.783 217.942 316.152 217.914 315.506C216.919 292.594 215.051 249.569 242.157 204.458C244.651 202.86 249.07 201.532 254.512 200.455C260 199.369 266.457 198.551 272.863 197.949C285.679 196.744 298.251 196.41 302.405 196.519C303.413 196.546 304.9 196.552 306.762 196.56C312.996 196.586 323.434 196.63 334.163 197.519C341.126 198.097 348.188 199.029 354.274 200.539C360.378 202.053 365.427 204.131 368.431 206.953Z" fill="#39393A" stroke="#39393A"/>
<path d="M324 175H298V202.95C298 209.95 324 209.89 324 202.95V175Z" fill="#F8CDBA"/>
<path d="M354 180C354.649 176.384 354.977 172.694 354.978 168.994C354.978 141.386 337.078 119 314.978 119C292.878 119 274.978 141.386 274.978 168.994C274.978 172.694 275.351 178.384 276 182L354 180Z" fill="#4E2E11"/>
<path d="M320.5 176L354 180C354 180 348.684 190.116 351 199.5C352.36 205.011 359.172 209.756 357 215C354.171 221.829 346 228.5 340 221C334 213.5 325 223 320 219C315 215 322.349 194.216 320.5 176Z" fill="#4E2E11"/>
<path d="M340.337 151.063C337.811 148.722 335.055 141.282 332.025 139C314.756 151.887 297.906 153.729 297.055 154.581C290.532 161.115 291.025 163.126 291.025 163.126V169.157C291.025 172.173 290.656 172.788 292.748 175.938C294.841 179.088 296.34 181.475 299.5 183.5C302.66 185.525 307.412 187.145 311.106 187.703C314.799 188.261 318.565 188.031 322.167 187.028C325.768 186.025 329.125 184.27 332.025 181.875C334.925 179.48 337.305 176.497 339.014 173.115C340.722 169.733 341.722 166.027 341.95 162.23C342.177 158.434 341.628 154.631 340.337 151.063C339.662 151.148 341.012 151.148 340.337 151.063Z" fill="#F8CDBA"/>
<path d="M326 157C327.31 158.75 330.68 161.81 326 165.06" stroke="#1F161E" stroke-miterlimit="10" stroke-linecap="round"/>
<path d="M317 173.457C317.566 174.638 319.425 177.219 322.309 176.734" stroke="#1F161E" stroke-miterlimit="10" stroke-linecap="round"/>
<path d="M310.04 167.28C312.315 167.28 314.16 166.322 314.16 165.14C314.16 163.958 312.315 163 310.04 163C307.764 163 305.92 163.958 305.92 165.14C305.92 166.322 307.764 167.28 310.04 167.28Z" fill="#FE6D73"/>
<path d="M340.67 167.28C342.945 167.28 344.79 166.322 344.79 165.14C344.79 163.958 342.945 163 340.67 163C338.394 163 336.55 163.958 336.55 165.14C336.55 166.322 338.394 167.28 340.67 167.28Z" fill="#FE6D73"/>
<path d="M271.1 266.65C271.1 270.01 268.27 282.8 266.6 288.81" stroke="#1F161E" stroke-miterlimit="10" stroke-linecap="round"/>
<path d="M368.54 273.64C367.87 268.35 363.95 238.54 357.28 222.85" stroke="#1F161E" stroke-miterlimit="10" stroke-linecap="round"/>
<path d="M591.999 434.83C592.619 435.78 600.899 445.98 603.829 446.1C606.759 446.22 624.549 434.16 623.769 431.57C622.989 428.98 611.829 430.66 609.909 429.76C607.989 428.86 603.719 424.58 603.039 422.67" fill="#1F161E"/>
<path d="M548.249 510.2C548.039 511.31 546.909 524.4 548.939 526.52C550.969 528.64 572.139 532.32 573.369 529.91C574.599 527.5 565.369 520.97 564.659 518.99C563.949 517.01 563.799 510.99 564.659 509.11" fill="#1F161E"/>
<path d="M369.82 317.6C372.52 316.96 374.88 316.34 376.82 315.74C382.93 313.74 387.46 308.49 390.17 307.82C393.643 307.232 397.211 307.945 400.191 309.823C403.171 311.702 405.353 314.613 406.32 318" stroke="#1F161E" stroke-miterlimit="10" stroke-linecap="round"/>
<path d="M437 318H343V322H437V318Z" fill="#969696"/>
<path d="M517.059 322.41H422.889L445.309 263H539.479L517.059 322.41Z" fill="#969696"/>
<path d="M482.66 300.32C485.786 300.32 488.32 297.786 488.32 294.66C488.32 291.534 485.786 289 482.66 289C479.534 289 477 291.534 477 294.66C477 297.786 479.534 300.32 482.66 300.32Z" fill="white"/>
<path d="M390.49 295C383.97 295 378.59 296.55 363.83 299.45L363.06 327.69C377.06 322.05 380.31 314.21 384.37 314.21C394.51 314.21 399.81 319.44 405.8 319.44C409.98 319.44 417.5 316.16 417.5 311.7C417.5 302.36 398.57 295 390.49 295Z" fill="#F8CDBA"/>
<path d="M217 291C217 337.09 217.43 350.46 235.93 350.46C278.57 350.46 343.03 315.46 354.52 315.46C364.67 315.46 369.97 320.7 375.96 320.7C380.13 320.7 387.65 317.41 387.65 312.96C387.65 303.61 368.72 296.25 360.65 296.25C342.48 296.25 269.97 313.77 268.2 313.77C266.43 313.77 263.45 313 263.45 310.02C263.45 304.61 262.99 292.09 263.45 291H217Z" fill="#F8CDBA"/>
<path d="M481.66 115H388.34C385.391 115 383 117.454 383 120.481V167.664C383 170.691 385.391 173.145 388.34 173.145H481.66C484.609 173.145 487 170.691 487 167.664V120.481C487 117.454 484.609 115 481.66 115Z" fill="#17C3B2"/>
<path fill-rule="evenodd" clip-rule="evenodd" d="M388.345 115H443.17V173.145H407.24L394.835 182V173.145H388.345C386.928 173.142 385.571 172.563 384.569 171.535C383.567 170.507 383.003 169.113 383 167.66V120.485C383.003 119.032 383.567 117.638 384.569 116.61C385.571 115.582 386.928 115.003 388.345 115Z" fill="#FE6D73"/>
<path d="M486.955 119.78C486.785 118.46 486.155 117.248 485.18 116.368C484.206 115.489 482.953 115.003 481.656 115H388.346C387.048 115.003 385.796 115.489 384.821 116.368C383.846 117.248 383.216 118.46 383.046 119.78H486.955Z" fill="#227C9D"/>
<path d="M392.392 139.371H433.778" stroke="#F9F9F9" stroke-width="2" stroke-miterlimit="10" stroke-linecap="round"/>
<path d="M392.392 146.423H433.778" stroke="#F9F9F9" stroke-width="2" stroke-miterlimit="10" stroke-linecap="round"/>
<path d="M392.392 153.476H433.778" stroke="#F9F9F9" stroke-width="2" stroke-miterlimit="10" stroke-linecap="round"/>
<path d="M392.392 160.529H433.778" stroke="#F9F9F9" stroke-width="2" stroke-miterlimit="10" stroke-linecap="round"/>
<path d="M430.647 133.885C432.967 133.885 434.847 131.956 434.847 129.575C434.847 127.195 432.967 125.266 430.647 125.266C428.328 125.266 426.448 127.195 426.448 129.575C426.448 131.956 428.328 133.885 430.647 133.885Z" fill="#F9F9F9"/>
<g clip-path="url(#clip1)">
<path d="M513.51 192H477C470.373 192 465 197.373 465 204V221.81C465 228.437 470.373 233.81 477 233.81H513.51C520.137 233.81 525.51 228.437 525.51 221.81V204C525.51 197.373 520.137 192 513.51 192Z" fill="#FFCB77"/>
<path d="M486.62 198.73H477.52V227.08H486.62V198.73Z" fill="#F9F9F9"/>
<path d="M499.81 217.58H490.71V227.08H499.81V217.58Z" fill="#F9F9F9"/>
<path d="M512.99 209.59H503.89V227.08H512.99V209.59Z" fill="#F9F9F9"/>
</g>
</g>
<path d="M576.441 131.991C580.938 137.146 583.575 143.582 583.953 150.321C584.331 157.061 582.428 163.736 578.535 169.332" stroke="#FFCB77" stroke-width="7" stroke-miterlimit="10" stroke-linecap="round"/>
<path d="M584 152C584 169.121 569.674 183 552 183C534.326 183 520 169.121 520 152C520 134.879 534.326 121 552 121" stroke="#227C9D" stroke-width="8" stroke-miterlimit="10" stroke-linecap="round"/>
<path d="M584 152C584 169.121 569.674 183 552 183C547.577 183.005 543.2 182.119 539.149 180.399C535.098 178.679 531.46 176.161 528.466 173.006" stroke="#FE6D73" stroke-width="8" stroke-miterlimit="10" stroke-linecap="round"/>
<path d="M552 168.862C561.613 168.862 569.406 161.313 569.406 152C569.406 142.687 561.613 135.138 552 135.138C542.387 135.138 534.594 142.687 534.594 152C534.594 161.313 542.387 168.862 552 168.862Z" fill="#17C3B2"/>
<g clip-path="url(#clip2)">
<path d="M631.047 532.615C631.739 535.349 634.437 536.983 637.073 536.264C639.708 535.546 641.282 532.746 640.59 530.011L591.255 335.269C590.562 332.534 587.864 330.9 585.229 331.619C582.594 332.338 581.019 335.138 581.712 337.872L631.047 532.615Z" fill="#69523D"/>
<path d="M581.217 337.875C581.91 335.141 580.335 332.341 577.7 331.622C575.064 330.903 572.367 332.537 571.674 335.272L522.339 530.014C521.646 532.749 523.221 535.549 525.856 536.268C528.491 536.986 531.189 535.352 531.882 532.618L581.217 337.875Z" fill="#69523D"/>
<path d="M513.15 337.884C513.843 335.149 512.268 332.35 509.633 331.631C506.998 330.912 504.3 332.546 503.607 335.28L454.272 530.023C453.579 532.757 455.154 535.557 457.789 536.276C460.424 536.995 463.122 535.361 463.815 532.626L513.15 337.884Z" fill="#8C745E"/>
<path d="M562.12 532.62C562.813 535.354 565.511 536.988 568.146 536.269C570.781 535.551 572.356 532.751 571.663 530.016L522.328 335.274C521.635 332.539 518.937 330.905 516.302 331.624C513.667 332.343 512.092 335.143 512.785 337.877L562.12 532.62Z" fill="#8C745E"/>
<path d="M235.575 337.459C236.256 334.716 234.666 331.92 232.023 331.213C229.38 330.506 226.685 332.156 226.004 334.899L177.496 530.218C176.815 532.961 178.406 535.758 181.049 536.465C183.692 537.172 186.386 535.521 187.068 532.778L235.575 337.459Z" fill="#69523D"/>
<path d="M283.788 531.871C284.469 534.614 287.164 536.264 289.807 535.557C292.45 534.85 294.04 532.054 293.359 529.311L244.851 333.992C244.17 331.249 241.475 329.598 238.832 330.305C236.189 331.012 234.599 333.809 235.28 336.552L283.788 531.871Z" fill="#69523D"/>
<path d="M164.707 337.892C165.4 335.157 163.825 332.358 161.19 331.639C158.555 330.92 155.857 332.554 155.164 335.288L105.829 530.031C105.137 532.765 106.711 535.565 109.346 536.284C111.982 537.003 114.679 535.369 115.372 532.634L164.707 337.892Z" fill="#8C745E"/>
<path d="M213.689 532.62C214.382 535.355 217.08 536.989 219.715 536.27C222.35 535.551 223.925 532.751 223.232 530.016L173.897 335.274C173.204 332.539 170.507 330.905 167.871 331.624C165.236 332.343 163.661 335.143 164.354 337.878L213.689 532.62Z" fill="#8C745E"/>
<path d="M611.61 322H134.466C132.055 322 130.101 324.028 130.101 326.53V332.62C130.101 335.122 132.055 337.15 134.466 337.15H611.61C614.021 337.15 615.975 335.122 615.975 332.62V326.53C615.975 324.028 614.021 322 611.61 322Z" fill="#8C745E"/>
</g>
<g clip-path="url(#clip3)">
<path d="M88.0598 374.37C107.06 377.98 103.67 491.37 67.1998 484.51C32.7598 478 64.8798 370 88.0598 374.37Z" fill="black"/>
<path d="M4.63991 388.43C19.7599 379.88 83.0499 459.52 54.0999 475.89C26.7499 491.36 -13.7701 398.84 4.63991 388.43Z" fill="#227C9D"/>
<path d="M81.6899 539.32H43.5099C41.972 539.32 40.4884 538.752 39.3426 537.726C38.1969 536.701 37.4696 535.288 37.2999 533.76L32.4799 490.47C32.3828 489.597 32.4711 488.712 32.7389 487.875C33.0067 487.038 33.448 486.267 34.0341 485.612C34.6201 484.957 35.3376 484.433 36.1399 484.075C36.9421 483.716 37.811 483.53 38.6899 483.53H86.3099C87.1863 483.529 88.0532 483.713 88.8539 484.069C89.6546 484.426 90.3712 484.947 90.9571 485.599C91.543 486.251 91.9849 487.019 92.2542 487.853C92.5234 488.687 92.614 489.569 92.5199 490.44L87.9099 533.73C87.7447 535.265 87.0183 536.684 85.8702 537.716C84.7222 538.748 83.2334 539.319 81.6899 539.32Z" fill="#FFCB77"/>
<path d="M98.79 330.23C113.26 334.44 102.17 422 74.46 413.91C48.3 406.3 81.18 325.11 98.79 330.23Z" fill="#FE6D73"/>
<path d="M122.65 399.87C132.65 408.5 91.9698 474.43 72.7498 457.87C54.5998 442.3 110.44 389.37 122.65 399.87Z" fill="#227C9D"/>
<path d="M62.6998 339.34C84.3598 339.34 104.19 477.63 62.6998 477.63C23.5198 477.63 36.3298 339.34 62.6998 339.34Z" fill="#17C3B2"/>
<path d="M100.71 474.12H24.51C22.2732 474.12 20.46 475.933 20.46 478.17V485.55C20.46 487.787 22.2732 489.6 24.51 489.6H100.71C102.947 489.6 104.76 487.787 104.76 485.55V478.17C104.76 475.933 102.947 474.12 100.71 474.12Z" fill="#F3C976"/>
</g>
<g clip-path="url(#clip4)">
<path d="M150.63 138.96C150.63 135.464 147.796 132.63 144.3 132.63C140.804 132.63 137.97 135.464 137.97 138.96V160.81C137.97 164.306 140.804 167.14 144.3 167.14C147.796 167.14 150.63 164.306 150.63 160.81V138.96Z" fill="black"/>
<path d="M144.3 203.87C151.314 203.87 157 198.184 157 191.17C157 184.156 151.314 178.47 144.3 178.47C137.286 178.47 131.6 184.156 131.6 191.17C131.6 198.184 137.286 203.87 144.3 203.87Z" fill="#FFCB77"/>
<path d="M144.3 152.88C139.271 152.879 134.291 153.868 129.644 155.792C124.997 157.715 120.775 160.536 117.218 164.091C113.662 167.647 110.84 171.869 108.916 176.515C106.991 181.161 106 186.141 106 191.17H182.59C182.59 186.142 181.6 181.163 179.675 176.517C177.751 171.871 174.931 167.65 171.375 164.095C167.82 160.539 163.599 157.719 158.953 155.795C154.307 153.87 149.328 152.88 144.3 152.88Z" fill="#FE6D73"/>
<path d="M144.3 139.92V1" stroke="black" stroke-width="2" stroke-linecap="round" stroke-linejoin="round"/>
</g>
<defs>
<clipPath id="clip0">
<rect width="412.77" height="417.7" fill="white" transform="translate(211 113)"/>
</clipPath>
<clipPath id="clip1">
<rect width="60.51" height="41.81" fill="white" transform="translate(465 192)"/>
</clipPath>
<clipPath id="clip2">
<rect width="535.086" height="214.45" fill="white" transform="translate(105.664 322)"/>
</clipPath>
<clipPath id="clip3">
<rect width="124.22" height="209.32" fill="white" transform="translate(0 330)"/>
</clipPath>
<clipPath id="clip4">
<rect width="76.59" height="203.87" fill="white" transform="translate(106)"/>
</clipPath>
</defs>
</svg>
