<svg width="583" height="800" viewBox="0 0 583 800" fill="none" xmlns="http://www.w3.org/2000/svg">
<g clip-path="url(#clip0)">
<path d="M479.1 161.83C537.78 225 594.36 300 580.11 357C565.86 414 480.35 453.12 392.05 501.46C303.75 549.8 212.66 607.25 145.73 586C78.8 564.75 35.9201 464.74 14.1201 361.91C-7.67995 259.08 -8.50995 153.73 42.4801 92.12C93.6201 30.64 196.59 13.18 278.48 30.22C360.37 47.26 420.55 98.68 479.1 161.83Z" fill="#F9F9F9"/>
<path d="M538.57 754.88C534.57 742.88 519.36 680.26 519.36 669.96C519.36 659.66 540.87 519.96 540.87 507.25C540.87 494.54 458.15 319.39 458.15 319.39C458.15 319.39 330.89 641.18 337.86 641.18C351.8 641.18 407.25 776.32 407.25 799.04C429.67 791.47 538.57 754.88 538.57 754.88Z" fill="#F8CDBA"/>
<path d="M458.15 319.39C458.15 319.39 508.73 426.47 530.78 479.26C473.88 537 410.36 621.68 374.78 704.64C360.01 670.8 344.38 641.18 337.86 641.18C330.89 641.18 458.15 319.39 458.15 319.39Z" fill="#EABFAB"/>
<path d="M20.0001 754.88C24.0001 742.88 39.2101 680.26 39.2101 669.96C39.2101 659.66 17.7101 520 17.7101 507.25C17.7101 494.5 100.43 319.39 100.43 319.39C100.43 319.39 227.69 641.18 220.72 641.18C206.78 641.18 151.33 776.32 151.33 799.04C128.91 791.47 20.0001 754.88 20.0001 754.88Z" fill="#F8CDBA"/>
<path d="M100.43 319.39C100.43 319.39 49.85 426.47 27.8 479.26C84.7001 537 148.22 621.68 183.8 704.64C198.57 670.8 214.19 641.18 220.72 641.18C227.69 641.18 100.43 319.39 100.43 319.39Z" fill="#EABFAB"/>
<path d="M101.25 1H452.25C455.502 1 458.62 2.29167 460.919 4.59087C463.218 6.89007 464.51 10.0084 464.51 13.26V562.75C464.51 584.37 455.923 605.104 440.638 620.393C425.352 635.683 404.62 644.275 383 644.28H101.25C99.6392 644.279 98.0444 643.96 96.5568 643.342C95.0692 642.724 93.7179 641.819 92.5803 640.679C91.4426 639.538 90.5409 638.185 89.9266 636.696C89.3122 635.206 88.9974 633.611 89 632V13.26C89 10.0102 90.2903 6.89331 92.5873 4.5944C94.8844 2.2955 98.0002 1.00265 101.25 1Z" fill="#FFCB77"/>
<path d="M134.88 59.88H430.23C434.349 59.88 438.299 61.5162 441.211 64.4286C444.124 67.3411 445.76 71.2912 445.76 75.41V257.57C445.76 264.103 444.473 270.572 441.972 276.608C439.471 282.643 435.805 288.127 431.184 292.745C426.563 297.363 421.077 301.026 415.04 303.523C409.003 306.021 402.533 307.304 396 307.3H134.88C130.761 307.3 126.811 305.664 123.899 302.751C120.986 299.839 119.35 295.889 119.35 291.77V75.41C119.35 71.2912 120.986 67.3411 123.899 64.4286C126.811 61.5162 130.761 59.88 134.88 59.88Z" fill="#969696"/>
<path d="M88.99 38.61H464.57" stroke="#F3F3F3" stroke-width="2" stroke-linecap="round" stroke-linejoin="round"/>
<path d="M119.35 1V38.61" stroke="#F3F3F3" stroke-width="2" stroke-linecap="round" stroke-linejoin="round"/>
<path d="M443.78 1V38.61" stroke="#F3F3F3" stroke-width="2" stroke-linecap="round" stroke-linejoin="round"/>
<path d="M387.37 88.09H178.55V277.61H387.37V88.09Z" fill="#17C3B2"/>
<path d="M143.08 160.79C146.261 160.79 148.84 158.211 148.84 155.03C148.84 151.849 146.261 149.27 143.08 149.27C139.899 149.27 137.32 151.849 137.32 155.03C137.32 158.211 139.899 160.79 143.08 160.79Z" fill="#227C9D"/>
<path d="M199.17 15.86H141.86C137.425 15.86 133.83 19.4551 133.83 23.89C133.83 28.3248 137.425 31.92 141.86 31.92H199.17C203.605 31.92 207.2 28.3248 207.2 23.89C207.2 19.4551 203.605 15.86 199.17 15.86Z" stroke="#F3F3F3" stroke-width="2" stroke-linecap="round" stroke-linejoin="round"/>
<path d="M183.18 393.16H156.19C154.08 393.16 152.37 394.87 152.37 396.98V485.79C152.37 487.9 154.08 489.61 156.19 489.61H183.18C185.29 489.61 187 487.9 187 485.79V396.98C187 394.87 185.29 393.16 183.18 393.16Z" fill="#227C9D"/>
<path d="M217.91 454.88V427.89C217.91 425.78 216.2 424.07 214.09 424.07H125.28C123.17 424.07 121.46 425.78 121.46 427.89V454.88C121.46 456.99 123.17 458.7 125.28 458.7H214.09C216.2 458.7 217.91 456.99 217.91 454.88Z" fill="#227C9D"/>
<path d="M244.283 522.09L213.189 537.289C210.589 538.56 209.512 541.698 210.783 544.298L211.279 545.313C212.55 547.913 215.688 548.99 218.288 547.719L249.382 532.52C251.982 531.249 253.059 528.111 251.788 525.511L251.292 524.496C250.021 521.896 246.883 520.819 244.283 522.09Z" fill="#383838"/>
<path d="M309.998 522.093L278.904 537.292C276.304 538.563 275.226 541.701 276.497 544.301L276.993 545.316C278.264 547.916 281.402 548.993 284.002 547.723L315.096 532.523C317.696 531.253 318.774 528.114 317.503 525.515L317.007 524.499C315.736 521.899 312.598 520.822 309.998 522.093Z" fill="#383838"/>
<path d="M362.48 473.68C375.127 473.68 385.38 463.427 385.38 450.78C385.38 438.133 375.127 427.88 362.48 427.88C349.833 427.88 339.58 438.133 339.58 450.78C339.58 463.427 349.833 473.68 362.48 473.68Z" fill="#FE6D73"/>
<path d="M425.64 442.31C438.287 442.31 448.54 432.057 448.54 419.41C448.54 406.763 438.287 396.51 425.64 396.51C412.993 396.51 402.74 406.763 402.74 419.41C402.74 432.057 412.993 442.31 425.64 442.31Z" fill="#FCC486"/>
<path d="M148.94 682.91C156.65 649.16 147.08 542.05 130.6 530.09C149.74 510.16 180.6 420.86 180.6 385.38C180.6 361.86 171.03 328.64 163.6 328.64C150.8 355.22 92.87 474.81 63.9 510.43C55 520.72 53.75 746.3 148.94 682.91Z" fill="#F8CDBA"/>
<path d="M409.64 682.91C401.93 649.16 411.5 542.05 427.97 530.09C408.84 510.16 377.97 420.86 377.97 385.38C377.97 361.86 387.54 328.64 394.97 328.64C407.73 355.22 465.66 474.81 494.63 510.43C503.55 520.72 504.83 746.3 409.64 682.91Z" fill="#F8CDBA"/>
</g>
<defs>
<clipPath id="clip0">
<rect width="582.34" height="799.04" fill="white"/>
</clipPath>
</defs>
</svg>
