<svg width="548" height="548" viewBox="0 0 548 548" fill="none" xmlns="http://www.w3.org/2000/svg">
<path fill-rule="evenodd" clip-rule="evenodd" d="M274 0C275.001 0 276.001 0.00536728 277 0.0160828V25.5177C276.001 25.5059 275.001 25.5 274 25.5C136.757 25.5 25.5 136.757 25.5 274C25.5 411.243 136.757 522.5 274 522.5C411.243 522.5 522.5 411.243 522.5 274C522.5 214.6 501.659 160.067 466.89 117.316L486.167 100.605C524.814 147.837 548 208.211 548 274C548 425.326 425.326 548 274 548C122.674 548 0 425.326 0 274C0 122.674 122.674 0 274 0Z" fill="#FCEE7F"/>
<path d="M140 289.571C140 286.238 140.43 283.286 141.291 280.714C142.152 278.048 143.348 275.667 144.878 273.571C146.505 271.381 148.37 269.429 150.474 267.714C152.674 266 155.018 264.429 157.505 263C152.818 260.048 149.135 256.667 146.457 252.857C143.778 248.952 142.439 244.143 142.439 238.429C142.439 234.714 143.109 231.238 144.448 228C145.883 224.762 147.892 221.952 150.474 219.571C153.153 217.19 156.357 215.333 160.088 214C163.818 212.667 168.027 212 172.714 212C177.018 212 180.94 212.571 184.48 213.714C188.019 214.857 191.032 216.476 193.519 218.571C196.102 220.667 198.062 223.238 199.402 226.286C200.836 229.238 201.554 232.524 201.554 236.143C201.554 241.762 200.263 246.524 197.68 250.429C195.193 254.333 191.51 257.905 186.632 261.143C192.371 264.476 196.675 268.143 199.545 272.143C202.51 276.143 203.993 281.286 203.993 287.571C203.993 291.857 203.18 295.762 201.554 299.286C200.023 302.714 197.823 305.667 194.954 308.143C192.084 310.619 188.64 312.571 184.623 314C180.605 315.333 176.205 316 171.423 316C166.64 316 162.288 315.333 158.366 314C154.54 312.762 151.239 311 148.465 308.714C145.787 306.429 143.683 303.667 142.152 300.429C140.717 297.19 140 293.571 140 289.571ZM186.201 287.714C186.201 285.524 185.675 283.524 184.623 281.714C183.571 279.905 182.184 278.286 180.462 276.857C178.836 275.333 176.971 273.952 174.866 272.714C172.857 271.476 170.801 270.286 168.696 269.143C164.201 271.714 161.092 274.524 159.37 277.571C157.744 280.524 156.931 283.476 156.931 286.429C156.931 290.238 158.222 293.524 160.805 296.286C163.483 298.952 167.166 300.286 171.853 300.286C176.158 300.286 179.601 299.238 182.184 297.143C184.862 295.048 186.201 291.905 186.201 287.714ZM160.231 238.714C160.231 241 160.661 243 161.522 244.714C162.383 246.429 163.531 247.952 164.966 249.286C166.496 250.524 168.17 251.714 169.988 252.857C171.901 253.905 173.862 254.905 175.871 255.857C181.61 251 184.48 245.667 184.48 239.857C184.48 235.857 183.284 232.857 180.892 230.857C178.597 228.762 175.775 227.714 172.427 227.714C168.218 227.714 165.109 228.81 163.101 231C161.188 233.19 160.231 235.762 160.231 238.714Z" fill="#333333"/>
<path d="M221.409 289.571C221.409 286.238 221.84 283.286 222.701 280.714C223.562 278.048 224.757 275.667 226.288 273.571C227.914 271.381 229.779 269.429 231.884 267.714C234.084 266 236.427 264.429 238.914 263C234.227 260.048 230.544 256.667 227.866 252.857C225.188 248.952 223.849 244.143 223.849 238.429C223.849 234.714 224.518 231.238 225.857 228C227.292 224.762 229.301 221.952 231.884 219.571C234.562 217.19 237.766 215.333 241.497 214C245.227 212.667 249.436 212 254.123 212C258.428 212 262.35 212.571 265.889 213.714C269.428 214.857 272.441 216.476 274.928 218.571C277.511 220.667 279.472 223.238 280.811 226.286C282.246 229.238 282.963 232.524 282.963 236.143C282.963 241.762 281.672 246.524 279.089 250.429C276.602 254.333 272.92 257.905 268.041 261.143C273.78 264.476 278.085 268.143 280.955 272.143C283.92 276.143 285.402 281.286 285.402 287.571C285.402 291.857 284.589 295.762 282.963 299.286C281.433 302.714 279.233 305.667 276.363 308.143C273.493 310.619 270.05 312.571 266.032 314C262.015 315.333 257.615 316 252.832 316C248.049 316 243.697 315.333 239.775 314C235.949 312.762 232.649 311 229.875 308.714C227.196 306.429 225.092 303.667 223.562 300.429C222.127 297.19 221.409 293.571 221.409 289.571ZM267.611 287.714C267.611 285.524 267.085 283.524 266.032 281.714C264.98 279.905 263.593 278.286 261.871 276.857C260.245 275.333 258.38 273.952 256.276 272.714C254.267 271.476 252.21 270.286 250.106 269.143C245.61 271.714 242.501 274.524 240.779 277.571C239.153 280.524 238.34 283.476 238.34 286.429C238.34 290.238 239.632 293.524 242.214 296.286C244.893 298.952 248.575 300.286 253.262 300.286C257.567 300.286 261.01 299.238 263.593 297.143C266.271 295.048 267.611 291.905 267.611 287.714ZM241.64 238.714C241.64 241 242.071 243 242.932 244.714C243.793 246.429 244.94 247.952 246.375 249.286C247.906 250.524 249.58 251.714 251.397 252.857C253.31 253.905 255.271 254.905 257.28 255.857C263.019 251 265.889 245.667 265.889 239.857C265.889 235.857 264.693 232.857 262.302 230.857C260.006 228.762 257.184 227.714 253.836 227.714C249.628 227.714 246.519 228.81 244.51 231C242.597 233.19 241.64 235.762 241.64 238.714Z" fill="#333333"/>
<path d="M301.384 236.571C301.384 232.286 302.006 228.619 303.249 225.571C304.493 222.524 306.214 220 308.415 218C310.615 216 313.245 214.571 316.306 213.714C319.463 212.762 322.858 212.286 326.493 212.286C330.128 212.286 333.476 212.714 336.537 213.571C339.598 214.429 342.229 215.81 344.429 217.714C346.724 219.619 348.494 222.143 349.737 225.286C350.981 228.333 351.651 232.095 351.746 236.571C351.651 241.048 350.981 244.857 349.737 248C348.494 251.048 346.724 253.524 344.429 255.429C342.229 257.333 339.598 258.714 336.537 259.571C333.476 260.429 330.128 260.857 326.493 260.857C322.858 260.857 319.463 260.429 316.306 259.571C313.245 258.714 310.615 257.333 308.415 255.429C306.214 253.524 304.493 251.048 303.249 248C302.006 244.857 301.384 241.048 301.384 236.571ZM318.028 236.571C318.028 244.762 320.85 248.857 326.493 248.857C329.459 248.857 331.563 248 332.807 246.286C334.146 244.476 334.863 241.238 334.959 236.571C334.863 232 334.146 228.81 332.807 227C331.563 225.19 329.459 224.286 326.493 224.286C323.528 224.286 321.376 225.19 320.037 227C318.697 228.81 318.028 232 318.028 236.571ZM359.638 289.429C359.638 285.143 360.259 281.476 361.503 278.429C362.747 275.381 364.468 272.857 366.668 270.857C368.868 268.857 371.499 267.429 374.56 266.571C377.717 265.619 381.112 265.143 384.747 265.143C388.382 265.143 391.73 265.571 394.791 266.429C397.852 267.286 400.482 268.667 402.682 270.571C404.978 272.476 406.748 275 407.991 278.143C409.235 281.19 409.904 284.952 410 289.429C409.904 293.905 409.235 297.714 407.991 300.857C406.748 303.905 404.978 306.381 402.682 308.286C400.482 310.19 397.852 311.571 394.791 312.429C391.73 313.286 388.382 313.714 384.747 313.714C381.112 313.714 377.717 313.286 374.56 312.429C371.499 311.571 368.868 310.19 366.668 308.286C364.468 306.381 362.747 303.905 361.503 300.857C360.259 297.714 359.638 293.905 359.638 289.429ZM376.282 289.429C376.282 297.619 379.103 301.714 384.747 301.714C387.712 301.714 389.817 300.857 391.06 299.143C392.4 297.333 393.117 294.095 393.213 289.429C393.117 284.857 392.4 281.667 391.06 279.857C389.817 278.048 387.712 277.143 384.747 277.143C381.782 277.143 379.63 278.048 378.29 279.857C376.951 281.667 376.282 284.857 376.282 289.429ZM391.204 212L401.678 221.429L319.032 316L308.558 306.143L391.204 212Z" fill="#333333"/>
</svg>
