<svg width="545" height="548" viewBox="0 0 545 548" fill="none" xmlns="http://www.w3.org/2000/svg">
<path fill-rule="evenodd" clip-rule="evenodd" d="M0 273.725C0 126.553 116.03 6.48228 261.603 0V25.5285C130.119 31.9882 25.5 140.639 25.5 273.724C25.5 410.967 136.757 522.224 274 522.224C397.091 522.224 499.279 432.729 519.045 315.257L544.691 316.433C524.181 447.475 410.798 547.725 274 547.725C122.674 547.725 0 425.051 0 273.725Z" fill="#A1A1A1"/>
<path d="M153.31 318.916L186.15 241.916L192.46 234.916L183.855 236.344H147V218.916H211.676V224.344L171.522 318.916H153.31Z" fill="#333333"/>
<path d="M225.498 268.773C225.498 251.249 228.51 238.249 234.533 229.773C240.556 221.201 249.208 216.916 260.489 216.916C272.535 216.916 281.379 221.154 287.019 229.63C292.66 238.011 295.48 251.058 295.48 268.773C295.48 286.392 292.421 299.487 286.302 308.058C280.279 316.63 271.627 320.916 260.346 320.916C248.395 320.916 239.6 316.439 233.959 307.487C228.318 298.439 225.498 285.535 225.498 268.773ZM244.141 268.773C244.141 280.392 245.384 289.392 247.869 295.773C250.451 302.058 254.657 305.201 260.489 305.201C266.13 305.201 270.241 302.296 272.822 296.487C275.499 290.677 276.837 281.439 276.837 268.773C276.837 257.249 275.595 248.344 273.109 242.058C270.623 235.773 266.369 232.63 260.346 232.63C254.609 232.63 250.451 235.582 247.869 241.487C245.384 247.392 244.141 256.487 244.141 268.773Z" fill="#333333"/>
<path d="M308.442 241.487C308.442 237.201 309.063 233.535 310.306 230.487C311.549 227.439 313.27 224.916 315.469 222.916C317.667 220.916 320.297 219.487 323.356 218.63C326.511 217.677 329.905 217.201 333.538 217.201C337.171 217.201 340.517 217.63 343.576 218.487C346.635 219.344 349.265 220.725 351.463 222.63C353.758 224.535 355.527 227.058 356.769 230.201C358.012 233.249 358.682 237.011 358.777 241.487C358.682 245.963 358.012 249.773 356.769 252.916C355.527 255.963 353.758 258.439 351.463 260.344C349.265 262.249 346.635 263.63 343.576 264.487C340.517 265.344 337.171 265.773 333.538 265.773C329.905 265.773 326.511 265.344 323.356 264.487C320.297 263.63 317.667 262.249 315.469 260.344C313.27 258.439 311.549 255.963 310.306 252.916C309.063 249.773 308.442 245.963 308.442 241.487ZM325.077 241.487C325.077 249.677 327.897 253.773 333.538 253.773C336.501 253.773 338.605 252.916 339.848 251.201C341.186 249.392 341.903 246.154 341.999 241.487C341.903 236.916 341.186 233.725 339.848 231.916C338.605 230.106 336.501 229.201 333.538 229.201C330.574 229.201 328.423 230.106 327.084 231.916C325.746 233.725 325.077 236.916 325.077 241.487ZM366.664 294.344C366.664 290.058 367.286 286.392 368.529 283.344C369.772 280.296 371.492 277.773 373.691 275.773C375.89 273.773 378.519 272.344 381.579 271.487C384.734 270.535 388.128 270.058 391.761 270.058C395.393 270.058 398.74 270.487 401.799 271.344C404.858 272.201 407.487 273.582 409.686 275.487C411.981 277.392 413.749 279.916 414.992 283.058C416.235 286.106 416.904 289.868 417 294.344C416.904 298.82 416.235 302.63 414.992 305.773C413.749 308.82 411.981 311.296 409.686 313.201C407.487 315.106 404.858 316.487 401.799 317.344C398.74 318.201 395.393 318.63 391.761 318.63C388.128 318.63 384.734 318.201 381.579 317.344C378.519 316.487 375.89 315.106 373.691 313.201C371.492 311.296 369.772 308.82 368.529 305.773C367.286 302.63 366.664 298.82 366.664 294.344ZM383.3 294.344C383.3 302.535 386.12 306.63 391.761 306.63C394.724 306.63 396.828 305.773 398.07 304.058C399.409 302.249 400.126 299.011 400.221 294.344C400.126 289.773 399.409 286.582 398.07 284.773C396.828 282.963 394.724 282.058 391.761 282.058C388.797 282.058 386.646 282.963 385.307 284.773C383.969 286.582 383.3 289.773 383.3 294.344ZM398.214 216.916L408.682 226.344L326.081 320.916L315.612 311.058L398.214 216.916Z" fill="#333333"/>
</svg>
