<svg width="548" height="547" viewBox="0 0 548 547" fill="none" xmlns="http://www.w3.org/2000/svg">
<path fill-rule="evenodd" clip-rule="evenodd" d="M0 272.829C0 130.102 112.049 12.8636 255.149 0V25.6215C126.534 38.3912 26.1826 144.196 26.1826 272.829C26.1826 410.072 140.418 521.329 281.335 521.329C366.184 521.329 441.36 480.992 487.75 418.933L510 432.486C458.941 501.728 375.546 546.829 281.335 546.829C125.958 546.829 0 424.155 0 272.829Z" fill="#FCEE7F"/>
<path d="M214.208 286.672C214.208 291.339 213.362 295.672 211.669 299.672C210.076 303.672 207.787 307.148 204.8 310.101C201.813 313.053 198.179 315.386 193.898 317.101C189.717 318.815 185.087 319.672 180.01 319.672C174.832 319.672 170.054 318.91 165.673 317.386C161.392 315.767 157.659 313.386 154.472 310.244C151.287 307.101 148.798 303.148 147.005 298.386C145.214 293.624 144.317 288.101 144.317 281.815C144.317 272.386 145.711 263.863 148.498 256.244C151.386 248.624 155.219 242.005 159.998 236.386C164.877 230.672 170.501 226.101 176.873 222.672C183.345 219.148 190.164 216.815 197.333 215.672L201.664 230.386C196.686 231.148 192.106 232.624 187.924 234.815C183.743 237.005 180.01 239.624 176.724 242.672C173.538 245.72 170.8 249.148 168.51 252.958C166.32 256.672 164.776 260.529 163.881 264.529C165.872 262.148 168.461 260.148 171.646 258.529C174.832 256.815 178.814 255.958 183.594 255.958C188.074 255.958 192.206 256.625 195.988 257.958C199.772 259.291 203.008 261.291 205.695 263.958C208.384 266.529 210.475 269.72 211.968 273.529C213.462 277.339 214.208 281.72 214.208 286.672ZM195.391 287.672C195.391 277.005 189.915 271.672 178.964 271.672C174.981 271.672 171.597 272.529 168.809 274.244C166.121 275.958 164.229 277.958 163.135 280.244C162.935 281.291 162.835 282.196 162.835 282.958C162.835 283.72 162.835 284.482 162.835 285.244C162.835 287.529 163.184 289.815 163.881 292.101C164.578 294.291 165.573 296.291 166.868 298.101C168.261 299.815 170.003 301.244 172.094 302.386C174.185 303.434 176.674 303.958 179.561 303.958C184.241 303.958 188.024 302.434 190.911 299.386C193.898 296.339 195.391 292.434 195.391 287.672Z" fill="#333333"/>
<path d="M254.139 303.244C260.71 303.244 265.738 301.72 269.223 298.672C272.707 295.624 274.45 291.434 274.45 286.101C274.45 280.386 272.408 276.196 268.326 273.529C264.245 270.863 258.421 269.529 250.853 269.529L239.056 269.958V217.672H290.428V235.101H255.782V254.386L261.905 253.815C266.783 254.005 271.164 254.863 275.047 256.386C279.029 257.91 282.414 260.053 285.202 262.815C287.99 265.482 290.13 268.767 291.624 272.672C293.117 276.482 293.864 280.767 293.864 285.529C293.864 291.148 292.868 296.101 290.877 300.386C288.886 304.672 286.098 308.244 282.514 311.101C279.029 313.958 274.897 316.101 270.118 317.529C265.34 318.958 260.113 319.672 254.438 319.672C249.958 319.672 245.677 319.291 241.595 318.529C237.612 317.863 234.227 316.91 231.439 315.672L236.666 300.244C238.956 301.196 241.445 301.958 244.133 302.529C246.921 303.005 250.256 303.244 254.139 303.244Z" fill="#333333"/>
<path d="M313.634 240.244C313.634 235.958 314.281 232.291 315.575 229.244C316.869 226.196 318.661 223.672 320.951 221.672C323.242 219.672 325.978 218.244 329.165 217.386C332.45 216.434 335.985 215.958 339.768 215.958C343.551 215.958 347.036 216.386 350.222 217.244C353.408 218.101 356.146 219.482 358.436 221.386C360.825 223.291 362.667 225.815 363.961 228.958C365.256 232.005 365.952 235.767 366.051 240.244C365.952 244.72 365.256 248.529 363.961 251.672C362.667 254.72 360.825 257.196 358.436 259.101C356.146 261.005 353.408 262.386 350.222 263.244C347.036 264.101 343.551 264.529 339.768 264.529C335.985 264.529 332.45 264.101 329.165 263.244C325.978 262.386 323.242 261.005 320.951 259.101C318.661 257.196 316.869 254.72 315.575 251.672C314.281 248.529 313.634 244.72 313.634 240.244ZM330.956 240.244C330.956 248.434 333.894 252.529 339.768 252.529C342.855 252.529 345.044 251.672 346.339 249.958C347.733 248.148 348.48 244.91 348.579 240.244C348.48 235.672 347.733 232.482 346.339 230.672C345.044 228.863 342.855 227.958 339.768 227.958C336.681 227.958 334.441 228.863 333.048 230.672C331.654 232.482 330.956 235.672 330.956 240.244ZM374.265 293.101C374.265 288.815 374.913 285.148 376.207 282.101C377.501 279.053 379.293 276.529 381.583 274.529C383.873 272.529 386.611 271.101 389.796 270.244C393.082 269.291 396.617 268.815 400.4 268.815C404.183 268.815 407.668 269.244 410.854 270.101C414.039 270.958 416.777 272.339 419.067 274.244C421.457 276.148 423.299 278.672 424.593 281.815C425.887 284.863 426.585 288.624 426.684 293.101C426.585 297.577 425.887 301.386 424.593 304.529C423.299 307.577 421.457 310.053 419.067 311.958C416.777 313.863 414.039 315.244 410.854 316.101C407.668 316.958 404.183 317.386 400.4 317.386C396.617 317.386 393.082 316.958 389.796 316.101C386.611 315.244 383.873 313.863 381.583 311.958C379.293 310.053 377.501 307.577 376.207 304.529C374.913 301.386 374.265 297.577 374.265 293.101ZM391.589 293.101C391.589 301.291 394.526 305.386 400.4 305.386C403.486 305.386 405.677 304.529 406.971 302.815C408.365 301.005 409.111 297.767 409.211 293.101C409.111 288.529 408.365 285.339 406.971 283.529C405.677 281.72 403.486 280.815 400.4 280.815C397.314 280.815 395.073 281.72 393.679 283.529C392.285 285.339 391.589 288.529 391.589 293.101ZM407.12 215.672L418.022 225.101L332.002 319.672L321.101 309.815L407.12 215.672Z" fill="#333333"/>
</svg>
