<svg xmlns="http://www.w3.org/2000/svg" viewBox="0 0 339.2 734.48"><defs><style>.cls-1,.cls-14,.cls-24{fill:#fff;}.cls-2{fill:#4d4d4d;}.cls-3,.cls-5{fill:#b3b3b3;}.cls-4,.cls-6{fill:#00b4bc;}.cls-4,.cls-7{stroke:#00b4bc;}.cls-20,.cls-4,.cls-5{stroke-miterlimit:10;}.cls-5{stroke:#b3b3b3;}.cls-12,.cls-20,.cls-23,.cls-7{fill:none;}.cls-10,.cls-11,.cls-12,.cls-13,.cls-14,.cls-17,.cls-18,.cls-19,.cls-23,.cls-7{stroke-linecap:round;stroke-linejoin:round;}.cls-20,.cls-7{stroke-width:4px;}.cls-8,.cls-9{fill:#ff8091;}.cls-8{opacity:0.18;}.cls-10{fill:#29abe2;}.cls-10,.cls-11,.cls-12,.cls-13,.cls-14,.cls-17,.cls-18,.cls-19{stroke:#4d4d4d;stroke-width:6px;}.cls-11{fill:#e6e6e6;}.cls-13,.cls-15{fill:gray;}.cls-16{fill:#d2a273;}.cls-17{fill:red;}.cls-18{fill:#f15a24;}.cls-19{fill:#f7931e;}.cls-20{stroke:#fff;}.cls-21,.cls-23{opacity:0.2;}.cls-22{opacity:0.19;}.cls-23{stroke:#000;stroke-width:3px;}.cls-24{opacity:0.5;}</style></defs><title>sdasdAsset 6</title><g id="Layer_2" data-name="Layer 2"><g id="Layer_1-2" data-name="Layer 1"><rect class="cls-1" width="339.2" height="734.48"/><path class="cls-2" d="M69.62,495.62a1.43,1.43,0,0,1-.4-1.08v-14a1.43,1.43,0,0,1,.4-1.08,1.52,1.52,0,0,1,1.09-.38h4.75a8.89,8.89,0,0,1,6.45,2.22,9.65,9.65,0,0,1,0,12.48A8.89,8.89,0,0,1,75.46,496H70.71A1.52,1.52,0,0,1,69.62,495.62Zm5.65-2.14q5.83,0,5.83-6t-5.83-5.93h-3v11.88Z"/><path class="cls-2" d="M89.25,495.45a5.16,5.16,0,0,1-2.1-2.14,6.74,6.74,0,0,1-.74-3.24,6.67,6.67,0,0,1,.74-3.23,5.17,5.17,0,0,1,2.1-2.12,7.1,7.1,0,0,1,6.31,0,5.09,5.09,0,0,1,2.09,2.12,6.78,6.78,0,0,1,.73,3.23,6.85,6.85,0,0,1-.73,3.24,5.08,5.08,0,0,1-2.09,2.14,7.1,7.1,0,0,1-6.31,0Zm5.36-2.55a5.57,5.57,0,0,0,0-5.65,2.62,2.62,0,0,0-2.2-1,2.68,2.68,0,0,0-2.22,1,5.57,5.57,0,0,0,0,5.65,3,3,0,0,0,4.44,0Z"/><path class="cls-2" d="M110.81,485.18a5.41,5.41,0,0,1,1,3.62v5.9a1.43,1.43,0,0,1-.4,1.06,1.48,1.48,0,0,1-1.09.38,1.54,1.54,0,0,1-1.11-.38,1.39,1.39,0,0,1-.4-1.06V489a3.12,3.12,0,0,0-.52-2,2,2,0,0,0-1.62-.63,2.73,2.73,0,0,0-2.08.82,3,3,0,0,0-.78,2.18v5.35a1.39,1.39,0,0,1-.4,1.06,1.56,1.56,0,0,1-1.11.38,1.48,1.48,0,0,1-1.09-.38,1.43,1.43,0,0,1-.4-1.06v-9.28a1.32,1.32,0,0,1,.41-1,1.53,1.53,0,0,1,1.11-.39,1.45,1.45,0,0,1,1,.38,1.27,1.27,0,0,1,.39,1V486a4.13,4.13,0,0,1,1.61-1.52,4.85,4.85,0,0,1,2.28-.52A3.9,3.9,0,0,1,110.81,485.18Z"/><path class="cls-2" d="M123.62,485.19a5.07,5.07,0,0,1,1.18,3.68v5.86a1.34,1.34,0,0,1-.38,1,1.43,1.43,0,0,1-1,.37,1.41,1.41,0,0,1-1-.38,1.34,1.34,0,0,1-.4-1v-.53a3.13,3.13,0,0,1-1.28,1.46,3.8,3.8,0,0,1-2,.53,4.71,4.71,0,0,1-2.14-.48,3.81,3.81,0,0,1-1.51-1.32,3.31,3.31,0,0,1-.55-1.87,3,3,0,0,1,.66-2,3.89,3.89,0,0,1,2.15-1.08,19.76,19.76,0,0,1,4.1-.34h.6v-.55a2.48,2.48,0,0,0-.5-1.71,2.17,2.17,0,0,0-1.64-.54,5,5,0,0,0-1.41.2c-.48.14-1.05.33-1.71.59a2.32,2.32,0,0,1-.91.31.9.9,0,0,1-.71-.31,1.21,1.21,0,0,1-.27-.82,1.28,1.28,0,0,1,.2-.71,2,2,0,0,1,.69-.56,8,8,0,0,1,2-.72A10.12,10.12,0,0,1,120,484,4.89,4.89,0,0,1,123.62,485.19Zm-2.43,8a2.9,2.9,0,0,0,.76-2.08v-.5h-.43a17.57,17.57,0,0,0-2.5.14,2.47,2.47,0,0,0-1.27.51,1.25,1.25,0,0,0-.38,1,1.63,1.63,0,0,0,.54,1.26,1.89,1.89,0,0,0,1.33.49A2.56,2.56,0,0,0,121.19,493.23Z"/><path class="cls-2" d="M135.15,495a1,1,0,0,1-.47.88,2.23,2.23,0,0,1-1.33.25l-.65-.05q-4-.29-4-4.32v-5.23h-1.2a1.57,1.57,0,0,1-1-.29,1.21,1.21,0,0,1,0-1.68,1.57,1.57,0,0,1,1-.29h1.2v-2.2a1.33,1.33,0,0,1,.41-1,1.56,1.56,0,0,1,1.1-.38,1.53,1.53,0,0,1,1.08.38,1.37,1.37,0,0,1,.41,1v2.2h2a1.57,1.57,0,0,1,1,.29,1.21,1.21,0,0,1,0,1.68,1.57,1.57,0,0,1-1,.29h-2V492c0,1.18.54,1.81,1.63,1.89l.65.05Q135.15,494,135.15,495Z"/><path class="cls-2" d="M146.66,493.1a1.31,1.31,0,0,1,.25.84,1.45,1.45,0,0,1-.89,1.24,7.94,7.94,0,0,1-1.85.74,7.75,7.75,0,0,1-2,.27,6.1,6.1,0,0,1-4.49-1.63,6,6,0,0,1-1.66-4.46,6.89,6.89,0,0,1,.72-3.2,5.35,5.35,0,0,1,2-2.16,5.75,5.75,0,0,1,3-.76,5.33,5.33,0,0,1,2.76.69,4.71,4.71,0,0,1,1.83,2,6.57,6.57,0,0,1,.65,3c0,.69-.31,1-.92,1H139a3.79,3.79,0,0,0,.94,2.44,3.14,3.14,0,0,0,2.3.78,4.6,4.6,0,0,0,1.36-.19c.39-.13.84-.31,1.33-.53a2.6,2.6,0,0,1,1.06-.39A.81.81,0,0,1,146.66,493.1Zm-6.77-6.24a3.61,3.61,0,0,0-.88,2.2h5.43a3.54,3.54,0,0,0-.72-2.22,2.4,2.4,0,0,0-1.87-.75A2.55,2.55,0,0,0,139.89,486.86Z"/><path class="cls-2" d="M167.81,479a1.39,1.39,0,0,1,1,.42,1.33,1.33,0,0,1,.43,1,1.4,1.4,0,0,1-.36.91l-5.45,6.65v6.64a1.52,1.52,0,0,1-.43,1.16,1.55,1.55,0,0,1-1.1.4,1.58,1.58,0,0,1-1.13-.4,1.53,1.53,0,0,1-.44-1.16v-6.64l-5.44-6.65a1.4,1.4,0,0,1-.36-.91,1.33,1.33,0,0,1,.43-1,1.37,1.37,0,0,1,1-.42,1.32,1.32,0,0,1,1,.53l4.92,6.09,4.89-6.09A1.3,1.3,0,0,1,167.81,479Z"/><path class="cls-2" d="M171.23,495.45a5.22,5.22,0,0,1-2.1-2.14,6.85,6.85,0,0,1-.74-3.24,6.78,6.78,0,0,1,.74-3.23,5.23,5.23,0,0,1,2.1-2.12,7.12,7.12,0,0,1,6.32,0,5.12,5.12,0,0,1,2.08,2.12,6.78,6.78,0,0,1,.74,3.23,6.85,6.85,0,0,1-.74,3.24,5.11,5.11,0,0,1-2.08,2.14,7.12,7.12,0,0,1-6.32,0Zm5.37-2.55a5.57,5.57,0,0,0,0-5.65,3,3,0,0,0-4.43,0,5.54,5.54,0,0,0,0,5.65,2.65,2.65,0,0,0,2.21,1A2.7,2.7,0,0,0,176.6,492.9Z"/><path class="cls-2" d="M193.21,484.41a1.34,1.34,0,0,1,.4,1v9.31a1.31,1.31,0,0,1-.42,1,1.53,1.53,0,0,1-1.09.38,1.44,1.44,0,0,1-1-.36,1.25,1.25,0,0,1-.38-1v-.6a3.92,3.92,0,0,1-1.49,1.48,4.37,4.37,0,0,1-2.12.51c-2.87,0-4.31-1.61-4.31-4.85v-5.9a1.34,1.34,0,0,1,.4-1,1.51,1.51,0,0,1,1.08-.39,1.55,1.55,0,0,1,1.11.39,1.35,1.35,0,0,1,.41,1v5.93a2.82,2.82,0,0,0,.5,1.85,2,2,0,0,0,1.58.6,2.6,2.6,0,0,0,2-.83,3.16,3.16,0,0,0,.75-2.2v-5.35a1.35,1.35,0,0,1,.41-1,1.49,1.49,0,0,1,1.08-.39A1.57,1.57,0,0,1,193.21,484.41Z"/><path class="cls-2" d="M204.27,484.29a1.17,1.17,0,0,1,.36.93,1.32,1.32,0,0,1-.31,1,1.9,1.9,0,0,1-1.13.41l-.72.07a3,3,0,0,0-2.08,1,3.16,3.16,0,0,0-.66,2v5a1.32,1.32,0,0,1-.43,1.07,1.59,1.59,0,0,1-1.08.37,1.55,1.55,0,0,1-1.07-.37,1.35,1.35,0,0,1-.42-1.07v-9.28a1.3,1.3,0,0,1,.42-1,1.56,1.56,0,0,1,1-.36,1.48,1.48,0,0,1,1,.35,1.3,1.3,0,0,1,.38,1v1A3.43,3.43,0,0,1,201,484.7a4.09,4.09,0,0,1,2-.65l.34,0A1.29,1.29,0,0,1,204.27,484.29Z"/><path class="cls-2" d="M213.11,495.71a1.55,1.55,0,0,1-.42-1.13V480.5a1.45,1.45,0,0,1,1.54-1.54,1.54,1.54,0,0,1,1.14.42,1.51,1.51,0,0,1,.42,1.12v14.08a1.55,1.55,0,0,1-.42,1.13,1.51,1.51,0,0,1-1.14.43A1.48,1.48,0,0,1,213.11,495.71Z"/><path class="cls-2" d="M226.47,495a1,1,0,0,1-.47.88,2.25,2.25,0,0,1-1.33.25l-.65-.05q-4-.29-4-4.32v-5.23h-1.2a1.55,1.55,0,0,1-1-.29,1.18,1.18,0,0,1,0-1.68,1.55,1.55,0,0,1,1-.29H220v-2.2a1.33,1.33,0,0,1,.41-1,1.56,1.56,0,0,1,1.1-.38,1.53,1.53,0,0,1,1.08.38,1.37,1.37,0,0,1,.41,1v2.2h2a1.52,1.52,0,0,1,1,.29,1.18,1.18,0,0,1,0,1.68,1.52,1.52,0,0,1-1,.29h-2V492c0,1.18.54,1.81,1.63,1.89l.65.05Q226.47,494,226.47,495Z"/><path class="cls-2" d="M238,493.1a1.31,1.31,0,0,1,.25.84,1.45,1.45,0,0,1-.89,1.24,7.94,7.94,0,0,1-1.85.74,7.77,7.77,0,0,1-2,.27,6.09,6.09,0,0,1-4.48-1.63,6,6,0,0,1-1.66-4.46,6.89,6.89,0,0,1,.72-3.2,5.35,5.35,0,0,1,2-2.16,5.75,5.75,0,0,1,3-.76,5.33,5.33,0,0,1,2.76.69,4.77,4.77,0,0,1,1.83,2,6.57,6.57,0,0,1,.64,3c0,.69-.3,1-.91,1h-7.08a3.79,3.79,0,0,0,.94,2.44,3.14,3.14,0,0,0,2.3.78,4.65,4.65,0,0,0,1.36-.19c.39-.13.83-.31,1.33-.53a2.6,2.6,0,0,1,1.06-.39A.81.81,0,0,1,238,493.1Zm-6.77-6.24a3.61,3.61,0,0,0-.88,2.2h5.43a3.54,3.54,0,0,0-.72-2.22,2.39,2.39,0,0,0-1.88-.75A2.55,2.55,0,0,0,231.21,486.86Z"/><path class="cls-2" d="M257.66,485.12a5.43,5.43,0,0,1,1,3.68v5.9a1.35,1.35,0,0,1-.42,1.07,1.61,1.61,0,0,1-1.1.37,1.52,1.52,0,0,1-1.06-.37,1.32,1.32,0,0,1-.42-1.07v-5.9a3,3,0,0,0-.47-1.88,1.76,1.76,0,0,0-1.43-.57,2.34,2.34,0,0,0-1.87.81,3.18,3.18,0,0,0-.7,2.19v5.35a1.35,1.35,0,0,1-.42,1.07,1.53,1.53,0,0,1-1.07.37,1.59,1.59,0,0,1-1.08-.37,1.36,1.36,0,0,1-.43-1.07v-5.9a3,3,0,0,0-.47-1.88,1.73,1.73,0,0,0-1.43-.57,2.28,2.28,0,0,0-1.85.81,3.23,3.23,0,0,0-.69,2.19v5.35a1.32,1.32,0,0,1-.43,1.07,1.59,1.59,0,0,1-1.08.37,1.55,1.55,0,0,1-1.07-.37,1.35,1.35,0,0,1-.42-1.07v-9.28a1.31,1.31,0,0,1,.43-1,1.64,1.64,0,0,1,1.08-.36,1.49,1.49,0,0,1,1,.35,1.25,1.25,0,0,1,.4,1v.57a3.77,3.77,0,0,1,1.48-1.46,4.29,4.29,0,0,1,2.12-.5,3.44,3.44,0,0,1,3.53,2.2,3.93,3.93,0,0,1,1.56-1.6,4.52,4.52,0,0,1,2.33-.6A3.75,3.75,0,0,1,257.66,485.12Z"/><path class="cls-2" d="M261.75,495.16a1.42,1.42,0,0,1-.77-1.3,1.17,1.17,0,0,1,.26-.78.85.85,0,0,1,.65-.3,2.64,2.64,0,0,1,1.13.39,10.83,10.83,0,0,0,1.4.55,5.71,5.71,0,0,0,1.62.19,3.15,3.15,0,0,0,1.58-.33,1.06,1.06,0,0,0,.56-.94A.92.92,0,0,0,268,492a2,2,0,0,0-.81-.44,17.69,17.69,0,0,0-1.79-.47,6.93,6.93,0,0,1-3.06-1.22,2.73,2.73,0,0,1-.93-2.19,3.15,3.15,0,0,1,.63-1.91,4.1,4.1,0,0,1,1.71-1.32,6.32,6.32,0,0,1,2.49-.46,7.32,7.32,0,0,1,1.94.25,5.82,5.82,0,0,1,1.68.73,1.45,1.45,0,0,1,.77,1.27,1.29,1.29,0,0,1-.26.81.84.84,0,0,1-.65.32,1.35,1.35,0,0,1-.52-.11,6.29,6.29,0,0,1-.63-.32,11,11,0,0,0-1.2-.54,3.8,3.8,0,0,0-1.25-.18,2.43,2.43,0,0,0-1.41.36,1.14,1.14,0,0,0-.51,1,1,1,0,0,0,.53.91,7.46,7.46,0,0,0,2,.63,11.37,11.37,0,0,1,2.52.77,2.85,2.85,0,0,1,1.3,1.08,3.33,3.33,0,0,1-1,4.27,6.05,6.05,0,0,1-3.61,1A7.69,7.69,0,0,1,261.75,495.16Z"/><path class="cls-3" d="M45,525.77a.5.5,0,0,1,.14.37v3.74a1.09,1.09,0,0,1-.11.54.81.81,0,0,1-.41.28,6.92,6.92,0,0,1-1.46.41,9.88,9.88,0,0,1-1.71.15,5.47,5.47,0,0,1-2.72-.65A4.24,4.24,0,0,1,37,528.75,7.23,7.23,0,0,1,37,523a4.35,4.35,0,0,1,1.73-1.87,5.21,5.21,0,0,1,2.63-.65,5.82,5.82,0,0,1,1.95.32,4.23,4.23,0,0,1,1.52.93.73.73,0,0,1,.25.52.67.67,0,0,1-.11.37.4.4,0,0,1-.31.15.72.72,0,0,1-.42-.17,5.59,5.59,0,0,0-1.41-.84,4.28,4.28,0,0,0-1.45-.23,3.4,3.4,0,0,0-2.74,1.13,4.87,4.87,0,0,0-1,3.22,4.81,4.81,0,0,0,1,3.26,3.53,3.53,0,0,0,2.84,1.12A7.26,7.26,0,0,0,44,529.8v-3.21H41.84a.58.58,0,0,1-.41-.13.45.45,0,0,1-.15-.35.43.43,0,0,1,.15-.35.58.58,0,0,1,.41-.13h2.8A.53.53,0,0,1,45,525.77Z"/><path class="cls-3" d="M53.19,526.53v4.08a.6.6,0,0,1-.16.44.58.58,0,0,1-.43.16.63.63,0,0,1-.43-.16.6.6,0,0,1-.16-.44v-.72a2.23,2.23,0,0,1-.87,1,2.61,2.61,0,0,1-1.35.35,2.92,2.92,0,0,1-1.3-.28,2.3,2.3,0,0,1-.94-.8,1.94,1.94,0,0,1-.34-1.12,1.86,1.86,0,0,1,.42-1.29,2.62,2.62,0,0,1,1.38-.66,14,14,0,0,1,2.67-.2H52v-.49a2,2,0,0,0-.37-1.32,1.51,1.51,0,0,0-1.19-.43,4.38,4.38,0,0,0-2.07.56,1.42,1.42,0,0,1-.58.26.37.37,0,0,1-.29-.14.5.5,0,0,1-.12-.35.58.58,0,0,1,.12-.36,1.53,1.53,0,0,1,.42-.32,4.77,4.77,0,0,1,1.19-.48,5.51,5.51,0,0,1,1.33-.17C52.28,523.65,53.19,524.61,53.19,526.53Zm-1.76,3.14a2.18,2.18,0,0,0,.58-1.56v-.44h-.27a14.28,14.28,0,0,0-2,.11,2,2,0,0,0-1,.38,1,1,0,0,0-.29.77,1.24,1.24,0,0,0,.43,1,1.56,1.56,0,0,0,1.07.38A2,2,0,0,0,51.43,529.67Z"/><path class="cls-3" d="M59.31,530.73a.41.41,0,0,1-.19.38.83.83,0,0,1-.56.1l-.41,0a2.54,2.54,0,0,1-1.77-.72,2.75,2.75,0,0,1-.57-1.9v-3.77h-1a.57.57,0,0,1-.4-.13.42.42,0,0,1-.14-.33.49.49,0,0,1,.14-.36.57.57,0,0,1,.4-.14h1v-1.69a.61.61,0,0,1,.17-.45.64.64,0,0,1,.45-.15.55.55,0,0,1,.6.6v1.69h1.66a.56.56,0,0,1,.39.14.49.49,0,0,1,.14.36.42.42,0,0,1-.14.33.56.56,0,0,1-.39.13H57v3.83a1.71,1.71,0,0,0,.34,1.19,1.45,1.45,0,0,0,1,.41l.4,0C59.13,530.28,59.31,530.44,59.31,530.73Z"/><path class="cls-3" d="M66.15,524.38a3.13,3.13,0,0,1,.66,2.17v4.06a.54.54,0,0,1-.17.44.57.57,0,0,1-.43.16.61.61,0,0,1-.45-.16.57.57,0,0,1-.16-.44v-4a2.21,2.21,0,0,0-.4-1.44,1.59,1.59,0,0,0-1.27-.47,2.12,2.12,0,0,0-1.6.62,2.28,2.28,0,0,0-.61,1.66v3.66a.54.54,0,0,1-.59.6.59.59,0,0,1-.45-.16.54.54,0,0,1-.17-.44v-9.54a.57.57,0,0,1,.17-.42.63.63,0,0,1,.45-.17.64.64,0,0,1,.44.16.61.61,0,0,1,.15.43V525a2.49,2.49,0,0,1,1-1,3.07,3.07,0,0,1,1.47-.35A2.48,2.48,0,0,1,66.15,524.38Z"/><path class="cls-3" d="M75,529.58a.49.49,0,0,1,.12.34c0,.25-.18.48-.53.69a4.74,4.74,0,0,1-2.31.63,3.51,3.51,0,0,1-2.67-1,3.75,3.75,0,0,1-1-2.77,4.38,4.38,0,0,1,.43-2,3.3,3.3,0,0,1,1.22-1.34,3.38,3.38,0,0,1,1.79-.48,2.91,2.91,0,0,1,2.27.93,3.62,3.62,0,0,1,.84,2.52.68.68,0,0,1-.12.44.5.5,0,0,1-.39.13H69.81c.09,1.72.9,2.58,2.44,2.58a2.78,2.78,0,0,0,1-.16,5.91,5.91,0,0,0,.9-.42,1.54,1.54,0,0,1,.52-.23A.35.35,0,0,1,75,529.58Zm-4.45-4.39a2.81,2.81,0,0,0-.68,1.7h4.24a2.58,2.58,0,0,0-.55-1.7,1.84,1.84,0,0,0-1.47-.59A2.08,2.08,0,0,0,70.52,525.19Z"/><path class="cls-3" d="M81.18,524.19a.52.52,0,0,1-.13.38.73.73,0,0,1-.47.18l-.45,0a2,2,0,0,0-1.49.71,2.31,2.31,0,0,0-.49,1.47v3.64a.55.55,0,0,1-.17.45.61.61,0,0,1-.43.15.6.6,0,0,1-.44-.16.54.54,0,0,1-.18-.44v-6.33a.54.54,0,0,1,.18-.44.63.63,0,0,1,.44-.16.52.52,0,0,1,.4.16.56.56,0,0,1,.17.43v.84a2.32,2.32,0,0,1,.89-1,3.06,3.06,0,0,1,1.33-.41h.21Q81.18,523.64,81.18,524.19Z"/><path class="cls-3" d="M91.89,523.69a.64.64,0,0,1,.41.16.45.45,0,0,1,.17.37.6.6,0,0,1,0,.24l-4.22,9.09a.56.56,0,0,1-.22.26.52.52,0,0,1-.29.09.6.6,0,0,1-.4-.15.45.45,0,0,1-.17-.36.53.53,0,0,1,.06-.24l1-2.27-3-6.42a.44.44,0,0,1-.06-.23.5.5,0,0,1,.2-.38.65.65,0,0,1,.45-.17.57.57,0,0,1,.29.09.64.64,0,0,1,.21.25l2.51,5.63,2.5-5.59A.56.56,0,0,1,91.89,523.69Z"/><path class="cls-3" d="M94.93,530.77a3.06,3.06,0,0,1-1.22-1.32,4.89,4.89,0,0,1,0-4,3.12,3.12,0,0,1,1.22-1.32,3.5,3.5,0,0,1,1.82-.47,3.56,3.56,0,0,1,1.83.47,3.06,3.06,0,0,1,1.22,1.32,4.89,4.89,0,0,1,0,4,3,3,0,0,1-1.22,1.32,3.46,3.46,0,0,1-1.83.47A3.41,3.41,0,0,1,94.93,530.77Zm3.48-1.25a4,4,0,0,0,0-4.14,2.23,2.23,0,0,0-3.3,0,3.24,3.24,0,0,0-.59,2.06,3.28,3.28,0,0,0,.58,2.08,2.3,2.3,0,0,0,3.32,0Z"/><path class="cls-3" d="M108,523.85a.61.61,0,0,1,.15.43v6.35a.6.6,0,0,1-.15.42.65.65,0,0,1-.45.16.54.54,0,0,1-.42-.16.53.53,0,0,1-.16-.41v-.75a2.37,2.37,0,0,1-1,1,2.82,2.82,0,0,1-1.4.34,2.52,2.52,0,0,1-2-.73,3.09,3.09,0,0,1-.66-2.15v-4.08a.58.58,0,0,1,.17-.43.57.57,0,0,1,.45-.17.54.54,0,0,1,.44.17.57.57,0,0,1,.16.43v4.05a2.16,2.16,0,0,0,.39,1.43,1.52,1.52,0,0,0,1.23.46,2,2,0,0,0,1.54-.62A2.31,2.31,0,0,0,107,528v-3.68a.63.63,0,0,1,1.06-.43Z"/><path class="cls-3" d="M114.7,524.19a.52.52,0,0,1-.13.38.71.71,0,0,1-.47.18l-.45,0a2,2,0,0,0-1.49.71,2.37,2.37,0,0,0-.49,1.47v3.64a.58.58,0,0,1-.16.45.63.63,0,0,1-.44.15.61.61,0,0,1-.44-.16.57.57,0,0,1-.17-.44v-6.33a.54.54,0,0,1,.18-.44.6.6,0,0,1,.43-.16.55.55,0,0,1,.57.59v.84a2.28,2.28,0,0,1,.9-1,3,3,0,0,1,1.32-.41h.21Q114.7,523.64,114.7,524.19Z"/><path class="cls-3" d="M125.62,523.85a.61.61,0,0,1,.15.43v6.35a.6.6,0,0,1-.15.42.65.65,0,0,1-.45.16.54.54,0,0,1-.42-.16.53.53,0,0,1-.16-.41v-.75a2.37,2.37,0,0,1-1,1,2.82,2.82,0,0,1-1.4.34,2.52,2.52,0,0,1-2-.73,3.09,3.09,0,0,1-.66-2.15v-4.08a.58.58,0,0,1,.17-.43.57.57,0,0,1,.45-.17.54.54,0,0,1,.44.17.57.57,0,0,1,.16.43v4.05a2.16,2.16,0,0,0,.39,1.43,1.52,1.52,0,0,0,1.23.46,2,2,0,0,0,1.54-.62,2.31,2.31,0,0,0,.59-1.64v-3.68a.63.63,0,0,1,1.06-.43Z"/><path class="cls-3" d="M134.34,526.55v4.06a.55.55,0,0,1-.6.6.61.61,0,0,1-.45-.16.57.57,0,0,1-.17-.44v-4a2.28,2.28,0,0,0-.39-1.48,1.59,1.59,0,0,0-1.27-.47,2.15,2.15,0,0,0-1.61.62,2.27,2.27,0,0,0-.6,1.66v3.66a.63.63,0,0,1-1.05.44.57.57,0,0,1-.16-.44v-6.33a.57.57,0,0,1,.61-.6.53.53,0,0,1,.43.17.57.57,0,0,1,.16.42V525a2.48,2.48,0,0,1,1-1,3.07,3.07,0,0,1,1.47-.35C133.46,523.65,134.34,524.62,134.34,526.55Z"/><path class="cls-3" d="M147,523.71a.63.63,0,0,1,.41.15.47.47,0,0,1,.18.37.64.64,0,0,1,0,.23l-2.49,6.3a.71.71,0,0,1-.26.31.7.7,0,0,1-.38.11.72.72,0,0,1-.37-.11.79.79,0,0,1-.26-.31l-2.07-5.26-2.06,5.26a.63.63,0,0,1-.25.31.73.73,0,0,1-.77,0,.74.74,0,0,1-.27-.31l-2.49-6.28a.59.59,0,0,1,0-.21.53.53,0,0,1,.2-.41.7.7,0,0,1,.44-.17.53.53,0,0,1,.51.37l2.06,5.53,2.11-5.49a.75.75,0,0,1,.25-.3.62.62,0,0,1,.34-.11.61.61,0,0,1,.35.11.58.58,0,0,1,.23.3l2.12,5.48,2.07-5.51A.51.51,0,0,1,147,523.71Z"/><path class="cls-3" d="M154.78,526.53v4.08a.63.63,0,0,1-.15.44.61.61,0,0,1-.43.16.64.64,0,0,1-.44-.16.6.6,0,0,1-.16-.44v-.72a2.18,2.18,0,0,1-.87,1,2.61,2.61,0,0,1-1.35.35,3,3,0,0,1-1.3-.28,2.37,2.37,0,0,1-.94-.8,1.94,1.94,0,0,1-.34-1.12,1.86,1.86,0,0,1,.42-1.29,2.62,2.62,0,0,1,1.38-.66,14.07,14.07,0,0,1,2.67-.2h.33v-.49a2,2,0,0,0-.37-1.32,1.5,1.5,0,0,0-1.19-.43,4.41,4.41,0,0,0-2.07.56,1.4,1.4,0,0,1-.57.26.39.39,0,0,1-.3-.14A.5.5,0,0,1,149,525a.53.53,0,0,1,.13-.36,1.32,1.32,0,0,1,.41-.32,5.1,5.1,0,0,1,1.19-.48,5.58,5.58,0,0,1,1.33-.17C153.87,523.65,154.78,524.61,154.78,526.53ZM153,529.67a2.14,2.14,0,0,0,.58-1.56v-.44h-.27a14.22,14.22,0,0,0-2,.11,1.92,1.92,0,0,0-1,.38,1,1,0,0,0-.3.77,1.27,1.27,0,0,0,.43,1,1.57,1.57,0,0,0,1.07.38A1.93,1.93,0,0,0,153,529.67Z"/><path class="cls-3" d="M163.3,526.55v4.06a.63.63,0,0,1-1.05.44.57.57,0,0,1-.16-.44v-4a2.22,2.22,0,0,0-.4-1.48,1.58,1.58,0,0,0-1.27-.47,2.13,2.13,0,0,0-1.6.62,2.27,2.27,0,0,0-.6,1.66v3.66a.55.55,0,0,1-.6.6.61.61,0,0,1-.45-.16.57.57,0,0,1-.17-.44v-6.33a.58.58,0,0,1,.17-.43.57.57,0,0,1,.45-.17.54.54,0,0,1,.43.17.6.6,0,0,1,.15.42V525a2.51,2.51,0,0,1,1-1,3.07,3.07,0,0,1,1.47-.35C162.43,523.65,163.3,524.62,163.3,526.55Z"/><path class="cls-3" d="M169.42,530.73a.43.43,0,0,1-.18.38.88.88,0,0,1-.57.1l-.4,0a2.54,2.54,0,0,1-1.77-.72,2.75,2.75,0,0,1-.57-1.9v-3.77h-1a.53.53,0,0,1-.39-.13.4.4,0,0,1-.15-.33.46.46,0,0,1,.15-.36.53.53,0,0,1,.39-.14h1v-1.69a.61.61,0,0,1,.16-.45.64.64,0,0,1,.45-.15.63.63,0,0,1,.44.15.61.61,0,0,1,.16.45v1.69h1.67a.52.52,0,0,1,.38.14.45.45,0,0,1,.14.36.39.39,0,0,1-.14.33.52.52,0,0,1-.38.13h-1.67v3.83a1.76,1.76,0,0,0,.34,1.19,1.47,1.47,0,0,0,1,.41l.41,0C169.25,530.28,169.42,530.44,169.42,530.73Z"/><path class="cls-3" d="M176.56,529.58a.49.49,0,0,1,.12.34c0,.25-.17.48-.52.69a4.74,4.74,0,0,1-2.31.63,3.55,3.55,0,0,1-2.68-1,3.79,3.79,0,0,1-1-2.77,4.38,4.38,0,0,1,.43-2,3.25,3.25,0,0,1,1.23-1.34,3.35,3.35,0,0,1,1.79-.48,2.89,2.89,0,0,1,2.26.93,3.62,3.62,0,0,1,.84,2.52.68.68,0,0,1-.12.44.5.5,0,0,1-.39.13H171.4c.09,1.72.91,2.58,2.45,2.58a2.72,2.72,0,0,0,1-.16,5.91,5.91,0,0,0,.9-.42,1.48,1.48,0,0,1,.53-.23A.34.34,0,0,1,176.56,529.58Zm-4.44-4.39a2.76,2.76,0,0,0-.69,1.7h4.25a2.58,2.58,0,0,0-.56-1.7,1.84,1.84,0,0,0-1.47-.59A2,2,0,0,0,172.12,525.19Z"/><path class="cls-3" d="M184.84,520.65a.57.57,0,0,1,.17.42v9.54a.6.6,0,0,1-.17.44.65.65,0,0,1-.45.16.62.62,0,0,1-.44-.16.64.64,0,0,1-.16-.44v-.81a2.44,2.44,0,0,1-1,1.07,2.93,2.93,0,0,1-1.5.37,3,3,0,0,1-1.69-.48,3.19,3.19,0,0,1-1.14-1.34,4.67,4.67,0,0,1-.41-2,4.58,4.58,0,0,1,.41-2,3,3,0,0,1,2.83-1.79,3,3,0,0,1,1.5.37,2.44,2.44,0,0,1,1,1.07v-4a.61.61,0,0,1,.16-.43.62.62,0,0,1,.44-.16A.61.61,0,0,1,184.84,520.65Zm-1.62,8.86a3.29,3.29,0,0,0,.57-2.07,3.25,3.25,0,0,0-.57-2.05,2.25,2.25,0,0,0-3.3,0,3.09,3.09,0,0,0-.6,2,3.19,3.19,0,0,0,.6,2.07,2,2,0,0,0,1.65.74A2,2,0,0,0,183.22,529.51Z"/><path class="cls-3" d="M191.16,521.9a.74.74,0,0,1-.23-.56.71.71,0,0,1,.23-.54.81.81,0,0,1,.58-.21.84.84,0,0,1,.59.21.7.7,0,0,1,.22.54.73.73,0,0,1-.22.56.84.84,0,0,1-.59.21A.81.81,0,0,1,191.16,521.9Zm.14,9.15a.57.57,0,0,1-.17-.44v-6.33a.57.57,0,0,1,.17-.44.61.61,0,0,1,.44-.16.6.6,0,0,1,.44.16.57.57,0,0,1,.16.44v6.33a.58.58,0,0,1-.16.45.63.63,0,0,1-.44.15A.61.61,0,0,1,191.3,531.05Z"/><path class="cls-3" d="M198.51,530.73a.41.41,0,0,1-.19.38.83.83,0,0,1-.56.1l-.41,0a2.54,2.54,0,0,1-1.77-.72,2.75,2.75,0,0,1-.57-1.9v-3.77h-1a.57.57,0,0,1-.4-.13.42.42,0,0,1-.14-.33.49.49,0,0,1,.14-.36.57.57,0,0,1,.4-.14h1v-1.69a.61.61,0,0,1,.17-.45.64.64,0,0,1,.45-.15.55.55,0,0,1,.6.6v1.69h1.66a.56.56,0,0,1,.39.14.49.49,0,0,1,.14.36.42.42,0,0,1-.14.33.56.56,0,0,1-.39.13h-1.66v3.83a1.71,1.71,0,0,0,.34,1.19,1.45,1.45,0,0,0,1,.41l.4,0C198.33,530.28,198.51,530.44,198.51,530.73Z"/><path class="cls-3" d="M205.65,529.58a.49.49,0,0,1,.12.34c0,.25-.18.48-.53.69a4.74,4.74,0,0,1-2.31.63,3.51,3.51,0,0,1-2.67-1,3.76,3.76,0,0,1-1-2.77,4.38,4.38,0,0,1,.44-2,3.3,3.3,0,0,1,1.22-1.34,3.38,3.38,0,0,1,1.79-.48,2.91,2.91,0,0,1,2.27.93,3.62,3.62,0,0,1,.84,2.52.68.68,0,0,1-.12.44.5.5,0,0,1-.39.13h-4.83c.09,1.72.9,2.58,2.44,2.58a2.78,2.78,0,0,0,1-.16,5.91,5.91,0,0,0,.9-.42,1.46,1.46,0,0,1,.52-.23A.35.35,0,0,1,205.65,529.58Zm-4.45-4.39a2.81,2.81,0,0,0-.68,1.7h4.24a2.58,2.58,0,0,0-.55-1.7,1.84,1.84,0,0,0-1.47-.59A2.08,2.08,0,0,0,201.2,525.19Z"/><path class="cls-3" d="M218.17,526.55v4.06a.57.57,0,0,1-.16.44.6.6,0,0,1-.44.16.61.61,0,0,1-.44-.16.54.54,0,0,1-.17-.44v-4a2.35,2.35,0,0,0-.36-1.46,1.36,1.36,0,0,0-1.13-.45,1.8,1.8,0,0,0-1.44.62,2.46,2.46,0,0,0-.52,1.66v3.66a.57.57,0,0,1-.17.44.64.64,0,0,1-.45.16.57.57,0,0,1-.6-.6v-4a2.35,2.35,0,0,0-.36-1.46,1.37,1.37,0,0,0-1.14-.45,1.8,1.8,0,0,0-1.43.62,2.47,2.47,0,0,0-.53,1.66v3.66a.57.57,0,0,1-.6.6.6.6,0,0,1-.44-.16.54.54,0,0,1-.18-.44v-6.33a.55.55,0,0,1,.18-.43.64.64,0,0,1,.86,0,.56.56,0,0,1,.16.43V525a2.42,2.42,0,0,1,.92-1,2.61,2.61,0,0,1,1.35-.35,2.13,2.13,0,0,1,2.23,1.44,2.43,2.43,0,0,1,1-1.05,2.78,2.78,0,0,1,1.47-.39C217.36,523.65,218.17,524.62,218.17,526.55Z"/><path class="cls-3" d="M221.54,531.08a4.06,4.06,0,0,1-1.1-.47,1.52,1.52,0,0,1-.39-.34.66.66,0,0,1-.11-.38.48.48,0,0,1,.11-.32.38.38,0,0,1,.3-.13,1.13,1.13,0,0,1,.52.23,4.75,4.75,0,0,0,.89.42,3.26,3.26,0,0,0,1.11.16,2.35,2.35,0,0,0,1.26-.28.93.93,0,0,0,.45-.83.8.8,0,0,0-.17-.53,1.27,1.27,0,0,0-.57-.36,7.46,7.46,0,0,0-1.18-.32,4.45,4.45,0,0,1-1.89-.77,1.61,1.61,0,0,1-.57-1.3,1.89,1.89,0,0,1,.36-1.14,2.43,2.43,0,0,1,1-.78,3.54,3.54,0,0,1,1.45-.29,4,4,0,0,1,1.14.16,3.25,3.25,0,0,1,1,.44,1,1,0,0,1,.51.75.48.48,0,0,1-.12.33.37.37,0,0,1-.28.14,1.14,1.14,0,0,1-.54-.26,4.78,4.78,0,0,0-.8-.42,2.52,2.52,0,0,0-.93-.15,1.87,1.87,0,0,0-1.13.32,1,1,0,0,0-.43.84.88.88,0,0,0,.16.53,1.43,1.43,0,0,0,.53.36,6.29,6.29,0,0,0,1.05.31,7.78,7.78,0,0,1,1.59.49,1.63,1.63,0,0,1,1,1.65,1.79,1.79,0,0,1-.8,1.52,3.46,3.46,0,0,1-2.1.58A5.11,5.11,0,0,1,221.54,531.08Z"/><path class="cls-3" d="M237.19,526.53v4.08a.63.63,0,0,1-.15.44.61.61,0,0,1-.43.16.64.64,0,0,1-.44-.16.6.6,0,0,1-.16-.44v-.72a2.18,2.18,0,0,1-.87,1,2.61,2.61,0,0,1-1.35.35,3,3,0,0,1-1.3-.28,2.37,2.37,0,0,1-.94-.8,1.94,1.94,0,0,1-.34-1.12,1.86,1.86,0,0,1,.42-1.29,2.62,2.62,0,0,1,1.38-.66,14.07,14.07,0,0,1,2.67-.2H236v-.49a2,2,0,0,0-.37-1.32,1.5,1.5,0,0,0-1.19-.43,4.41,4.41,0,0,0-2.07.56,1.4,1.4,0,0,1-.57.26.39.39,0,0,1-.3-.14.5.5,0,0,1-.12-.35.53.53,0,0,1,.13-.36,1.32,1.32,0,0,1,.41-.32,5.1,5.1,0,0,1,1.19-.48,5.58,5.58,0,0,1,1.33-.17C236.28,523.65,237.19,524.61,237.19,526.53Zm-1.76,3.14a2.14,2.14,0,0,0,.58-1.56v-.44h-.27a14.22,14.22,0,0,0-2,.11,1.92,1.92,0,0,0-1,.38,1,1,0,0,0-.3.77,1.27,1.27,0,0,0,.43,1,1.57,1.57,0,0,0,1.07.38A1.93,1.93,0,0,0,235.43,529.67Z"/><path class="cls-3" d="M245.71,526.55v4.06a.55.55,0,0,1-.6.6.61.61,0,0,1-.45-.16.57.57,0,0,1-.16-.44v-4a2.28,2.28,0,0,0-.4-1.48,1.58,1.58,0,0,0-1.27-.47,2.13,2.13,0,0,0-1.6.62,2.27,2.27,0,0,0-.6,1.66v3.66a.61.61,0,0,1-.16.44.58.58,0,0,1-.44.16.61.61,0,0,1-.45-.16.57.57,0,0,1-.17-.44v-6.33a.58.58,0,0,1,.17-.43.57.57,0,0,1,.45-.17.54.54,0,0,1,.43.17.6.6,0,0,1,.15.42V525a2.51,2.51,0,0,1,1-1,3.07,3.07,0,0,1,1.47-.35C244.84,523.65,245.71,524.62,245.71,526.55Z"/><path class="cls-3" d="M254.25,520.65a.57.57,0,0,1,.16.42v9.54a.6.6,0,0,1-.16.44.65.65,0,0,1-.45.16.61.61,0,0,1-.44-.16.6.6,0,0,1-.16-.44v-.81a2.4,2.4,0,0,1-1,1.07,2.89,2.89,0,0,1-1.49.37,3,3,0,0,1-1.7-.48,3.19,3.19,0,0,1-1.14-1.34,4.67,4.67,0,0,1-.4-2,4.58,4.58,0,0,1,.4-2,3.08,3.08,0,0,1,1.14-1.32,3.12,3.12,0,0,1,1.7-.47,3,3,0,0,1,1.49.37,2.4,2.4,0,0,1,1,1.07v-4a.57.57,0,0,1,.16-.43.68.68,0,0,1,.89,0Zm-1.63,8.86a3.23,3.23,0,0,0,.58-2.07,3.19,3.19,0,0,0-.58-2.05,2,2,0,0,0-1.64-.72,2,2,0,0,0-1.66.72,3.15,3.15,0,0,0-.59,2,3.25,3.25,0,0,0,.59,2.07,2,2,0,0,0,1.66.74A2,2,0,0,0,252.62,529.51Z"/><path class="cls-3" d="M266.85,520.65a.57.57,0,0,1,.16.42v9.54a.6.6,0,0,1-.16.44.65.65,0,0,1-.45.16.61.61,0,0,1-.44-.16.6.6,0,0,1-.16-.44v-.81a2.4,2.4,0,0,1-1,1.07,2.89,2.89,0,0,1-1.49.37,3,3,0,0,1-1.7-.48,3.19,3.19,0,0,1-1.14-1.34,4.67,4.67,0,0,1-.4-2,4.58,4.58,0,0,1,.4-2,3.08,3.08,0,0,1,1.14-1.32,3.12,3.12,0,0,1,1.7-.47,3,3,0,0,1,1.49.37,2.4,2.4,0,0,1,1,1.07v-4a.57.57,0,0,1,.16-.43.68.68,0,0,1,.89,0Zm-1.63,8.86a3.29,3.29,0,0,0,.58-2.07,3.25,3.25,0,0,0-.58-2.05,2,2,0,0,0-1.64-.72,2,2,0,0,0-1.66.72,3.09,3.09,0,0,0-.59,2,3.19,3.19,0,0,0,.59,2.07,2.23,2.23,0,0,0,3.3,0Z"/><path class="cls-3" d="M275.2,529.58a.49.49,0,0,1,.12.34c0,.25-.17.48-.52.69a4.74,4.74,0,0,1-2.31.63,3.54,3.54,0,0,1-2.68-1,3.75,3.75,0,0,1-1-2.77,4.38,4.38,0,0,1,.43-2,3.3,3.3,0,0,1,1.22-1.34,3.41,3.41,0,0,1,1.8-.48,2.89,2.89,0,0,1,2.26.93,3.62,3.62,0,0,1,.84,2.52.68.68,0,0,1-.12.44.5.5,0,0,1-.39.13H270c.09,1.72.91,2.58,2.45,2.58a2.72,2.72,0,0,0,1-.16,5.91,5.91,0,0,0,.9-.42,1.48,1.48,0,0,1,.53-.23A.34.34,0,0,1,275.2,529.58Zm-4.45-4.39a2.81,2.81,0,0,0-.68,1.7h4.25a2.58,2.58,0,0,0-.56-1.7,1.84,1.84,0,0,0-1.47-.59A2.08,2.08,0,0,0,270.75,525.19Z"/><path class="cls-3" d="M277.34,531.05a.54.54,0,0,1-.17-.44v-9.52a.57.57,0,0,1,.17-.45.64.64,0,0,1,.44-.16.63.63,0,0,1,.43.16.61.61,0,0,1,.17.45v9.52a.57.57,0,0,1-.17.44.59.59,0,0,1-.43.16A.6.6,0,0,1,277.34,531.05Z"/><path class="cls-3" d="M280.68,521.9a.74.74,0,0,1-.23-.56.71.71,0,0,1,.23-.54.81.81,0,0,1,.58-.21.84.84,0,0,1,.59.21.7.7,0,0,1,.22.54.73.73,0,0,1-.22.56.84.84,0,0,1-.59.21A.81.81,0,0,1,280.68,521.9Zm.14,9.15a.54.54,0,0,1-.17-.44v-6.33a.54.54,0,0,1,.17-.44.68.68,0,0,1,.88,0,.57.57,0,0,1,.16.44v6.33a.58.58,0,0,1-.16.45.63.63,0,0,1-.44.15A.6.6,0,0,1,280.82,531.05Z"/><path class="cls-3" d="M289.92,523.69a.61.61,0,0,1,.4.16.46.46,0,0,1,.18.37.48.48,0,0,1-.06.24l-2.92,6.3a.74.74,0,0,1-.27.31.73.73,0,0,1-.77,0,.84.84,0,0,1-.28-.31l-2.91-6.3a.44.44,0,0,1-.06-.23.5.5,0,0,1,.2-.38.63.63,0,0,1,.44-.17.52.52,0,0,1,.29.09.59.59,0,0,1,.22.25l2.51,5.63,2.5-5.59A.56.56,0,0,1,289.92,523.69Z"/><path class="cls-3" d="M297.69,529.58a.49.49,0,0,1,.12.34c0,.25-.18.48-.53.69a4.74,4.74,0,0,1-2.31.63,3.55,3.55,0,0,1-2.68-1,3.79,3.79,0,0,1-1-2.77,4.38,4.38,0,0,1,.44-2,3.23,3.23,0,0,1,1.22-1.34,3.35,3.35,0,0,1,1.79-.48,2.91,2.91,0,0,1,2.27.93,3.62,3.62,0,0,1,.84,2.52.68.68,0,0,1-.12.44.5.5,0,0,1-.39.13h-4.83c.09,1.72.9,2.58,2.44,2.58a2.78,2.78,0,0,0,1-.16,5.91,5.91,0,0,0,.9-.42,1.46,1.46,0,0,1,.52-.23A.35.35,0,0,1,297.69,529.58Zm-4.45-4.39a2.75,2.75,0,0,0-.68,1.7h4.24a2.58,2.58,0,0,0-.55-1.7,1.84,1.84,0,0,0-1.47-.59A2.06,2.06,0,0,0,293.24,525.19Z"/><path class="cls-3" d="M303.9,524.19a.52.52,0,0,1-.14.38.68.68,0,0,1-.46.18l-.45,0a2.07,2.07,0,0,0-1.5.71,2.36,2.36,0,0,0-.48,1.47v3.64a.58.58,0,0,1-.17.45.61.61,0,0,1-.43.15.64.64,0,0,1-.45-.16.57.57,0,0,1-.17-.44v-6.33a.54.54,0,0,1,.18-.44.63.63,0,0,1,.44-.16.54.54,0,0,1,.4.16.56.56,0,0,1,.17.43v.84a2.26,2.26,0,0,1,.89-1,3,3,0,0,1,1.33-.41h.21Q303.9,523.64,303.9,524.19Z"/><path class="cls-3" d="M64.5,548.73a.41.41,0,0,1-.19.38.83.83,0,0,1-.56.1l-.4,0a2.57,2.57,0,0,1-1.78-.72,2.75,2.75,0,0,1-.56-1.9v-3.77H60a.57.57,0,0,1-.4-.13.42.42,0,0,1-.14-.33.49.49,0,0,1,.14-.36.57.57,0,0,1,.4-.14h1v-1.69a.61.61,0,0,1,.16-.45.64.64,0,0,1,.45-.15.55.55,0,0,1,.6.6v1.69h1.67a.54.54,0,0,1,.38.14.49.49,0,0,1,.14.36.42.42,0,0,1-.14.33.53.53,0,0,1-.38.13H62.22v3.83a1.71,1.71,0,0,0,.34,1.19,1.45,1.45,0,0,0,1,.41l.4,0C64.32,548.28,64.5,548.44,64.5,548.73Z"/><path class="cls-3" d="M71.34,542.38a3.13,3.13,0,0,1,.66,2.17v4.06a.57.57,0,0,1-.6.6.61.61,0,0,1-.45-.16.57.57,0,0,1-.17-.44v-4a2.21,2.21,0,0,0-.39-1.44,1.59,1.59,0,0,0-1.27-.47,2.15,2.15,0,0,0-1.61.62,2.27,2.27,0,0,0-.6,1.66v3.66a.63.63,0,0,1-1,.44.57.57,0,0,1-.16-.44v-9.54a.57.57,0,0,1,.17-.42.62.62,0,0,1,.44-.17.65.65,0,0,1,.45.16.61.61,0,0,1,.15.43V543a2.43,2.43,0,0,1,1-1,3.07,3.07,0,0,1,1.47-.35A2.48,2.48,0,0,1,71.34,542.38Z"/><path class="cls-3" d="M80.16,547.58a.49.49,0,0,1,.12.34c0,.25-.18.48-.52.69a4.57,4.57,0,0,1-1.15.47,4.34,4.34,0,0,1-1.17.16,3.51,3.51,0,0,1-2.67-1,3.75,3.75,0,0,1-1-2.77,4.38,4.38,0,0,1,.43-2,3.3,3.3,0,0,1,1.22-1.34,3.38,3.38,0,0,1,1.79-.48,2.91,2.91,0,0,1,2.27.93,3.62,3.62,0,0,1,.84,2.52.68.68,0,0,1-.12.44.5.5,0,0,1-.39.13H75c.09,1.72.9,2.58,2.44,2.58a2.74,2.74,0,0,0,1-.16,5.91,5.91,0,0,0,.9-.42,1.48,1.48,0,0,1,.53-.23A.35.35,0,0,1,80.16,547.58Zm-4.45-4.39a2.81,2.81,0,0,0-.68,1.7h4.24a2.53,2.53,0,0,0-.55-1.7,1.84,1.84,0,0,0-1.47-.59A2.08,2.08,0,0,0,75.71,543.19Z"/><path class="cls-3" d="M92.68,544.55v4.06a.57.57,0,0,1-.16.44.6.6,0,0,1-.44.16.61.61,0,0,1-.44-.16.57.57,0,0,1-.17-.44v-4a2.35,2.35,0,0,0-.36-1.46,1.36,1.36,0,0,0-1.13-.45,1.8,1.8,0,0,0-1.44.62A2.46,2.46,0,0,0,88,545v3.66a.57.57,0,0,1-.17.44.64.64,0,0,1-.45.16.57.57,0,0,1-.6-.6v-4a2.35,2.35,0,0,0-.36-1.46,1.37,1.37,0,0,0-1.14-.45,1.8,1.8,0,0,0-1.43.62,2.47,2.47,0,0,0-.53,1.66v3.66a.57.57,0,0,1-.6.6.6.6,0,0,1-.44-.16.54.54,0,0,1-.18-.44v-6.33a.55.55,0,0,1,.18-.43.64.64,0,0,1,.86,0,.56.56,0,0,1,.16.43V543a2.42,2.42,0,0,1,.92-1,2.61,2.61,0,0,1,1.35-.35,2.13,2.13,0,0,1,2.23,1.44,2.43,2.43,0,0,1,1-1.05,2.78,2.78,0,0,1,1.47-.39C91.87,541.65,92.68,542.62,92.68,544.55Z"/><path class="cls-3" d="M102.68,548.73a.43.43,0,0,1-.19.38.86.86,0,0,1-.56.1l-.41,0a2.54,2.54,0,0,1-1.77-.72,2.75,2.75,0,0,1-.57-1.9v-3.77h-1a.54.54,0,0,1-.4-.13.39.39,0,0,1-.14-.33.45.45,0,0,1,.14-.36.54.54,0,0,1,.4-.14h1v-1.69a.57.57,0,0,1,.17-.45.6.6,0,0,1,.44-.15.63.63,0,0,1,.44.15.61.61,0,0,1,.16.45v1.69h1.67a.52.52,0,0,1,.38.14.45.45,0,0,1,.14.36.39.39,0,0,1-.14.33.52.52,0,0,1-.38.13h-1.67v3.83a1.76,1.76,0,0,0,.34,1.19,1.47,1.47,0,0,0,1,.41l.41,0C102.5,548.28,102.68,548.44,102.68,548.73Z"/><path class="cls-3" d="M105.08,548.77a3,3,0,0,1-1.21-1.32,4.89,4.89,0,0,1,0-4,3.1,3.1,0,0,1,1.21-1.32,3.52,3.52,0,0,1,1.82-.47,3.56,3.56,0,0,1,1.83.47,3.14,3.14,0,0,1,1.23,1.32,5,5,0,0,1,0,4,3.08,3.08,0,0,1-1.23,1.32,3.46,3.46,0,0,1-1.83.47A3.43,3.43,0,0,1,105.08,548.77Zm3.48-1.25a3.18,3.18,0,0,0,.58-2.08,3.24,3.24,0,0,0-.59-2.06,2.23,2.23,0,0,0-3.3,0,4,4,0,0,0,0,4.14,2,2,0,0,0,1.65.71A2,2,0,0,0,108.56,547.52Z"/><path class="cls-3" d="M121.8,544.53v4.08a.55.55,0,0,1-.59.6.61.61,0,0,1-.43-.16.6.6,0,0,1-.17-.44v-.72a2.12,2.12,0,0,1-.87,1,2.61,2.61,0,0,1-1.35.35,2.9,2.9,0,0,1-1.29-.28,2.3,2.3,0,0,1-.94-.8,2,2,0,0,1-.35-1.12,1.86,1.86,0,0,1,.42-1.29,2.62,2.62,0,0,1,1.38-.66,14.07,14.07,0,0,1,2.67-.2h.33v-.49a2,2,0,0,0-.36-1.32,1.54,1.54,0,0,0-1.2-.43,4.41,4.41,0,0,0-2.07.56,1.4,1.4,0,0,1-.57.26.39.39,0,0,1-.3-.14A.5.5,0,0,1,116,543a.59.59,0,0,1,.13-.36,1.62,1.62,0,0,1,.41-.32,5,5,0,0,1,1.2-.48,5.43,5.43,0,0,1,1.32-.17C120.89,541.65,121.8,542.61,121.8,544.53ZM120,547.67a2.17,2.17,0,0,0,.57-1.56v-.44h-.26a14.28,14.28,0,0,0-2,.11,2,2,0,0,0-1,.38,1,1,0,0,0-.29.77,1.24,1.24,0,0,0,.43,1,1.56,1.56,0,0,0,1.07.38A2,2,0,0,0,120,547.67Z"/><path class="cls-3" d="M134.19,544.55v4.06a.55.55,0,0,1-.6.6.61.61,0,0,1-.45-.16.57.57,0,0,1-.17-.44v-4a2.28,2.28,0,0,0-.39-1.48,1.59,1.59,0,0,0-1.27-.47,2.15,2.15,0,0,0-1.61.62,2.27,2.27,0,0,0-.6,1.66v3.66a.63.63,0,0,1-1,.44.57.57,0,0,1-.16-.44v-6.33a.57.57,0,0,1,.61-.6.53.53,0,0,1,.43.17.57.57,0,0,1,.16.42V543a2.48,2.48,0,0,1,1-1,3.07,3.07,0,0,1,1.47-.35C133.31,541.65,134.19,542.62,134.19,544.55Z"/><path class="cls-3" d="M137.62,548.77a3.06,3.06,0,0,1-1.22-1.32,4.89,4.89,0,0,1,0-4,3.12,3.12,0,0,1,1.22-1.32,3.5,3.5,0,0,1,1.82-.47,3.56,3.56,0,0,1,1.83.47,3.06,3.06,0,0,1,1.22,1.32,4.89,4.89,0,0,1,0,4,3,3,0,0,1-1.22,1.32,3.46,3.46,0,0,1-1.83.47A3.41,3.41,0,0,1,137.62,548.77Zm3.48-1.25a4,4,0,0,0,0-4.14,2.23,2.23,0,0,0-3.3,0,3.24,3.24,0,0,0-.59,2.06,3.28,3.28,0,0,0,.58,2.08,2.3,2.3,0,0,0,3.32,0Z"/><path class="cls-3" d="M151,544.55v4.06a.63.63,0,0,1-1.05.44.57.57,0,0,1-.16-.44v-4a2.22,2.22,0,0,0-.4-1.48,1.58,1.58,0,0,0-1.27-.47,2.13,2.13,0,0,0-1.6.62A2.27,2.27,0,0,0,146,545v3.66a.55.55,0,0,1-.6.6.61.61,0,0,1-.45-.16.57.57,0,0,1-.17-.44v-6.33a.58.58,0,0,1,.17-.43.57.57,0,0,1,.45-.17.54.54,0,0,1,.43.17.6.6,0,0,1,.15.42V543a2.51,2.51,0,0,1,1-1,3.07,3.07,0,0,1,1.47-.35C150.16,541.65,151,542.62,151,544.55Z"/><path class="cls-3" d="M153.25,545.51a.46.46,0,0,1-.15-.36.48.48,0,0,1,.15-.37.53.53,0,0,1,.41-.14H157a.57.57,0,0,1,.43.14.51.51,0,0,1,.14.37.49.49,0,0,1-.14.36.61.61,0,0,1-.43.13h-3.3A.56.56,0,0,1,153.25,545.51Z"/><path class="cls-3" d="M165,542.13a3.19,3.19,0,0,1,1.14,1.34,4.71,4.71,0,0,1,.4,2,4.55,4.55,0,0,1-.4,2,3,3,0,0,1-2.84,1.78,2.89,2.89,0,0,1-1.49-.37,2.46,2.46,0,0,1-1-1.07v3.53a.57.57,0,0,1-.15.42.71.71,0,0,1-.9,0,.57.57,0,0,1-.16-.42v-9.05a.63.63,0,0,1,1.06-.43.61.61,0,0,1,.15.43v.81a2.46,2.46,0,0,1,1-1.07,3,3,0,0,1,1.49-.37A3,3,0,0,1,165,542.13Zm-.29,5.39a3.16,3.16,0,0,0,.59-2,3.29,3.29,0,0,0-.59-2.07,2.22,2.22,0,0,0-3.29,0,3.25,3.25,0,0,0-.58,2.05,3.29,3.29,0,0,0,.58,2.07,2.25,2.25,0,0,0,3.29,0Z"/><path class="cls-3" d="M172.6,542.19a.52.52,0,0,1-.13.38.71.71,0,0,1-.47.18l-.45,0a2,2,0,0,0-1.49.71,2.37,2.37,0,0,0-.49,1.47v3.64a.58.58,0,0,1-.16.45.63.63,0,0,1-.44.15.61.61,0,0,1-.44-.16.57.57,0,0,1-.17-.44v-6.33a.54.54,0,0,1,.18-.44.6.6,0,0,1,.43-.16.55.55,0,0,1,.57.59v.84a2.28,2.28,0,0,1,.9-1,3,3,0,0,1,1.32-.41H172Q172.6,541.64,172.6,542.19Z"/><path class="cls-3" d="M174.71,548.77a3,3,0,0,1-1.21-1.32,4.89,4.89,0,0,1,0-4,3.1,3.1,0,0,1,1.21-1.32,3.52,3.52,0,0,1,1.82-.47,3.56,3.56,0,0,1,1.83.47,3.14,3.14,0,0,1,1.23,1.32,5,5,0,0,1,0,4,3.08,3.08,0,0,1-1.23,1.32,3.46,3.46,0,0,1-1.83.47A3.43,3.43,0,0,1,174.71,548.77Zm3.48-1.25a3.18,3.18,0,0,0,.58-2.08,3.24,3.24,0,0,0-.59-2.06,2.23,2.23,0,0,0-3.3,0,4,4,0,0,0,0,4.14,2,2,0,0,0,1.65.71A2,2,0,0,0,178.19,547.52Z"/><path class="cls-3" d="M187.8,542a.48.48,0,0,1,.13.36v6.28a.54.54,0,0,1-.17.44.59.59,0,0,1-.43.16.61.61,0,0,1-.44-.16.57.57,0,0,1-.17-.44v-5.82h-3.29v5.82a.54.54,0,0,1-.17.44.59.59,0,0,1-.43.16.61.61,0,0,1-.44-.16.57.57,0,0,1-.17-.44v-5.82h-1a.53.53,0,0,1-.39-.13.4.4,0,0,1-.15-.33.46.46,0,0,1,.15-.36.53.53,0,0,1,.39-.14h1v-.25a3.14,3.14,0,0,1,.67-2.13,2.78,2.78,0,0,1,1.94-.87l.36,0q.72-.06.72.45c0,.29-.17.45-.51.49l-.36,0a1.75,1.75,0,0,0-1.2.5,1.92,1.92,0,0,0-.41,1.33v.48h4A.53.53,0,0,1,187.8,542Zm.11-3.17a.68.68,0,0,1,.23.54.73.73,0,0,1-.22.56.84.84,0,0,1-.59.21.81.81,0,0,1-.58-.21.74.74,0,0,1-.23-.56.71.71,0,0,1,.23-.54.81.81,0,0,1,.58-.21A.83.83,0,0,1,187.91,538.8Z"/><path class="cls-3" d="M194.1,548.73a.41.41,0,0,1-.19.38.83.83,0,0,1-.56.1l-.41,0a2.54,2.54,0,0,1-1.77-.72,2.75,2.75,0,0,1-.57-1.9v-3.77h-1a.57.57,0,0,1-.4-.13.42.42,0,0,1-.14-.33.49.49,0,0,1,.14-.36.57.57,0,0,1,.4-.14h1v-1.69a.61.61,0,0,1,.17-.45.64.64,0,0,1,.45-.15.55.55,0,0,1,.6.6v1.69h1.66a.56.56,0,0,1,.39.14.49.49,0,0,1,.14.36.42.42,0,0,1-.14.33.56.56,0,0,1-.39.13h-1.66v3.83a1.71,1.71,0,0,0,.34,1.19,1.45,1.45,0,0,0,1,.41l.4,0C193.92,548.28,194.1,548.44,194.1,548.73Z"/><path class="cls-3" d="M199.2,539.9a.74.74,0,0,1-.23-.56.71.71,0,0,1,.23-.54.81.81,0,0,1,.58-.21.84.84,0,0,1,.59.21.7.7,0,0,1,.22.54.73.73,0,0,1-.22.56.84.84,0,0,1-.59.21A.81.81,0,0,1,199.2,539.9Zm.14,9.15a.57.57,0,0,1-.17-.44v-6.33a.57.57,0,0,1,.17-.44.61.61,0,0,1,.44-.16.6.6,0,0,1,.44.16.57.57,0,0,1,.16.44v6.33a.58.58,0,0,1-.16.45.63.63,0,0,1-.44.15A.61.61,0,0,1,199.34,549.05Z"/><path class="cls-3" d="M209,544.55v4.06a.61.61,0,0,1-.16.44.58.58,0,0,1-.44.16.61.61,0,0,1-.45-.16.57.57,0,0,1-.17-.44v-4a2.28,2.28,0,0,0-.39-1.48,1.59,1.59,0,0,0-1.27-.47,2.15,2.15,0,0,0-1.61.62,2.27,2.27,0,0,0-.6,1.66v3.66a.63.63,0,0,1-1.05.44.57.57,0,0,1-.16-.44v-6.33a.57.57,0,0,1,.61-.6.53.53,0,0,1,.43.17.57.57,0,0,1,.16.42V543a2.48,2.48,0,0,1,1-1,3.07,3.07,0,0,1,1.47-.35C208.07,541.65,209,542.62,209,544.55Z"/><path class="cls-3" d="M220.83,541.69a.61.61,0,0,1,.4.16.46.46,0,0,1,.18.37.48.48,0,0,1-.06.24l-4.21,9.09a.56.56,0,0,1-.22.26.52.52,0,0,1-.29.09.6.6,0,0,1-.4-.15.45.45,0,0,1-.17-.36.53.53,0,0,1,.06-.24l1-2.27-3-6.42a.44.44,0,0,1-.06-.23.5.5,0,0,1,.2-.38.64.64,0,0,1,.44-.17.58.58,0,0,1,.3.09.64.64,0,0,1,.21.25l2.51,5.63,2.5-5.59A.56.56,0,0,1,220.83,541.69Z"/><path class="cls-3" d="M223.86,548.77a3,3,0,0,1-1.21-1.32,4.89,4.89,0,0,1,0-4,3.1,3.1,0,0,1,1.21-1.32,3.8,3.8,0,0,1,3.66,0,3.06,3.06,0,0,1,1.22,1.32,4.89,4.89,0,0,1,0,4,3,3,0,0,1-1.22,1.32,3.8,3.8,0,0,1-3.66,0Zm3.49-1.25a4,4,0,0,0,0-4.14,2.23,2.23,0,0,0-3.3,0,4,4,0,0,0,0,4.14,2.3,2.3,0,0,0,3.32,0Z"/><path class="cls-3" d="M237,541.85a.57.57,0,0,1,.16.43v6.35a.57.57,0,0,1-.16.42.61.61,0,0,1-.44.16.57.57,0,0,1-.43-.16.56.56,0,0,1-.15-.41v-.75a2.43,2.43,0,0,1-1,1,2.84,2.84,0,0,1-1.4.34,2.52,2.52,0,0,1-2-.73,3.09,3.09,0,0,1-.66-2.15v-4.08a.58.58,0,0,1,.17-.43.57.57,0,0,1,.45-.17.54.54,0,0,1,.44.17.57.57,0,0,1,.16.43v4.05a2.16,2.16,0,0,0,.39,1.43,1.52,1.52,0,0,0,1.23.46,2,2,0,0,0,1.54-.62,2.31,2.31,0,0,0,.59-1.64v-3.68a.57.57,0,0,1,.61-.6A.54.54,0,0,1,237,541.85Z"/><path class="cls-3" d="M243.64,542.19a.52.52,0,0,1-.13.38.71.71,0,0,1-.47.18l-.45,0a2,2,0,0,0-1.49.71,2.31,2.31,0,0,0-.49,1.47v3.64a.58.58,0,0,1-.16.45.63.63,0,0,1-.44.15.6.6,0,0,1-.44-.16.57.57,0,0,1-.17-.44v-6.33a.54.54,0,0,1,.18-.44.6.6,0,0,1,.43-.16.55.55,0,0,1,.57.59v.84a2.32,2.32,0,0,1,.89-1,3.06,3.06,0,0,1,1.33-.41H243Q243.64,541.64,243.64,542.19Z"/><path class="cls-3" d="M254.29,544.53v4.08a.63.63,0,0,1-.15.44.61.61,0,0,1-.43.16.64.64,0,0,1-.44-.16.6.6,0,0,1-.16-.44v-.72a2.18,2.18,0,0,1-.87,1,2.61,2.61,0,0,1-1.35.35,3,3,0,0,1-1.3-.28,2.37,2.37,0,0,1-.94-.8,1.94,1.94,0,0,1-.34-1.12,1.86,1.86,0,0,1,.42-1.29,2.62,2.62,0,0,1,1.38-.66,14.07,14.07,0,0,1,2.67-.2h.33v-.49a2,2,0,0,0-.37-1.32,1.5,1.5,0,0,0-1.19-.43,4.41,4.41,0,0,0-2.07.56,1.4,1.4,0,0,1-.57.26.39.39,0,0,1-.3-.14.5.5,0,0,1-.12-.35.53.53,0,0,1,.13-.36,1.32,1.32,0,0,1,.41-.32,5.1,5.1,0,0,1,1.19-.48,5.58,5.58,0,0,1,1.33-.17C253.38,541.65,254.29,542.61,254.29,544.53Zm-1.76,3.14a2.14,2.14,0,0,0,.58-1.56v-.44h-.27a14.22,14.22,0,0,0-2,.11,1.92,1.92,0,0,0-1,.38,1,1,0,0,0-.3.77,1.27,1.27,0,0,0,.43,1,1.56,1.56,0,0,0,1.07.38A2,2,0,0,0,252.53,547.67Z"/><path class="cls-3" d="M260.76,542.19a.52.52,0,0,1-.14.38.68.68,0,0,1-.46.18l-.45,0a2.07,2.07,0,0,0-1.5.71,2.36,2.36,0,0,0-.48,1.47v3.64a.58.58,0,0,1-.17.45.61.61,0,0,1-.43.15.64.64,0,0,1-.45-.16.57.57,0,0,1-.17-.44v-6.33a.54.54,0,0,1,.18-.44.63.63,0,0,1,.44-.16.54.54,0,0,1,.4.16.56.56,0,0,1,.17.43v.84a2.26,2.26,0,0,1,.89-1,3,3,0,0,1,1.33-.41h.21Q260.76,541.64,260.76,542.19Z"/><path class="cls-3" d="M267.6,547.58a.49.49,0,0,1,.12.34c0,.25-.18.48-.53.69a4.74,4.74,0,0,1-2.31.63,3.51,3.51,0,0,1-2.67-1,3.76,3.76,0,0,1-1-2.77,4.38,4.38,0,0,1,.44-2,3.23,3.23,0,0,1,1.22-1.34,3.35,3.35,0,0,1,1.79-.48,2.91,2.91,0,0,1,2.27.93,3.62,3.62,0,0,1,.84,2.52.68.68,0,0,1-.12.44.5.5,0,0,1-.39.13h-4.83c.09,1.72.9,2.58,2.44,2.58a2.78,2.78,0,0,0,1-.16,5.91,5.91,0,0,0,.9-.42,1.46,1.46,0,0,1,.52-.23A.35.35,0,0,1,267.6,547.58Zm-4.45-4.39a2.75,2.75,0,0,0-.68,1.7h4.24a2.58,2.58,0,0,0-.55-1.7,1.84,1.84,0,0,0-1.47-.59A2.06,2.06,0,0,0,263.15,543.19Z"/><path class="cls-3" d="M275.29,544.53v4.08a.63.63,0,0,1-.15.44.61.61,0,0,1-.43.16.64.64,0,0,1-.44-.16.6.6,0,0,1-.16-.44v-.72a2.18,2.18,0,0,1-.87,1,2.61,2.61,0,0,1-1.35.35,3,3,0,0,1-1.3-.28,2.37,2.37,0,0,1-.94-.8,1.94,1.94,0,0,1-.34-1.12,1.86,1.86,0,0,1,.42-1.29,2.62,2.62,0,0,1,1.38-.66,14.07,14.07,0,0,1,2.67-.2h.33v-.49a2,2,0,0,0-.37-1.32,1.5,1.5,0,0,0-1.19-.43,4.41,4.41,0,0,0-2.07.56,1.4,1.4,0,0,1-.57.26.39.39,0,0,1-.3-.14.5.5,0,0,1-.12-.35.53.53,0,0,1,.13-.36,1.32,1.32,0,0,1,.41-.32,5.1,5.1,0,0,1,1.19-.48,5.58,5.58,0,0,1,1.33-.17C274.38,541.65,275.29,542.61,275.29,544.53Zm-1.76,3.14a2.14,2.14,0,0,0,.58-1.56v-.44h-.27a14.22,14.22,0,0,0-2,.11,1.92,1.92,0,0,0-1,.38,1,1,0,0,0-.3.77,1.27,1.27,0,0,0,.43,1,1.56,1.56,0,0,0,1.07.38A2,2,0,0,0,273.53,547.67Z"/><path class="cls-3" d="M277.51,549a.85.85,0,0,1,.6-1.46.78.78,0,0,1,.58.24.92.92,0,0,1,0,1.22.82.82,0,0,1-.58.23A.85.85,0,0,1,277.51,549Z"/><circle class="cls-4" cx="169.6" cy="706.81" r="4.88"/><circle class="cls-5" cx="141.82" cy="706.81" r="4.88"/><circle class="cls-5" cx="197.38" cy="706.81" r="4.88"/><line class="cls-6" x1="278.81" y1="706.81" x2="306.87" y2="706.81"/><line class="cls-7" x1="278.81" y1="706.81" x2="306.87" y2="706.81"/><line class="cls-6" x1="301.76" y1="701.7" x2="306.87" y2="706.81"/><line class="cls-7" x1="301.76" y1="701.7" x2="306.87" y2="706.81"/><line class="cls-6" x1="301.76" y1="711.91" x2="306.87" y2="706.81"/><line class="cls-7" x1="301.76" y1="711.91" x2="306.87" y2="706.81"/><path class="cls-2" d="M32.81,713.61a4.64,4.64,0,0,1-1.56-.77.81.81,0,0,1-.32-.68.79.79,0,0,1,.18-.51.51.51,0,0,1,.41-.21,1.1,1.1,0,0,1,.57.19,4.14,4.14,0,0,0,1.26.63,5.15,5.15,0,0,0,1.46.2,2.87,2.87,0,0,0,1.57-.36,1.17,1.17,0,0,0,.54-1,.89.89,0,0,0-.51-.82,6.57,6.57,0,0,0-1.7-.55,10.39,10.39,0,0,1-2-.62,2.76,2.76,0,0,1-1.16-.9,2.3,2.3,0,0,1-.39-1.38,2.61,2.61,0,0,1,.49-1.56A3.27,3.27,0,0,1,33,704.16a4.94,4.94,0,0,1,2-.38,4.88,4.88,0,0,1,3.26,1.06,1.13,1.13,0,0,1,.26.3.81.81,0,0,1,.08.37.76.76,0,0,1-.18.51.5.5,0,0,1-.41.22.71.71,0,0,1-.26,0l-.32-.15a4.86,4.86,0,0,0-1.11-.63,3.9,3.9,0,0,0-1.32-.2,2.58,2.58,0,0,0-1.51.39,1.21,1.21,0,0,0-.55,1.07,1,1,0,0,0,.49.88,6,6,0,0,0,1.67.57,11.35,11.35,0,0,1,2,.63,2.88,2.88,0,0,1,1.19.87A2.13,2.13,0,0,1,38.7,711a2.53,2.53,0,0,1-.48,1.53,3.14,3.14,0,0,1-1.36,1,5,5,0,0,1-2,.37A7.13,7.13,0,0,1,32.81,713.61Z"/><path class="cls-2" d="M48.3,713a.84.84,0,0,1-.82.81.9.9,0,0,1-.64-.29l-4.67-4.37V713a.85.85,0,0,1-.91.91.91.91,0,0,1-.65-.25.92.92,0,0,1-.24-.66v-8.22a.88.88,0,0,1,.24-.65.91.91,0,0,1,.65-.25.92.92,0,0,1,.67.25.88.88,0,0,1,.24.65v3.6l4.51-4.23a.79.79,0,0,1,.58-.25.77.77,0,0,1,.56.24.78.78,0,0,1,.25.57.84.84,0,0,1-.28.59L44,708.69l4,3.73A.8.8,0,0,1,48.3,713Z"/><path class="cls-2" d="M49.85,713.61a.92.92,0,0,1-.24-.66v-8.22a.88.88,0,0,1,.24-.65.91.91,0,0,1,.65-.25.92.92,0,0,1,.67.25.88.88,0,0,1,.24.65V713a.85.85,0,0,1-.91.91A.91.91,0,0,1,49.85,713.61Z"/><path class="cls-2" d="M53.79,713.61a.86.86,0,0,1-.25-.66v-8.19a.85.85,0,0,1,.23-.63.9.9,0,0,1,.64-.23h3.44a3.61,3.61,0,0,1,2.47.79,3.25,3.25,0,0,1,0,4.45,3.56,3.56,0,0,1-2.47.8h-2.5v3a.93.93,0,0,1-1.56.66Zm3.84-5.06q1.86,0,1.86-1.62c0-1.08-.62-1.63-1.86-1.63H55.35v3.25Z"/><circle class="cls-8" cx="169.6" cy="245.55" r="111.4"/><path class="cls-6" d="M53.37,254.62a2.12,2.12,0,0,1-2.87-2.88,28.11,28.11,0,0,1,2.07-4.31,32.38,32.38,0,0,1,5-6.37,32,32,0,0,1,6.36-5A29.49,29.49,0,0,1,68.23,234a2.13,2.13,0,0,1,2.88,2.88A30.5,30.5,0,0,1,69,241.22a33.06,33.06,0,0,1-11.35,11.32A28.63,28.63,0,0,1,53.37,254.62Z"/><path class="cls-6" d="M50.5,236.88c-.78-2.07.8-3.64,2.87-2.87a28.6,28.6,0,0,1,4.31,2.07A33.2,33.2,0,0,1,69,247.41a29.5,29.5,0,0,1,2.08,4.34,2.13,2.13,0,0,1-2.88,2.87,29.46,29.46,0,0,1-4.34-2.08,33.06,33.06,0,0,1-11.32-11.35A27.67,27.67,0,0,1,50.5,236.88Z"/><path class="cls-9" d="M291.72,217.51a1.65,1.65,0,0,1-2.23-2.23,22.92,22.92,0,0,1,1.61-3.34,25.46,25.46,0,0,1,3.84-4.93,24.92,24.92,0,0,1,4.93-3.85,22.67,22.67,0,0,1,3.36-1.61,1.64,1.64,0,0,1,2.22,2.22,22.67,22.67,0,0,1-1.61,3.36,25.47,25.47,0,0,1-8.78,8.77A22.92,22.92,0,0,1,291.72,217.51Z"/><path class="cls-9" d="M289.49,203.78a1.65,1.65,0,0,1,2.23-2.23,22.92,22.92,0,0,1,3.34,1.61,25.47,25.47,0,0,1,8.78,8.77,22.67,22.67,0,0,1,1.61,3.36,1.64,1.64,0,0,1-2.22,2.22,22.67,22.67,0,0,1-3.36-1.61,24.92,24.92,0,0,1-4.93-3.85,25.23,25.23,0,0,1-3.84-4.94A22.31,22.31,0,0,1,289.49,203.78Z"/><path class="cls-9" d="M271,278a1.69,1.69,0,0,1,0-3.24,23.39,23.39,0,0,1,3.6-1.26,25.42,25.42,0,0,1,6.39-.79,25,25,0,0,1,6.4.78,23.67,23.67,0,0,1,3.62,1.27,1.69,1.69,0,0,1,0,3.24,22.7,22.7,0,0,1-3.62,1.28,26.44,26.44,0,0,1-12.79,0A23.45,23.45,0,0,1,271,278Z"/><path class="cls-9" d="M279.38,266.4a1.69,1.69,0,0,1,3.24,0,23.45,23.45,0,0,1,1.27,3.6,26.37,26.37,0,0,1,.79,6.39,25.89,25.89,0,0,1-.78,6.4,22.7,22.7,0,0,1-1.28,3.62,1.69,1.69,0,0,1-3.24,0,22.64,22.64,0,0,1-1.27-3.62,25,25,0,0,1-.78-6.4,25.42,25.42,0,0,1,.79-6.39A22.37,22.37,0,0,1,279.38,266.4Z"/><path class="cls-6" d="M72.11,186.78a1.13,1.13,0,0,1,0-2.16,15.31,15.31,0,0,1,2.4-.85,17.91,17.91,0,0,1,4.28-.53,16.93,16.93,0,0,1,4.27.53,15.52,15.52,0,0,1,2.42.85,1.13,1.13,0,0,1,0,2.16,13.7,13.7,0,0,1-2.42.85,16.93,16.93,0,0,1-4.27.53,17.42,17.42,0,0,1-4.28-.53A15.31,15.31,0,0,1,72.11,186.78Z"/><path class="cls-6" d="M77.71,179a1.13,1.13,0,0,1,2.17,0,16.33,16.33,0,0,1,.84,2.4,17.67,17.67,0,0,1,0,8.55,14.61,14.61,0,0,1-.86,2.42,1.13,1.13,0,0,1-2.16,0,15.52,15.52,0,0,1-.85-2.42,16.47,16.47,0,0,1-.52-4.27,17.4,17.4,0,0,1,.52-4.28A15.31,15.31,0,0,1,77.71,179Z"/><circle class="cls-9" cx="35.98" cy="196.95" r="5.97"/><circle class="cls-6" cx="269.79" cy="233.81" r="4.58"/><circle class="cls-10" cx="168.57" cy="256.82" r="28.75"/><circle class="cls-11" cx="168.57" cy="256.82" r="19.58"/><circle class="cls-1" cx="171.44" cy="259.69" r="16.72"/><circle class="cls-12" cx="168.57" cy="256.82" r="19.58"/><circle class="cls-10" cx="193.12" cy="256.82" r="28.75"/><circle class="cls-11" cx="193.12" cy="256.82" r="19.58"/><circle class="cls-1" cx="195.99" cy="259.69" r="16.72"/><circle class="cls-12" cx="193.12" cy="256.82" r="19.58"/><path class="cls-12" d="M245.92,202.06h0a6,6,0,0,0-2.21,2.08,6.18,6.18,0,0,0-.91,4.06l-31.53-16.07a2.64,2.64,0,0,1-1.15-3.54l.75-1.47a2.63,2.63,0,0,1,3.53-1.14Z"/><path class="cls-12" d="M250.22,213.47l-16.5,46.26a2.64,2.64,0,0,1-3.36,1.6l-1.55-.56a2.63,2.63,0,0,1-1.59-3.36l16.59-46.49a6.16,6.16,0,0,0,6.41,2.55Z"/><path class="cls-12" d="M254.11,210.75a6.16,6.16,0,0,1-10.3.17h0a6.06,6.06,0,0,1-1-2.7,6.18,6.18,0,0,1,.91-4.06,6,6,0,0,1,2.21-2.08h0a6.16,6.16,0,0,1,8.19,8.69Z"/><rect class="cls-13" x="194.1" y="176.99" width="15.46" height="27" rx="7.73" ry="7.73" transform="translate(284.36 455.47) rotate(-150.64)"/><rect class="cls-3" x="197.36" y="180.3" width="8.74" height="17.35" rx="4.37" ry="4.37" transform="translate(118.55 -74.63) rotate(29.36)"/><rect class="cls-12" x="194.1" y="176.99" width="15.46" height="27" rx="7.73" ry="7.73" transform="translate(284.36 455.47) rotate(-150.64)"/><circle class="cls-14" cx="191.11" cy="209.56" r="9.95"/><path class="cls-15" d="M172.69,199.2l36.83,20.72a21.13,21.13,0,0,0-36.83-20.72Z"/><path class="cls-3" d="M175.78,199.62l27.41,15.43c3.91-7,.95-16.05-6.62-20.3S179.69,192.67,175.78,199.62Z"/><line class="cls-16" x1="169.61" y1="260.19" x2="169.61" y2="260.18"/><rect class="cls-17" x="95.39" y="237.51" width="21.5" height="13.61"/><rect class="cls-14" x="95.39" y="251.12" width="21.5" height="13.62"/><rect class="cls-18" x="123.9" y="237.51" width="21.5" height="27.23"/><rect class="cls-19" x="109.64" y="204.53" width="21.5" height="27.23"/><line class="cls-20" x1="126.9" y1="246.99" x2="142.4" y2="246.99"/><circle class="cls-1" cx="134.65" cy="256.82" r="5.7"/><rect class="cls-21" x="137.05" y="240.49" width="5.36" height="21.25"/><rect class="cls-21" x="108.42" y="240.49" width="5.36" height="21.25"/><line class="cls-20" x1="112.64" y1="209.53" x2="128.14" y2="209.53"/><line class="cls-20" x1="112.64" y1="218.15" x2="128.14" y2="218.15"/><rect class="cls-21" x="122.79" y="207.45" width="5.36" height="21.25"/><line class="cls-12" x1="169.61" y1="260.19" x2="169.61" y2="260.18"/><polygon class="cls-16" points="244.33 296.02 244.33 356.95 169.61 356.95 169.61 260.19 169.62 260.19 199.89 296.02 244.33 296.02"/><polygon class="cls-16" points="169.61 260.19 169.61 356.95 94.89 356.95 94.89 296.02 139.33 296.02 169.6 260.19 169.61 260.19"/><path class="cls-22" d="M94.89,314.45h45.79a13.48,13.48,0,0,0,11.4-6.28l17.53-27.78v-20.2H97.74Z"/><path class="cls-22" d="M244.34,314.45H198.55a13.48,13.48,0,0,1-11.4-6.28l-17.53-27.78v-20.2h71.88Z"/><path class="cls-16" d="M169.6,260.19,139.33,300.6H64.61l28.57-38.13a5.7,5.7,0,0,1,4.56-2.28Z"/><path class="cls-16" d="M274.61,300.6H199.89l-30.27-40.41h71.86a5.7,5.7,0,0,1,4.56,2.28Z"/><path class="cls-21" d="M169.62,259v96.76h74.71v-6.25H187a10.49,10.49,0,0,1-10.46-9.6L174.6,259Z"/><line class="cls-23" x1="243.08" y1="342.63" x2="224.58" y2="342.63"/><line class="cls-23" x1="243.08" y1="336.96" x2="216.49" y2="336.96"/><polygon class="cls-12" points="244.33 300.6 244.33 356.95 169.61 356.95 169.61 260.19 169.62 260.19 199.89 300.6 244.33 300.6"/><polygon class="cls-21" points="169.62 355.78 169.6 355.78 169.6 355.39 169.62 355.78"/><path class="cls-21" d="M169.6,259v96.76H94.89v-6.25h57.33a10.49,10.49,0,0,0,10.46-9.6L164.62,259Z"/><polygon class="cls-12" points="169.61 260.19 169.61 356.95 94.89 356.95 94.89 300.6 139.33 300.6 169.6 260.19 169.61 260.19"/><path class="cls-24" d="M169.65,265H99.84a5.38,5.38,0,0,0-3.94,1.72L64.61,300.6l30.28-40.41L169.6,259Z"/><path class="cls-24" d="M169.65,265h69.81a5.4,5.4,0,0,1,3.94,1.72l31.29,33.93-30.28-40.41L169.7,259Z"/><path class="cls-12" d="M169.6,260.19,139.33,300.6H64.61l28.57-38.13a5.7,5.7,0,0,1,4.56-2.28Z"/><path class="cls-12" d="M274.61,300.6H199.89l-30.27-40.41h71.86a5.7,5.7,0,0,1,4.56,2.28Z"/><path class="cls-12" d="M172.69,199.2l36.83,20.72a21.13,21.13,0,0,0-36.83-20.72Z"/></g></g></svg>