<svg xmlns="http://www.w3.org/2000/svg" viewBox="0 0 339.2 734.48"><defs><style>.cls-1,.cls-6{fill:#fff;}.cls-2{fill:#b3b3b3;}.cls-3{fill:#4d4d4d;}.cls-4,.cls-5{fill:#00b4bc;}.cls-5{opacity:0.18;}.cls-15,.cls-6,.cls-7{stroke:#4d4d4d;stroke-linecap:round;stroke-linejoin:round;stroke-width:6px;}.cls-7{fill:#22b573;}.cls-8{fill:#666;}.cls-9{fill:#f18057;}.cls-10,.cls-15{fill:none;}.cls-11{fill:#8ccbe6;}.cls-12{fill:#fcee7f;}.cls-13{fill:#ff6969;}.cls-14{opacity:0.2;}.cls-16{fill:#ff8091;}</style></defs><title>sdasdAsset 7</title><g id="Layer_2" data-name="Layer 2"><g id="Layer_1-2" data-name="Layer 1"><rect class="cls-1" width="339.2" height="734.48"/><path class="cls-2" d="M57,520.66a.63.63,0,0,1,.16.46v9.49a.63.63,0,0,1-.15.44.54.54,0,0,1-.42.16.5.5,0,0,1-.41-.16.68.68,0,0,1-.13-.44V523l-3.26,6.24a.65.65,0,0,1-.61.43.68.68,0,0,1-.62-.43L48.27,523v7.59a.63.63,0,0,1-.14.44.5.5,0,0,1-.41.16.54.54,0,0,1-.42-.16.63.63,0,0,1-.15-.44v-9.49a.63.63,0,0,1,.16-.46.57.57,0,0,1,.45-.17.67.67,0,0,1,.6.43l3.81,7.31,3.77-7.31a1,1,0,0,1,.26-.34.64.64,0,0,1,.34-.09A.54.54,0,0,1,57,520.66Z"/><path class="cls-2" d="M65.31,526.53v4.08a.63.63,0,0,1-.15.44.57.57,0,0,1-.43.16.55.55,0,0,1-.6-.6v-.72a2.18,2.18,0,0,1-.87,1,2.61,2.61,0,0,1-1.35.35,3,3,0,0,1-1.3-.28,2.37,2.37,0,0,1-.94-.8,1.94,1.94,0,0,1-.34-1.12,1.86,1.86,0,0,1,.42-1.29,2.62,2.62,0,0,1,1.38-.66,14.07,14.07,0,0,1,2.67-.2h.33v-.49a2,2,0,0,0-.37-1.32,1.5,1.5,0,0,0-1.19-.42,4.4,4.4,0,0,0-2.07.55,1.4,1.4,0,0,1-.57.26.39.39,0,0,1-.3-.14.49.49,0,0,1-.12-.34.54.54,0,0,1,.13-.37,1.32,1.32,0,0,1,.41-.32,5.1,5.1,0,0,1,1.19-.48,5.58,5.58,0,0,1,1.33-.17C64.4,523.65,65.31,524.61,65.31,526.53Zm-1.76,3.14a2.14,2.14,0,0,0,.58-1.56v-.44h-.27a14.22,14.22,0,0,0-2,.11,1.92,1.92,0,0,0-1,.38,1,1,0,0,0-.3.77,1.27,1.27,0,0,0,.43,1,1.57,1.57,0,0,0,1.07.38A1.93,1.93,0,0,0,63.55,529.67Z"/><path class="cls-2" d="M73.61,530.66a.53.53,0,0,1-.16.39.49.49,0,0,1-.38.16.65.65,0,0,1-.41-.18l-3.91-3.37v3a.57.57,0,0,1-.17.44.6.6,0,0,1-.43.16.6.6,0,0,1-.44-.16.54.54,0,0,1-.18-.44v-9.52a.58.58,0,0,1,.18-.45.63.63,0,0,1,.44-.15.64.64,0,0,1,.43.15.61.61,0,0,1,.17.45v6.09l3.58-3.29a.57.57,0,0,1,.41-.18.54.54,0,0,1,.39.17.53.53,0,0,1,.16.39.6.6,0,0,1-.21.45l-3,2.64,3.24,2.82A.66.66,0,0,1,73.61,530.66Z"/><path class="cls-2" d="M80.84,529.58a.49.49,0,0,1,.12.34c0,.25-.18.48-.53.69a4.74,4.74,0,0,1-2.31.63,3.54,3.54,0,0,1-2.67-1,3.8,3.8,0,0,1-1-2.78,4.38,4.38,0,0,1,.44-2,3.3,3.3,0,0,1,1.22-1.34,3.38,3.38,0,0,1,1.79-.48,2.91,2.91,0,0,1,2.27.93A3.62,3.62,0,0,1,81,527.1a.66.66,0,0,1-.12.44.5.5,0,0,1-.39.13H75.68c.09,1.72.9,2.58,2.44,2.58a2.78,2.78,0,0,0,1-.16,5.91,5.91,0,0,0,.9-.42,1.46,1.46,0,0,1,.52-.23A.38.38,0,0,1,80.84,529.58Zm-4.45-4.38a2.75,2.75,0,0,0-.68,1.69H80a2.58,2.58,0,0,0-.55-1.7,1.84,1.84,0,0,0-1.47-.59A2,2,0,0,0,76.39,525.2Z"/><path class="cls-2" d="M92.4,526.53v4.08a.63.63,0,0,1-.15.44.57.57,0,0,1-.43.16.55.55,0,0,1-.6-.6v-.72a2.18,2.18,0,0,1-.87,1,2.61,2.61,0,0,1-1.35.35,3,3,0,0,1-1.3-.28,2.37,2.37,0,0,1-.94-.8,1.94,1.94,0,0,1-.34-1.12,1.86,1.86,0,0,1,.42-1.29,2.62,2.62,0,0,1,1.38-.66,14.07,14.07,0,0,1,2.67-.2h.33v-.49a2,2,0,0,0-.37-1.32,1.5,1.5,0,0,0-1.19-.42,4.4,4.4,0,0,0-2.07.55,1.4,1.4,0,0,1-.57.26.39.39,0,0,1-.3-.14.49.49,0,0,1-.12-.34.54.54,0,0,1,.13-.37,1.32,1.32,0,0,1,.41-.32,5.1,5.1,0,0,1,1.19-.48,5.58,5.58,0,0,1,1.33-.17C91.49,523.65,92.4,524.61,92.4,526.53Zm-1.76,3.14a2.14,2.14,0,0,0,.58-1.56v-.44H91a14.22,14.22,0,0,0-2,.11,1.92,1.92,0,0,0-1,.38,1,1,0,0,0-.3.77,1.27,1.27,0,0,0,.43,1,1.57,1.57,0,0,0,1.07.38A1.93,1.93,0,0,0,90.64,529.67Z"/><path class="cls-2" d="M102.39,530.73a.43.43,0,0,1-.18.38.88.88,0,0,1-.57.1l-.4,0a2.54,2.54,0,0,1-1.77-.72,2.75,2.75,0,0,1-.57-1.9v-3.77h-1a.53.53,0,0,1-.39-.13.4.4,0,0,1-.15-.33.46.46,0,0,1,.15-.36.53.53,0,0,1,.39-.14h1v-1.69a.61.61,0,0,1,.16-.45.64.64,0,0,1,.45-.15.63.63,0,0,1,.44.15.61.61,0,0,1,.16.45v1.69h1.67a.52.52,0,0,1,.38.14.45.45,0,0,1,.14.36.39.39,0,0,1-.14.33.52.52,0,0,1-.38.13h-1.67v3.83a1.76,1.76,0,0,0,.34,1.19,1.47,1.47,0,0,0,1,.41l.41,0C102.22,530.28,102.39,530.44,102.39,530.73Z"/><path class="cls-2" d="M109.32,526.53v4.08a.63.63,0,0,1-.15.44.57.57,0,0,1-.43.16.55.55,0,0,1-.6-.6v-.72a2.18,2.18,0,0,1-.87,1,2.61,2.61,0,0,1-1.35.35,3,3,0,0,1-1.3-.28,2.37,2.37,0,0,1-.94-.8,1.94,1.94,0,0,1-.34-1.12,1.86,1.86,0,0,1,.42-1.29,2.62,2.62,0,0,1,1.38-.66,14.07,14.07,0,0,1,2.67-.2h.33v-.49a2,2,0,0,0-.37-1.32,1.5,1.5,0,0,0-1.19-.42,4.4,4.4,0,0,0-2.07.55,1.4,1.4,0,0,1-.57.26.39.39,0,0,1-.3-.14.49.49,0,0,1-.12-.34.54.54,0,0,1,.13-.37,1.32,1.32,0,0,1,.41-.32,5.1,5.1,0,0,1,1.19-.48,5.58,5.58,0,0,1,1.33-.17C108.41,523.65,109.32,524.61,109.32,526.53Zm-1.76,3.14a2.14,2.14,0,0,0,.58-1.56v-.44h-.27a14.22,14.22,0,0,0-2,.11,1.92,1.92,0,0,0-1,.38,1,1,0,0,0-.3.77,1.27,1.27,0,0,0,.43,1,1.57,1.57,0,0,0,1.07.38A1.93,1.93,0,0,0,107.56,529.67Z"/><path class="cls-2" d="M117.84,526.55v4.06a.63.63,0,0,1-1,.44.57.57,0,0,1-.16-.44v-4a2.22,2.22,0,0,0-.4-1.48,1.58,1.58,0,0,0-1.27-.47,2.13,2.13,0,0,0-1.6.62,2.27,2.27,0,0,0-.6,1.66v3.66a.55.55,0,0,1-.6.6.61.61,0,0,1-.45-.16.57.57,0,0,1-.17-.44v-6.33a.58.58,0,0,1,.17-.43.61.61,0,0,1,.45-.17.58.58,0,0,1,.43.17.6.6,0,0,1,.15.42V525a2.51,2.51,0,0,1,1-1,3.07,3.07,0,0,1,1.47-.35C117,523.65,117.84,524.62,117.84,526.55Z"/><path class="cls-2" d="M126.44,523.85a.57.57,0,0,1,.16.43v6.36a3.34,3.34,0,0,1-.84,2.47,3.42,3.42,0,0,1-2.49.83,5.17,5.17,0,0,1-2.67-.63q-.54-.3-.54-.69a.49.49,0,0,1,.12-.34.36.36,0,0,1,.29-.14,1.46,1.46,0,0,1,.54.21,6.93,6.93,0,0,0,1,.44,4,4,0,0,0,1.22.16,2.13,2.13,0,0,0,1.6-.56,2.28,2.28,0,0,0,.54-1.64v-1.29a2.3,2.3,0,0,1-1,1.08,3.05,3.05,0,0,1-1.54.37,3.2,3.2,0,0,1-1.7-.45,3,3,0,0,1-1.16-1.27,4.29,4.29,0,0,1-.41-1.91,4.25,4.25,0,0,1,.41-1.9,3.07,3.07,0,0,1,1.16-1.28,3.2,3.2,0,0,1,1.7-.45,2.94,2.94,0,0,1,1.51.38,2.4,2.4,0,0,1,1,1.06v-.81a.57.57,0,0,1,.6-.6A.61.61,0,0,1,126.44,523.85Zm-1.65,5.36a3.4,3.4,0,0,0,0-3.84,2.06,2.06,0,0,0-1.66-.7,2.08,2.08,0,0,0-1.67.7,2.77,2.77,0,0,0-.61,1.91,2.83,2.83,0,0,0,.61,1.93,2.11,2.11,0,0,0,1.67.7A2.08,2.08,0,0,0,124.79,529.21Z"/><path class="cls-2" d="M128.88,521.9a.73.73,0,0,1-.22-.56.7.7,0,0,1,.22-.54.84.84,0,0,1,.59-.21.81.81,0,0,1,.58.21.71.71,0,0,1,.23.54.74.74,0,0,1-.23.56.81.81,0,0,1-.58.21A.84.84,0,0,1,128.88,521.9Zm.15,9.15a.54.54,0,0,1-.18-.44v-6.33a.54.54,0,0,1,.18-.44.6.6,0,0,1,.44-.16.57.57,0,0,1,.6.6v6.33a.58.58,0,0,1-.17.45.61.61,0,0,1-.43.15A.6.6,0,0,1,129,531.05Z"/><path class="cls-2" d="M137.7,524.12a3.08,3.08,0,0,1,1.14,1.32,4.58,4.58,0,0,1,.41,2,4.67,4.67,0,0,1-.41,2,3.19,3.19,0,0,1-1.14,1.34,3,3,0,0,1-1.69.48,2.87,2.87,0,0,1-1.49-.37,2.4,2.4,0,0,1-1-1.07v.81a.6.6,0,0,1-.16.44.57.57,0,0,1-.44.16.57.57,0,0,1-.62-.6v-9.54a.57.57,0,0,1,.17-.42.72.72,0,0,1,.89,0,.57.57,0,0,1,.16.43v4a2.37,2.37,0,0,1,1-1.06,2.87,2.87,0,0,1,1.49-.38A3.09,3.09,0,0,1,137.7,524.12Zm-.28,5.37a3.25,3.25,0,0,0,.58-2.07,3.15,3.15,0,0,0-.58-2,2,2,0,0,0-1.65-.72,2,2,0,0,0-1.64.72,3.95,3.95,0,0,0,0,4.12,2.2,2.2,0,0,0,3.29,0Z"/><path class="cls-2" d="M141.24,531.05a.54.54,0,0,1-.18-.44v-9.52a.58.58,0,0,1,.18-.45.63.63,0,0,1,.44-.15.64.64,0,0,1,.43.15.61.61,0,0,1,.17.45v9.52a.57.57,0,0,1-.17.44.6.6,0,0,1-.43.16A.6.6,0,0,1,141.24,531.05Z"/><path class="cls-2" d="M150.48,529.58a.49.49,0,0,1,.12.34c0,.25-.17.48-.52.69a4.74,4.74,0,0,1-2.31.63,3.58,3.58,0,0,1-2.68-1,3.83,3.83,0,0,1-1-2.78,4.38,4.38,0,0,1,.43-2,3.25,3.25,0,0,1,1.23-1.34,3.35,3.35,0,0,1,1.79-.48,2.89,2.89,0,0,1,2.26.93,3.62,3.62,0,0,1,.84,2.52.66.66,0,0,1-.12.44.5.5,0,0,1-.39.13h-4.83c.09,1.72.91,2.58,2.45,2.58a2.72,2.72,0,0,0,1-.16,5.91,5.91,0,0,0,.9-.42,1.48,1.48,0,0,1,.53-.23A.37.37,0,0,1,150.48,529.58ZM146,525.2a2.7,2.7,0,0,0-.69,1.69h4.25a2.58,2.58,0,0,0-.56-1.7,1.84,1.84,0,0,0-1.47-.59A2,2,0,0,0,146,525.2Z"/><path class="cls-2" d="M162.63,520.65a.57.57,0,0,1,.17.42v9.54a.57.57,0,0,1-.62.6.57.57,0,0,1-.44-.16.6.6,0,0,1-.16-.44v-.81a2.44,2.44,0,0,1-1,1.07,2.93,2.93,0,0,1-1.5.37,3,3,0,0,1-1.69-.48,3.19,3.19,0,0,1-1.14-1.34,4.67,4.67,0,0,1-.41-2,4.58,4.58,0,0,1,.41-2,3,3,0,0,1,2.83-1.79,2.93,2.93,0,0,1,1.5.38,2.41,2.41,0,0,1,1,1.06v-4a.57.57,0,0,1,.16-.43.72.72,0,0,1,.89,0ZM161,529.51a4,4,0,0,0,0-4.12,2.25,2.25,0,0,0-3.3,0,3.09,3.09,0,0,0-.6,2,3.19,3.19,0,0,0,.6,2.07,2,2,0,0,0,1.65.75A2,2,0,0,0,161,529.51Z"/><path class="cls-2" d="M165.08,521.9a.74.74,0,0,1-.23-.56.71.71,0,0,1,.23-.54.81.81,0,0,1,.58-.21.84.84,0,0,1,.59.21.7.7,0,0,1,.22.54.73.73,0,0,1-.22.56.84.84,0,0,1-.59.21A.81.81,0,0,1,165.08,521.9Zm.14,9.15a.57.57,0,0,1-.17-.44v-6.33a.57.57,0,0,1,.17-.44.61.61,0,0,1,.44-.16.6.6,0,0,1,.44.16.57.57,0,0,1,.16.44v6.33a.58.58,0,0,1-.16.45.63.63,0,0,1-.44.15A.61.61,0,0,1,165.22,531.05Z"/><path class="cls-2" d="M170.55,522a1.92,1.92,0,0,0-.4,1.33v.48h1.66a.53.53,0,0,1,.39.14.49.49,0,0,1,.14.36.43.43,0,0,1-.14.34.57.57,0,0,1-.39.12h-1.66v5.82a.54.54,0,0,1-.18.44.57.57,0,0,1-.42.16.64.64,0,0,1-.45-.16.57.57,0,0,1-.17-.44v-5.82h-1a.57.57,0,0,1-.4-.13.39.39,0,0,1-.14-.33.45.45,0,0,1,.14-.36.57.57,0,0,1,.4-.14h1v-.27a3.1,3.1,0,0,1,.68-2.12,2.67,2.67,0,0,1,1.93-.86l.39,0a1,1,0,0,1,.57.07.42.42,0,0,1,.17.38c0,.29-.18.45-.53.49l-.39,0A1.75,1.75,0,0,0,170.55,522Z"/><path class="cls-2" d="M175.47,522a1.92,1.92,0,0,0-.4,1.33v.48h1.66a.53.53,0,0,1,.39.14.49.49,0,0,1,.14.36.43.43,0,0,1-.14.34.57.57,0,0,1-.39.12h-1.66v5.82a.54.54,0,0,1-.18.44.57.57,0,0,1-.42.16.64.64,0,0,1-.45-.16.57.57,0,0,1-.17-.44v-5.82h-1a.57.57,0,0,1-.4-.13.39.39,0,0,1-.14-.33.45.45,0,0,1,.14-.36.57.57,0,0,1,.4-.14h1v-.27a3.1,3.1,0,0,1,.68-2.12,2.67,2.67,0,0,1,1.93-.86l.39,0a1,1,0,0,1,.57.07.42.42,0,0,1,.17.38c0,.29-.18.45-.53.49l-.39,0A1.75,1.75,0,0,0,175.47,522Z"/><path class="cls-2" d="M184.23,529.58a.49.49,0,0,1,.12.34c0,.25-.17.48-.52.69a4.74,4.74,0,0,1-2.31.63,3.57,3.57,0,0,1-2.68-1,3.79,3.79,0,0,1-1-2.78,4.38,4.38,0,0,1,.43-2,3.3,3.3,0,0,1,1.22-1.34,3.41,3.41,0,0,1,1.8-.48,2.89,2.89,0,0,1,2.26.93,3.62,3.62,0,0,1,.84,2.52.66.66,0,0,1-.12.44.5.5,0,0,1-.39.13h-4.83c.09,1.72.91,2.58,2.45,2.58a2.72,2.72,0,0,0,1-.16,5.91,5.91,0,0,0,.9-.42,1.48,1.48,0,0,1,.53-.23A.37.37,0,0,1,184.23,529.58Zm-4.45-4.38a2.75,2.75,0,0,0-.68,1.69h4.25a2.58,2.58,0,0,0-.56-1.7,1.84,1.84,0,0,0-1.47-.59A2,2,0,0,0,179.78,525.2Z"/><path class="cls-2" d="M190.44,524.19a.52.52,0,0,1-.13.38.71.71,0,0,1-.47.18l-.45,0a2,2,0,0,0-1.49.71,2.31,2.31,0,0,0-.49,1.47v3.64a.58.58,0,0,1-.16.45.63.63,0,0,1-.44.15.6.6,0,0,1-.44-.16.57.57,0,0,1-.17-.44v-6.33a.54.54,0,0,1,.18-.44.6.6,0,0,1,.43-.16.55.55,0,0,1,.57.59v.84a2.32,2.32,0,0,1,.89-1,3,3,0,0,1,1.33-.4l.21,0Q190.44,523.64,190.44,524.19Z"/><path class="cls-2" d="M197.28,529.58a.49.49,0,0,1,.12.34c0,.25-.17.48-.52.69a4.74,4.74,0,0,1-2.31.63,3.57,3.57,0,0,1-2.68-1,3.79,3.79,0,0,1-1-2.78,4.38,4.38,0,0,1,.43-2,3.3,3.3,0,0,1,1.22-1.34,3.41,3.41,0,0,1,1.8-.48,2.89,2.89,0,0,1,2.26.93,3.62,3.62,0,0,1,.84,2.52.66.66,0,0,1-.12.44.5.5,0,0,1-.39.13h-4.83c.09,1.72.91,2.58,2.45,2.58a2.72,2.72,0,0,0,1-.16,5.91,5.91,0,0,0,.9-.42,1.48,1.48,0,0,1,.53-.23A.37.37,0,0,1,197.28,529.58Zm-4.45-4.38a2.75,2.75,0,0,0-.68,1.69h4.25a2.58,2.58,0,0,0-.56-1.7,1.84,1.84,0,0,0-1.47-.59A2,2,0,0,0,192.83,525.2Z"/><path class="cls-2" d="M205.55,526.55v4.06a.61.61,0,0,1-.16.44.58.58,0,0,1-.44.16.61.61,0,0,1-.45-.16.57.57,0,0,1-.17-.44v-4a2.22,2.22,0,0,0-.4-1.48,1.56,1.56,0,0,0-1.26-.47,2.15,2.15,0,0,0-1.61.62,2.27,2.27,0,0,0-.6,1.66v3.66a.55.55,0,0,1-.6.6.61.61,0,0,1-.45-.16.57.57,0,0,1-.16-.44v-6.33a.57.57,0,0,1,.16-.43.61.61,0,0,1,.45-.17.58.58,0,0,1,.43.17.61.61,0,0,1,.16.42V525a2.48,2.48,0,0,1,1-1,3.07,3.07,0,0,1,1.47-.35C204.67,523.65,205.55,524.62,205.55,526.55Z"/><path class="cls-2" d="M209,530.78a3.1,3.1,0,0,1-1.21-1.32,4.31,4.31,0,0,1-.43-2,4.43,4.43,0,0,1,.44-2,3.31,3.31,0,0,1,1.24-1.35,3.47,3.47,0,0,1,1.83-.48,4,4,0,0,1,1.13.16,3,3,0,0,1,1,.46,1.31,1.31,0,0,1,.38.35.7.7,0,0,1,.11.38.56.56,0,0,1-.11.35.36.36,0,0,1-.29.13.53.53,0,0,1-.23-.06,1.17,1.17,0,0,1-.2-.12l-.11-.07a4.7,4.7,0,0,0-.75-.41,2.17,2.17,0,0,0-.86-.15,2.08,2.08,0,0,0-1.7.74,3.17,3.17,0,0,0-.61,2.07,3,3,0,0,0,.61,2,2.09,2.09,0,0,0,1.7.72,2.35,2.35,0,0,0,.88-.15,4.24,4.24,0,0,0,.74-.41l.32-.18a.56.56,0,0,1,.25-.07.35.35,0,0,1,.28.13.56.56,0,0,1,.11.35.62.62,0,0,1-.1.35,1.56,1.56,0,0,1-.39.35,3.7,3.7,0,0,1-1,.46,4.39,4.39,0,0,1-1.19.17A3.51,3.51,0,0,1,209,530.78Z"/><path class="cls-2" d="M220.89,529.58a.49.49,0,0,1,.12.34c0,.25-.17.48-.52.69a4.74,4.74,0,0,1-2.31.63,3.57,3.57,0,0,1-2.68-1,3.79,3.79,0,0,1-1-2.78,4.38,4.38,0,0,1,.43-2,3.3,3.3,0,0,1,1.22-1.34,3.41,3.41,0,0,1,1.8-.48,2.89,2.89,0,0,1,2.26.93,3.62,3.62,0,0,1,.84,2.52.66.66,0,0,1-.12.44.5.5,0,0,1-.39.13h-4.83c.09,1.72.91,2.58,2.45,2.58a2.72,2.72,0,0,0,1-.16,5.91,5.91,0,0,0,.9-.42,1.48,1.48,0,0,1,.53-.23A.37.37,0,0,1,220.89,529.58Zm-4.45-4.38a2.75,2.75,0,0,0-.68,1.69H220a2.58,2.58,0,0,0-.56-1.7,1.84,1.84,0,0,0-1.47-.59A2,2,0,0,0,216.44,525.2Z"/><path class="cls-2" d="M232.46,526.53v4.08a.64.64,0,0,1-.16.44.66.66,0,0,1-.86,0,.6.6,0,0,1-.17-.44v-.72a2.18,2.18,0,0,1-.87,1,2.61,2.61,0,0,1-1.35.35,3,3,0,0,1-1.3-.28,2.34,2.34,0,0,1-.93-.8,2,2,0,0,1-.35-1.12,1.86,1.86,0,0,1,.42-1.29,2.62,2.62,0,0,1,1.38-.66,14.07,14.07,0,0,1,2.67-.2h.33v-.49a2,2,0,0,0-.37-1.32,1.5,1.5,0,0,0-1.19-.42,4.4,4.4,0,0,0-2.07.55,1.4,1.4,0,0,1-.57.26.39.39,0,0,1-.3-.14.49.49,0,0,1-.12-.34.54.54,0,0,1,.13-.37,1.32,1.32,0,0,1,.41-.32,5.1,5.1,0,0,1,1.19-.48,5.58,5.58,0,0,1,1.33-.17C231.54,523.65,232.46,524.61,232.46,526.53Zm-1.77,3.14a2.14,2.14,0,0,0,.58-1.56v-.44H231a14.22,14.22,0,0,0-2,.11,1.92,1.92,0,0,0-1,.38,1,1,0,0,0-.29.77,1.26,1.26,0,0,0,.42,1,1.6,1.6,0,0,0,1.08.38A1.91,1.91,0,0,0,230.69,529.67Z"/><path class="cls-2" d="M241,526.55v4.06a.61.61,0,0,1-.16.44.58.58,0,0,1-.44.16.61.61,0,0,1-.45-.16.57.57,0,0,1-.17-.44v-4a2.22,2.22,0,0,0-.4-1.48,1.56,1.56,0,0,0-1.26-.47,2.15,2.15,0,0,0-1.61.62,2.27,2.27,0,0,0-.6,1.66v3.66a.55.55,0,0,1-.6.6.61.61,0,0,1-.45-.16.57.57,0,0,1-.16-.44v-6.33a.57.57,0,0,1,.16-.43.61.61,0,0,1,.45-.17.58.58,0,0,1,.43.17.61.61,0,0,1,.16.42V525a2.48,2.48,0,0,1,1-1,3.07,3.07,0,0,1,1.47-.35C240.1,523.65,241,524.62,241,526.55Z"/><path class="cls-2" d="M249.51,520.65a.57.57,0,0,1,.17.42v9.54a.57.57,0,0,1-.62.6.57.57,0,0,1-.44-.16.6.6,0,0,1-.16-.44v-.81a2.4,2.4,0,0,1-1,1.07,2.87,2.87,0,0,1-1.49.37,3,3,0,0,1-1.69-.48,3.19,3.19,0,0,1-1.14-1.34,4.67,4.67,0,0,1-.41-2,4.58,4.58,0,0,1,.41-2,3,3,0,0,1,2.83-1.79,2.87,2.87,0,0,1,1.49.38,2.37,2.37,0,0,1,1,1.06v-4a.57.57,0,0,1,.16-.43.72.72,0,0,1,.89,0Zm-1.63,8.86a3.95,3.95,0,0,0,0-4.12,2,2,0,0,0-1.64-.72,2,2,0,0,0-1.66.72,3.15,3.15,0,0,0-.59,2,3.25,3.25,0,0,0,.59,2.07,2,2,0,0,0,1.66.75A2,2,0,0,0,247.88,529.51Z"/><path class="cls-2" d="M257.82,522a1.92,1.92,0,0,0-.4,1.33v.48h1.66a.53.53,0,0,1,.39.14.49.49,0,0,1,.14.36.43.43,0,0,1-.14.34.57.57,0,0,1-.39.12h-1.66v5.82a.54.54,0,0,1-.18.44.57.57,0,0,1-.42.16.64.64,0,0,1-.45-.16.57.57,0,0,1-.17-.44v-5.82h-1a.55.55,0,0,1-.4-.13.39.39,0,0,1-.14-.33.45.45,0,0,1,.14-.36.56.56,0,0,1,.4-.14h1v-.27a3.1,3.1,0,0,1,.68-2.12,2.67,2.67,0,0,1,1.93-.86l.39,0a1,1,0,0,1,.56.07.41.41,0,0,1,.18.38c0,.29-.18.45-.53.49l-.39,0A1.75,1.75,0,0,0,257.82,522Z"/><path class="cls-2" d="M261.85,530.78a3.14,3.14,0,0,1-1.22-1.33,5,5,0,0,1,0-4,3.12,3.12,0,0,1,1.22-1.32,3.5,3.5,0,0,1,1.82-.47,3.56,3.56,0,0,1,1.83.47,3.06,3.06,0,0,1,1.22,1.32,4.89,4.89,0,0,1,0,4,3.08,3.08,0,0,1-1.22,1.33,3.55,3.55,0,0,1-1.83.46A3.49,3.49,0,0,1,261.85,530.78Zm3.48-1.26a4,4,0,0,0,0-4.14,2.25,2.25,0,0,0-3.3,0,4,4,0,0,0,0,4.14,2.27,2.27,0,0,0,3.32,0Z"/><path class="cls-2" d="M270.11,531.08a4.06,4.06,0,0,1-1.1-.47,1.31,1.31,0,0,1-.38-.34.59.59,0,0,1-.11-.38.43.43,0,0,1,.11-.32.35.35,0,0,1,.29-.13,1.15,1.15,0,0,1,.53.23,4.47,4.47,0,0,0,.89.42,3.16,3.16,0,0,0,1.1.16,2.35,2.35,0,0,0,1.26-.28.93.93,0,0,0,.45-.83.8.8,0,0,0-.16-.53,1.27,1.27,0,0,0-.57-.36,7.64,7.64,0,0,0-1.19-.32,4.45,4.45,0,0,1-1.89-.77,1.61,1.61,0,0,1-.57-1.3,1.89,1.89,0,0,1,.36-1.14,2.4,2.4,0,0,1,1-.78,3.51,3.51,0,0,1,1.45-.29,3.91,3.91,0,0,1,1.13.16,3.31,3.31,0,0,1,1,.44,1,1,0,0,1,.51.75.48.48,0,0,1-.12.33.38.38,0,0,1-.29.14,1.14,1.14,0,0,1-.54-.26,4.72,4.72,0,0,0-.79-.42,2.52,2.52,0,0,0-.93-.15,1.9,1.9,0,0,0-1.14.32,1,1,0,0,0-.42.84.88.88,0,0,0,.15.53,1.43,1.43,0,0,0,.53.36,6.46,6.46,0,0,0,1.06.31,7.66,7.66,0,0,1,1.58.49,1.63,1.63,0,0,1,1,1.65,1.78,1.78,0,0,1-.79,1.52,3.46,3.46,0,0,1-2.1.58A5.19,5.19,0,0,1,270.11,531.08Z"/><path class="cls-2" d="M280,530.73a.41.41,0,0,1-.19.38.83.83,0,0,1-.56.1l-.4,0a2.54,2.54,0,0,1-1.77-.72,2.75,2.75,0,0,1-.57-1.9v-3.77h-1a.57.57,0,0,1-.4-.13.42.42,0,0,1-.14-.33.49.49,0,0,1,.14-.36.57.57,0,0,1,.4-.14h1v-1.69a.61.61,0,0,1,.16-.45.64.64,0,0,1,.45-.15.63.63,0,0,1,.44.15.61.61,0,0,1,.16.45v1.69h1.67a.54.54,0,0,1,.38.14.49.49,0,0,1,.14.36.42.42,0,0,1-.14.33.53.53,0,0,1-.38.13h-1.67v3.83a1.71,1.71,0,0,0,.34,1.19,1.45,1.45,0,0,0,1,.41l.41,0C279.82,530.28,280,530.44,280,530.73Z"/><path class="cls-2" d="M287.13,529.58a.49.49,0,0,1,.12.34c0,.25-.17.48-.52.69a4.74,4.74,0,0,1-2.31.63,3.57,3.57,0,0,1-2.68-1,3.79,3.79,0,0,1-1-2.78,4.38,4.38,0,0,1,.43-2,3.3,3.3,0,0,1,1.22-1.34,3.41,3.41,0,0,1,1.8-.48,2.89,2.89,0,0,1,2.26.93,3.62,3.62,0,0,1,.84,2.52.66.66,0,0,1-.12.44.5.5,0,0,1-.39.13H282c.09,1.72.91,2.58,2.45,2.58a2.72,2.72,0,0,0,1-.16,5.91,5.91,0,0,0,.9-.42,1.48,1.48,0,0,1,.53-.23A.37.37,0,0,1,287.13,529.58Zm-4.45-4.38a2.75,2.75,0,0,0-.68,1.69h4.25a2.58,2.58,0,0,0-.56-1.7,1.84,1.84,0,0,0-1.47-.59A2,2,0,0,0,282.68,525.2Z"/><path class="cls-2" d="M293.34,524.19a.52.52,0,0,1-.13.38.71.71,0,0,1-.47.18l-.45,0a2,2,0,0,0-1.49.71,2.31,2.31,0,0,0-.49,1.47v3.64a.58.58,0,0,1-.16.45.63.63,0,0,1-.44.15.6.6,0,0,1-.44-.16.54.54,0,0,1-.17-.44v-6.33a.54.54,0,0,1,.18-.44.6.6,0,0,1,.43-.16.55.55,0,0,1,.57.59v.84a2.32,2.32,0,0,1,.89-1,3,3,0,0,1,1.33-.4l.21,0Q293.34,523.64,293.34,524.19Z"/><path class="cls-2" d="M93.32,544.53v4.08a.6.6,0,0,1-.16.44.56.56,0,0,1-.43.16.57.57,0,0,1-.43-.16.6.6,0,0,1-.17-.44v-.72a2.18,2.18,0,0,1-.87,1,2.61,2.61,0,0,1-1.35.35,2.9,2.9,0,0,1-1.29-.28,2.3,2.3,0,0,1-.94-.8,2,2,0,0,1-.35-1.12,1.86,1.86,0,0,1,.42-1.29,2.62,2.62,0,0,1,1.38-.66,14.07,14.07,0,0,1,2.67-.2h.33v-.49a2,2,0,0,0-.36-1.32,1.53,1.53,0,0,0-1.2-.42,4.4,4.4,0,0,0-2.07.55,1.4,1.4,0,0,1-.57.26.39.39,0,0,1-.3-.14.49.49,0,0,1-.12-.34.59.59,0,0,1,.13-.37,1.46,1.46,0,0,1,.41-.32,5,5,0,0,1,1.2-.48,5.43,5.43,0,0,1,1.32-.17C92.4,541.65,93.32,542.61,93.32,544.53Zm-1.76,3.14a2.17,2.17,0,0,0,.57-1.56v-.44h-.27a14.22,14.22,0,0,0-2,.11,2,2,0,0,0-1,.38,1,1,0,0,0-.29.77,1.24,1.24,0,0,0,.43,1,1.56,1.56,0,0,0,1.07.38A2,2,0,0,0,91.56,547.67Z"/><path class="cls-2" d="M100.62,548.78a3.12,3.12,0,0,1-1.22-1.32,4.44,4.44,0,0,1-.43-2,4.3,4.3,0,0,1,.45-2,3.22,3.22,0,0,1,1.23-1.35,3.47,3.47,0,0,1,1.83-.48,4.08,4.08,0,0,1,1.14.16,3.06,3.06,0,0,1,1,.46,1.19,1.19,0,0,1,.38.35.63.63,0,0,1,.11.38.51.51,0,0,1-.11.35.35.35,0,0,1-.29.13.53.53,0,0,1-.23-.06l-.2-.12-.11-.07a5.1,5.1,0,0,0-.74-.41,2.26,2.26,0,0,0-.87-.15,2.09,2.09,0,0,0-1.7.74,3.23,3.23,0,0,0-.61,2.07,3.1,3.1,0,0,0,.61,2,2.11,2.11,0,0,0,1.7.72,2.31,2.31,0,0,0,.88-.15,3.9,3.9,0,0,0,.74-.41l.32-.18a.56.56,0,0,1,.25-.07.34.34,0,0,1,.28.13.51.51,0,0,1,.11.35.62.62,0,0,1-.1.35,1.56,1.56,0,0,1-.39.35,3.77,3.77,0,0,1-1,.46,4.52,4.52,0,0,1-1.2.17A3.44,3.44,0,0,1,100.62,548.78Z"/><path class="cls-2" d="M107.8,548.78a3.12,3.12,0,0,1-1.21-1.33,4.89,4.89,0,0,1,0-4,3.1,3.1,0,0,1,1.21-1.32,3.52,3.52,0,0,1,1.82-.47,3.56,3.56,0,0,1,1.83.47,3.06,3.06,0,0,1,1.22,1.32,4.89,4.89,0,0,1,0,4,3.08,3.08,0,0,1-1.22,1.33,3.55,3.55,0,0,1-1.83.46A3.52,3.52,0,0,1,107.8,548.78Zm3.48-1.26a3.17,3.17,0,0,0,.58-2.07,3.25,3.25,0,0,0-.59-2.07,2.25,2.25,0,0,0-3.3,0,3.25,3.25,0,0,0-.58,2.07,3.21,3.21,0,0,0,.58,2.07,2.26,2.26,0,0,0,3.31,0Z"/><path class="cls-2" d="M125.48,544.55v4.06a.57.57,0,0,1-.6.6.6.6,0,0,1-.44-.16.54.54,0,0,1-.18-.44v-4a2.35,2.35,0,0,0-.36-1.46,1.34,1.34,0,0,0-1.12-.45,1.8,1.8,0,0,0-1.44.62,2.47,2.47,0,0,0-.53,1.66v3.66a.54.54,0,0,1-.17.44.69.69,0,0,1-.88,0,.57.57,0,0,1-.16-.44v-4a2.35,2.35,0,0,0-.36-1.46,1.37,1.37,0,0,0-1.14-.45,1.79,1.79,0,0,0-1.43.62,2.42,2.42,0,0,0-.54,1.66v3.66a.57.57,0,0,1-.16.44.6.6,0,0,1-.44.16.61.61,0,0,1-.44-.16.57.57,0,0,1-.17-.44v-6.33a.58.58,0,0,1,.17-.43.62.62,0,0,1,.44-.17.57.57,0,0,1,.59.59V543a2.36,2.36,0,0,1,.91-1,2.61,2.61,0,0,1,1.35-.35,2.14,2.14,0,0,1,2.24,1.44,2.43,2.43,0,0,1,1-1.05,2.78,2.78,0,0,1,1.47-.39C124.67,541.65,125.48,542.62,125.48,544.55Z"/><path class="cls-2" d="M133.07,542.13a3.19,3.19,0,0,1,1.14,1.34,4.71,4.71,0,0,1,.4,2,4.52,4.52,0,0,1-.4,2,3,3,0,0,1-2.84,1.78,2.87,2.87,0,0,1-1.49-.37,2.46,2.46,0,0,1-1-1.07v3.53a.57.57,0,0,1-.15.42.71.71,0,0,1-.9,0,.57.57,0,0,1-.16-.42v-9.05a.57.57,0,0,1,.16-.43.6.6,0,0,1,1,.43v.81a2.43,2.43,0,0,1,1-1.06,2.87,2.87,0,0,1,1.49-.38A3,3,0,0,1,133.07,542.13Zm-.29,5.39a3.16,3.16,0,0,0,.59-2,3.29,3.29,0,0,0-.59-2.07,2.22,2.22,0,0,0-3.29,0,3.95,3.95,0,0,0,0,4.12,2.23,2.23,0,0,0,3.29,0Z"/><path class="cls-2" d="M142.16,544.53v4.08a.64.64,0,0,1-.16.44.66.66,0,0,1-.86,0,.6.6,0,0,1-.17-.44v-.72a2.18,2.18,0,0,1-.87,1,2.61,2.61,0,0,1-1.35.35,3,3,0,0,1-1.3-.28,2.34,2.34,0,0,1-.93-.8,2,2,0,0,1-.35-1.12,1.86,1.86,0,0,1,.42-1.29,2.62,2.62,0,0,1,1.38-.66,14.07,14.07,0,0,1,2.67-.2H141v-.49a2,2,0,0,0-.37-1.32,1.5,1.5,0,0,0-1.19-.42,4.4,4.4,0,0,0-2.07.55,1.4,1.4,0,0,1-.57.26.39.39,0,0,1-.3-.14.49.49,0,0,1-.12-.34.54.54,0,0,1,.13-.37,1.32,1.32,0,0,1,.41-.32,5.1,5.1,0,0,1,1.19-.48,5.58,5.58,0,0,1,1.33-.17C141.24,541.65,142.16,542.61,142.16,544.53Zm-1.77,3.14a2.14,2.14,0,0,0,.58-1.56v-.44h-.27a14.22,14.22,0,0,0-2,.11,1.92,1.92,0,0,0-1,.38,1,1,0,0,0-.29.77,1.26,1.26,0,0,0,.42,1,1.6,1.6,0,0,0,1.08.38A1.91,1.91,0,0,0,140.39,547.67Z"/><path class="cls-2" d="M145.52,549.08a4.06,4.06,0,0,1-1.1-.47,1.31,1.31,0,0,1-.38-.34.66.66,0,0,1-.11-.38.48.48,0,0,1,.11-.32.35.35,0,0,1,.29-.13,1.15,1.15,0,0,1,.53.23,4.47,4.47,0,0,0,.89.42,3.16,3.16,0,0,0,1.1.16,2.35,2.35,0,0,0,1.26-.28.93.93,0,0,0,.45-.83.8.8,0,0,0-.16-.53,1.27,1.27,0,0,0-.57-.36,7.64,7.64,0,0,0-1.19-.32,4.45,4.45,0,0,1-1.89-.77,1.61,1.61,0,0,1-.57-1.3,1.89,1.89,0,0,1,.36-1.14,2.4,2.4,0,0,1,1-.78,3.54,3.54,0,0,1,1.45-.29,3.91,3.91,0,0,1,1.13.16,3.31,3.31,0,0,1,1,.44,1,1,0,0,1,.51.75.48.48,0,0,1-.12.33.38.38,0,0,1-.29.14,1.14,1.14,0,0,1-.54-.26,4.72,4.72,0,0,0-.79-.42,2.52,2.52,0,0,0-.93-.15,1.85,1.85,0,0,0-1.13.32,1,1,0,0,0-.43.84.88.88,0,0,0,.15.53,1.43,1.43,0,0,0,.53.36,6.46,6.46,0,0,0,1.06.31,7.66,7.66,0,0,1,1.58.49,1.63,1.63,0,0,1,1,1.65,1.78,1.78,0,0,1-.79,1.52,3.46,3.46,0,0,1-2.1.58A5.19,5.19,0,0,1,145.52,549.08Z"/><path class="cls-2" d="M152.72,549.08a4.06,4.06,0,0,1-1.1-.47,1.31,1.31,0,0,1-.38-.34.66.66,0,0,1-.11-.38.48.48,0,0,1,.11-.32.35.35,0,0,1,.29-.13,1.15,1.15,0,0,1,.53.23,4.47,4.47,0,0,0,.89.42,3.16,3.16,0,0,0,1.1.16,2.35,2.35,0,0,0,1.26-.28.93.93,0,0,0,.45-.83.8.8,0,0,0-.16-.53,1.27,1.27,0,0,0-.57-.36,7.64,7.64,0,0,0-1.19-.32,4.45,4.45,0,0,1-1.89-.77,1.61,1.61,0,0,1-.57-1.3,1.89,1.89,0,0,1,.36-1.14,2.4,2.4,0,0,1,1-.78,3.54,3.54,0,0,1,1.45-.29,3.91,3.91,0,0,1,1.13.16,3.31,3.31,0,0,1,1,.44,1,1,0,0,1,.51.75.48.48,0,0,1-.12.33.38.38,0,0,1-.29.14,1.14,1.14,0,0,1-.54-.26,4.72,4.72,0,0,0-.79-.42,2.52,2.52,0,0,0-.93-.15A1.85,1.85,0,0,0,153,543a1,1,0,0,0-.43.84.88.88,0,0,0,.15.53,1.53,1.53,0,0,0,.53.36,6.46,6.46,0,0,0,1.06.31,7.66,7.66,0,0,1,1.58.49,1.63,1.63,0,0,1,1,1.65,1.78,1.78,0,0,1-.79,1.52,3.46,3.46,0,0,1-2.1.58A5.19,5.19,0,0,1,152.72,549.08Z"/><path class="cls-2" d="M158.81,539.9a.74.74,0,0,1-.23-.56.71.71,0,0,1,.23-.54.81.81,0,0,1,.58-.21.84.84,0,0,1,.59.21.7.7,0,0,1,.22.54.73.73,0,0,1-.22.56.84.84,0,0,1-.59.21A.81.81,0,0,1,158.81,539.9Zm.14,9.15a.57.57,0,0,1-.17-.44v-6.33a.57.57,0,0,1,.17-.44.69.69,0,0,1,.88,0,.57.57,0,0,1,.16.44v6.33a.58.58,0,0,1-.16.45.63.63,0,0,1-.44.15A.6.6,0,0,1,159,549.05Z"/><path class="cls-2" d="M163.46,548.78a3.12,3.12,0,0,1-1.21-1.33,4.89,4.89,0,0,1,0-4,3.1,3.1,0,0,1,1.21-1.32,3.8,3.8,0,0,1,3.66,0,3.12,3.12,0,0,1,1.22,1.32,4.89,4.89,0,0,1,0,4,3.14,3.14,0,0,1-1.22,1.33,3.87,3.87,0,0,1-3.66,0Zm3.48-1.26a3.17,3.17,0,0,0,.58-2.07,3.25,3.25,0,0,0-.58-2.07,2.25,2.25,0,0,0-3.3,0,3.25,3.25,0,0,0-.59,2.07,3.21,3.21,0,0,0,.58,2.07,2.26,2.26,0,0,0,3.31,0Z"/><path class="cls-2" d="M176.88,544.55v4.06a.55.55,0,0,1-.6.6.61.61,0,0,1-.45-.16.57.57,0,0,1-.16-.44v-4a2.28,2.28,0,0,0-.4-1.48,1.58,1.58,0,0,0-1.27-.47,2.13,2.13,0,0,0-1.6.62,2.27,2.27,0,0,0-.6,1.66v3.66a.61.61,0,0,1-.16.44.58.58,0,0,1-.44.16.61.61,0,0,1-.45-.16.57.57,0,0,1-.17-.44v-6.33a.58.58,0,0,1,.17-.43.61.61,0,0,1,.45-.17.58.58,0,0,1,.43.17.6.6,0,0,1,.15.42V543a2.51,2.51,0,0,1,1-1,3.07,3.07,0,0,1,1.47-.35C176,541.65,176.88,542.62,176.88,544.55Z"/><path class="cls-2" d="M184.83,544.53v4.08a.6.6,0,0,1-.16.44.54.54,0,0,1-.42.16.55.55,0,0,1-.6-.6v-.72a2.18,2.18,0,0,1-.87,1,2.61,2.61,0,0,1-1.35.35,3,3,0,0,1-1.3-.28,2.3,2.3,0,0,1-.94-.8,1.94,1.94,0,0,1-.34-1.12,1.86,1.86,0,0,1,.42-1.29,2.62,2.62,0,0,1,1.38-.66,14.07,14.07,0,0,1,2.67-.2h.33v-.49a2,2,0,0,0-.37-1.32,1.51,1.51,0,0,0-1.19-.42,4.4,4.4,0,0,0-2.07.55,1.4,1.4,0,0,1-.57.26.39.39,0,0,1-.3-.14A.49.49,0,0,1,179,543a.59.59,0,0,1,.12-.37,1.53,1.53,0,0,1,.42-.32,4.93,4.93,0,0,1,1.19-.48,5.51,5.51,0,0,1,1.33-.17C183.92,541.65,184.83,542.61,184.83,544.53Zm-1.76,3.14a2.18,2.18,0,0,0,.58-1.56v-.44h-.27a14.22,14.22,0,0,0-2,.11,2,2,0,0,0-1,.38,1,1,0,0,0-.29.77,1.24,1.24,0,0,0,.43,1,1.56,1.56,0,0,0,1.07.38A2,2,0,0,0,183.07,547.67Z"/><path class="cls-2" d="M191,548.73a.41.41,0,0,1-.19.38.83.83,0,0,1-.56.1l-.4,0a2.54,2.54,0,0,1-1.77-.72,2.75,2.75,0,0,1-.57-1.9v-3.77h-1a.57.57,0,0,1-.4-.13.42.42,0,0,1-.14-.33.49.49,0,0,1,.14-.36.57.57,0,0,1,.4-.14h1v-1.69a.61.61,0,0,1,.16-.45.64.64,0,0,1,.45-.15.63.63,0,0,1,.44.15.61.61,0,0,1,.16.45v1.69h1.67a.54.54,0,0,1,.38.14.49.49,0,0,1,.14.36.42.42,0,0,1-.14.33.53.53,0,0,1-.38.13h-1.67v3.83a1.71,1.71,0,0,0,.34,1.19,1.45,1.45,0,0,0,1,.41l.41,0C190.78,548.28,191,548.44,191,548.73Z"/><path class="cls-2" d="M198.09,547.58a.49.49,0,0,1,.12.34c0,.25-.17.48-.52.69a4.74,4.74,0,0,1-2.31.63,3.57,3.57,0,0,1-2.68-1,3.79,3.79,0,0,1-1-2.78,4.38,4.38,0,0,1,.43-2,3.3,3.3,0,0,1,1.22-1.34,3.41,3.41,0,0,1,1.8-.48,2.89,2.89,0,0,1,2.26.93,3.62,3.62,0,0,1,.84,2.52.66.66,0,0,1-.12.44.5.5,0,0,1-.39.13h-4.83c.09,1.72.91,2.58,2.45,2.58a2.72,2.72,0,0,0,1-.16,5.91,5.91,0,0,0,.9-.42,1.48,1.48,0,0,1,.53-.23A.37.37,0,0,1,198.09,547.58Zm-4.45-4.38a2.75,2.75,0,0,0-.68,1.69h4.25a2.58,2.58,0,0,0-.56-1.7,1.84,1.84,0,0,0-1.47-.59A2,2,0,0,0,193.64,543.2Z"/><path class="cls-2" d="M205.07,549.08a4.06,4.06,0,0,1-1.1-.47,1.31,1.31,0,0,1-.38-.34.59.59,0,0,1-.11-.38.43.43,0,0,1,.11-.32.35.35,0,0,1,.29-.13,1.15,1.15,0,0,1,.53.23,4.47,4.47,0,0,0,.89.42,3.16,3.16,0,0,0,1.1.16,2.35,2.35,0,0,0,1.26-.28.93.93,0,0,0,.45-.83.8.8,0,0,0-.16-.53,1.27,1.27,0,0,0-.57-.36,7.64,7.64,0,0,0-1.19-.32,4.45,4.45,0,0,1-1.89-.77,1.61,1.61,0,0,1-.57-1.3,1.89,1.89,0,0,1,.36-1.14,2.4,2.4,0,0,1,1-.78,3.51,3.51,0,0,1,1.45-.29,3.91,3.91,0,0,1,1.13.16,3.31,3.31,0,0,1,1,.44,1,1,0,0,1,.51.75.48.48,0,0,1-.12.33.38.38,0,0,1-.29.14,1.14,1.14,0,0,1-.54-.26,4.72,4.72,0,0,0-.79-.42,2.52,2.52,0,0,0-.93-.15,1.9,1.9,0,0,0-1.14.32,1,1,0,0,0-.42.84.88.88,0,0,0,.15.53,1.43,1.43,0,0,0,.53.36,6.46,6.46,0,0,0,1.06.31,7.66,7.66,0,0,1,1.58.49,1.63,1.63,0,0,1,1,1.65,1.78,1.78,0,0,1-.79,1.52,3.46,3.46,0,0,1-2.1.58A5.19,5.19,0,0,1,205.07,549.08Z"/><path class="cls-2" d="M212.33,548.78a3.12,3.12,0,0,1-1.21-1.33,4.89,4.89,0,0,1,0-4,3.1,3.1,0,0,1,1.21-1.32,3.8,3.8,0,0,1,3.66,0,3.12,3.12,0,0,1,1.22,1.32,4.89,4.89,0,0,1,0,4,3.14,3.14,0,0,1-1.22,1.33,3.87,3.87,0,0,1-3.66,0Zm3.48-1.26a3.17,3.17,0,0,0,.58-2.07,3.25,3.25,0,0,0-.58-2.07,2.25,2.25,0,0,0-3.3,0,3.25,3.25,0,0,0-.59,2.07,3.21,3.21,0,0,0,.58,2.07,2.26,2.26,0,0,0,3.31,0Z"/><path class="cls-2" d="M220.66,548.78a3.12,3.12,0,0,1-1.22-1.32,4.44,4.44,0,0,1-.42-2,4.3,4.3,0,0,1,.44-2,3.24,3.24,0,0,1,1.24-1.35,3.47,3.47,0,0,1,1.83-.48,4,4,0,0,1,1.13.16,3.06,3.06,0,0,1,1,.46,1.19,1.19,0,0,1,.38.35.64.64,0,0,1,.12.38.51.51,0,0,1-.12.35.35.35,0,0,1-.29.13.49.49,0,0,1-.22-.06l-.21-.12-.11-.07a5.1,5.1,0,0,0-.74-.41,2.21,2.21,0,0,0-.86-.15,2.11,2.11,0,0,0-1.71.74,3.23,3.23,0,0,0-.6,2.07,3.1,3.1,0,0,0,.6,2,2.13,2.13,0,0,0,1.71.72,2.26,2.26,0,0,0,.87-.15,4,4,0,0,0,.75-.41l.31-.18a.6.6,0,0,1,.26-.07.32.32,0,0,1,.27.13.51.51,0,0,1,.12.35.63.63,0,0,1-.11.35,1.56,1.56,0,0,1-.39.35,3.77,3.77,0,0,1-1,.46,4.44,4.44,0,0,1-1.19.17A3.48,3.48,0,0,1,220.66,548.78Z"/><path class="cls-2" d="M226.67,539.9a.74.74,0,0,1-.23-.56.71.71,0,0,1,.23-.54.81.81,0,0,1,.58-.21.84.84,0,0,1,.59.21.7.7,0,0,1,.22.54.73.73,0,0,1-.22.56.84.84,0,0,1-.59.21A.81.81,0,0,1,226.67,539.9Zm.14,9.15a.54.54,0,0,1-.17-.44v-6.33a.54.54,0,0,1,.17-.44.68.68,0,0,1,.88,0,.57.57,0,0,1,.16.44v6.33a.58.58,0,0,1-.16.45.63.63,0,0,1-.44.15A.6.6,0,0,1,226.81,549.05Z"/><path class="cls-2" d="M236.06,547.58a.49.49,0,0,1,.12.34c0,.25-.18.48-.53.69a4.74,4.74,0,0,1-2.31.63,3.58,3.58,0,0,1-2.68-1,3.83,3.83,0,0,1-1-2.78,4.38,4.38,0,0,1,.44-2,3.23,3.23,0,0,1,1.22-1.34,3.35,3.35,0,0,1,1.79-.48,2.91,2.91,0,0,1,2.27.93,3.62,3.62,0,0,1,.84,2.52.66.66,0,0,1-.12.44.5.5,0,0,1-.39.13H230.9c.09,1.72.9,2.58,2.44,2.58a2.78,2.78,0,0,0,1-.16,5.91,5.91,0,0,0,.9-.42,1.46,1.46,0,0,1,.52-.23A.38.38,0,0,1,236.06,547.58Zm-4.45-4.38a2.7,2.7,0,0,0-.68,1.69h4.24a2.58,2.58,0,0,0-.55-1.7,1.84,1.84,0,0,0-1.47-.59A2,2,0,0,0,231.61,543.2Z"/><path class="cls-2" d="M241.88,548.73a.43.43,0,0,1-.19.38.84.84,0,0,1-.56.1l-.41,0a2.54,2.54,0,0,1-1.77-.72,2.75,2.75,0,0,1-.57-1.9v-3.77h-1a.55.55,0,0,1-.4-.13.39.39,0,0,1-.14-.33A.45.45,0,0,1,237,542a.56.56,0,0,1,.4-.14h1v-1.69a.61.61,0,0,1,.17-.45.64.64,0,0,1,.45-.15.55.55,0,0,1,.6.6v1.69h1.66a.52.52,0,0,1,.38.14.46.46,0,0,1,.15.36.4.4,0,0,1-.15.33.52.52,0,0,1-.38.13H239.6v3.83a1.76,1.76,0,0,0,.33,1.19,1.5,1.5,0,0,0,1,.41l.4,0C241.7,548.28,241.88,548.44,241.88,548.73Z"/><path class="cls-2" d="M249,541.7a.6.6,0,0,1,.4.15.46.46,0,0,1,.18.37.48.48,0,0,1-.06.24l-4.21,9.09a.63.63,0,0,1-.22.26.55.55,0,0,1-.29.09.59.59,0,0,1-.4-.15.42.42,0,0,1-.17-.36.53.53,0,0,1,.06-.24l1.05-2.27-3-6.42a.43.43,0,0,1-.06-.22.47.47,0,0,1,.2-.39.67.67,0,0,1,.44-.17.52.52,0,0,1,.29.09.56.56,0,0,1,.22.26l2.51,5.62,2.5-5.59A.55.55,0,0,1,249,541.7Z"/><path class="cls-2" d="M250.34,549a.85.85,0,0,1,.6-1.46.75.75,0,0,1,.57.24.9.9,0,0,1,0,1.22.78.78,0,0,1-.57.23A.85.85,0,0,1,250.34,549Z"/><path class="cls-3" d="M40.92,488.75a4.33,4.33,0,0,1,.8,2.64,4.07,4.07,0,0,1-1.55,3.39A6.73,6.73,0,0,1,35.91,496H29.72a1.52,1.52,0,0,1-1.09-.38,1.46,1.46,0,0,1-.4-1.08v-14a1.46,1.46,0,0,1,.4-1.08,1.52,1.52,0,0,1,1.09-.38h6a6.64,6.64,0,0,1,4.14,1.16,4.25,4.25,0,0,1,.8,5.58,4.06,4.06,0,0,1-2,1.44A4.14,4.14,0,0,1,40.92,488.75Zm-9.66-2.54h3.91c2.13,0,3.19-.79,3.19-2.38a2,2,0,0,0-.79-1.77,4,4,0,0,0-2.4-.58H31.26ZM38,493a2.22,2.22,0,0,0,.76-1.87,2.29,2.29,0,0,0-.78-1.9,3.91,3.91,0,0,0-2.43-.62H31.26v5h4.32A4,4,0,0,0,38,493Z"/><path class="cls-3" d="M51.9,484.29a1.17,1.17,0,0,1,.36.93,1.28,1.28,0,0,1-.32,1,1.84,1.84,0,0,1-1.12.41l-.72.07a3,3,0,0,0-2.08,1,3.16,3.16,0,0,0-.66,2v5a1.32,1.32,0,0,1-.43,1.07,1.59,1.59,0,0,1-1.08.37,1.55,1.55,0,0,1-1.07-.37,1.35,1.35,0,0,1-.42-1.07v-9.28a1.3,1.3,0,0,1,.42-1,1.56,1.56,0,0,1,1-.36,1.43,1.43,0,0,1,1,.35,1.27,1.27,0,0,1,.39,1v1a3.46,3.46,0,0,1,1.35-1.63,4.13,4.13,0,0,1,2-.65l.33,0A1.3,1.3,0,0,1,51.9,484.29Z"/><path class="cls-3" d="M53.75,481.44a1.46,1.46,0,0,1-.48-1.16,1.44,1.44,0,0,1,.48-1.15A1.85,1.85,0,0,1,55,478.7a1.88,1.88,0,0,1,1.29.43,1.62,1.62,0,0,1,0,2.31,2.09,2.09,0,0,1-2.59,0ZM54,495.77a1.35,1.35,0,0,1-.42-1.07v-9.26a1.33,1.33,0,0,1,.42-1.06A1.59,1.59,0,0,1,55,484a1.64,1.64,0,0,1,1.08.36,1.3,1.3,0,0,1,.43,1.06v9.26a1.32,1.32,0,0,1-.43,1.07,1.59,1.59,0,0,1-1.08.37A1.55,1.55,0,0,1,54,495.77Z"/><path class="cls-3" d="M70.67,484.41a1.34,1.34,0,0,1,.4,1v9.48a5.43,5.43,0,0,1-1.53,4.18A6.52,6.52,0,0,1,65,500.51a8.91,8.91,0,0,1-4.37-1,1.5,1.5,0,0,1-.88-1.27,1.26,1.26,0,0,1,.25-.84.8.8,0,0,1,.66-.32,1.67,1.67,0,0,1,.52.11c.21.07.43.16.65.25a14.39,14.39,0,0,0,1.55.56,6.19,6.19,0,0,0,1.57.19c2.1,0,3.15-1,3.15-3.07V493.6a3.64,3.64,0,0,1-1.54,1.52,4.79,4.79,0,0,1-2.3.54,5,5,0,0,1-4.59-2.78,6.62,6.62,0,0,1-.67-3.05,6.82,6.82,0,0,1,.66-3.06,4.9,4.9,0,0,1,1.86-2.06,5.13,5.13,0,0,1,2.74-.73,4.79,4.79,0,0,1,2.3.54A3.64,3.64,0,0,1,68.1,486v-.62a1.28,1.28,0,0,1,.41-1,1.49,1.49,0,0,1,1.08-.39A1.52,1.52,0,0,1,70.67,484.41Zm-3.38,8a4.51,4.51,0,0,0,0-5.16,3.13,3.13,0,0,0-4.47,0,4.47,4.47,0,0,0,0,5.16,3.13,3.13,0,0,0,4.47,0Z"/><path class="cls-3" d="M85.16,488.8v5.9a1.43,1.43,0,0,1-.39,1.06,1.5,1.5,0,0,1-1.1.38,1.52,1.52,0,0,1-1.1-.38,1.4,1.4,0,0,1-.41-1.06v-5.9a2.79,2.79,0,0,0-.51-1.86,2.07,2.07,0,0,0-1.62-.59,2.72,2.72,0,0,0-2.08.82,3,3,0,0,0-.78,2.18v5.35a1.4,1.4,0,0,1-.41,1.06,1.52,1.52,0,0,1-1.1.38,1.46,1.46,0,0,1-1.09-.38,1.39,1.39,0,0,1-.4-1.06V480.35a1.32,1.32,0,0,1,.42-1,1.78,1.78,0,0,1,2.17,0,1.25,1.25,0,0,1,.41,1v5.6a3.88,3.88,0,0,1,1.6-1.43A5,5,0,0,1,81,484C83.79,484,85.16,485.58,85.16,488.8Z"/><path class="cls-3" d="M95.51,495a1,1,0,0,1-.47.88,2.28,2.28,0,0,1-1.34.25l-.64-.05q-4-.29-4-4.32v-5.23h-1.2a1.52,1.52,0,0,1-1-.29,1.18,1.18,0,0,1,0-1.68,1.52,1.52,0,0,1,1-.29H89v-2.2a1.37,1.37,0,0,1,.41-1,1.77,1.77,0,0,1,2.19,0,1.36,1.36,0,0,1,.4,1v2.2h2a1.53,1.53,0,0,1,1,.29,1.18,1.18,0,0,1,0,1.68,1.53,1.53,0,0,1-1,.29H92V492a1.64,1.64,0,0,0,1.64,1.89l.64.05C95.1,494,95.51,494.32,95.51,495Z"/><path class="cls-3" d="M107,493.1a1.26,1.26,0,0,1,.25.84,1.44,1.44,0,0,1-.88,1.24,8.12,8.12,0,0,1-1.85.74,7.83,7.83,0,0,1-2,.27,6.12,6.12,0,0,1-4.49-1.63,6,6,0,0,1-1.65-4.46,6.89,6.89,0,0,1,.72-3.2,5.33,5.33,0,0,1,2-2.16,5.78,5.78,0,0,1,3-.76,5.39,5.39,0,0,1,2.76.69,4.75,4.75,0,0,1,1.82,2,6.57,6.57,0,0,1,.65,3c0,.69-.3,1-.91,1H99.37a3.78,3.78,0,0,0,.93,2.44,3.17,3.17,0,0,0,2.31.78,4.58,4.58,0,0,0,1.35-.19c.4-.13.84-.31,1.34-.53a2.62,2.62,0,0,1,1-.39A.81.81,0,0,1,107,493.1Zm-6.77-6.24a3.61,3.61,0,0,0-.87,2.2h5.42a3.42,3.42,0,0,0-.72-2.22,2.38,2.38,0,0,0-1.87-.75A2.55,2.55,0,0,0,100.24,486.86Z"/><path class="cls-3" d="M119.77,485.18a5.41,5.41,0,0,1,1,3.62v5.9a1.39,1.39,0,0,1-.4,1.06,1.46,1.46,0,0,1-1.09.38,1.52,1.52,0,0,1-1.1-.38,1.4,1.4,0,0,1-.41-1.06V489a3.06,3.06,0,0,0-.52-2,2,2,0,0,0-1.62-.63,2.71,2.71,0,0,0-2.07.82,3,3,0,0,0-.78,2.18v5.35a1.4,1.4,0,0,1-.41,1.06,1.52,1.52,0,0,1-1.1.38,1.5,1.5,0,0,1-1.1-.38,1.43,1.43,0,0,1-.39-1.06v-9.28a1.28,1.28,0,0,1,.41-1,1.52,1.52,0,0,1,1.1-.39,1.41,1.41,0,0,1,1,.38,1.27,1.27,0,0,1,.4,1V486a4.1,4.1,0,0,1,1.6-1.52,4.91,4.91,0,0,1,2.28-.52A3.94,3.94,0,0,1,119.77,485.18Z"/><path class="cls-3" d="M142.21,479a1.37,1.37,0,0,1,1,.42,1.33,1.33,0,0,1,.43,1,1.4,1.4,0,0,1-.36.91l-5.44,6.65v6.64a1.45,1.45,0,0,1-1.54,1.56,1.59,1.59,0,0,1-1.13-.4,1.52,1.52,0,0,1-.43-1.16v-6.64l-5.45-6.65a1.4,1.4,0,0,1-.36-.91,1.37,1.37,0,0,1,.43-1,1.39,1.39,0,0,1,1-.42,1.3,1.3,0,0,1,1,.53l4.92,6.09,4.9-6.09A1.29,1.29,0,0,1,142.21,479Z"/><path class="cls-3" d="M145.63,495.45a5.1,5.1,0,0,1-2.1-2.14,6.74,6.74,0,0,1-.75-3.24,6.67,6.67,0,0,1,.75-3.23,5.11,5.11,0,0,1,2.1-2.12,7.1,7.1,0,0,1,6.31,0,5.14,5.14,0,0,1,2.09,2.12,6.78,6.78,0,0,1,.73,3.23,6.85,6.85,0,0,1-.73,3.24,5.13,5.13,0,0,1-2.09,2.14,7.1,7.1,0,0,1-6.31,0ZM151,492.9a5.57,5.57,0,0,0,0-5.65,2.64,2.64,0,0,0-2.21-1,2.68,2.68,0,0,0-2.22,1,5.54,5.54,0,0,0,0,5.65,3,3,0,0,0,4.44,0Z"/><path class="cls-3" d="M167.6,484.41a1.35,1.35,0,0,1,.41,1v9.31a1.31,1.31,0,0,1-.42,1,1.54,1.54,0,0,1-1.09.38,1.46,1.46,0,0,1-1-.36,1.29,1.29,0,0,1-.38-1v-.6a3.85,3.85,0,0,1-1.49,1.48,4.33,4.33,0,0,1-2.11.51c-2.88,0-4.32-1.61-4.32-4.85v-5.9a1.35,1.35,0,0,1,.41-1,1.49,1.49,0,0,1,1.08-.39,1.52,1.52,0,0,1,1.1.39,1.35,1.35,0,0,1,.41,1v5.93a2.88,2.88,0,0,0,.5,1.85,2,2,0,0,0,1.59.6,2.58,2.58,0,0,0,2-.83,3.12,3.12,0,0,0,.76-2.2v-5.35a1.31,1.31,0,0,1,.41-1,1.49,1.49,0,0,1,1.08-.39A1.52,1.52,0,0,1,167.6,484.41Z"/><path class="cls-3" d="M178.66,484.29a1.17,1.17,0,0,1,.36.93,1.27,1.27,0,0,1-.31,1,1.87,1.87,0,0,1-1.13.41l-.72.07a2.94,2.94,0,0,0-2.07,1,3.16,3.16,0,0,0-.66,2v5a1.36,1.36,0,0,1-.43,1.07,1.59,1.59,0,0,1-1.08.37,1.53,1.53,0,0,1-1.07-.37,1.35,1.35,0,0,1-.42-1.07v-9.28a1.3,1.3,0,0,1,.42-1,1.53,1.53,0,0,1,1-.36,1.46,1.46,0,0,1,1,.35,1.27,1.27,0,0,1,.38,1v1a3.54,3.54,0,0,1,1.36-1.63,4.12,4.12,0,0,1,2-.65l.34,0A1.28,1.28,0,0,1,178.66,484.29Z"/><path class="cls-3" d="M190.36,495.16a7,7,0,0,1-2.82-3,11.31,11.31,0,0,1,0-9.21,7.08,7.08,0,0,1,2.82-3,8.53,8.53,0,0,1,4.29-1.06,9.29,9.29,0,0,1,3,.47,7.76,7.76,0,0,1,2.48,1.36,1.5,1.5,0,0,1,.43.5,1.57,1.57,0,0,1,.12.65,1.4,1.4,0,0,1-.29.89.86.86,0,0,1-.7.36,1.73,1.73,0,0,1-1-.34,7.24,7.24,0,0,0-1.92-1.07,6.12,6.12,0,0,0-2-.3,4.62,4.62,0,0,0-3.78,1.56,8.91,8.91,0,0,0,0,9.2,4.62,4.62,0,0,0,3.78,1.56,5.59,5.59,0,0,0,1.91-.32,9.19,9.19,0,0,0,2-1.05,2.69,2.69,0,0,1,.48-.24,1.24,1.24,0,0,1,.5-.1.86.86,0,0,1,.7.36,1.4,1.4,0,0,1,.29.89,1.62,1.62,0,0,1-.12.64,1.43,1.43,0,0,1-.43.51,7.76,7.76,0,0,1-2.48,1.36,9.29,9.29,0,0,1-3,.47A8.53,8.53,0,0,1,190.36,495.16Z"/><path class="cls-3" d="M205.05,495.45a5.22,5.22,0,0,1-2.1-2.14,6.85,6.85,0,0,1-.74-3.24,6.78,6.78,0,0,1,.74-3.23,5.23,5.23,0,0,1,2.1-2.12,6.44,6.44,0,0,1,3.16-.74,6.38,6.38,0,0,1,3.15.74,5.09,5.09,0,0,1,2.09,2.12,6.78,6.78,0,0,1,.73,3.23,6.85,6.85,0,0,1-.73,3.24,5.08,5.08,0,0,1-2.09,2.14,6.49,6.49,0,0,1-3.15.74A6.56,6.56,0,0,1,205.05,495.45Zm5.37-2.55a5.63,5.63,0,0,0,0-5.65,3,3,0,0,0-4.43,0,5.57,5.57,0,0,0,0,5.65,2.68,2.68,0,0,0,2.21,1A2.71,2.71,0,0,0,210.42,492.9Z"/><path class="cls-3" d="M233.54,485.12a5.43,5.43,0,0,1,1,3.68v5.9a1.35,1.35,0,0,1-.42,1.07,1.57,1.57,0,0,1-1.09.37,1.55,1.55,0,0,1-1.07-.37,1.35,1.35,0,0,1-.42-1.07v-5.9a3,3,0,0,0-.47-1.88,1.74,1.74,0,0,0-1.43-.57,2.35,2.35,0,0,0-1.87.81,3.23,3.23,0,0,0-.69,2.19v5.35a1.35,1.35,0,0,1-.42,1.07,1.55,1.55,0,0,1-1.07.37,1.59,1.59,0,0,1-1.08-.37,1.32,1.32,0,0,1-.43-1.07v-5.9a3,3,0,0,0-.47-1.88,1.74,1.74,0,0,0-1.43-.57,2.32,2.32,0,0,0-1.86.81,3.23,3.23,0,0,0-.68,2.19v5.35a1.33,1.33,0,0,1-.44,1.07,1.56,1.56,0,0,1-1.08.37,1.52,1.52,0,0,1-1.06-.37,1.35,1.35,0,0,1-.42-1.07v-9.28a1.27,1.27,0,0,1,.43-1,1.64,1.64,0,0,1,1.08-.36,1.52,1.52,0,0,1,1,.35,1.27,1.27,0,0,1,.39,1v.57a3.77,3.77,0,0,1,1.48-1.46,4.31,4.31,0,0,1,2.12-.5,3.44,3.44,0,0,1,3.53,2.2,3.93,3.93,0,0,1,1.56-1.6,4.57,4.57,0,0,1,2.33-.6A3.74,3.74,0,0,1,233.54,485.12Z"/><path class="cls-3" d="M254.49,485.12a5.43,5.43,0,0,1,1,3.68v5.9a1.35,1.35,0,0,1-.42,1.07,1.57,1.57,0,0,1-1.09.37,1.55,1.55,0,0,1-1.07-.37,1.35,1.35,0,0,1-.42-1.07v-5.9a3,3,0,0,0-.47-1.88,1.72,1.72,0,0,0-1.42-.57,2.36,2.36,0,0,0-1.88.81,3.23,3.23,0,0,0-.69,2.19v5.35a1.35,1.35,0,0,1-.42,1.07,1.55,1.55,0,0,1-1.07.37,1.59,1.59,0,0,1-1.08-.37,1.32,1.32,0,0,1-.43-1.07v-5.9a3,3,0,0,0-.47-1.88,1.74,1.74,0,0,0-1.43-.57,2.32,2.32,0,0,0-1.86.81,3.28,3.28,0,0,0-.68,2.19v5.35a1.33,1.33,0,0,1-.44,1.07,1.56,1.56,0,0,1-1.08.37,1.52,1.52,0,0,1-1.06-.37,1.35,1.35,0,0,1-.42-1.07v-9.28a1.27,1.27,0,0,1,.43-1,1.64,1.64,0,0,1,1.08-.36,1.49,1.49,0,0,1,1,.35,1.28,1.28,0,0,1,.4,1v.57a3.69,3.69,0,0,1,1.47-1.46,4.34,4.34,0,0,1,2.12-.5,3.44,3.44,0,0,1,3.53,2.2,4,4,0,0,1,1.56-1.6,4.57,4.57,0,0,1,2.33-.6A3.74,3.74,0,0,1,254.49,485.12Z"/><path class="cls-3" d="M268.93,484.41a1.35,1.35,0,0,1,.41,1v9.31a1.34,1.34,0,0,1-.42,1,1.57,1.57,0,0,1-1.1.38,1.45,1.45,0,0,1-1-.36,1.29,1.29,0,0,1-.38-1v-.6a3.92,3.92,0,0,1-1.49,1.48,4.33,4.33,0,0,1-2.11.51c-2.88,0-4.32-1.61-4.32-4.85v-5.9a1.31,1.31,0,0,1,.41-1A1.48,1.48,0,0,1,260,484a1.53,1.53,0,0,1,1.11.39,1.35,1.35,0,0,1,.41,1v5.93a2.88,2.88,0,0,0,.5,1.85,2,2,0,0,0,1.59.6,2.58,2.58,0,0,0,2-.83,3.16,3.16,0,0,0,.76-2.2v-5.35a1.34,1.34,0,0,1,.4-1,1.51,1.51,0,0,1,1.08-.39A1.55,1.55,0,0,1,268.93,484.41Z"/><path class="cls-3" d="M282.41,485.18a5.41,5.41,0,0,1,1,3.62v5.9a1.43,1.43,0,0,1-.4,1.06,1.48,1.48,0,0,1-1.09.38,1.54,1.54,0,0,1-1.11-.38,1.39,1.39,0,0,1-.4-1.06V489a3.12,3.12,0,0,0-.52-2,2,2,0,0,0-1.62-.63,2.73,2.73,0,0,0-2.08.82,3.06,3.06,0,0,0-.78,2.18v5.35a1.39,1.39,0,0,1-.4,1.06,1.54,1.54,0,0,1-1.11.38,1.48,1.48,0,0,1-1.09-.38,1.43,1.43,0,0,1-.4-1.06v-9.28a1.32,1.32,0,0,1,.41-1A1.53,1.53,0,0,1,274,484a1.45,1.45,0,0,1,1,.38,1.27,1.27,0,0,1,.39,1V486A4.13,4.13,0,0,1,277,484.5a4.85,4.85,0,0,1,2.28-.52A3.9,3.9,0,0,1,282.41,485.18Z"/><path class="cls-3" d="M286.69,481.44a1.49,1.49,0,0,1-.48-1.16,1.47,1.47,0,0,1,.48-1.15,1.85,1.85,0,0,1,1.29-.43,1.88,1.88,0,0,1,1.29.43,1.62,1.62,0,0,1,0,2.31,2.09,2.09,0,0,1-2.59,0Zm.23,14.33a1.32,1.32,0,0,1-.43-1.07v-9.26a1.3,1.3,0,0,1,.43-1.06A1.55,1.55,0,0,1,288,484a1.62,1.62,0,0,1,1.08.36,1.3,1.3,0,0,1,.43,1.06v9.26a1.32,1.32,0,0,1-.43,1.07,1.57,1.57,0,0,1-1.08.37A1.51,1.51,0,0,1,286.92,495.77Z"/><path class="cls-3" d="M299.89,495a1,1,0,0,1-.47.88,2.25,2.25,0,0,1-1.33.25l-.65-.05q-4-.29-4-4.32v-5.23h-1.2a1.53,1.53,0,0,1-1-.29,1.18,1.18,0,0,1,0-1.68,1.53,1.53,0,0,1,1-.29h1.2v-2.2a1.36,1.36,0,0,1,.4-1,1.59,1.59,0,0,1,1.11-.38A1.53,1.53,0,0,1,296,481a1.37,1.37,0,0,1,.41,1v2.2h2a1.52,1.52,0,0,1,1,.29,1.18,1.18,0,0,1,0,1.68,1.52,1.52,0,0,1-1,.29h-2V492c0,1.18.54,1.81,1.63,1.89l.65.05Q299.89,494,299.89,495Z"/><path class="cls-3" d="M310.34,484.25a1.33,1.33,0,0,1,.71-.2,1.49,1.49,0,0,1,1,.37,1.16,1.16,0,0,1,.45.92,1.24,1.24,0,0,1-.15.56l-6.55,13.72a1.34,1.34,0,0,1-1.27.82,1.48,1.48,0,0,1-1-.35,1.08,1.08,0,0,1-.42-.87,1.44,1.44,0,0,1,.14-.6l1.63-3.44-4.46-9.28a1.25,1.25,0,0,1-.12-.56,1.14,1.14,0,0,1,.47-.93,1.6,1.6,0,0,1,1.06-.39,1.36,1.36,0,0,1,1.28.84l3.36,7.42,3.33-7.39A1.41,1.41,0,0,1,310.34,484.25Z"/><path class="cls-4" d="M121.68,704.3a.78.78,0,0,1,.24.6v3.62a2.1,2.1,0,0,1-.21,1.1,1.46,1.46,0,0,1-.82.52,8.45,8.45,0,0,1-1.57.37,11.6,11.6,0,0,1-1.72.14,6.56,6.56,0,0,1-3.19-.73,4.88,4.88,0,0,1-2.07-2.1,7.86,7.86,0,0,1,0-6.53,5,5,0,0,1,2-2.1,6.24,6.24,0,0,1,3.1-.74,5.82,5.82,0,0,1,3.9,1.29,1.21,1.21,0,0,1,.29.37,1,1,0,0,1,.09.43,1,1,0,0,1-.2.63.6.6,0,0,1-.49.25.88.88,0,0,1-.33-.06,1.82,1.82,0,0,1-.36-.19,5.16,5.16,0,0,0-1.38-.73,4.37,4.37,0,0,0-1.45-.22,3.49,3.49,0,0,0-2.78,1.09,4.88,4.88,0,0,0-.93,3.23q0,4.4,3.84,4.39a8.68,8.68,0,0,0,2.3-.32v-3h-1.91a.93.93,0,0,1-.63-.2.83.83,0,0,1,0-1.15.93.93,0,0,1,.63-.2h3A.88.88,0,0,1,121.68,704.3Z"/><path class="cls-4" d="M124.64,710.23a1,1,0,0,1-.28-.76v-9.84a1,1,0,0,1,.28-.76,1.1,1.1,0,0,1,.77-.26h6.09a1.23,1.23,0,0,1,.76.21.77.77,0,0,1,.27.63.8.8,0,0,1-.27.65,1.17,1.17,0,0,1-.76.23h-5v3.27h4.67a1.15,1.15,0,0,1,.76.22.77.77,0,0,1,.27.64.74.74,0,0,1-.27.62,1.15,1.15,0,0,1-.76.22h-4.67v3.48h5a1.17,1.17,0,0,1,.76.22.82.82,0,0,1,.27.65.77.77,0,0,1-.27.63,1.23,1.23,0,0,1-.76.22h-6.09A1.06,1.06,0,0,1,124.64,710.23Z"/><path class="cls-4" d="M137.41,710.28a1,1,0,0,1-.3-.78v-9.11H134c-.67,0-1-.29-1-.89s.34-.89,1-.89h8.32c.67,0,1,.29,1,.89s-.34.89-1,.89h-3.07v9.11a1,1,0,0,1-1.08,1.08A1.06,1.06,0,0,1,137.41,710.28Z"/><path class="cls-4" d="M150.88,710.3a5.51,5.51,0,0,1-1.88-.93.94.94,0,0,1-.38-.81,1,1,0,0,1,.21-.62.62.62,0,0,1,.49-.26,1.3,1.3,0,0,1,.69.24,5.41,5.41,0,0,0,1.52.76,6.46,6.46,0,0,0,1.76.23,3.43,3.43,0,0,0,1.89-.43,1.4,1.4,0,0,0,.65-1.26,1.07,1.07,0,0,0-.61-1,7.94,7.94,0,0,0-2.05-.67,12,12,0,0,1-2.41-.74,3.34,3.34,0,0,1-1.4-1.08,2.77,2.77,0,0,1-.48-1.67,3.09,3.09,0,0,1,.6-1.87,3.88,3.88,0,0,1,1.64-1.29,6.47,6.47,0,0,1,6.3.82,1.11,1.11,0,0,1,.31.36,1,1,0,0,1,.09.44,1,1,0,0,1-.21.62.59.59,0,0,1-.49.26.83.83,0,0,1-.32,0,2.37,2.37,0,0,1-.38-.18,5.35,5.35,0,0,0-1.34-.75,4.35,4.35,0,0,0-1.59-.25,3.17,3.17,0,0,0-1.81.46A1.48,1.48,0,0,0,151,702a1.19,1.19,0,0,0,.59,1.06,6.67,6.67,0,0,0,2,.69,13,13,0,0,1,2.44.75,3.63,3.63,0,0,1,1.43,1,2.56,2.56,0,0,1,.5,1.61,3,3,0,0,1-.59,1.84,3.72,3.72,0,0,1-1.63,1.25,6.11,6.11,0,0,1-2.42.45A8.55,8.55,0,0,1,150.88,710.3Z"/><path class="cls-4" d="M162.83,710.28a1,1,0,0,1-.3-.78v-9.11h-3.07c-.67,0-1-.29-1-.89s.34-.89,1-.89h8.32c.67,0,1,.29,1,.89s-.34.89-1,.89h-3.07v9.11a1,1,0,0,1-.3.78,1.19,1.19,0,0,1-1.58,0Z"/><path class="cls-4" d="M179.48,709.64a.81.81,0,0,1-.31.65,1.08,1.08,0,0,1-.72.27.88.88,0,0,1-.5-.14.89.89,0,0,1-.37-.45l-1-2.26h-5.93l-1,2.26a.89.89,0,0,1-.37.45.92.92,0,0,1-.52.14,1.09,1.09,0,0,1-.71-.27.82.82,0,0,1-.32-.65,1.13,1.13,0,0,1,.1-.44l4.66-10a1.06,1.06,0,0,1,.46-.52,1.32,1.32,0,0,1,.67-.18,1.28,1.28,0,0,1,.66.18,1.08,1.08,0,0,1,.47.52l4.67,10A1,1,0,0,1,179.48,709.64ZM171.37,706h4.45l-2.23-5Z"/><path class="cls-4" d="M190.83,709.72a.78.78,0,0,1-.31.64,1.12,1.12,0,0,1-.73.26,1.18,1.18,0,0,1-.52-.13,1.14,1.14,0,0,1-.41-.38l-2.24-3.41a2.31,2.31,0,0,0-.72-.76,2,2,0,0,0-1-.22h-1.65v3.78a1.09,1.09,0,0,1-.29.8,1,1,0,0,1-.77.3,1.06,1.06,0,0,1-.79-.3,1.09,1.09,0,0,1-.29-.8v-9.87a1,1,0,0,1,.28-.76,1.08,1.08,0,0,1,.76-.26h4.22a4.62,4.62,0,0,1,3.08.9,3.24,3.24,0,0,1,1,2.6,3.31,3.31,0,0,1-.78,2.27,3.74,3.74,0,0,1-2.22,1.14,2.16,2.16,0,0,1,.86.42,3.62,3.62,0,0,1,.72.84l1.54,2.35A1.1,1.1,0,0,1,190.83,709.72Zm-3-6.13a1.74,1.74,0,0,0,.57-1.43,1.69,1.69,0,0,0-.57-1.42,2.9,2.9,0,0,0-1.8-.45h-2.84v3.76h2.84A2.83,2.83,0,0,0,187.88,703.59Z"/><path class="cls-4" d="M195.6,710.28a1,1,0,0,1-.3-.78v-9.11h-3.07c-.67,0-1-.29-1-.89s.34-.89,1-.89h8.32c.67,0,1,.29,1,.89s-.34.89-1,.89h-3.07v9.11a1,1,0,0,1-.3.78,1,1,0,0,1-.78.3A1.06,1.06,0,0,1,195.6,710.28Z"/><path class="cls-4" d="M203.12,710.23a1,1,0,0,1-.28-.76v-9.84a1,1,0,0,1,.28-.76,1.1,1.1,0,0,1,.77-.26H210a1.25,1.25,0,0,1,.76.21.77.77,0,0,1,.27.63.8.8,0,0,1-.27.65,1.19,1.19,0,0,1-.76.23h-5v3.27h4.67a1.15,1.15,0,0,1,.76.22.77.77,0,0,1,.27.64.74.74,0,0,1-.27.62,1.15,1.15,0,0,1-.76.22H205v3.48h5a1.18,1.18,0,0,1,.76.22.82.82,0,0,1,.27.65.77.77,0,0,1-.27.63,1.25,1.25,0,0,1-.76.22h-6.09A1.06,1.06,0,0,1,203.12,710.23Z"/><path class="cls-4" d="M213.05,710.23a1,1,0,0,1-.27-.76v-9.84a1,1,0,0,1,.27-.76,1.12,1.12,0,0,1,.77-.26h3.34a6.19,6.19,0,0,1,4.53,1.56,5.79,5.79,0,0,1,1.61,4.37,5.86,5.86,0,0,1-1.61,4.4,6.23,6.23,0,0,1-4.53,1.56h-3.34A1.08,1.08,0,0,1,213.05,710.23Zm4-1.51q4.09,0,4.1-4.18t-4.1-4.16H215v8.34Z"/><path class="cls-4" d="M225.87,706.89a.74.74,0,0,1-.21-.49l-.62-6.56,0-.17a1.06,1.06,0,0,1,.36-.84,1.37,1.37,0,0,1,.92-.31,1.35,1.35,0,0,1,.92.31,1.06,1.06,0,0,1,.36.84v.18l-.63,6.55a.74.74,0,0,1-.21.49.63.63,0,0,1-.86,0Zm-.46,3.34a1.3,1.3,0,0,1,0-1.8,1.18,1.18,0,0,1,.89-.36,1.22,1.22,0,0,1,.9.36,1.33,1.33,0,0,1,0,1.8,1.19,1.19,0,0,1-.9.37A1.16,1.16,0,0,1,225.41,710.23Z"/><circle class="cls-5" cx="169.55" cy="245.55" r="111.4"/><path class="cls-6" d="M213.58,203.27A4.63,4.63,0,0,1,209,207.9h-36.9a7.17,7.17,0,1,1,0-14.33h.12a12.64,12.64,0,0,1,24.76-1.48,8.41,8.41,0,0,1,12.3,6.55A4.63,4.63,0,0,1,213.58,203.27Z"/><path class="cls-7" d="M262.48,347.21a6.4,6.4,0,0,0,6.4,6.4h14a5.82,5.82,0,1,0,0-11.64h0c0-.25,0-.5,0-.76a8.51,8.51,0,1,0-17,0c0,.12,0,.25,0,.37A6.43,6.43,0,0,0,262.48,347.21Z"/><path class="cls-6" d="M223.54,239.69a4.63,4.63,0,0,0,4.63,4.63h32.27a8.64,8.64,0,0,0,2.12-17,12.63,12.63,0,0,0-22.88-1.69,9.24,9.24,0,0,0-2.25-.27,9.48,9.48,0,0,0-9.49,9.48v.24A4.63,4.63,0,0,0,223.54,239.69Z"/><rect class="cls-8" x="169.54" y="253.88" width="39.38" height="99.73"/><polygon class="cls-8" points="134.8 353.61 95.42 353.61 95.42 285.94 134.8 270.8 134.8 353.61"/><polygon class="cls-8" points="255.19 353.61 215.81 353.61 215.81 285.94 255.19 270.8 255.19 353.61"/><rect class="cls-9" x="134.8" y="223.64" width="39.38" height="129.97"/><path class="cls-9" d="M168.17,211.35H140.81c0-8.89,6.12-16.08,13.68-16.08S168.17,202.46,168.17,211.35Z"/><rect class="cls-3" x="137.95" y="211.35" width="33.08" height="12.28"/><line class="cls-10" x1="154.49" y1="195.27" x2="154.49" y2="178.21"/><rect class="cls-11" x="190.74" y="200.21" width="8.8" height="25.51" transform="translate(390.29 425.92) rotate(-180)"/><polygon class="cls-11" points="199.54 279.09 199.54 353.61 222.12 353.61 222.12 296.43 199.82 279.31 199.54 279.09"/><polygon class="cls-11" points="181.95 231.71 181.95 353.61 199.54 353.61 199.54 214.38 190.74 223.05 181.95 231.71"/><line class="cls-10" x1="222.12" y1="296.42" x2="181.94" y2="265.82"/><line class="cls-10" x1="222.12" y1="331.65" x2="181.94" y2="301.05"/><line class="cls-10" x1="199.54" y1="245.12" x2="181.95" y2="231.71"/><line class="cls-10" x1="199.54" y1="245.92" x2="181.95" y2="259.32"/><polyline class="cls-10" points="181.95 292.92 199.54 279.52 199.73 279.37 199.82 279.31"/><line class="cls-10" x1="181.94" y1="327.5" x2="222.12" y2="296.9"/><rect class="cls-12" x="65.3" y="288.58" width="60.23" height="65.03"/><rect class="cls-3" x="71.99" y="276.19" width="18.24" height="12.39"/><line class="cls-10" x1="73.7" y1="315.26" x2="117.14" y2="315.26"/><line class="cls-10" x1="73.7" y1="302.06" x2="117.14" y2="302.06"/><line class="cls-10" x1="73.7" y1="327.69" x2="117.14" y2="327.69"/><line class="cls-10" x1="73.7" y1="340.12" x2="117.14" y2="340.12"/><line class="cls-10" x1="142.39" y1="239.7" x2="166.59" y2="239.7"/><line class="cls-10" x1="142.39" y1="252.14" x2="166.59" y2="252.14"/><line class="cls-10" x1="142.39" y1="264.57" x2="166.59" y2="264.57"/><line class="cls-10" x1="142.39" y1="276.19" x2="166.59" y2="276.19"/><line class="cls-10" x1="142.39" y1="288.62" x2="166.59" y2="288.62"/><line class="cls-10" x1="142.39" y1="301.06" x2="166.59" y2="301.06"/><line class="cls-10" x1="142.39" y1="312.68" x2="166.59" y2="312.68"/><line class="cls-10" x1="142.39" y1="325.11" x2="166.59" y2="325.11"/><line class="cls-10" x1="142.39" y1="337.54" x2="166.59" y2="337.54"/><polygon class="cls-13" points="270.43 353.61 231.05 353.61 231.05 269.02 270.43 253.88 270.43 353.61"/><line class="cls-10" x1="239.93" y1="281.12" x2="246.31" y2="281.12"/><line class="cls-10" x1="239.93" y1="293.56" x2="246.31" y2="293.56"/><line class="cls-10" x1="239.93" y1="305.99" x2="246.31" y2="305.99"/><line class="cls-10" x1="239.93" y1="317.61" x2="246.31" y2="317.61"/><line class="cls-10" x1="239.93" y1="330.04" x2="246.31" y2="330.04"/><line class="cls-10" x1="239.93" y1="342.48" x2="246.31" y2="342.48"/><line class="cls-10" x1="255.16" y1="281.12" x2="261.54" y2="281.12"/><line class="cls-10" x1="255.16" y1="293.56" x2="261.54" y2="293.56"/><line class="cls-10" x1="255.16" y1="305.99" x2="261.54" y2="305.99"/><line class="cls-10" x1="255.16" y1="317.61" x2="261.54" y2="317.61"/><line class="cls-10" x1="255.16" y1="330.04" x2="261.54" y2="330.04"/><line class="cls-10" x1="255.16" y1="342.48" x2="261.54" y2="342.48"/><path class="cls-14" d="M65.3,353.61s60.24-8.9,60.24-65v65Z"/><path class="cls-14" d="M134.8,353.61s39.38-37.12,39.38-130v130Z"/><path class="cls-14" d="M231.05,353.61s39.38-17,39.38-99.73v99.73Z"/><polyline class="cls-15" points="208.93 286.38 208.93 286.3 208.93 253.88 199.54 253.88"/><line class="cls-15" x1="181.95" y1="253.88" x2="174.18" y2="253.88"/><polyline class="cls-15" points="208.93 353.61 199.54 353.61 181.94 353.61 174.18 353.61 169.54 353.61"/><polyline class="cls-15" points="95.42 353.61 125.53 353.61 134.79 353.61 134.79 270.8 95.42 285.94 95.42 288.58"/><polyline class="cls-15" points="215.81 291.63 215.81 291.59 215.81 285.94 231.04 280.08"/><polyline class="cls-15" points="255.19 353.61 231.04 353.61 222.12 353.61 215.81 353.61"/><rect class="cls-15" x="134.8" y="223.64" width="39.38" height="129.97"/><path class="cls-14" d="M167.86,210.29h-7.51c3-7-5.87-15-5.87-15C165.91,195.27,167.86,210.29,167.86,210.29Z"/><path class="cls-15" d="M168.17,211.35H140.81c0-8.89,6.12-16.08,13.68-16.08S168.17,202.46,168.17,211.35Z"/><rect class="cls-15" x="137.95" y="211.35" width="33.08" height="12.28"/><polyline class="cls-15" points="190.75 223.04 190.75 200.21 199.54 200.21 199.54 214.38 199.54 225.72"/><path class="cls-14" d="M222.12,353.61H182s40.17-11.68,40.17-56.71Z"/><polygon class="cls-15" points="199.54 279.09 199.54 353.61 222.12 353.61 222.12 296.43 199.82 279.31 199.54 279.09"/><polygon class="cls-15" points="181.95 231.71 181.95 353.61 199.54 353.61 199.54 214.38 190.74 223.05 181.95 231.71"/><line class="cls-15" x1="222.12" y1="296.42" x2="181.94" y2="265.82"/><line class="cls-15" x1="222.12" y1="331.65" x2="181.94" y2="301.05"/><line class="cls-15" x1="181.94" y1="331.65" x2="222.12" y2="301.05"/><line class="cls-15" x1="199.54" y1="245.12" x2="181.95" y2="231.71"/><line class="cls-15" x1="199.54" y1="245.92" x2="181.95" y2="259.32"/><polyline class="cls-15" points="181.95 292.92 199.54 279.52 199.73 279.37 199.82 279.31"/><rect class="cls-15" x="65.3" y="288.58" width="60.23" height="65.03"/><rect class="cls-15" x="71.99" y="276.19" width="18.24" height="12.39"/><line class="cls-15" x1="73.7" y1="315.26" x2="117.14" y2="315.26"/><line class="cls-15" x1="73.7" y1="302.06" x2="117.14" y2="302.06"/><line class="cls-15" x1="73.7" y1="327.69" x2="117.14" y2="327.69"/><line class="cls-15" x1="73.7" y1="340.12" x2="117.14" y2="340.12"/><line class="cls-15" x1="142.39" y1="239.7" x2="166.59" y2="239.7"/><line class="cls-15" x1="142.39" y1="252.14" x2="166.59" y2="252.14"/><line class="cls-15" x1="142.39" y1="264.57" x2="166.59" y2="264.57"/><line class="cls-15" x1="142.39" y1="276.19" x2="166.59" y2="276.19"/><line class="cls-15" x1="142.39" y1="288.62" x2="166.59" y2="288.62"/><line class="cls-15" x1="142.39" y1="301.06" x2="166.59" y2="301.06"/><line class="cls-15" x1="142.39" y1="312.68" x2="166.59" y2="312.68"/><line class="cls-15" x1="142.39" y1="325.11" x2="166.59" y2="325.11"/><line class="cls-15" x1="142.39" y1="337.54" x2="166.59" y2="337.54"/><polygon class="cls-15" points="270.43 353.61 231.05 353.61 231.05 269.02 270.43 253.88 270.43 353.61"/><line class="cls-15" x1="239.93" y1="281.12" x2="246.31" y2="281.12"/><line class="cls-15" x1="239.93" y1="293.56" x2="246.31" y2="293.56"/><line class="cls-15" x1="239.93" y1="305.99" x2="246.31" y2="305.99"/><line class="cls-15" x1="239.93" y1="317.61" x2="246.31" y2="317.61"/><line class="cls-15" x1="239.93" y1="330.04" x2="246.31" y2="330.04"/><line class="cls-15" x1="239.93" y1="342.48" x2="246.31" y2="342.48"/><line class="cls-15" x1="255.16" y1="281.12" x2="261.54" y2="281.12"/><line class="cls-15" x1="255.16" y1="293.56" x2="261.54" y2="293.56"/><line class="cls-15" x1="255.16" y1="305.99" x2="261.54" y2="305.99"/><line class="cls-15" x1="255.16" y1="317.61" x2="261.54" y2="317.61"/><line class="cls-15" x1="255.16" y1="330.04" x2="261.54" y2="330.04"/><line class="cls-15" x1="255.16" y1="342.48" x2="261.54" y2="342.48"/><path class="cls-7" d="M236.52,346.64a6.4,6.4,0,0,1-6.4,6.4h-14a5.82,5.82,0,1,1,0-11.64h0c0-.25,0-.5,0-.76a8.51,8.51,0,0,1,17,0c0,.12,0,.25,0,.37A6.43,6.43,0,0,1,236.52,346.64Z"/><path class="cls-6" d="M120.69,248.71a4.63,4.63,0,0,1-4.63,4.63H79.16a7.17,7.17,0,1,1,0-14.33h.12A12.64,12.64,0,0,1,104,237.54a8.41,8.41,0,0,1,12.3,6.55A4.63,4.63,0,0,1,120.69,248.71Z"/><polyline class="cls-15" points="154.49 195.27 154.49 178.21 154.49 176.45"/><polyline class="cls-15" points="65.3 353.61 55.16 353.61 55.16 331.54"/><path class="cls-7" d="M42.07,329.77a6.4,6.4,0,0,0,6.4,6.39h14a5.82,5.82,0,0,0,0-11.64h0c0-.25,0-.5,0-.76a8.51,8.51,0,0,0-17,0c0,.13,0,.25,0,.38A6.41,6.41,0,0,0,42.07,329.77Z"/><circle class="cls-16" cx="48.29" cy="273.98" r="6.08"/><rect class="cls-16" x="47.84" y="270.2" width="12.16" height="12.16" transform="translate(-222.25 221.77) rotate(-67.79)"/><circle class="cls-16" cx="56.22" cy="270.65" r="6.08"/><rect class="cls-16" x="47.84" y="270.2" width="12.16" height="12.16" transform="translate(-0.59 552.44) rotate(-157.79)"/><circle class="cls-16" cx="31.62" cy="209.26" r="3.48"/><rect class="cls-16" x="29.17" y="209.1" width="6.96" height="6.96" transform="translate(-61.78 19.35) rotate(-17.31)"/><circle class="cls-16" cx="35.97" cy="211.54" r="3.48"/><rect class="cls-16" x="29.17" y="209.1" width="6.96" height="6.96" transform="translate(-160.57 307.01) rotate(-107.31)"/><circle class="cls-16" cx="283.7" cy="296.82" r="6.91"/><rect class="cls-16" x="279.33" y="296.34" width="13.81" height="13.81" transform="translate(-91.3 126.17) rotate(-21.53)"/><circle class="cls-16" cx="292.66" cy="300.71" r="6.91"/><rect class="cls-16" x="279.33" y="296.34" width="13.81" height="13.81" transform="translate(109.16 680.78) rotate(-111.53)"/><circle class="cls-16" cx="301.42" cy="230" r="4.78"/><rect class="cls-16" x="300.68" y="227.76" width="9.56" height="9.56" transform="translate(-53.98 367.39) rotate(-57.84)"/><circle class="cls-16" cx="308.01" cy="228.5" r="4.78"/><rect class="cls-16" x="300.68" y="227.76" width="9.56" height="9.56" transform="translate(440.31 591.99) rotate(-147.84)"/><circle class="cls-4" cx="56.22" cy="233.89" r="4.58"/><circle class="cls-4" cx="280.32" cy="253.99" r="5.32"/></g></g></svg>