<svg width="554" height="548" viewBox="0 0 554 548" fill="none" xmlns="http://www.w3.org/2000/svg">
<path fill-rule="evenodd" clip-rule="evenodd" d="M274 0C275.011 0 276.011 0.00813275 277 0.0243347V24.0176C276.001 24.0059 275.001 24 274 24C135.929 24 24 135.929 24 274C24 412.071 135.929 524 274 524C274.169 524 274.338 524 274.507 524C274.176 531.263 274 539.233 274 548C122.674 548 0 425.326 0 274C0 122.674 122.674 0 274 0Z" fill="#FF8091"/>
<path d="M160.891 310.413C167.228 310.413 172.076 308.875 175.437 305.798C178.797 302.721 180.477 298.49 180.477 293.106C180.477 287.337 178.509 283.106 174.572 280.413C170.636 277.721 165.019 276.375 157.722 276.375L146.345 276.808V224.019H195.887V241.615H162.475V261.087L168.38 260.51C173.084 260.702 177.309 261.567 181.053 263.106C184.894 264.644 188.158 266.808 190.846 269.596C193.535 272.288 195.599 275.606 197.039 279.548C198.479 283.394 199.2 287.721 199.2 292.529C199.2 298.202 198.239 303.202 196.319 307.529C194.399 311.856 191.711 315.462 188.254 318.346C184.894 321.231 180.909 323.394 176.301 324.837C171.692 326.279 166.651 327 161.179 327C156.858 327 152.73 326.615 148.793 325.846C144.953 325.173 141.688 324.212 139 322.962L144.041 307.385C146.249 308.346 148.649 309.115 151.242 309.692C153.93 310.173 157.146 310.413 160.891 310.413Z" fill="#333333"/>
<path d="M216.681 274.356C216.681 256.663 219.705 243.538 225.754 234.981C231.803 226.327 240.492 222 251.821 222C263.919 222 272.8 226.279 278.465 234.837C284.129 243.298 286.962 256.471 286.962 274.356C286.962 292.144 283.889 305.365 277.744 314.019C271.696 322.673 263.007 327 251.677 327C239.676 327 230.843 322.481 225.178 313.442C219.513 304.308 216.681 291.279 216.681 274.356ZM235.403 274.356C235.403 286.087 236.651 295.173 239.148 301.615C241.74 307.962 245.964 311.135 251.821 311.135C257.486 311.135 261.614 308.202 264.207 302.337C266.895 296.471 268.239 287.144 268.239 274.356C268.239 262.721 266.991 253.731 264.495 247.385C261.998 241.038 257.726 237.865 251.677 237.865C245.916 237.865 241.74 240.846 239.148 246.808C236.651 252.769 235.403 261.952 235.403 274.356Z" fill="#333333"/>
<path d="M299.978 246.808C299.978 242.481 300.602 238.779 301.851 235.702C303.099 232.625 304.827 230.077 307.035 228.058C309.244 226.038 311.884 224.596 314.956 223.731C318.125 222.769 321.533 222.288 325.182 222.288C328.83 222.288 332.19 222.721 335.263 223.587C338.335 224.452 340.975 225.846 343.184 227.769C345.488 229.692 347.264 232.24 348.512 235.413C349.761 238.49 350.433 242.288 350.529 246.808C350.433 251.327 349.761 255.173 348.512 258.346C347.264 261.423 345.488 263.923 343.184 265.846C340.975 267.769 338.335 269.163 335.263 270.029C332.19 270.894 328.83 271.327 325.182 271.327C321.533 271.327 318.125 270.894 314.956 270.029C311.884 269.163 309.244 267.769 307.035 265.846C304.827 263.923 303.099 261.423 301.851 258.346C300.602 255.173 299.978 251.327 299.978 246.808ZM316.684 246.808C316.684 255.077 319.517 259.212 325.182 259.212C328.158 259.212 330.27 258.346 331.518 256.615C332.862 254.788 333.583 251.519 333.679 246.808C333.583 242.192 332.862 238.971 331.518 237.144C330.27 235.317 328.158 234.404 325.182 234.404C322.205 234.404 320.045 235.317 318.701 237.144C317.357 238.971 316.684 242.192 316.684 246.808ZM358.45 300.173C358.45 295.846 359.074 292.144 360.322 289.067C361.57 285.99 363.298 283.442 365.507 281.423C367.715 279.404 370.355 277.962 373.428 277.096C376.596 276.135 380.004 275.654 383.653 275.654C387.301 275.654 390.662 276.087 393.734 276.952C396.806 277.817 399.447 279.212 401.655 281.135C403.959 283.058 405.736 285.606 406.984 288.779C408.232 291.856 408.904 295.654 409 300.173C408.904 304.692 408.232 308.538 406.984 311.712C405.736 314.788 403.959 317.288 401.655 319.212C399.447 321.135 396.806 322.529 393.734 323.394C390.662 324.26 387.301 324.692 383.653 324.692C380.004 324.692 376.596 324.26 373.428 323.394C370.355 322.529 367.715 321.135 365.507 319.212C363.298 317.288 361.57 314.788 360.322 311.712C359.074 308.538 358.45 304.692 358.45 300.173ZM375.156 300.173C375.156 308.442 377.988 312.577 383.653 312.577C386.629 312.577 388.741 311.712 389.99 309.981C391.334 308.154 392.054 304.885 392.15 300.173C392.054 295.558 391.334 292.337 389.99 290.51C388.741 288.683 386.629 287.769 383.653 287.769C380.676 287.769 378.516 288.683 377.172 290.51C375.828 292.337 375.156 295.558 375.156 300.173ZM390.134 222L400.647 231.519L317.693 327L307.179 317.048L390.134 222Z" fill="#333333"/>
</svg>
