<svg width="113" height="70" viewBox="0 0 113 70" fill="none" xmlns="http://www.w3.org/2000/svg">
<path d="M66.4519 9.09991L63.8319 11.7199L66.4519 14.3399L69.0719 11.7199L66.4519 9.09991ZM57.8919 0.539907C57.7607 0.40628 57.6088 0.29483 57.4419 0.209907C57.3789 0.174767 57.3117 0.14788 57.2419 0.129907C56.8116 -0.0218179 56.3423 -0.0218179 55.9119 0.129907C55.8412 0.145082 55.7736 0.172132 55.7119 0.209907C55.5466 0.292613 55.3976 0.404395 55.2719 0.539907L44.0819 11.7199L36.8319 18.9999L35.5219 20.3099C35.1756 20.66 34.9814 21.1325 34.9814 21.6249C34.9814 22.1173 35.1756 22.5898 35.5219 22.9399L36.8319 24.2499L43.6119 30.9999L46.2319 28.3799L39.4519 21.5999L49.6019 11.4499L56.6019 4.44991L63.3619 11.2499L65.9819 8.62991L57.8919 0.539907ZM77.6319 20.2799L76.3619 18.9999L69.5519 12.1999L66.9319 14.8299L73.7019 21.5999L63.4319 31.8699L56.5819 38.7199L49.8119 31.9999L47.1919 34.6199L55.2719 42.6999L55.4119 42.8299C55.5454 42.95 55.7019 43.0419 55.8719 43.0999L56.0419 43.1699H56.2119H56.3619H56.5819H56.7619H56.9419C57.0617 43.144 57.1789 43.1072 57.2919 43.0599C57.4566 42.9971 57.6089 42.9057 57.7419 42.7899L57.8919 42.6599L77.6319 22.9099C77.8058 22.7379 77.9438 22.5331 78.038 22.3074C78.1322 22.0816 78.1806 21.8395 78.1806 21.5949C78.1806 21.3503 78.1322 21.1082 78.038 20.8825C77.9438 20.6567 77.8058 20.4519 77.6319 20.2799ZM46.7019 28.8499L44.0819 31.4699L46.7019 34.0899L49.3619 31.4699L46.7019 28.8499Z" fill="#FF8091"/>
<path d="M66.4519 9.09991L63.8319 11.7199L66.4519 14.3399L69.0719 11.7199L66.4519 9.09991ZM57.8919 0.539907C57.7607 0.40628 57.6088 0.29483 57.4419 0.209907C57.3789 0.174767 57.3117 0.14788 57.2419 0.129907C56.8116 -0.0218179 56.3423 -0.0218179 55.9119 0.129907C55.8412 0.145082 55.7736 0.172132 55.7119 0.209907C55.5466 0.292613 55.3976 0.404395 55.2719 0.539907L44.0819 11.7199L36.8319 18.9999L35.5219 20.3099C35.1756 20.66 34.9814 21.1325 34.9814 21.6249C34.9814 22.1173 35.1756 22.5898 35.5219 22.9399L36.8319 24.2499L43.6119 30.9999L46.2319 28.3799L39.4519 21.5999L49.6019 11.4499L56.6019 4.44991L63.3619 11.2499L65.9819 8.62991L57.8919 0.539907ZM77.6319 20.2799L76.3619 18.9999L69.5519 12.1999L66.9319 14.8299L73.7019 21.5999L63.4319 31.8699L56.5819 38.7199L49.8119 31.9999L47.1919 34.6199L55.2719 42.6999L55.4119 42.8299C55.5454 42.95 55.7019 43.0419 55.8719 43.0999L56.0419 43.1699H56.2119H56.3619H56.5819H56.7619H56.9419C57.0617 43.144 57.1789 43.1072 57.2919 43.0599C57.4566 42.9971 57.6089 42.9057 57.7419 42.7899L57.8919 42.6599L77.6319 22.9099C77.8058 22.7379 77.9438 22.5331 78.038 22.3074C78.1322 22.0816 78.1806 21.8395 78.1806 21.5949C78.1806 21.3503 78.1322 21.1082 78.038 20.8825C77.9438 20.6567 77.8058 20.4519 77.6319 20.2799ZM46.7019 28.8499L44.0819 31.4699L46.7019 34.0899L49.3619 31.4699L46.7019 28.8499Z" fill="#FF8091"/>
<path d="M49.8119 12.1999L47.1919 14.8299L53.4819 21.1199L56.1019 18.4999L49.8119 12.1999ZM48.0119 10.4099C47.6635 10.0643 47.1927 9.87036 46.7019 9.87036C46.2112 9.87036 45.7403 10.0643 45.3919 10.4099L44.0819 11.7199L36.8319 18.9999L35.5219 20.3099C35.1756 20.66 34.9814 21.1326 34.9814 21.6249C34.9814 22.1173 35.1756 22.5899 35.5219 22.9399L36.8319 24.2499L43.6119 30.9999L46.2319 28.3799L39.4519 21.5999L49.3619 11.7199L48.0119 10.4099ZM57.8919 20.2799L56.5819 18.9999L55.2719 20.3099L53.9519 21.5999L44.0819 31.4699L45.3619 32.7799C45.7103 33.1256 46.1812 33.3195 46.6719 33.3195C47.1627 33.3195 47.6335 33.1256 47.9819 32.7799L57.8619 22.9099C58.2122 22.5638 58.4118 22.0935 58.4174 21.6011C58.423 21.1087 58.2342 20.634 57.8919 20.2799V20.2799Z" fill="#FF8091"/>
<path d="M49.8119 12.1999L47.1919 14.8299L53.4819 21.1199L56.1019 18.4999L49.8119 12.1999ZM48.0119 10.4099C47.6635 10.0643 47.1927 9.87036 46.7019 9.87036C46.2112 9.87036 45.7403 10.0643 45.3919 10.4099L44.0819 11.7199L36.8319 18.9999L35.5219 20.3099C35.1756 20.66 34.9814 21.1326 34.9814 21.6249C34.9814 22.1173 35.1756 22.5899 35.5219 22.9399L36.8319 24.2499L43.6119 30.9999L46.2319 28.3799L39.4519 21.5999L49.3619 11.7199L48.0119 10.4099ZM57.8919 20.2799L56.5819 18.9999L55.2719 20.3099L53.9519 21.5999L44.0819 31.4699L45.3619 32.7799C45.7103 33.1256 46.1812 33.3195 46.6719 33.3195C47.1627 33.3195 47.6335 33.1256 47.9819 32.7799L57.8619 22.9099C58.2122 22.5638 58.4118 22.0935 58.4174 21.6011C58.423 21.1087 58.2342 20.634 57.8919 20.2799V20.2799Z" fill="#FF8091"/>
<path d="M49.8118 12.2L47.1918 14.83L53.4818 21.12L56.1018 18.5L49.8118 12.2ZM49.8118 12.2L47.1918 14.83L53.4818 21.12L56.1018 18.5L49.8118 12.2ZM49.8118 12.2L47.1918 14.83L53.4818 21.12L56.1018 18.5L49.8118 12.2ZM49.8118 12.2L47.1918 14.83L53.4818 21.12L56.1018 18.5L49.8118 12.2ZM67.8118 10.41L66.4518 9.10003L63.8318 11.72L63.5018 12.06L56.8518 18.7L55.2718 20.28L53.9518 21.6L55.2718 22.91C55.4429 23.0831 55.6471 23.22 55.8721 23.3127C56.0971 23.4055 56.3384 23.4522 56.5818 23.45C57.0724 23.4488 57.5429 23.2549 57.8918 22.91L67.7618 13C68.0984 12.653 68.2866 12.1885 68.2866 11.705C68.2866 11.2216 68.0984 10.7571 67.7618 10.41H67.8118ZM63.3618 11.25L65.9818 8.63003L57.8918 0.54003C57.7606 0.406404 57.6087 0.294954 57.4418 0.21003C57.3788 0.174891 57.3116 0.148003 57.2418 0.13003C56.8147 -0.0397628 56.3389 -0.0397628 55.9118 0.13003C55.8411 0.145206 55.7734 0.172256 55.7118 0.21003C55.5465 0.292737 55.3975 0.404519 55.2718 0.54003L45.3618 10.41C45.0252 10.7571 44.8369 11.2216 44.8369 11.705C44.8369 12.1885 45.0252 12.653 45.3618 13L46.6718 14.31L49.5718 11.42L56.5718 4.42003L63.3618 11.25ZM49.8218 12.2L47.2018 14.83L53.4918 21.12L56.1118 18.5L49.8218 12.2ZM49.8218 12.2L47.2018 14.83L53.4918 21.12L56.1118 18.5L49.8218 12.2ZM49.8218 12.2L47.2018 14.83L53.4918 21.12L56.1118 18.5L49.8218 12.2Z" fill="#FF8091"/>
<path d="M59.6819 22.08L57.0619 24.7L63.3619 31L65.9819 28.38L59.6819 22.08ZM67.7619 30.16L66.4518 28.85L63.8319 31.47L63.4419 31.87L56.5919 38.72L49.8119 32L47.1919 34.62L55.2719 42.7L55.4118 42.83C55.5454 42.9501 55.7019 43.042 55.8718 43.1L56.0419 43.17H56.2118H56.3619H56.5819H56.7619H56.9419C57.0616 43.1441 57.1788 43.1073 57.2919 43.06C57.4566 42.9971 57.6089 42.9057 57.7419 42.79L57.8918 42.66L67.7619 32.79C68.1105 32.4412 68.3064 31.9682 68.3064 31.475C68.3064 30.9818 68.1105 30.5088 67.7619 30.16V30.16ZM57.8918 20.28C57.5363 19.9482 57.0681 19.7637 56.5819 19.7637C56.0956 19.7637 55.6274 19.9482 55.2719 20.28L53.9519 21.6L45.3619 30.16C45.0162 30.5084 44.8223 30.9792 44.8223 31.47C44.8223 31.9607 45.0162 32.4316 45.3619 32.78L46.6719 34.09L59.2019 21.6L57.8918 20.28Z" fill="#FF8091"/>
<path d="M59.6819 22.08L57.0619 24.7L63.3619 31L65.9819 28.38L59.6819 22.08ZM67.7619 30.16L66.4518 28.85L63.8319 31.47L63.4419 31.87L56.5919 38.72L49.8119 32L47.1919 34.62L55.2719 42.7L55.4118 42.83C55.5454 42.9501 55.7019 43.042 55.8718 43.1L56.0419 43.17H56.2118H56.3619H56.5819H56.7619H56.9419C57.0616 43.1441 57.1788 43.1073 57.2919 43.06C57.4566 42.9971 57.6089 42.9057 57.7419 42.79L57.8918 42.66L67.7619 32.79C68.1105 32.4412 68.3064 31.9682 68.3064 31.475C68.3064 30.9818 68.1105 30.5088 67.7619 30.16V30.16ZM57.8918 20.28C57.5363 19.9482 57.0681 19.7637 56.5819 19.7637C56.0956 19.7637 55.6274 19.9482 55.2719 20.28L53.9519 21.6L45.3619 30.16C45.0162 30.5084 44.8223 30.9792 44.8223 31.47C44.8223 31.9607 45.0162 32.4316 45.3619 32.78L46.6719 34.09L59.2019 21.6L57.8918 20.28Z" fill="#FF8091"/>
<path d="M59.6819 22.0799L57.0619 24.6999L63.3619 30.9999L65.9819 28.3799L59.6819 22.0799ZM59.6819 22.0799L57.0619 24.6999L63.3619 30.9999L65.9819 28.3799L59.6819 22.0799ZM67.7619 10.4099C67.4135 10.0643 66.9426 9.87036 66.4519 9.87036C65.9611 9.87036 65.4902 10.0643 65.1419 10.4099L63.8319 11.7199L56.8319 18.7199L55.2519 20.2999C55.078 20.472 54.94 20.6768 54.8458 20.9025C54.7516 21.1282 54.7031 21.3704 54.7031 21.6149C54.7031 21.8595 54.7516 22.1017 54.8458 22.3274C54.94 22.5531 55.078 22.7579 55.2519 22.9299L56.5619 24.2399L69.0519 11.7399L67.7619 10.4099ZM77.6319 20.2799L76.3619 18.9999L69.5519 12.1999L66.9319 14.8299L73.7019 21.5999L63.8319 31.4699L65.1419 32.7799C65.3137 32.9521 65.5179 33.0884 65.7428 33.1811C65.9677 33.2738 66.2087 33.321 66.4519 33.3199C66.9425 33.3188 67.4129 33.1248 67.7619 32.7799L77.6319 22.9099C77.8057 22.7379 77.9437 22.5331 78.0379 22.3074C78.1321 22.0817 78.1806 21.8395 78.1806 21.5949C78.1806 21.3504 78.1321 21.1082 78.0379 20.8825C77.9437 20.6568 77.8057 20.452 77.6319 20.2799V20.2799ZM59.6819 22.0799L57.0619 24.6999L63.3619 30.9999L65.9819 28.3799L59.6819 22.0799ZM59.6819 22.0799L57.0619 24.6999L63.3619 30.9999L65.9819 28.3799L59.6819 22.0799Z" fill="#FF8091"/>
<path d="M48.0118 30.16L46.7018 28.85L44.0818 31.47L43.7418 31.8L40.4518 35.09C39.4916 36.0499 38.1895 36.5892 36.8318 36.5892C35.474 36.5892 34.1719 36.0499 33.2118 35.09C32.2518 34.1298 31.7125 32.8277 31.7125 31.47C31.7125 30.1123 32.2518 28.8102 33.2118 27.85L36.8318 24.22L43.6118 31L46.2318 28.38L39.4518 21.6L38.1418 20.28C37.7862 19.9482 37.3181 19.7637 36.8318 19.7637C36.3455 19.7637 35.8773 19.9482 35.5218 20.28L34.2118 21.6L30.5918 25.22C28.9342 26.8749 28.0019 29.1206 28 31.4629C27.9981 33.8053 28.9268 36.0524 30.5818 37.71C32.2367 39.3676 34.4824 40.2999 36.8247 40.3018C39.167 40.3036 41.4142 39.375 43.0718 37.72L48.0118 32.78C48.3612 32.4333 48.559 31.9622 48.5618 31.47C48.5626 31.2259 48.5144 30.9842 48.4199 30.7591C48.3254 30.5341 48.1866 30.3303 48.0118 30.16V30.16Z" fill="#FF8091"/>
<path d="M48.0119 10.41L46.7019 9.09995L44.0819 11.72L36.8319 19L33.2119 15.38C32.7339 14.9046 32.3542 14.3397 32.0945 13.7176C31.8348 13.0954 31.7001 12.4282 31.6983 11.7541C31.6964 11.0799 31.8274 10.412 32.0836 9.78848C32.3399 9.16493 32.7165 8.59796 33.1919 8.11995C33.6673 7.64194 34.2321 7.26224 34.8543 7.00254C35.4764 6.74284 36.1436 6.60821 36.8177 6.60636C37.4919 6.6045 38.1598 6.73544 38.7833 6.99172C39.4069 7.24799 39.9739 7.62457 40.4519 8.09995L43.6019 11.25L46.2219 8.61995L43.0719 5.46995C41.8364 4.23597 40.2628 3.39599 38.55 3.05622C36.8372 2.71646 35.0621 2.89215 33.4492 3.56109C31.8362 4.23004 30.4578 5.36219 29.4882 6.81443C28.5186 8.26667 28.0014 9.97378 28.0019 11.72C27.9948 12.8863 28.2202 14.0423 28.6649 15.1206C29.1096 16.1988 29.7647 17.1777 30.5919 18L34.2119 21.63L35.5219 22.94C35.8703 23.2856 36.3411 23.4795 36.8319 23.4795C37.3226 23.4795 37.7935 23.2856 38.1419 22.94L48.0119 13C48.1867 12.8296 48.3255 12.6259 48.42 12.4008C48.5145 12.1758 48.5627 11.934 48.5619 11.69C48.5513 11.2081 48.3541 10.7493 48.0119 10.41V10.41Z" fill="#FF8091"/>
<path d="M82.5718 5.47C80.9115 3.81756 78.6643 2.88989 76.3218 2.88989C73.9793 2.88989 71.7321 3.81756 70.0718 5.47L66.7818 8.77L65.1418 10.41C64.7923 10.7567 64.5946 11.2278 64.5918 11.72C64.5949 11.959 64.6451 12.1951 64.7395 12.4147C64.8338 12.6343 64.9705 12.8332 65.1418 13L66.4518 14.31L72.6918 8.1C73.4105 7.38697 74.3238 6.90206 75.317 6.70611C76.3103 6.51016 77.3393 6.61189 78.2749 6.99854C79.2106 7.3852 80.0112 8.03955 80.5764 8.8795C81.1416 9.71946 81.4461 10.7076 81.4518 11.72C81.4545 12.3951 81.3223 13.064 81.063 13.6873C80.8037 14.3107 80.4225 14.8759 79.9418 15.35L76.3618 19L69.5518 12.2L66.9318 14.83L75.0118 22.91C75.3602 23.2556 75.831 23.4496 76.3218 23.4496C76.8125 23.4496 77.2834 23.2556 77.6318 22.91L82.5718 18C84.2291 16.3422 85.1601 14.0941 85.1601 11.75C85.1601 9.40589 84.2291 7.15775 82.5718 5.5V5.47Z" fill="#FF8091"/>
<path d="M82.5718 25.22L78.9418 21.6L77.6318 20.28C77.294 19.9429 76.8389 19.7494 76.3618 19.74C75.8716 19.7433 75.4019 19.9369 75.0518 20.28L73.7018 21.6L65.1418 30.16C64.967 30.3303 64.8282 30.5341 64.7337 30.7591C64.6392 30.9842 64.591 31.2259 64.5918 31.47C64.5946 31.9622 64.7923 32.4333 65.1418 32.78L66.4518 34.09L76.3618 24.22L79.9818 27.85C80.4613 28.3229 80.8418 28.8865 81.101 29.5081C81.3603 30.1296 81.4931 30.7965 81.4918 31.47C81.4952 32.1559 81.3627 32.8356 81.1018 33.47C80.8442 34.0932 80.4633 34.6578 79.9818 35.13C79.0199 36.0906 77.7162 36.6301 76.3568 36.6301C74.9975 36.6301 73.6937 36.0906 72.7318 35.13L69.5518 32L66.9218 34.62L70.0718 37.77C70.8876 38.6128 71.863 39.2847 72.9412 39.7468C74.0193 40.2088 75.1786 40.4517 76.3515 40.4612C77.5245 40.4707 78.6875 40.2467 79.773 39.8022C80.8585 39.3578 81.8447 38.7017 82.6741 37.8723C83.5035 37.0429 84.1596 36.0567 84.6041 34.9712C85.0485 33.8857 85.2725 32.7226 85.263 31.5497C85.2535 30.3768 85.0106 29.2175 84.5486 28.1394C84.0866 27.0612 83.4146 26.0858 82.5718 25.27V25.22Z" fill="#FF8091"/>
<path d="M63.8319 31.47L63.4319 31.87L63.8219 31.47H63.8319Z" fill="#FF8091"/>
<path d="M66.4519 9.09991L63.8319 11.7199L66.4519 14.3399L69.0719 11.7199L66.4519 9.09991ZM57.8919 0.539907C57.7607 0.40628 57.6088 0.29483 57.4419 0.209907C57.3789 0.174767 57.3117 0.14788 57.2419 0.129907C56.8116 -0.0218179 56.3423 -0.0218179 55.9119 0.129907C55.8412 0.145082 55.7736 0.172132 55.7119 0.209907C55.5466 0.292613 55.3976 0.404395 55.2719 0.539907L44.0819 11.7199L36.8319 18.9999L35.5219 20.3099C35.1756 20.66 34.9814 21.1325 34.9814 21.6249C34.9814 22.1173 35.1756 22.5898 35.5219 22.9399L36.8319 24.2499L43.6119 30.9999L46.2319 28.3799L39.4519 21.5999L49.6019 11.4499L56.6019 4.44991L63.3619 11.2499L65.9819 8.62991L57.8919 0.539907ZM77.6319 20.2799L76.3619 18.9999L69.5519 12.1999L66.9319 14.8299L73.7019 21.5999L63.4319 31.8699L56.5819 38.7199L49.8119 31.9999L47.1919 34.6199L55.2719 42.6999L55.4119 42.8299C55.5454 42.95 55.7019 43.0419 55.8719 43.0999L56.0419 43.1699H56.2119H56.3619H56.5819H56.7619H56.9419C57.0617 43.144 57.1789 43.1072 57.2919 43.0599C57.4566 42.9971 57.6089 42.9057 57.7419 42.7899L57.8919 42.6599L77.6319 22.9099C77.8058 22.7379 77.9438 22.5331 78.038 22.3074C78.1322 22.0816 78.1806 21.8395 78.1806 21.5949C78.1806 21.3503 78.1322 21.1082 78.038 20.8825C77.9438 20.6567 77.8058 20.4519 77.6319 20.2799ZM46.7019 28.8499L44.0819 31.4699L46.7019 34.0899L49.3619 31.4699L46.7019 28.8499Z" fill="#FF8091"/>
<path d="M66.4519 9.09991L63.8319 11.7199L66.4519 14.3399L69.0719 11.7199L66.4519 9.09991ZM57.8919 0.539907C57.7607 0.40628 57.6088 0.29483 57.4419 0.209907C57.3789 0.174767 57.3117 0.14788 57.2419 0.129907C56.8116 -0.0218179 56.3423 -0.0218179 55.9119 0.129907C55.8412 0.145082 55.7736 0.172132 55.7119 0.209907C55.5466 0.292613 55.3976 0.404395 55.2719 0.539907L44.0819 11.7199L36.8319 18.9999L35.5219 20.3099C35.1756 20.66 34.9814 21.1325 34.9814 21.6249C34.9814 22.1173 35.1756 22.5898 35.5219 22.9399L36.8319 24.2499L43.6119 30.9999L46.2319 28.3799L39.4519 21.5999L49.6019 11.4499L56.6019 4.44991L63.3619 11.2499L65.9819 8.62991L57.8919 0.539907ZM77.6319 20.2799L76.3619 18.9999L69.5519 12.1999L66.9319 14.8299L73.7019 21.5999L63.4319 31.8699L56.5819 38.7199L49.8119 31.9999L47.1919 34.6199L55.2719 42.6999L55.4119 42.8299C55.5454 42.95 55.7019 43.0419 55.8719 43.0999L56.0419 43.1699H56.2119H56.3619H56.5819H56.7619H56.9419C57.0617 43.144 57.1789 43.1072 57.2919 43.0599C57.4566 42.9971 57.6089 42.9057 57.7419 42.7899L57.8919 42.6599L77.6319 22.9099C77.8058 22.7379 77.9438 22.5331 78.038 22.3074C78.1322 22.0816 78.1806 21.8395 78.1806 21.5949C78.1806 21.3503 78.1322 21.1082 78.038 20.8825C77.9438 20.6567 77.8058 20.4519 77.6319 20.2799ZM46.7019 28.8499L44.0819 31.4699L46.7019 34.0899L49.3619 31.4699L46.7019 28.8499Z" fill="#FF8091"/>
<path d="M49.8119 12.1999L47.1919 14.8299L53.4819 21.1199L56.1019 18.4999L49.8119 12.1999ZM48.0119 10.4099C47.6635 10.0643 47.1927 9.87036 46.7019 9.87036C46.2112 9.87036 45.7403 10.0643 45.3919 10.4099L44.0819 11.7199L36.8319 18.9999L35.5219 20.3099C35.1756 20.66 34.9814 21.1326 34.9814 21.6249C34.9814 22.1173 35.1756 22.5899 35.5219 22.9399L36.8319 24.2499L43.6119 30.9999L46.2319 28.3799L39.4519 21.5999L49.3619 11.7199L48.0119 10.4099ZM57.8919 20.2799L56.5819 18.9999L55.2719 20.3099L53.9519 21.5999L44.0819 31.4699L45.3619 32.7799C45.7103 33.1256 46.1812 33.3195 46.6719 33.3195C47.1627 33.3195 47.6335 33.1256 47.9819 32.7799L57.8619 22.9099C58.2122 22.5638 58.4118 22.0935 58.4174 21.6011C58.423 21.1087 58.2342 20.634 57.8919 20.2799V20.2799Z" fill="#FF8091"/>
<path d="M49.8119 12.1999L47.1919 14.8299L53.4819 21.1199L56.1019 18.4999L49.8119 12.1999ZM48.0119 10.4099C47.6635 10.0643 47.1927 9.87036 46.7019 9.87036C46.2112 9.87036 45.7403 10.0643 45.3919 10.4099L44.0819 11.7199L36.8319 18.9999L35.5219 20.3099C35.1756 20.66 34.9814 21.1326 34.9814 21.6249C34.9814 22.1173 35.1756 22.5899 35.5219 22.9399L36.8319 24.2499L43.6119 30.9999L46.2319 28.3799L39.4519 21.5999L49.3619 11.7199L48.0119 10.4099ZM57.8919 20.2799L56.5819 18.9999L55.2719 20.3099L53.9519 21.5999L44.0819 31.4699L45.3619 32.7799C45.7103 33.1256 46.1812 33.3195 46.6719 33.3195C47.1627 33.3195 47.6335 33.1256 47.9819 32.7799L57.8619 22.9099C58.2122 22.5638 58.4118 22.0935 58.4174 21.6011C58.423 21.1087 58.2342 20.634 57.8919 20.2799V20.2799Z" fill="#FF8091"/>
<path d="M49.8118 12.2L47.1918 14.83L53.4818 21.12L56.1018 18.5L49.8118 12.2ZM49.8118 12.2L47.1918 14.83L53.4818 21.12L56.1018 18.5L49.8118 12.2ZM49.8118 12.2L47.1918 14.83L53.4818 21.12L56.1018 18.5L49.8118 12.2ZM49.8118 12.2L47.1918 14.83L53.4818 21.12L56.1018 18.5L49.8118 12.2ZM67.8118 10.41L66.4518 9.10003L63.8318 11.72L63.5018 12.06L56.8518 18.7L55.2718 20.28L53.9518 21.6L55.2718 22.91C55.4429 23.0831 55.6471 23.22 55.8721 23.3127C56.0971 23.4055 56.3384 23.4522 56.5818 23.45C57.0724 23.4488 57.5429 23.2549 57.8918 22.91L67.7618 13C68.0984 12.653 68.2866 12.1885 68.2866 11.705C68.2866 11.2216 68.0984 10.7571 67.7618 10.41H67.8118ZM63.3618 11.25L65.9818 8.63003L57.8918 0.54003C57.7606 0.406404 57.6087 0.294954 57.4418 0.21003C57.3788 0.174891 57.3116 0.148003 57.2418 0.13003C56.8147 -0.0397628 56.3389 -0.0397628 55.9118 0.13003C55.8411 0.145206 55.7734 0.172256 55.7118 0.21003C55.5465 0.292737 55.3975 0.404519 55.2718 0.54003L45.3618 10.41C45.0252 10.7571 44.8369 11.2216 44.8369 11.705C44.8369 12.1885 45.0252 12.653 45.3618 13L46.6718 14.31L49.5718 11.42L56.5718 4.42003L63.3618 11.25ZM49.8218 12.2L47.2018 14.83L53.4918 21.12L56.1118 18.5L49.8218 12.2ZM49.8218 12.2L47.2018 14.83L53.4918 21.12L56.1118 18.5L49.8218 12.2ZM49.8218 12.2L47.2018 14.83L53.4918 21.12L56.1118 18.5L49.8218 12.2Z" fill="#FF8091"/>
<path d="M59.6819 22.08L57.0619 24.7L63.3619 31L65.9819 28.38L59.6819 22.08ZM67.7619 30.16L66.4518 28.85L63.8319 31.47L63.4419 31.87L56.5919 38.72L49.8119 32L47.1919 34.62L55.2719 42.7L55.4118 42.83C55.5454 42.9501 55.7019 43.042 55.8718 43.1L56.0419 43.17H56.2118H56.3619H56.5819H56.7619H56.9419C57.0616 43.1441 57.1788 43.1073 57.2919 43.06C57.4566 42.9971 57.6089 42.9057 57.7419 42.79L57.8918 42.66L67.7619 32.79C68.1105 32.4412 68.3064 31.9682 68.3064 31.475C68.3064 30.9818 68.1105 30.5088 67.7619 30.16V30.16ZM57.8918 20.28C57.5363 19.9482 57.0681 19.7637 56.5819 19.7637C56.0956 19.7637 55.6274 19.9482 55.2719 20.28L53.9519 21.6L45.3619 30.16C45.0162 30.5084 44.8223 30.9792 44.8223 31.47C44.8223 31.9607 45.0162 32.4316 45.3619 32.78L46.6719 34.09L59.2019 21.6L57.8918 20.28Z" fill="#FF8091"/>
<path d="M59.6819 22.08L57.0619 24.7L63.3619 31L65.9819 28.38L59.6819 22.08ZM67.7619 30.16L66.4518 28.85L63.8319 31.47L63.4419 31.87L56.5919 38.72L49.8119 32L47.1919 34.62L55.2719 42.7L55.4118 42.83C55.5454 42.9501 55.7019 43.042 55.8718 43.1L56.0419 43.17H56.2118H56.3619H56.5819H56.7619H56.9419C57.0616 43.1441 57.1788 43.1073 57.2919 43.06C57.4566 42.9971 57.6089 42.9057 57.7419 42.79L57.8918 42.66L67.7619 32.79C68.1105 32.4412 68.3064 31.9682 68.3064 31.475C68.3064 30.9818 68.1105 30.5088 67.7619 30.16V30.16ZM57.8918 20.28C57.5363 19.9482 57.0681 19.7637 56.5819 19.7637C56.0956 19.7637 55.6274 19.9482 55.2719 20.28L53.9519 21.6L45.3619 30.16C45.0162 30.5084 44.8223 30.9792 44.8223 31.47C44.8223 31.9607 45.0162 32.4316 45.3619 32.78L46.6719 34.09L59.2019 21.6L57.8918 20.28Z" fill="#FF8091"/>
<path d="M59.6819 22.0799L57.0619 24.6999L63.3619 30.9999L65.9819 28.3799L59.6819 22.0799ZM59.6819 22.0799L57.0619 24.6999L63.3619 30.9999L65.9819 28.3799L59.6819 22.0799ZM67.7619 10.4099C67.4135 10.0643 66.9426 9.87036 66.4519 9.87036C65.9611 9.87036 65.4902 10.0643 65.1419 10.4099L63.8319 11.7199L56.8319 18.7199L55.2519 20.2999C55.078 20.472 54.94 20.6768 54.8458 20.9025C54.7516 21.1282 54.7031 21.3704 54.7031 21.6149C54.7031 21.8595 54.7516 22.1017 54.8458 22.3274C54.94 22.5531 55.078 22.7579 55.2519 22.9299L56.5619 24.2399L69.0519 11.7399L67.7619 10.4099ZM77.6319 20.2799L76.3619 18.9999L69.5519 12.1999L66.9319 14.8299L73.7019 21.5999L63.8319 31.4699L65.1419 32.7799C65.3137 32.9521 65.5179 33.0884 65.7428 33.1811C65.9677 33.2738 66.2087 33.321 66.4519 33.3199C66.9425 33.3188 67.4129 33.1248 67.7619 32.7799L77.6319 22.9099C77.8057 22.7379 77.9437 22.5331 78.0379 22.3074C78.1321 22.0817 78.1806 21.8395 78.1806 21.5949C78.1806 21.3504 78.1321 21.1082 78.0379 20.8825C77.9437 20.6568 77.8057 20.452 77.6319 20.2799V20.2799ZM59.6819 22.0799L57.0619 24.6999L63.3619 30.9999L65.9819 28.3799L59.6819 22.0799ZM59.6819 22.0799L57.0619 24.6999L63.3619 30.9999L65.9819 28.3799L59.6819 22.0799Z" fill="#FF8091"/>
<path d="M48.0118 30.16L46.7018 28.85L44.0818 31.47L43.7418 31.8L40.4518 35.09C39.4916 36.0499 38.1895 36.5892 36.8318 36.5892C35.474 36.5892 34.1719 36.0499 33.2118 35.09C32.2518 34.1298 31.7125 32.8277 31.7125 31.47C31.7125 30.1123 32.2518 28.8102 33.2118 27.85L36.8318 24.22L43.6118 31L46.2318 28.38L39.4518 21.6L38.1418 20.28C37.7862 19.9482 37.3181 19.7637 36.8318 19.7637C36.3455 19.7637 35.8773 19.9482 35.5218 20.28L34.2118 21.6L30.5918 25.22C28.9342 26.8749 28.0019 29.1206 28 31.4629C27.9981 33.8053 28.9268 36.0524 30.5818 37.71C32.2367 39.3676 34.4824 40.2999 36.8247 40.3018C39.167 40.3036 41.4142 39.375 43.0718 37.72L48.0118 32.78C48.3612 32.4333 48.559 31.9622 48.5618 31.47C48.5626 31.2259 48.5144 30.9842 48.4199 30.7591C48.3254 30.5341 48.1866 30.3303 48.0118 30.16V30.16Z" fill="#FF8091"/>
<path d="M48.0119 10.41L46.7019 9.09995L44.0819 11.72L36.8319 19L33.2119 15.38C32.7339 14.9046 32.3542 14.3397 32.0945 13.7176C31.8348 13.0954 31.7001 12.4282 31.6983 11.7541C31.6964 11.0799 31.8274 10.412 32.0836 9.78848C32.3399 9.16493 32.7165 8.59796 33.1919 8.11995C33.6673 7.64194 34.2321 7.26224 34.8543 7.00254C35.4764 6.74284 36.1436 6.60821 36.8177 6.60636C37.4919 6.6045 38.1598 6.73544 38.7833 6.99172C39.4069 7.24799 39.9739 7.62457 40.4519 8.09995L43.6019 11.25L46.2219 8.61995L43.0719 5.46995C41.8364 4.23597 40.2628 3.39599 38.55 3.05622C36.8372 2.71646 35.0621 2.89215 33.4492 3.56109C31.8362 4.23004 30.4578 5.36219 29.4882 6.81443C28.5186 8.26667 28.0014 9.97378 28.0019 11.72C27.9948 12.8863 28.2202 14.0423 28.6649 15.1206C29.1096 16.1988 29.7647 17.1777 30.5919 18L34.2119 21.63L35.5219 22.94C35.8703 23.2856 36.3411 23.4795 36.8319 23.4795C37.3226 23.4795 37.7935 23.2856 38.1419 22.94L48.0119 13C48.1867 12.8296 48.3255 12.6259 48.42 12.4008C48.5145 12.1758 48.5627 11.934 48.5619 11.69C48.5513 11.2081 48.3541 10.7493 48.0119 10.41V10.41Z" fill="#FF8091"/>
<path d="M82.5718 5.47C80.9115 3.81756 78.6643 2.88989 76.3218 2.88989C73.9793 2.88989 71.7321 3.81756 70.0718 5.47L66.7818 8.77L65.1418 10.41C64.7923 10.7567 64.5946 11.2278 64.5918 11.72C64.5949 11.959 64.6451 12.1951 64.7395 12.4147C64.8338 12.6343 64.9705 12.8332 65.1418 13L66.4518 14.31L72.6918 8.1C73.4105 7.38697 74.3238 6.90206 75.317 6.70611C76.3103 6.51016 77.3393 6.61189 78.2749 6.99854C79.2106 7.3852 80.0112 8.03955 80.5764 8.8795C81.1416 9.71946 81.4461 10.7076 81.4518 11.72C81.4545 12.3951 81.3223 13.064 81.063 13.6873C80.8037 14.3107 80.4225 14.8759 79.9418 15.35L76.3618 19L69.5518 12.2L66.9318 14.83L75.0118 22.91C75.3602 23.2556 75.831 23.4496 76.3218 23.4496C76.8125 23.4496 77.2834 23.2556 77.6318 22.91L82.5718 18C84.2291 16.3422 85.1601 14.0941 85.1601 11.75C85.1601 9.40589 84.2291 7.15775 82.5718 5.5V5.47Z" fill="#FF8091"/>
<path d="M82.5718 25.22L78.9418 21.6L77.6318 20.28C77.294 19.9429 76.8389 19.7494 76.3618 19.74C75.8716 19.7433 75.4019 19.9369 75.0518 20.28L73.7018 21.6L65.1418 30.16C64.967 30.3303 64.8282 30.5341 64.7337 30.7591C64.6392 30.9842 64.591 31.2259 64.5918 31.47C64.5946 31.9622 64.7923 32.4333 65.1418 32.78L66.4518 34.09L76.3618 24.22L79.9818 27.85C80.4613 28.3229 80.8418 28.8865 81.101 29.5081C81.3603 30.1296 81.4931 30.7965 81.4918 31.47C81.4952 32.1559 81.3627 32.8356 81.1018 33.47C80.8442 34.0932 80.4633 34.6578 79.9818 35.13C79.0199 36.0906 77.7162 36.6301 76.3568 36.6301C74.9975 36.6301 73.6937 36.0906 72.7318 35.13L69.5518 32L66.9218 34.62L70.0718 37.77C70.8876 38.6128 71.863 39.2847 72.9412 39.7468C74.0193 40.2088 75.1786 40.4517 76.3515 40.4612C77.5245 40.4707 78.6875 40.2467 79.773 39.8022C80.8585 39.3578 81.8447 38.7017 82.6741 37.8723C83.5035 37.0429 84.1596 36.0567 84.6041 34.9712C85.0485 33.8857 85.2725 32.7226 85.263 31.5497C85.2535 30.3768 85.0106 29.2175 84.5486 28.1394C84.0866 27.0612 83.4146 26.0858 82.5718 25.27V25.22Z" fill="#FF8091"/>
<path d="M63.8319 31.47L63.4319 31.87L63.8219 31.47H63.8319Z" fill="#FF8091"/>
<path d="M19.71 62.86C19.2548 62.2154 18.6325 61.7072 17.91 61.39C16.849 60.9394 15.7426 60.6042 14.61 60.39C13.8299 60.1993 13.0618 59.9622 12.31 59.68C11.8711 59.5318 11.4735 59.2816 11.15 58.95C10.9063 58.6737 10.7713 58.3183 10.77 57.95C10.7588 57.6693 10.8211 57.3905 10.9509 57.1414C11.0808 56.8923 11.2735 56.6815 11.51 56.53C12.1158 56.1789 12.8108 56.0121 13.51 56.05C14.1949 56.0227 14.8728 56.1965 15.46 56.55C15.6947 56.6754 15.8984 56.852 16.0558 57.0666C16.2133 57.2812 16.3207 57.5284 16.37 57.79C16.4268 57.9253 16.5253 58.039 16.6512 58.1146C16.7771 58.1901 16.9238 58.2235 17.07 58.21H19.27C19.3358 58.2121 19.4012 58.1997 19.4616 58.1738C19.5221 58.1479 19.5762 58.109 19.62 58.06C19.7073 57.968 19.7572 57.8468 19.76 57.72C19.7045 56.9906 19.433 56.2943 18.98 55.72C18.4211 54.9847 17.6848 54.4032 16.84 54.03C16.2973 53.7728 15.722 53.5911 15.13 53.49C14.5915 53.3992 14.0461 53.3557 13.5 53.36C12.9473 53.3553 12.3952 53.3988 11.85 53.49C11.3097 53.5831 10.7826 53.7409 10.28 53.96C9.44861 54.2748 8.71902 54.8107 8.17 55.51C7.67156 56.2138 7.40899 57.0575 7.42 57.92C7.3828 58.4971 7.4789 59.0751 7.70086 59.6092C7.92282 60.1433 8.26468 60.6192 8.7 61C9.88993 61.8637 11.2557 62.4544 12.7 62.73C13.81 63.02 14.7 63.27 15.22 63.48C15.6911 63.6337 16.124 63.8859 16.49 64.22C16.623 64.3503 16.7287 64.5059 16.8008 64.6776C16.8729 64.8493 16.91 65.0337 16.91 65.22C16.9169 65.5211 16.8438 65.8187 16.6979 66.0822C16.5521 66.3458 16.3388 66.5659 16.08 66.72C15.3337 67.1363 14.4827 67.3273 13.63 67.27C12.8385 67.3105 12.0517 67.1268 11.36 66.74C10.8574 66.4395 10.4808 65.9669 10.3 65.41C10.2213 65.2823 10.1196 65.1704 10 65.08C9.87926 65.0196 9.74477 64.992 9.61 65H7.49C7.42442 64.9992 7.35941 65.0121 7.29913 65.0379C7.23885 65.0638 7.18465 65.1019 7.14 65.15C7.05097 65.2408 7.00076 65.3627 7 65.49C7.03605 66.3002 7.32255 67.0794 7.82 67.72C8.41192 68.4625 9.19246 69.0323 10.08 69.37C10.6998 69.6314 11.3526 69.8063 12.02 69.89C12.5635 69.9638 13.1115 70.0005 13.66 70C14.1985 69.9985 14.7363 69.9618 15.27 69.89C15.8986 69.8009 16.5157 69.6433 17.11 69.42C18.0289 69.0898 18.834 68.5034 19.43 67.73C19.9914 66.9732 20.2867 66.052 20.27 65.11C20.3096 64.3211 20.1147 63.5382 19.71 62.86Z" fill="#4D4D4D"/>
<path d="M36.1501 53.6401C36.0972 53.5856 36.0333 53.5432 35.9625 53.5155C35.8918 53.4879 35.8159 53.4759 35.7401 53.4801H33.5801C33.506 53.4779 33.4323 53.491 33.3635 53.5185C33.2947 53.546 33.2322 53.5874 33.1801 53.6401C33.1264 53.6956 33.0845 53.7615 33.057 53.8337C33.0295 53.9059 33.0169 53.9829 33.0201 54.0601V60.0601H26.2701V54.0601C26.2745 53.9828 26.2624 53.9055 26.2348 53.8331C26.2072 53.7608 26.1647 53.6951 26.1099 53.6403C26.0552 53.5856 25.9895 53.543 25.9171 53.5154C25.8448 53.4878 25.7674 53.4758 25.6901 53.4801H23.4701C23.3275 53.4822 23.1913 53.5395 23.0901 53.6401C22.988 53.7556 22.9343 53.906 22.9401 54.0601V69.2101C22.9392 69.2849 22.9538 69.3591 22.9831 69.428C23.0124 69.4968 23.0556 69.5589 23.1101 69.6101C23.157 69.658 23.2131 69.6959 23.2749 69.7217C23.3367 69.7474 23.4031 69.7605 23.4701 69.7601H25.6401C25.7954 69.7622 25.9456 69.705 26.0601 69.6001C26.1128 69.548 26.1542 69.4856 26.1817 69.4168C26.2093 69.3479 26.2223 69.2742 26.2201 69.2001V63.0001H33.0201V69.2101C33.0179 69.2842 33.031 69.3579 33.0585 69.4268C33.086 69.4956 33.1274 69.558 33.1801 69.6101C33.288 69.7128 33.4312 69.7701 33.5801 69.7701H35.7401C35.8148 69.7745 35.8896 69.763 35.9595 69.7364C36.0294 69.7098 36.0929 69.6687 36.1458 69.6158C36.1987 69.5629 36.2398 69.4994 36.2664 69.4295C36.293 69.3596 36.3045 69.2848 36.3001 69.2101V54.0601C36.3059 53.906 36.2522 53.7556 36.1501 53.6401V53.6401Z" fill="#4D4D4D"/>
<path d="M53.8901 69.0699L48.2701 54.0599C48.2118 53.8853 48.0983 53.7344 47.9469 53.6298C47.7954 53.5252 47.614 53.4726 47.4301 53.4799H44.9101C44.7262 53.4726 44.5448 53.5252 44.3933 53.6298C44.2419 53.7344 44.1284 53.8853 44.0701 54.0599L39.9701 65.0599L38.4901 69.0599V69.2699C38.4887 69.3346 38.5005 69.399 38.5246 69.459C38.5488 69.5191 38.5848 69.5737 38.6306 69.6194C38.6764 69.6652 38.7309 69.7013 38.791 69.7254C38.851 69.7495 38.9154 69.7613 38.9801 69.7599H41.0501C41.1943 69.7686 41.3374 69.7305 41.4582 69.6512C41.5789 69.5719 41.6708 69.4557 41.7201 69.3199L42.8001 66.4999H49.6801L50.7501 69.3199C50.8026 69.4556 50.8966 69.5712 51.0187 69.6502C51.1409 69.7292 51.2848 69.7676 51.4301 69.7599H53.5001C53.6269 69.7572 53.7481 69.7072 53.8401 69.6199C53.8892 69.5761 53.928 69.522 53.9539 69.4616C53.9799 69.4011 53.9922 69.3357 53.9901 69.2699L53.8901 69.0699ZM43.5601 63.8099L46.1901 56.6399L48.8201 63.8099H43.5601Z" fill="#4D4D4D"/>
<path d="M69.04 69L65.67 63.09C66.5842 62.7873 67.3812 62.207 67.95 61.43C68.5127 60.585 68.796 59.5846 68.76 58.57C68.801 57.8605 68.6759 57.1512 68.3946 56.4985C68.1134 55.8457 67.6838 55.2676 67.14 54.81C65.8499 53.8529 64.2634 53.3819 62.66 53.48H56.66H56.49C56.398 53.502 56.3145 53.5507 56.25 53.62C56.1479 53.7355 56.0942 53.886 56.1 54.04V69.21C56.0978 69.2841 56.1109 69.3578 56.1384 69.4267C56.1659 69.4955 56.2073 69.5579 56.26 69.61C56.3245 69.6721 56.4036 69.7168 56.49 69.74C56.5462 69.7504 56.6038 69.7504 56.66 69.74H58.8C58.9553 69.7421 59.1055 69.6849 59.22 69.58C59.2727 69.5279 59.3141 69.4655 59.3417 69.3967C59.3692 69.3279 59.3822 69.2541 59.38 69.18V63.62H62.57L65.57 69.14C65.6605 69.3143 65.7865 69.4676 65.94 69.59C66.105 69.7186 66.3112 69.7825 66.52 69.77H68.66C68.7872 69.7693 68.9092 69.7191 69 69.63C69.0491 69.5862 69.088 69.5321 69.1139 69.4717C69.1398 69.4112 69.1521 69.3458 69.15 69.28C69.1406 69.1782 69.1025 69.0811 69.04 69ZM64.69 60.34C64.0904 60.7902 63.3476 61.007 62.6 60.95H59.36V56.09H62.6C63.3511 56.0301 64.0972 56.255 64.69 56.72C64.9315 56.9567 65.119 57.2428 65.2399 57.5586C65.3607 57.8744 65.4119 58.2126 65.39 58.55C65.413 58.8846 65.3622 59.2201 65.2413 59.5328C65.1203 59.8456 64.9321 60.128 64.69 60.36V60.34Z" fill="#4D4D4D"/>
<path d="M74.9599 53.6301C74.907 53.5792 74.8442 53.5397 74.7754 53.5139C74.7066 53.4881 74.6333 53.4766 74.5599 53.4801H72.3199C72.2482 53.478 72.1768 53.4901 72.1098 53.5159C72.0429 53.5416 71.9817 53.5805 71.9299 53.6301C71.8736 53.6821 71.8293 53.7457 71.7999 53.8165C71.7706 53.8872 71.7569 53.9635 71.7599 54.0401V69.2101C71.759 69.2849 71.7736 69.3591 71.8029 69.428C71.8322 69.4968 71.8754 69.5589 71.9299 69.6101C71.9812 69.6611 72.0421 69.7015 72.109 69.729C72.1759 69.7564 72.2476 69.7704 72.3199 69.7701H74.5599C74.634 69.7723 74.7078 69.7593 74.7766 69.7317C74.8454 69.7042 74.9078 69.6628 74.9599 69.6101C75.0599 69.5013 75.1137 69.3578 75.1099 69.2101V54.0001C75.1071 53.8625 75.0537 53.7308 74.9599 53.6301Z" fill="#4D4D4D"/>
<path d="M90.33 53.64C90.2744 53.5863 90.2086 53.5444 90.1364 53.5169C90.0642 53.4894 89.9872 53.4768 89.91 53.48H78.02C77.9456 53.4759 77.8713 53.4881 77.8022 53.5157C77.7331 53.5434 77.6709 53.5858 77.62 53.64C77.5662 53.6955 77.5243 53.7614 77.4968 53.8336C77.4693 53.9058 77.4568 53.9828 77.46 54.06V55.81C77.4581 55.8879 77.4722 55.9654 77.5014 56.0377C77.5307 56.1099 77.5744 56.1754 77.63 56.23C77.6812 56.281 77.7421 56.3214 77.809 56.3489C77.8759 56.3763 77.9476 56.3903 78.02 56.39H82.33V69.21C82.3277 69.2841 82.3408 69.3579 82.3683 69.4267C82.3959 69.4955 82.4373 69.5579 82.49 69.61C82.5978 69.7127 82.741 69.77 82.89 69.77H85.07C85.1446 69.7744 85.2194 69.7629 85.2893 69.7363C85.3592 69.7097 85.4227 69.6686 85.4756 69.6157C85.5285 69.5628 85.5696 69.4993 85.5962 69.4294C85.6228 69.3595 85.6343 69.2847 85.63 69.21V56.39H89.91C90.0652 56.3921 90.2154 56.3349 90.33 56.23C90.3855 56.1754 90.4292 56.1099 90.4585 56.0377C90.4877 55.9654 90.5018 55.8879 90.5 55.81V54.06C90.5018 53.9821 90.4877 53.9047 90.4585 53.8324C90.4292 53.7602 90.3855 53.6947 90.33 53.64V53.64Z" fill="#4D4D4D"/>
<path d="M105.83 53.62C105.784 53.5743 105.729 53.5383 105.669 53.5142C105.609 53.4902 105.545 53.4785 105.48 53.48H103.39C103.235 53.4737 103.082 53.5234 102.96 53.62C102.851 53.7006 102.759 53.8027 102.69 53.92L98.76 60.67L94.85 53.92C94.7779 53.7889 94.6724 53.6792 94.5442 53.6019C94.416 53.5247 94.2697 53.4826 94.12 53.48H92.03C91.9032 53.4828 91.782 53.5327 91.69 53.62C91.641 53.6639 91.6021 53.7179 91.5762 53.7784C91.5503 53.8388 91.5379 53.9043 91.54 53.97C91.5531 54.0559 91.5766 54.1398 91.61 54.22L97.13 64V69.24C97.1278 69.3141 97.1409 69.3879 97.1684 69.4567C97.1959 69.5255 97.2373 69.5879 97.29 69.64C97.3979 69.7427 97.5411 69.8 97.69 69.8H99.83C99.9841 69.8059 100.135 69.7521 100.25 69.65C100.303 69.5957 100.344 69.5315 100.371 69.4611C100.399 69.3907 100.412 69.3156 100.41 69.24V64L105.9 54.25C105.949 54.1759 105.973 54.0886 105.97 54C105.976 53.9303 105.966 53.8602 105.942 53.7945C105.918 53.7289 105.88 53.6693 105.83 53.62V53.62Z" fill="#4D4D4D"/>
<path d="M19.71 62.86C19.2548 62.2154 18.6325 61.7072 17.91 61.39C16.849 60.9394 15.7426 60.6042 14.61 60.39C13.8299 60.1993 13.0618 59.9622 12.31 59.68C11.8711 59.5318 11.4735 59.2816 11.15 58.95C10.9063 58.6737 10.7713 58.3183 10.77 57.95C10.7588 57.6693 10.8211 57.3905 10.9509 57.1414C11.0808 56.8923 11.2735 56.6815 11.51 56.53C12.1158 56.1789 12.8108 56.0121 13.51 56.05C14.1949 56.0227 14.8728 56.1965 15.46 56.55C15.6947 56.6754 15.8984 56.852 16.0558 57.0666C16.2133 57.2812 16.3207 57.5284 16.37 57.79C16.4268 57.9253 16.5253 58.039 16.6512 58.1146C16.7771 58.1901 16.9238 58.2235 17.07 58.21H19.27C19.3358 58.2121 19.4012 58.1997 19.4616 58.1738C19.5221 58.1479 19.5762 58.109 19.62 58.06C19.7073 57.968 19.7572 57.8468 19.76 57.72C19.7045 56.9906 19.433 56.2943 18.98 55.72C18.4211 54.9847 17.6848 54.4032 16.84 54.03C16.2973 53.7728 15.722 53.5911 15.13 53.49C14.5915 53.3992 14.0461 53.3557 13.5 53.36C12.9473 53.3553 12.3952 53.3988 11.85 53.49C11.3097 53.5831 10.7826 53.7409 10.28 53.96C9.44861 54.2748 8.71902 54.8107 8.17 55.51C7.67156 56.2138 7.40899 57.0575 7.42 57.92C7.3828 58.4971 7.4789 59.0751 7.70086 59.6092C7.92282 60.1433 8.26468 60.6192 8.7 61C9.88993 61.8637 11.2557 62.4544 12.7 62.73C13.81 63.02 14.7 63.27 15.22 63.48C15.6911 63.6337 16.124 63.8859 16.49 64.22C16.623 64.3503 16.7287 64.5059 16.8008 64.6776C16.8729 64.8493 16.91 65.0337 16.91 65.22C16.9169 65.5211 16.8438 65.8187 16.6979 66.0822C16.5521 66.3458 16.3388 66.5659 16.08 66.72C15.3337 67.1363 14.4827 67.3273 13.63 67.27C12.8385 67.3105 12.0517 67.1268 11.36 66.74C10.8574 66.4395 10.4808 65.9669 10.3 65.41C10.2213 65.2823 10.1196 65.1704 10 65.08C9.87926 65.0196 9.74477 64.992 9.61 65H7.49C7.42442 64.9992 7.35941 65.0121 7.29913 65.0379C7.23885 65.0638 7.18465 65.1019 7.14 65.15C7.05097 65.2408 7.00076 65.3627 7 65.49C7.03605 66.3002 7.32255 67.0794 7.82 67.72C8.41192 68.4625 9.19246 69.0323 10.08 69.37C10.6998 69.6314 11.3526 69.8063 12.02 69.89C12.5635 69.9638 13.1115 70.0005 13.66 70C14.1985 69.9985 14.7363 69.9618 15.27 69.89C15.8986 69.8009 16.5157 69.6433 17.11 69.42C18.0289 69.0898 18.834 68.5034 19.43 67.73C19.9914 66.9732 20.2867 66.052 20.27 65.11C20.3096 64.3211 20.1147 63.5382 19.71 62.86Z" fill="#4D4D4D"/>
<path d="M36.1501 53.6401C36.0972 53.5856 36.0333 53.5432 35.9625 53.5155C35.8918 53.4879 35.8159 53.4759 35.7401 53.4801H33.5801C33.506 53.4779 33.4323 53.491 33.3635 53.5185C33.2947 53.546 33.2322 53.5874 33.1801 53.6401C33.1264 53.6956 33.0845 53.7615 33.057 53.8337C33.0295 53.9059 33.0169 53.9829 33.0201 54.0601V60.0601H26.2701V54.0601C26.2745 53.9828 26.2624 53.9055 26.2348 53.8331C26.2072 53.7608 26.1647 53.6951 26.1099 53.6403C26.0552 53.5856 25.9895 53.543 25.9171 53.5154C25.8448 53.4878 25.7674 53.4758 25.6901 53.4801H23.4701C23.3275 53.4822 23.1913 53.5395 23.0901 53.6401C22.988 53.7556 22.9343 53.906 22.9401 54.0601V69.2101C22.9392 69.2849 22.9538 69.3591 22.9831 69.428C23.0124 69.4968 23.0556 69.5589 23.1101 69.6101C23.157 69.658 23.2131 69.6959 23.2749 69.7217C23.3367 69.7474 23.4031 69.7605 23.4701 69.7601H25.6401C25.7954 69.7622 25.9456 69.705 26.0601 69.6001C26.1128 69.548 26.1542 69.4856 26.1817 69.4168C26.2093 69.3479 26.2223 69.2742 26.2201 69.2001V63.0001H33.0201V69.2101C33.0179 69.2842 33.031 69.3579 33.0585 69.4268C33.086 69.4956 33.1274 69.558 33.1801 69.6101C33.288 69.7128 33.4312 69.7701 33.5801 69.7701H35.7401C35.8148 69.7745 35.8896 69.763 35.9595 69.7364C36.0294 69.7098 36.0929 69.6687 36.1458 69.6158C36.1987 69.5629 36.2398 69.4994 36.2664 69.4295C36.293 69.3596 36.3045 69.2848 36.3001 69.2101V54.0601C36.3059 53.906 36.2522 53.7556 36.1501 53.6401V53.6401Z" fill="#4D4D4D"/>
<path d="M53.8901 69.0699L48.2701 54.0599C48.2118 53.8853 48.0983 53.7344 47.9469 53.6298C47.7954 53.5252 47.614 53.4726 47.4301 53.4799H44.9101C44.7262 53.4726 44.5448 53.5252 44.3933 53.6298C44.2419 53.7344 44.1284 53.8853 44.0701 54.0599L39.9701 65.0599L38.4901 69.0599V69.2699C38.4887 69.3346 38.5005 69.399 38.5246 69.459C38.5488 69.5191 38.5848 69.5737 38.6306 69.6194C38.6764 69.6652 38.7309 69.7013 38.791 69.7254C38.851 69.7495 38.9154 69.7613 38.9801 69.7599H41.0501C41.1943 69.7686 41.3374 69.7305 41.4582 69.6512C41.5789 69.5719 41.6708 69.4557 41.7201 69.3199L42.8001 66.4999H49.6801L50.7501 69.3199C50.8026 69.4556 50.8966 69.5712 51.0187 69.6502C51.1409 69.7292 51.2848 69.7676 51.4301 69.7599H53.5001C53.6269 69.7572 53.7481 69.7072 53.8401 69.6199C53.8892 69.5761 53.928 69.522 53.9539 69.4616C53.9799 69.4011 53.9922 69.3357 53.9901 69.2699L53.8901 69.0699ZM43.5601 63.8099L46.1901 56.6399L48.8201 63.8099H43.5601Z" fill="#4D4D4D"/>
<path d="M69.04 69L65.67 63.09C66.5842 62.7873 67.3812 62.207 67.95 61.43C68.5127 60.585 68.796 59.5846 68.76 58.57C68.801 57.8605 68.6759 57.1512 68.3946 56.4985C68.1134 55.8457 67.6838 55.2676 67.14 54.81C65.8499 53.8529 64.2634 53.3819 62.66 53.48H56.66H56.49C56.398 53.502 56.3145 53.5507 56.25 53.62C56.1479 53.7355 56.0942 53.886 56.1 54.04V69.21C56.0978 69.2841 56.1109 69.3578 56.1384 69.4267C56.1659 69.4955 56.2073 69.5579 56.26 69.61C56.3245 69.6721 56.4036 69.7168 56.49 69.74C56.5462 69.7504 56.6038 69.7504 56.66 69.74H58.8C58.9553 69.7421 59.1055 69.6849 59.22 69.58C59.2727 69.5279 59.3141 69.4655 59.3417 69.3967C59.3692 69.3279 59.3822 69.2541 59.38 69.18V63.62H62.57L65.57 69.14C65.6605 69.3143 65.7865 69.4676 65.94 69.59C66.105 69.7186 66.3112 69.7825 66.52 69.77H68.66C68.7872 69.7693 68.9092 69.7191 69 69.63C69.0491 69.5862 69.088 69.5321 69.1139 69.4717C69.1398 69.4112 69.1521 69.3458 69.15 69.28C69.1406 69.1782 69.1025 69.0811 69.04 69ZM64.69 60.34C64.0904 60.7902 63.3476 61.007 62.6 60.95H59.36V56.09H62.6C63.3511 56.0301 64.0972 56.255 64.69 56.72C64.9315 56.9567 65.119 57.2428 65.2399 57.5586C65.3607 57.8744 65.4119 58.2126 65.39 58.55C65.413 58.8846 65.3622 59.2201 65.2413 59.5328C65.1203 59.8456 64.9321 60.128 64.69 60.36V60.34Z" fill="#4D4D4D"/>
<path d="M74.9599 53.6301C74.907 53.5792 74.8442 53.5397 74.7754 53.5139C74.7066 53.4881 74.6333 53.4766 74.5599 53.4801H72.3199C72.2482 53.478 72.1768 53.4901 72.1098 53.5159C72.0429 53.5416 71.9817 53.5805 71.9299 53.6301C71.8736 53.6821 71.8293 53.7457 71.7999 53.8165C71.7706 53.8872 71.7569 53.9635 71.7599 54.0401V69.2101C71.759 69.2849 71.7736 69.3591 71.8029 69.428C71.8322 69.4968 71.8754 69.5589 71.9299 69.6101C71.9812 69.6611 72.0421 69.7015 72.109 69.729C72.1759 69.7564 72.2476 69.7704 72.3199 69.7701H74.5599C74.634 69.7723 74.7078 69.7593 74.7766 69.7317C74.8454 69.7042 74.9078 69.6628 74.9599 69.6101C75.0599 69.5013 75.1137 69.3578 75.1099 69.2101V54.0001C75.1071 53.8625 75.0537 53.7308 74.9599 53.6301Z" fill="#4D4D4D"/>
<path d="M90.33 53.64C90.2744 53.5863 90.2086 53.5444 90.1364 53.5169C90.0642 53.4894 89.9872 53.4768 89.91 53.48H78.02C77.9456 53.4759 77.8713 53.4881 77.8022 53.5157C77.7331 53.5434 77.6709 53.5858 77.62 53.64C77.5662 53.6955 77.5243 53.7614 77.4968 53.8336C77.4693 53.9058 77.4568 53.9828 77.46 54.06V55.81C77.4581 55.8879 77.4722 55.9654 77.5014 56.0377C77.5307 56.1099 77.5744 56.1754 77.63 56.23C77.6812 56.281 77.7421 56.3214 77.809 56.3489C77.8759 56.3763 77.9476 56.3903 78.02 56.39H82.33V69.21C82.3277 69.2841 82.3408 69.3579 82.3683 69.4267C82.3959 69.4955 82.4373 69.5579 82.49 69.61C82.5978 69.7127 82.741 69.77 82.89 69.77H85.07C85.1446 69.7744 85.2194 69.7629 85.2893 69.7363C85.3592 69.7097 85.4227 69.6686 85.4756 69.6157C85.5285 69.5628 85.5696 69.4993 85.5962 69.4294C85.6228 69.3595 85.6343 69.2847 85.63 69.21V56.39H89.91C90.0652 56.3921 90.2154 56.3349 90.33 56.23C90.3855 56.1754 90.4292 56.1099 90.4585 56.0377C90.4877 55.9654 90.5018 55.8879 90.5 55.81V54.06C90.5018 53.9821 90.4877 53.9047 90.4585 53.8324C90.4292 53.7602 90.3855 53.6947 90.33 53.64V53.64Z" fill="#4D4D4D"/>
<path d="M105.83 53.62C105.784 53.5743 105.729 53.5383 105.669 53.5142C105.609 53.4902 105.545 53.4785 105.48 53.48H103.39C103.235 53.4737 103.082 53.5234 102.96 53.62C102.851 53.7006 102.759 53.8027 102.69 53.92L98.76 60.67L94.85 53.92C94.7779 53.7889 94.6724 53.6792 94.5442 53.6019C94.416 53.5247 94.2697 53.4826 94.12 53.48H92.03C91.9032 53.4828 91.782 53.5327 91.69 53.62C91.641 53.6639 91.6021 53.7179 91.5762 53.7784C91.5503 53.8388 91.5379 53.9043 91.54 53.97C91.5531 54.0559 91.5766 54.1398 91.61 54.22L97.13 64V69.24C97.1278 69.3141 97.1409 69.3879 97.1684 69.4567C97.1959 69.5255 97.2373 69.5879 97.29 69.64C97.3979 69.7427 97.5411 69.8 97.69 69.8H99.83C99.9841 69.8059 100.135 69.7521 100.25 69.65C100.303 69.5957 100.344 69.5315 100.371 69.4611C100.399 69.3907 100.412 69.3156 100.41 69.24V64L105.9 54.25C105.949 54.1759 105.973 54.0886 105.97 54C105.976 53.9303 105.966 53.8602 105.942 53.7945C105.918 53.7289 105.88 53.6693 105.83 53.62V53.62Z" fill="#4D4D4D"/>
</svg>
