<svg width="554" height="548" viewBox="0 0 554 548" fill="none" xmlns="http://www.w3.org/2000/svg">
<path fill-rule="evenodd" clip-rule="evenodd" d="M274 0C275.011 0 276.011 0.00813275 277 0.0243347V24.0176C276.001 24.0059 275.001 24 274 24C135.929 24 24 135.929 24 274C24 328.959 41.7342 379.776 71.7922 421.04C65.0125 424.501 58.3991 428.619 52 433.5C10.5 377 0 328 0 274C0 122.674 122.674 0 274 0Z" fill="#FF8091"/>
<path d="M150.513 310.135C156.476 310.135 160.996 308.548 164.073 305.375C167.247 302.202 168.834 298.356 168.834 293.837C168.834 288.356 167.199 284.317 163.929 281.721C160.659 279.125 155.514 277.827 148.494 277.827H138.108V267.875L155.562 244.077L163.785 237.587L152.389 238.885H128.154V223.019H183.259V233.26L162.919 260.519L156.572 264.413V265.135L162.631 264.269C165.997 264.558 169.17 265.327 172.152 266.577C175.229 267.827 177.874 269.654 180.085 272.058C182.394 274.365 184.221 277.25 185.567 280.712C186.914 284.173 187.587 288.163 187.587 292.683C187.587 298.356 186.625 303.26 184.702 307.394C182.874 311.529 180.278 314.99 176.912 317.779C173.642 320.567 169.795 322.635 165.372 323.981C160.948 325.327 156.187 326 151.09 326C146.859 326 142.483 325.615 137.963 324.846C133.443 324.077 129.789 322.971 127 321.529L132.049 305.952C134.549 307.202 137.29 308.212 140.271 308.981C143.349 309.75 146.763 310.135 150.513 310.135Z" fill="black"/>
<path d="M232.361 310.135C238.323 310.135 242.843 308.548 245.921 305.375C249.094 302.202 250.681 298.356 250.681 293.837C250.681 288.356 249.046 284.317 245.776 281.721C242.507 279.125 237.361 277.827 230.341 277.827H219.955V267.875L237.41 244.077L245.632 237.587L234.236 238.885H210.001V223.019H265.106V233.26L244.767 260.519L238.419 264.413V265.135L244.478 264.269C247.844 264.558 251.018 265.327 253.999 266.577C257.076 267.827 259.721 269.654 261.933 272.058C264.241 274.365 266.068 277.25 267.414 280.712C268.761 284.173 269.434 288.163 269.434 292.683C269.434 298.356 268.472 303.26 266.549 307.394C264.722 311.529 262.125 314.99 258.759 317.779C255.489 320.567 251.643 322.635 247.219 323.981C242.795 325.327 238.035 326 232.938 326C228.706 326 224.331 325.615 219.811 324.846C215.291 324.077 211.636 322.971 208.847 321.529L213.896 305.952C216.397 307.202 219.137 308.212 222.119 308.981C225.196 309.75 228.61 310.135 232.361 310.135Z" fill="black"/>
<path d="M286.8 245.808C286.8 241.481 287.425 237.779 288.675 234.702C289.925 231.625 291.656 229.077 293.868 227.058C296.08 225.038 298.725 223.596 301.802 222.731C304.976 221.769 308.39 221.288 312.044 221.288C315.699 221.288 319.064 221.721 322.142 222.587C325.219 223.452 327.864 224.846 330.076 226.769C332.384 228.692 334.163 231.24 335.413 234.413C336.663 237.49 337.337 241.288 337.433 245.808C337.337 250.327 336.663 254.173 335.413 257.346C334.163 260.423 332.384 262.923 330.076 264.846C327.864 266.769 325.219 268.163 322.142 269.029C319.064 269.894 315.699 270.327 312.044 270.327C308.39 270.327 304.976 269.894 301.802 269.029C298.725 268.163 296.08 266.769 293.868 264.846C291.656 262.923 289.925 260.423 288.675 257.346C287.425 254.173 286.8 250.327 286.8 245.808ZM303.533 245.808C303.533 254.077 306.37 258.212 312.044 258.212C315.025 258.212 317.141 257.346 318.391 255.615C319.738 253.788 320.459 250.519 320.555 245.808C320.459 241.192 319.738 237.971 318.391 236.144C317.141 234.317 315.025 233.404 312.044 233.404C309.063 233.404 306.899 234.317 305.553 236.144C304.206 237.971 303.533 241.192 303.533 245.808ZM345.367 299.173C345.367 294.846 345.992 291.144 347.242 288.067C348.492 284.99 350.223 282.442 352.435 280.423C354.647 278.404 357.292 276.962 360.369 276.096C363.543 275.135 366.957 274.654 370.611 274.654C374.266 274.654 377.632 275.087 380.709 275.952C383.786 276.817 386.431 278.212 388.643 280.135C390.951 282.058 392.73 284.606 393.98 287.779C395.231 290.856 395.904 294.654 396 299.173C395.904 303.692 395.231 307.538 393.98 310.712C392.73 313.788 390.951 316.288 388.643 318.212C386.431 320.135 383.786 321.529 380.709 322.394C377.632 323.26 374.266 323.692 370.611 323.692C366.957 323.692 363.543 323.26 360.369 322.394C357.292 321.529 354.647 320.135 352.435 318.212C350.223 316.288 348.492 313.788 347.242 310.712C345.992 307.538 345.367 303.692 345.367 299.173ZM362.1 299.173C362.1 307.442 364.937 311.577 370.611 311.577C373.593 311.577 375.708 310.712 376.958 308.981C378.305 307.154 379.026 303.885 379.122 299.173C379.026 294.558 378.305 291.337 376.958 289.51C375.708 287.683 373.593 286.769 370.611 286.769C367.63 286.769 365.466 287.683 364.12 289.51C362.773 291.337 362.1 294.558 362.1 299.173ZM377.103 221L387.633 230.519L304.543 326L294.012 316.048L377.103 221Z" fill="black"/>
</svg>
