<svg width="554" height="548" viewBox="0 0 554 548" fill="none" xmlns="http://www.w3.org/2000/svg">
<path fill-rule="evenodd" clip-rule="evenodd" d="M274 0C275.002 0 276.001 0.00422585 276.998 0.0126512V24.0176C275.999 24.0059 274.999 24 273.998 24C135.926 24 23.9976 135.929 23.9976 274C23.9976 412.071 135.926 524 273.998 524C412.069 524 523.998 412.071 523.998 274C523.998 235.489 515.29 199.012 499.736 166.43L527.425 152.235C546.325 191.66 554.952 234.217 553 274C542.5 488 379.5 548 274 548C122.674 548 0 425.326 0 274C0 122.674 122.674 0 274 0Z" fill="#00B4BC"/>
<path d="M137 299.317C137 295.952 137.43 292.971 138.291 290.375C139.152 287.683 140.348 285.279 141.878 283.163C143.505 280.952 145.37 278.981 147.474 277.25C149.674 275.519 152.018 273.933 154.505 272.49C149.818 269.51 146.135 266.096 143.457 262.25C140.778 258.308 139.439 253.452 139.439 247.683C139.439 243.933 140.109 240.423 141.448 237.154C142.883 233.885 144.892 231.048 147.474 228.644C150.153 226.24 153.357 224.365 157.088 223.019C160.818 221.673 165.027 221 169.714 221C174.018 221 177.94 221.577 181.48 222.731C185.019 223.885 188.032 225.519 190.519 227.635C193.102 229.75 195.062 232.346 196.402 235.423C197.836 238.404 198.554 241.721 198.554 245.375C198.554 251.048 197.263 255.856 194.68 259.798C192.193 263.74 188.51 267.346 183.632 270.615C189.371 273.981 193.675 277.683 196.545 281.721C199.51 285.76 200.993 290.952 200.993 297.298C200.993 301.625 200.18 305.567 198.554 309.125C197.023 312.587 194.823 315.567 191.954 318.067C189.084 320.567 185.64 322.538 181.623 323.981C177.605 325.327 173.205 326 168.423 326C163.64 326 159.288 325.327 155.366 323.981C151.54 322.731 148.239 320.952 145.465 318.644C142.787 316.337 140.683 313.548 139.152 310.279C137.717 307.01 137 303.356 137 299.317ZM183.201 297.442C183.201 295.231 182.675 293.212 181.623 291.385C180.571 289.558 179.184 287.923 177.462 286.481C175.836 284.942 173.971 283.548 171.866 282.298C169.857 281.048 167.801 279.846 165.696 278.692C161.201 281.288 158.092 284.125 156.37 287.202C154.744 290.183 153.931 293.163 153.931 296.144C153.931 299.99 155.222 303.308 157.805 306.096C160.483 308.788 164.166 310.135 168.853 310.135C173.158 310.135 176.601 309.077 179.184 306.962C181.862 304.846 183.201 301.673 183.201 297.442ZM157.231 247.971C157.231 250.279 157.661 252.298 158.522 254.029C159.383 255.76 160.531 257.298 161.966 258.644C163.496 259.894 165.17 261.096 166.988 262.25C168.901 263.308 170.862 264.317 172.871 265.279C178.61 260.375 181.48 254.99 181.48 249.125C181.48 245.087 180.284 242.058 177.892 240.038C175.597 237.923 172.775 236.865 169.427 236.865C165.218 236.865 162.109 237.971 160.101 240.183C158.188 242.394 157.231 244.99 157.231 247.971Z" fill="#333333"/>
<path d="M244.236 310.135C250.167 310.135 254.663 308.548 257.724 305.375C260.88 302.202 262.458 298.356 262.458 293.837C262.458 288.356 260.832 284.317 257.58 281.721C254.328 279.125 249.21 277.827 242.227 277.827H231.897V267.875L249.258 244.077L257.437 237.587L246.101 238.885H221.996V223.019H276.807V233.26L256.576 260.519L250.262 264.413V265.135L256.289 264.269C259.637 264.558 262.793 265.327 265.759 266.577C268.819 267.827 271.45 269.654 273.65 272.058C275.946 274.365 277.763 277.25 279.102 280.712C280.442 284.173 281.111 288.163 281.111 292.683C281.111 298.356 280.155 303.26 278.241 307.394C276.424 311.529 273.841 314.99 270.493 317.779C267.241 320.567 263.415 322.635 259.015 323.981C254.615 325.327 249.88 326 244.81 326C240.601 326 236.249 325.615 231.753 324.846C227.257 324.077 223.623 322.971 220.849 321.529L225.87 305.952C228.357 307.202 231.084 308.212 234.049 308.981C237.11 309.75 240.506 310.135 244.236 310.135Z" fill="#333333"/>
<path d="M298.384 245.808C298.384 241.481 299.006 237.779 300.249 234.702C301.493 231.625 303.214 229.077 305.415 227.058C307.615 225.038 310.245 223.596 313.306 222.731C316.463 221.769 319.858 221.288 323.493 221.288C327.128 221.288 330.476 221.721 333.537 222.587C336.598 223.452 339.229 224.846 341.429 226.769C343.724 228.692 345.494 231.24 346.737 234.413C347.981 237.49 348.651 241.288 348.746 245.808C348.651 250.327 347.981 254.173 346.737 257.346C345.494 260.423 343.724 262.923 341.429 264.846C339.229 266.769 336.598 268.163 333.537 269.029C330.476 269.894 327.128 270.327 323.493 270.327C319.858 270.327 316.463 269.894 313.306 269.029C310.245 268.163 307.615 266.769 305.415 264.846C303.214 262.923 301.493 260.423 300.249 257.346C299.006 254.173 298.384 250.327 298.384 245.808ZM315.028 245.808C315.028 254.077 317.85 258.212 323.493 258.212C326.459 258.212 328.563 257.346 329.807 255.615C331.146 253.788 331.863 250.519 331.959 245.808C331.863 241.192 331.146 237.971 329.807 236.144C328.563 234.317 326.459 233.404 323.493 233.404C320.528 233.404 318.376 234.317 317.037 236.144C315.697 237.971 315.028 241.192 315.028 245.808ZM356.638 299.173C356.638 294.846 357.259 291.144 358.503 288.067C359.746 284.99 361.468 282.442 363.668 280.423C365.868 278.404 368.499 276.962 371.56 276.096C374.716 275.135 378.112 274.654 381.747 274.654C385.382 274.654 388.73 275.087 391.791 275.952C394.852 276.817 397.482 278.212 399.682 280.135C401.978 282.058 403.748 284.606 404.991 287.779C406.235 290.856 406.904 294.654 407 299.173C406.904 303.692 406.235 307.538 404.991 310.712C403.748 313.788 401.978 316.288 399.682 318.212C397.482 320.135 394.852 321.529 391.791 322.394C388.73 323.26 385.382 323.692 381.747 323.692C378.112 323.692 374.716 323.26 371.56 322.394C368.499 321.529 365.868 320.135 363.668 318.212C361.468 316.288 359.746 313.788 358.503 310.712C357.259 307.538 356.638 303.692 356.638 299.173ZM373.282 299.173C373.282 307.442 376.103 311.577 381.747 311.577C384.712 311.577 386.817 310.712 388.06 308.981C389.4 307.154 390.117 303.885 390.213 299.173C390.117 294.558 389.4 291.337 388.06 289.51C386.817 287.683 384.712 286.769 381.747 286.769C378.782 286.769 376.63 287.683 375.29 289.51C373.951 291.337 373.282 294.558 373.282 299.173ZM388.204 221L398.678 230.519L316.032 326L305.558 316.048L388.204 221Z" fill="#333333"/>
</svg>
