<svg width="703" height="890" viewBox="0 0 703 890" fill="none" xmlns="http://www.w3.org/2000/svg">
<g clip-path="url(#clip0)">
<path d="M623.07 143.07C675.42 207.82 709.28 278.85 701.32 342.12C693.55 405.2 644 460.7 591.62 537.65C539.27 614.79 483.78 713.58 403.86 738.18C323.76 762.78 219.24 713.39 136.92 636.25C54.6 559.11 -5.52002 454.59 0.399976 355.81C6.31998 257.03 78.1 164.16 160.4 99.42C242.7 34.68 335.6 -2.00002 417.55 8.99998C499.5 20 570.53 78.33 623.07 143.07Z" fill="#F2F2F2"/>
<path fill-rule="evenodd" clip-rule="evenodd" d="M334.81 433.46C388.81 433.46 417.81 469.54 423.2 506.18C428.68 543.66 422.43 574.69 423.99 620C425.05 650.51 438.48 670.89 447.09 698.09C455.7 725.29 225.91 732.15 227.28 706.71C228.65 681.27 245.09 655.21 245.68 623.52C246.28 591.21 241.68 571.82 242.31 519.26C242.78 477.77 280.79 433.46 334.81 433.46Z" fill="#333333"/>
<path fill-rule="evenodd" clip-rule="evenodd" d="M113.09 888.29C111.02 862.75 122.41 771.67 157.62 703.66C289.13 630.83 454.13 665.52 519.37 703.66C541.46 726.1 557.43 875.18 552.6 885.88" fill="#FFCB77"/>
<path d="M189 885.88C191.07 869.31 194.35 842.61 199.7 817.88" stroke="#FE6D73" stroke-width="5.73" stroke-linecap="round" stroke-linejoin="round"/>
<path d="M480.67 885.88C478.6 869.31 475.32 842.61 469.97 817.88" stroke="#FE6D73" stroke-width="5.73" stroke-linecap="round" stroke-linejoin="round"/>
<path fill-rule="evenodd" clip-rule="evenodd" d="M251.34 551.72C251.338 548.827 252.194 545.999 253.799 543.592C255.404 541.186 257.686 539.309 260.357 538.199C263.029 537.09 265.969 536.797 268.807 537.358C271.645 537.919 274.253 539.308 276.301 541.351C278.349 543.394 279.746 545.998 280.314 548.834C280.883 551.67 280.598 554.611 279.496 557.286C278.393 559.96 276.523 562.248 274.121 563.859C271.719 565.471 268.893 566.334 266 566.34C264.077 566.344 262.172 565.969 260.394 565.236C258.617 564.503 257.001 563.427 255.639 562.069C254.278 560.711 253.197 559.098 252.459 557.323C251.722 555.547 251.341 553.643 251.34 551.72Z" fill="#D18C65"/>
<path fill-rule="evenodd" clip-rule="evenodd" d="M385.5 551.72C385.498 548.826 386.354 545.996 387.961 543.589C389.567 541.182 391.851 539.305 394.524 538.197C397.197 537.088 400.139 536.796 402.978 537.36C405.817 537.923 408.424 539.316 410.471 541.361C412.518 543.407 413.913 546.014 414.478 548.852C415.043 551.69 414.754 554.632 413.647 557.306C412.54 559.98 410.665 562.266 408.259 563.874C405.853 565.482 403.024 566.34 400.13 566.34C396.252 566.34 392.532 564.8 389.789 562.059C387.045 559.317 385.503 555.598 385.5 551.72Z" fill="#D18C65"/>
<path fill-rule="evenodd" clip-rule="evenodd" d="M393.07 299.87C378.31 288.36 374.67 301.22 372.36 308.87C370.05 316.52 370.22 330.01 381.79 329.72C391.93 338.81 401.37 327.04 404.27 321.06C407.17 315.08 414.29 302.11 393.07 299.87Z" fill="#FE6D73"/>
<path d="M402.83 291.67C397.74 293.46 394.88 295.9 393.26 300.14" stroke="#FFCB77" stroke-width="2.83" stroke-linecap="round" stroke-linejoin="round"/>
<path fill-rule="evenodd" clip-rule="evenodd" d="M296.82 368.18C296.818 364.791 297.821 361.478 299.701 358.659C301.581 355.84 304.255 353.641 307.385 352.341C310.514 351.041 313.959 350.698 317.283 351.355C320.607 352.012 323.662 353.64 326.062 356.033C328.462 358.425 330.098 361.476 330.765 364.798C331.432 368.12 331.099 371.566 329.808 374.699C328.517 377.832 326.326 380.513 323.513 382.401C320.699 384.29 317.389 385.302 314 385.31C311.747 385.315 309.514 384.876 307.431 384.018C305.347 383.159 303.453 381.899 301.858 380.307C300.262 378.716 298.996 376.826 298.131 374.745C297.267 372.664 296.821 370.433 296.82 368.18Z" fill="#17C3B2"/>
<path fill-rule="evenodd" clip-rule="evenodd" d="M178.13 375.74L225.6 363.69L244.83 439.47L197.37 451.47L178.13 375.74Z" fill="#F9F9F9"/>
<path fill-rule="evenodd" clip-rule="evenodd" d="M188.13 384.09L220.79 375.8L223.31 385.73L190.65 394L188.13 384.09Z" fill="#FE6D73"/>
<path d="M193.39 404.8L226.05 396.51" stroke="#17C3B2" stroke-width="3.11" stroke-linecap="round" stroke-linejoin="round"/>
<path d="M196.13 415.58L228.8 407.29" stroke="#17C3B2" stroke-width="3.11" stroke-linecap="round" stroke-linejoin="round"/>
<path d="M199 426.83L231.69 418.53" stroke="#17C3B2" stroke-width="3.11" stroke-linecap="round" stroke-linejoin="round"/>
<path d="M201.74 437.7L214.56 434.44" stroke="#17C3B2" stroke-width="3.11" stroke-linecap="round" stroke-linejoin="round"/>
<path d="M229.29 430.7L234.43 429.4" stroke="#17C3B2" stroke-width="3.11" stroke-linecap="round" stroke-linejoin="round"/>
<path fill-rule="evenodd" clip-rule="evenodd" d="M146.66 203.68L269.5 145.19L307.89 225.8L185.05 284.3L146.66 203.68Z" fill="#F9F9F9"/>
<path d="M189.14 266.47L201.36 230.7L224.13 235L233.07 190.89L255.07 194.55L261.47 163.43" stroke="#FE6D73" stroke-width="3.11" stroke-linecap="round" stroke-linejoin="round"/>
<path fill-rule="evenodd" clip-rule="evenodd" d="M197.05 233C196.514 231.869 196.325 230.606 196.507 229.368C196.689 228.13 197.234 226.974 198.073 226.046C198.911 225.117 200.006 224.458 201.219 224.152C202.432 223.845 203.709 223.905 204.888 224.324C206.067 224.742 207.095 225.501 207.843 226.504C208.592 227.506 209.026 228.708 209.091 229.958C209.157 231.207 208.851 232.448 208.211 233.523C207.572 234.599 206.629 235.46 205.5 236C204.748 236.359 203.933 236.567 203.101 236.61C202.27 236.654 201.437 236.533 200.652 236.254C199.867 235.975 199.145 235.545 198.527 234.986C197.909 234.428 197.407 233.753 197.05 233Z" fill="#FFCB77"/>
<path fill-rule="evenodd" clip-rule="evenodd" d="M227.65 194.62C227.111 193.488 226.92 192.221 227.101 190.98C227.282 189.74 227.827 188.58 228.667 187.649C229.507 186.718 230.604 186.057 231.819 185.749C233.035 185.442 234.314 185.501 235.496 185.921C236.678 186.34 237.708 187.101 238.458 188.106C239.207 189.111 239.642 190.316 239.706 191.569C239.771 192.821 239.463 194.064 238.821 195.141C238.179 196.218 237.232 197.081 236.1 197.62C235.348 197.979 234.533 198.187 233.701 198.23C232.87 198.274 232.037 198.153 231.252 197.874C230.467 197.595 229.745 197.164 229.127 196.606C228.509 196.048 228.007 195.373 227.65 194.62Z" fill="#FFCB77"/>
<path fill-rule="evenodd" clip-rule="evenodd" d="M460.34 262.6C460.34 258.306 461.614 254.109 464 250.54C466.386 246.971 469.778 244.189 473.745 242.548C477.712 240.907 482.078 240.479 486.288 241.32C490.499 242.16 494.365 244.231 497.398 247.27C500.432 250.309 502.495 254.179 503.328 258.391C504.161 262.603 503.725 266.968 502.077 270.932C500.428 274.896 497.641 278.283 494.067 280.662C490.493 283.042 486.294 284.308 482 284.3C476.251 284.292 470.74 282.002 466.679 277.933C462.617 273.864 460.337 268.349 460.34 262.6Z" fill="#FFCB77"/>
<path d="M518.67 258.81C519.712 262.521 519.882 266.422 519.167 270.209C518.452 273.997 516.871 277.567 514.547 280.642C512.223 283.717 509.22 286.213 505.772 287.936C502.324 289.658 498.524 290.559 494.67 290.57C493.035 290.572 491.404 290.415 489.8 290.1" stroke="#FE6D73" stroke-width="3.11" stroke-linecap="round" stroke-linejoin="round"/>
<path fill-rule="evenodd" clip-rule="evenodd" d="M468.88 279.08L460.56 294L494.91 299.52L491.15 282.14" fill="#FFCB77"/>
<path fill-rule="evenodd" clip-rule="evenodd" d="M476.92 262.6C476.92 261.587 477.22 260.597 477.783 259.755C478.345 258.914 479.145 258.257 480.081 257.87C481.016 257.482 482.046 257.381 483.039 257.578C484.032 257.776 484.944 258.264 485.66 258.98C486.376 259.696 486.864 260.608 487.062 261.601C487.259 262.594 487.158 263.624 486.77 264.559C486.383 265.495 485.726 266.295 484.884 266.857C484.043 267.42 483.053 267.72 482.04 267.72C480.682 267.72 479.38 267.181 478.42 266.22C477.459 265.26 476.92 263.958 476.92 262.6Z" fill="#227C9D"/>
<path fill-rule="evenodd" clip-rule="evenodd" d="M512.17 257.48C512.17 256.467 512.47 255.477 513.033 254.635C513.595 253.793 514.395 253.137 515.331 252.75C516.266 252.362 517.296 252.261 518.289 252.458C519.282 252.656 520.194 253.144 520.91 253.86C521.626 254.576 522.114 255.488 522.312 256.481C522.509 257.474 522.408 258.504 522.02 259.439C521.633 260.375 520.977 261.175 520.135 261.737C519.293 262.3 518.303 262.6 517.29 262.6C515.933 262.597 514.632 262.057 513.673 261.097C512.713 260.138 512.173 258.837 512.17 257.48Z" fill="#FFCB77"/>
<path fill-rule="evenodd" clip-rule="evenodd" d="M100.91 99.47L133 108.14L101.4 225.14L69.31 216.5L100.91 99.47Z" fill="#FE6D73"/>
<path d="M79.51 178.73L97.18 183.51" stroke="#FFCB77" stroke-width="4.23" stroke-linecap="round" stroke-linejoin="round"/>
<path d="M73.9 199.49L91.58 204.26" stroke="#FFCB77" stroke-width="4.23" stroke-linecap="round" stroke-linejoin="round"/>
<path d="M85.11 158L102.79 162.78" stroke="#FFCB77" stroke-width="4.23" stroke-linecap="round" stroke-linejoin="round"/>
<path d="M90.72 137.23L108.39 142" stroke="#FFCB77" stroke-width="4.23" stroke-linecap="round" stroke-linejoin="round"/>
<path d="M96.3199 116.48L114 121.25" stroke="#FFCB77" stroke-width="4.23" stroke-linecap="round" stroke-linejoin="round"/>
<path fill-rule="evenodd" clip-rule="evenodd" d="M431.43 75.21L552.6 104.46L532.6 187.08L411.48 157.82L431.43 75.21Z" fill="#F9F9F9"/>
<path fill-rule="evenodd" clip-rule="evenodd" d="M503.9 164.78C504.506 162.269 505.843 159.994 507.742 158.243C509.641 156.492 512.017 155.344 514.569 154.943C517.12 154.542 519.734 154.907 522.078 155.991C524.422 157.076 526.393 158.831 527.739 161.035C529.086 163.239 529.749 165.793 529.645 168.374C529.54 170.955 528.672 173.447 527.151 175.535C525.63 177.623 523.524 179.213 521.1 180.103C518.675 180.994 516.041 181.146 513.53 180.54C510.163 179.727 507.257 177.61 505.451 174.654C503.645 171.699 503.087 168.147 503.9 164.78Z" fill="#FE6D73"/>
<path fill-rule="evenodd" clip-rule="evenodd" d="M507.76 175.53L499.05 198.24L511.21 195.49L519.02 202.74L520.59 178" fill="#FE6D73"/>
<path d="M438.59 96.64L534.25 119.74" stroke="#17C3B2" stroke-width="3.11" stroke-linecap="round" stroke-linejoin="round"/>
<path d="M433.05 119.31L490.82 133.26" stroke="#17C3B2" stroke-width="3.11" stroke-linecap="round" stroke-linejoin="round"/>
<path fill-rule="evenodd" clip-rule="evenodd" d="M239.14 86.48L226.14 72.39L244.84 68.16L263.55 63.93L257.86 82.25L252.17 100.56L239.14 86.48Z" fill="#17C3B2"/>
<path fill-rule="evenodd" clip-rule="evenodd" d="M497.43 381.88L479.62 389L482.35 370L485.08 351L500.15 362.85L515.23 374.71L497.43 381.88Z" fill="#FFCB77"/>
<path d="M351.24 153C351.24 151.161 351.785 149.363 352.807 147.833C353.829 146.304 355.282 145.112 356.981 144.408C358.68 143.704 360.55 143.52 362.354 143.879C364.158 144.237 365.815 145.123 367.116 146.424C368.417 147.724 369.302 149.382 369.661 151.186C370.02 152.99 369.836 154.86 369.132 156.559C368.428 158.258 367.236 159.711 365.707 160.733C364.177 161.755 362.379 162.3 360.54 162.3C358.073 162.3 355.708 161.32 353.964 159.576C352.22 157.832 351.24 155.466 351.24 153Z" stroke="#FE6D73" stroke-width="3.11" stroke-linecap="round" stroke-linejoin="round"/>
<path fill-rule="evenodd" clip-rule="evenodd" d="M91.4 308.8C91.4 306.961 91.9454 305.163 92.9673 303.633C93.9892 302.104 95.4417 300.912 97.141 300.208C98.8404 299.504 100.71 299.32 102.514 299.679C104.318 300.038 105.975 300.923 107.276 302.224C108.577 303.525 109.462 305.182 109.821 306.986C110.18 308.79 109.996 310.66 109.292 312.359C108.588 314.058 107.396 315.511 105.867 316.533C104.337 317.555 102.539 318.1 100.7 318.1C98.2334 318.1 95.868 317.12 94.1239 315.376C92.3798 313.632 91.4 311.266 91.4 308.8Z" fill="#FFCB77"/>
<path fill-rule="evenodd" clip-rule="evenodd" d="M301.81 606.75H364C364 606.75 364.29 671 364 696.28C364 706.71 301.83 705.52 301.83 696.28L301.81 606.75Z" fill="#D18C65"/>
<path fill-rule="evenodd" clip-rule="evenodd" d="M270 545.32C270 497.6 299 458.91 334.83 458.91C370.66 458.91 399.67 497.6 399.67 545.32C399.67 593.04 370.67 631.74 334.83 631.74C298.99 631.74 270 593.05 270 545.32Z" fill="#E49D75"/>
<path fill-rule="evenodd" clip-rule="evenodd" d="M369.84 452.72C353.37 490.99 285.13 528.35 256.39 537.09C251.85 514.24 281.26 416.91 369.84 452.72Z" fill="#333333"/>
<path fill-rule="evenodd" clip-rule="evenodd" d="M333.37 451.54C320.9 456.29 361.44 521.13 410.02 537.09C429.85 508.86 384.13 450.19 333.37 451.54Z" fill="#333333"/>
<path fill-rule="evenodd" clip-rule="evenodd" d="M426.07 17.13C426.068 13.7392 427.072 10.4239 428.954 7.60375C430.837 4.78356 433.514 2.58513 436.646 1.28661C439.778 -0.0119189 443.226 -0.352191 446.551 0.308841C449.877 0.969873 452.932 2.6025 455.33 5.00018C457.727 7.39785 459.36 10.4528 460.021 13.7786C460.682 17.1044 460.342 20.5515 459.043 23.6838C457.745 26.8161 455.546 29.4929 452.726 31.3755C449.906 33.2581 446.591 34.262 443.2 34.26C438.657 34.26 434.3 32.4552 431.087 29.2427C427.875 26.0302 426.07 21.6731 426.07 17.13Z" fill="#FFCB77"/>
<path d="M130.62 467.56C130.62 464.396 131.558 461.302 133.316 458.671C135.075 456.04 137.573 453.989 140.497 452.778C143.421 451.567 146.638 451.25 149.741 451.867C152.845 452.485 155.696 454.009 157.934 456.246C160.171 458.484 161.695 461.335 162.313 464.439C162.93 467.542 162.613 470.759 161.402 473.683C160.191 476.607 158.14 479.105 155.509 480.864C152.878 482.622 149.784 483.56 146.62 483.56C142.377 483.56 138.307 481.874 135.306 478.874C132.306 475.873 130.62 471.803 130.62 467.56Z" stroke="#17C3B2" stroke-width="3.11" stroke-linecap="round" stroke-linejoin="round"/>
<path d="M485.13 460.82C485.128 458.978 485.672 457.177 486.694 455.645C487.716 454.113 489.169 452.918 490.87 452.212C492.571 451.505 494.444 451.32 496.25 451.678C498.057 452.036 499.717 452.922 501.02 454.223C502.323 455.525 503.21 457.184 503.57 458.99C503.93 460.796 503.747 462.669 503.042 464.37C502.338 466.072 501.145 467.527 499.613 468.55C498.082 469.574 496.282 470.12 494.44 470.12C493.218 470.121 492.007 469.882 490.878 469.415C489.748 468.948 488.722 468.263 487.857 467.4C486.993 466.536 486.307 465.51 485.839 464.381C485.371 463.252 485.13 462.042 485.13 460.82V460.82Z" stroke="#FE6D73" stroke-width="3.11" stroke-linecap="round" stroke-linejoin="round"/>
<path d="M623.07 143.82C675.42 208.56 709.28 279.6 701.32 342.82C693.55 406 644 461.44 591.62 538.4C539.27 615.54 483.78 714.32 403.86 738.92C323.76 763.53 219.24 714.14 136.92 637C54.6 559.86 -5.52002 455.34 0.399976 356.55C6.31998 257.76 78.1 164.91 160.4 100.16C242.7 35.41 335.6 -1.21 417.55 9.7C499.5 20.61 570.53 79.07 623.07 143.82Z" fill="#F9F9F9"/>
<path fill-rule="evenodd" clip-rule="evenodd" d="M335.151 429.732C389.151 429.732 418.151 465.822 423.541 502.462C429.021 539.932 432.991 534.69 434.551 580C423.541 617 434.89 646.29 443.5 673.5C423.541 710 225.471 704.482 226.841 679.032C228.211 653.582 237.051 638 231.341 596.532C231.941 564.232 242.021 568.092 242.651 515.542C243.121 474.042 281.131 429.732 335.151 429.732Z" fill="#4E2E11"/>
<path fill-rule="evenodd" clip-rule="evenodd" d="M113.09 889C111.02 863.46 122.41 772.38 157.62 704.38C289.13 631.55 454.13 666.23 519.37 704.38C541.46 726.82 557.43 875.89 552.6 886.59" fill="#FFCB77"/>
<path d="M189 886.62C191.07 870.05 194.35 843.35 199.7 818.62" stroke="#333333" stroke-width="5.73" stroke-linecap="round" stroke-linejoin="round"/>
<path d="M480.67 886.62C478.6 870.05 475.32 843.35 469.97 818.62" stroke="#333333" stroke-width="5.73" stroke-linecap="round" stroke-linejoin="round"/>
<path fill-rule="evenodd" clip-rule="evenodd" d="M251.34 552.46C251.338 549.567 252.194 546.739 253.799 544.332C255.404 541.926 257.686 540.049 260.357 538.939C263.029 537.83 265.969 537.537 268.807 538.098C271.645 538.659 274.253 540.048 276.301 542.091C278.349 544.134 279.746 546.738 280.314 549.574C280.883 552.41 280.598 555.351 279.496 558.026C278.393 560.7 276.523 562.988 274.121 564.599C271.719 566.211 268.893 567.074 266 567.08C264.077 567.084 262.172 566.709 260.394 565.976C258.617 565.243 257.001 564.167 255.639 562.809C254.278 561.451 253.197 559.838 252.459 558.063C251.722 556.287 251.341 554.383 251.34 552.46Z" fill="#EABFAB"/>
<path fill-rule="evenodd" clip-rule="evenodd" d="M385.5 552.46C385.498 549.566 386.354 546.736 387.961 544.329C389.567 541.922 391.851 540.045 394.524 538.937C397.197 537.828 400.139 537.537 402.978 538.1C405.817 538.663 408.424 540.056 410.471 542.101C412.518 544.147 413.913 546.754 414.478 549.592C415.043 552.43 414.754 555.372 413.647 558.046C412.54 560.72 410.665 563.006 408.259 564.614C405.853 566.222 403.024 567.08 400.13 567.08C396.252 567.08 392.532 565.54 389.789 562.799C387.045 560.057 385.503 556.338 385.5 552.46Z" fill="#EABFAB"/>
<path fill-rule="evenodd" clip-rule="evenodd" d="M393.07 300.62C378.31 289.1 374.67 301.97 372.36 309.62C370.05 317.27 370.22 330.76 381.79 330.47C391.93 339.57 401.37 327.8 404.27 321.82C407.17 315.84 414.29 302.86 393.07 300.62Z" fill="#FE6D73"/>
<path d="M402.83 292.41C397.74 294.2 394.88 296.64 393.26 300.88" stroke="#227C9D" stroke-width="2.83" stroke-linecap="round" stroke-linejoin="round"/>
<path fill-rule="evenodd" clip-rule="evenodd" d="M296.82 368.92C296.818 365.531 297.821 362.218 299.701 359.399C301.581 356.58 304.255 354.381 307.385 353.081C310.514 351.781 313.959 351.438 317.283 352.095C320.607 352.752 323.662 354.38 326.062 356.773C328.462 359.165 330.098 362.216 330.765 365.538C331.432 368.86 331.099 372.306 329.808 375.439C328.517 378.572 326.326 381.253 323.513 383.141C320.699 385.03 317.389 386.042 314 386.05C311.746 386.057 309.513 385.618 307.429 384.76C305.345 383.903 303.451 382.642 301.855 381.05C300.259 379.459 298.993 377.569 298.129 375.487C297.265 373.405 296.82 371.174 296.82 368.92Z" fill="#227C9D"/>
<path fill-rule="evenodd" clip-rule="evenodd" d="M178.13 376.48L225.6 364.43L244.83 440.21L197.37 452.26L178.13 376.48Z" fill="white"/>
<path fill-rule="evenodd" clip-rule="evenodd" d="M188.13 384.83L220.79 376.54L223.31 386.47L190.65 394.76L188.13 384.83Z" fill="#FE6D73"/>
<path d="M193.39 405.55L226.05 397.25" stroke="#227C9D" stroke-width="3.11" stroke-linecap="round" stroke-linejoin="round"/>
<path d="M196.13 416.33L228.8 408" stroke="#227C9D" stroke-width="3.11" stroke-linecap="round" stroke-linejoin="round"/>
<path d="M199 427.57L231.69 419.27" stroke="#227C9D" stroke-width="3.11" stroke-linecap="round" stroke-linejoin="round"/>
<path d="M201.74 438.44L214.56 435.19" stroke="#227C9D" stroke-width="3.11" stroke-linecap="round" stroke-linejoin="round"/>
<path d="M229.29 431.44L234.43 430.14" stroke="#227C9D" stroke-width="3.11" stroke-linecap="round" stroke-linejoin="round"/>
<path fill-rule="evenodd" clip-rule="evenodd" d="M146.66 204.43L269.5 145.93L307.89 226.55L185.05 285L146.66 204.43Z" fill="#F9F9F9"/>
<path d="M189.14 267.21L201.36 231.45L224.13 235.69L233.07 191.58L255.07 195.24L261.47 164.13" stroke="#FE6D73" stroke-width="3.11" stroke-linecap="round" stroke-linejoin="round"/>
<path fill-rule="evenodd" clip-rule="evenodd" d="M197.05 233.79C196.511 232.658 196.32 231.391 196.501 230.15C196.682 228.91 197.227 227.75 198.067 226.819C198.907 225.888 200.004 225.227 201.219 224.919C202.435 224.612 203.714 224.671 204.896 225.091C206.078 225.51 207.108 226.271 207.858 227.276C208.607 228.282 209.042 229.486 209.106 230.739C209.171 231.991 208.863 233.234 208.221 234.311C207.579 235.388 206.632 236.251 205.5 236.79C203.981 237.51 202.239 237.599 200.655 237.036C199.071 236.474 197.775 235.307 197.05 233.79Z" fill="#333333"/>
<path fill-rule="evenodd" clip-rule="evenodd" d="M227.65 195.36C227.111 194.228 226.92 192.961 227.101 191.72C227.282 190.48 227.827 189.32 228.667 188.389C229.507 187.458 230.604 186.797 231.819 186.489C233.035 186.182 234.314 186.241 235.496 186.661C236.678 187.08 237.708 187.841 238.458 188.846C239.207 189.852 239.642 191.056 239.706 192.309C239.771 193.561 239.463 194.804 238.821 195.881C238.179 196.958 237.232 197.821 236.1 198.36C235.348 198.719 234.533 198.927 233.701 198.97C232.87 199.014 232.037 198.893 231.252 198.614C230.467 198.335 229.745 197.905 229.127 197.346C228.509 196.788 228.007 196.113 227.65 195.36Z" fill="#333333"/>
<path fill-rule="evenodd" clip-rule="evenodd" d="M460.34 263.34C460.332 259.045 461.599 254.844 463.98 251.269C466.362 247.694 469.75 244.907 473.717 243.259C477.684 241.612 482.05 241.179 486.264 242.015C490.477 242.851 494.347 244.919 497.384 247.956C500.421 250.993 502.489 254.863 503.325 259.076C504.161 263.289 503.728 267.656 502.08 271.623C500.433 275.589 497.646 278.978 494.071 281.36C490.496 283.741 486.295 285.008 482 285C476.259 284.989 470.755 282.704 466.696 278.644C462.636 274.584 460.351 269.081 460.34 263.34Z" fill="#333333"/>
<path d="M518.67 259.56C519.3 261.772 519.616 264.061 519.61 266.36C519.611 270.05 518.794 273.695 517.217 277.031C515.64 280.368 513.343 283.313 510.491 285.654C507.639 287.996 504.303 289.675 500.723 290.572C497.143 291.469 493.409 291.56 489.79 290.84" stroke="#FE6D73" stroke-width="3.11" stroke-linecap="round" stroke-linejoin="round"/>
<path fill-rule="evenodd" clip-rule="evenodd" d="M468.88 279.82L460.56 294.71L494.91 300.24L491.15 282.85" fill="#333333"/>
<path fill-rule="evenodd" clip-rule="evenodd" d="M476.92 263.34C476.92 262.327 477.22 261.337 477.783 260.495C478.345 259.653 479.145 258.997 480.081 258.61C481.016 258.222 482.046 258.121 483.039 258.318C484.032 258.516 484.944 259.004 485.66 259.72C486.376 260.436 486.864 261.348 487.062 262.341C487.259 263.334 487.158 264.364 486.77 265.299C486.383 266.235 485.726 267.035 484.884 267.597C484.043 268.16 483.053 268.46 482.04 268.46C480.682 268.46 479.38 267.921 478.42 266.96C477.459 266 476.92 264.698 476.92 263.34Z" fill="#227C9D"/>
<path fill-rule="evenodd" clip-rule="evenodd" d="M512.17 258.22C512.17 257.207 512.47 256.217 513.033 255.375C513.595 254.533 514.395 253.877 515.331 253.49C516.266 253.102 517.296 253.001 518.289 253.198C519.282 253.396 520.194 253.884 520.91 254.6C521.626 255.316 522.114 256.228 522.312 257.221C522.509 258.214 522.408 259.244 522.02 260.179C521.633 261.115 520.977 261.914 520.135 262.477C519.293 263.04 518.303 263.34 517.29 263.34C515.932 263.34 514.63 262.801 513.67 261.84C512.709 260.88 512.17 259.578 512.17 258.22Z" fill="#227C9D"/>
<path fill-rule="evenodd" clip-rule="evenodd" d="M100.91 100.21L133 108.89L101.4 225.89L69.28 217.22L100.91 100.21Z" fill="#FE6D73"/>
<path d="M79.51 179.48L97.18 184.25" stroke="#333333" stroke-width="4.23" stroke-linecap="round" stroke-linejoin="round"/>
<path d="M73.9 200.23L91.58 205" stroke="#333333" stroke-width="4.23" stroke-linecap="round" stroke-linejoin="round"/>
<path d="M85.11 158.73L102.79 163.5" stroke="#333333" stroke-width="4.23" stroke-linecap="round" stroke-linejoin="round"/>
<path d="M90.72 138L108.39 142.77" stroke="#333333" stroke-width="4.23" stroke-linecap="round" stroke-linejoin="round"/>
<path d="M96.3199 117.22L114 122" stroke="#333333" stroke-width="4.23" stroke-linecap="round" stroke-linejoin="round"/>
<path fill-rule="evenodd" clip-rule="evenodd" d="M431.43 76L552.6 105.21L532.6 187.82L411.48 158.56L431.43 76Z" fill="white"/>
<path fill-rule="evenodd" clip-rule="evenodd" d="M503.9 165.52C504.506 163.009 505.843 160.734 507.742 158.983C509.641 157.232 512.017 156.084 514.569 155.683C517.12 155.282 519.734 155.647 522.078 156.731C524.422 157.816 526.393 159.571 527.739 161.775C529.086 163.979 529.749 166.533 529.645 169.114C529.54 171.695 528.672 174.187 527.151 176.275C525.63 178.363 523.524 179.953 521.1 180.843C518.675 181.734 516.041 181.886 513.53 181.28C510.163 180.467 507.257 178.35 505.451 175.394C503.645 172.439 503.087 168.887 503.9 165.52Z" fill="#FE6D73"/>
<path fill-rule="evenodd" clip-rule="evenodd" d="M507.76 176.28L499.05 199L511.21 196.24L519.02 203.49L520.59 178.74" fill="#FE6D73"/>
<path d="M438.59 97.39L534.25 120.49" stroke="#227C9D" stroke-width="3.11" stroke-linecap="round" stroke-linejoin="round"/>
<path d="M433.05 120.06L490.82 134" stroke="#227C9D" stroke-width="3.11" stroke-linecap="round" stroke-linejoin="round"/>
<path fill-rule="evenodd" clip-rule="evenodd" d="M239.14 87.22L226.14 73.14L244.84 68.91L263.55 64.68L257.85 83L252.16 101.32L239.14 87.22Z" fill="#227C9D"/>
<path fill-rule="evenodd" clip-rule="evenodd" d="M497.43 382.62L479.62 389.75L482.35 370.75L485.08 351.75L500.15 363.6L515.23 375.45L497.43 382.62Z" fill="#333333"/>
<path d="M351.24 153.76C351.24 151.921 351.785 150.123 352.807 148.593C353.829 147.064 355.282 145.872 356.981 145.168C358.68 144.464 360.55 144.28 362.354 144.639C364.158 144.998 365.815 145.883 367.116 147.184C368.417 148.485 369.302 150.142 369.661 151.946C370.02 153.75 369.836 155.62 369.132 157.319C368.428 159.018 367.236 160.471 365.707 161.493C364.177 162.515 362.379 163.06 360.54 163.06C358.073 163.06 355.708 162.08 353.964 160.336C352.22 158.592 351.24 156.226 351.24 153.76Z" stroke="#FE6D73" stroke-width="3.11" stroke-linecap="round" stroke-linejoin="round"/>
<path fill-rule="evenodd" clip-rule="evenodd" d="M91.4 309.54C91.4 307.701 91.9454 305.903 92.9673 304.373C93.9892 302.844 95.4417 301.652 97.141 300.948C98.8404 300.244 100.71 300.06 102.514 300.419C104.318 300.778 105.975 301.663 107.276 302.964C108.577 304.265 109.462 305.922 109.821 307.726C110.18 309.53 109.996 311.4 109.292 313.099C108.588 314.798 107.396 316.251 105.867 317.273C104.337 318.295 102.539 318.84 100.7 318.84C98.2334 318.84 95.868 317.86 94.1239 316.116C92.3798 314.372 91.4 312.007 91.4 309.54Z" fill="#FFCB77"/>
<path fill-rule="evenodd" clip-rule="evenodd" d="M301.81 607.49H364C364 607.49 364.29 671.74 364 697.03C364 707.46 301.83 706.26 301.83 697.03L301.81 607.49Z" fill="#EABFAB"/>
<path fill-rule="evenodd" clip-rule="evenodd" d="M270 546.07C270 498.34 299 459.66 334.83 459.66C370.66 459.66 399.67 498.34 399.67 546.07C399.67 593.8 370.67 632.48 334.83 632.48C298.99 632.48 270 593.79 270 546.07Z" fill="#F8CDBA"/>
<path fill-rule="evenodd" clip-rule="evenodd" d="M369.84 453.46C353.37 491.73 285.13 529.1 256.39 537.84C251.85 515 281.26 417.66 369.84 453.46Z" fill="#4E2E11"/>
<path fill-rule="evenodd" clip-rule="evenodd" d="M333.37 452.28C320.9 457 361.44 521.87 410 537.84C429.85 509.6 384.13 450.94 333.37 452.28Z" fill="#4E2E11"/>
<path fill-rule="evenodd" clip-rule="evenodd" d="M426.07 17.88C426.066 14.4887 427.068 11.1725 428.95 8.35102C430.831 5.52951 433.507 3.32953 436.639 2.02947C439.771 0.729412 443.219 0.387712 446.545 1.04761C449.872 1.70751 452.928 3.33936 455.326 5.73663C457.725 8.13391 459.359 11.1889 460.02 14.5149C460.682 17.8409 460.343 21.2886 459.044 24.4215C457.746 27.5544 455.548 30.2318 452.727 32.1148C449.907 33.9979 446.591 35.002 443.2 35C438.659 35 434.303 33.1966 431.091 29.9862C427.879 26.7759 426.073 22.4214 426.07 17.88Z" fill="#FFCB77"/>
<path d="M130.62 468.3C130.62 465.135 131.558 462.042 133.316 459.411C135.075 456.78 137.573 454.729 140.497 453.518C143.421 452.307 146.638 451.99 149.741 452.607C152.845 453.225 155.696 454.749 157.934 456.986C160.171 459.224 161.695 462.075 162.313 465.179C162.93 468.282 162.613 471.499 161.402 474.423C160.191 477.347 158.14 479.845 155.509 481.604C152.878 483.362 149.784 484.3 146.62 484.3C142.377 484.3 138.307 482.614 135.306 479.614C132.306 476.613 130.62 472.543 130.62 468.3Z" stroke="#227C9D" stroke-width="3.11" stroke-linecap="round" stroke-linejoin="round"/>
<path d="M485.13 461.56C485.128 459.718 485.672 457.917 486.694 456.385C487.716 454.853 489.169 453.658 490.87 452.952C492.571 452.245 494.444 452.06 496.25 452.418C498.057 452.776 499.717 453.662 501.02 454.963C502.323 456.265 503.21 457.924 503.57 459.73C503.93 461.536 503.747 463.409 503.042 465.11C502.338 466.812 501.145 468.267 499.613 469.29C498.082 470.314 496.282 470.86 494.44 470.86C493.218 470.861 492.007 470.622 490.878 470.155C489.748 469.688 488.722 469.003 487.857 468.14C486.993 467.276 486.307 466.25 485.839 465.121C485.371 463.992 485.13 462.782 485.13 461.56Z" stroke="#FE6D73" stroke-width="3.11" stroke-linecap="round" stroke-linejoin="round"/>
</g>
<defs>
<clipPath id="clip0">
<rect width="702.48" height="889.49" fill="white"/>
</clipPath>
</defs>
</svg>
