<svg width="513" height="261" viewBox="0 0 513 261" fill="none" xmlns="http://www.w3.org/2000/svg">
<g clip-path="url(#clip0)">
<path d="M150.755 51.2885C151.462 33.8857 146.125 19.5795 138.835 19.3346C131.546 19.0896 125.064 32.9988 124.357 50.4016C123.651 67.8044 128.987 82.1107 136.277 82.3556C143.567 82.6005 150.049 68.6913 150.755 51.2885Z" fill="#547A5D" stroke="#4D4D4D" stroke-width="10" stroke-miterlimit="10"/>
<path d="M67.4339 68.7994C86.576 68.7994 102.094 63.4194 102.094 56.7828C102.094 50.1463 86.576 44.7663 67.4339 44.7663C48.2918 44.7663 32.774 50.1463 32.774 56.7828C32.774 63.4194 48.2918 68.7994 67.4339 68.7994Z" fill="#547A5D" stroke="#4D4D4D" stroke-width="10" stroke-miterlimit="10"/>
<path d="M111.62 107.973C128.314 99.4498 138.953 87.8488 135.383 82.0611C131.813 76.2733 115.386 78.4906 98.6919 87.0135C81.998 95.5363 71.3591 107.137 74.9291 112.925C78.4992 118.713 94.9263 116.496 111.62 107.973Z" fill="#547A5D" stroke="#4D4D4D" stroke-width="10" stroke-miterlimit="10"/>
<path d="M223.685 159.779C238.262 148.49 246.246 135.243 241.517 130.189C236.789 125.135 221.139 130.189 206.562 141.478C191.985 152.766 184.002 166.014 188.73 171.068C193.459 176.121 209.109 171.067 223.685 159.779Z" fill="#547A5D" stroke="#4D4D4D" stroke-width="10" stroke-miterlimit="10"/>
<path d="M336.753 182.107C348.118 168.093 352.572 153.539 346.702 149.599C340.832 145.658 326.86 153.825 315.495 167.839C304.131 181.852 299.676 196.407 305.547 200.347C311.417 204.287 325.388 196.121 336.753 182.107Z" fill="#547A5D" stroke="#4D4D4D" stroke-width="10" stroke-miterlimit="10"/>
<path d="M465.22 207.233C469.986 190.367 468.123 175.354 461.058 173.701C453.993 172.049 444.401 184.382 439.635 201.249C434.869 218.115 436.732 233.128 443.797 234.78C450.862 236.433 460.453 224.099 465.22 207.233Z" fill="#547A5D" stroke="#4D4D4D" stroke-width="10" stroke-miterlimit="10"/>
<path d="M263.142 102.878C268.166 86.0744 266.534 71.0401 259.495 69.298C252.456 67.5559 242.677 79.7657 237.652 96.5694C232.627 113.373 234.26 128.407 241.299 130.15C248.337 131.892 258.117 119.682 263.142 102.878Z" fill="#547A5D" stroke="#4D4D4D" stroke-width="10" stroke-miterlimit="10"/>
<path d="M365.067 122.037C369.725 105.144 367.764 90.1411 360.688 88.5264C353.612 86.9117 344.1 99.2968 339.443 116.189C334.786 133.082 336.747 148.085 343.822 149.7C350.898 151.314 360.41 138.929 365.067 122.037Z" fill="#547A5D" stroke="#4D4D4D" stroke-width="10" stroke-miterlimit="10"/>
<path d="M462.267 175.667C469.295 173.887 470.83 158.843 465.696 142.065C460.562 125.288 450.703 113.13 443.675 114.91C436.648 116.69 435.112 131.734 440.246 148.511C445.38 165.289 455.239 177.447 462.267 175.667Z" fill="#547A5D" stroke="#4D4D4D" stroke-width="10" stroke-miterlimit="10"/>
<path d="M534.881 234.859C534.881 234.859 517.09 160.27 330.55 148.34C330.55 148.34 191.274 138.148 100.471 54.7849" stroke="#4D4D4D" stroke-width="10" stroke-miterlimit="10"/>
</g>
<defs>
<clipPath id="clip0">
<rect width="538" height="239" fill="white"/>
</clipPath>
</defs>
</svg>
