<svg id="Layer_1" data-name="Layer 1" xmlns="http://www.w3.org/2000/svg" viewBox="0 0 112.33 70"><defs><style>.cls-1{fill:#4d4d4d;}.cls-2{fill:#ff8091;}</style></defs><title>Artboard 1</title><path class="cls-1" d="M107.61,56a.28.28,0,0,1-.08-.2V54H107c-.18,0-.26-.07-.26-.23s.08-.22.26-.22h1.72c.18,0,.27.07.27.22s-.09.23-.27.23h-.58v1.82a.27.27,0,0,1-.07.2.28.28,0,0,1-.21.07A.27.27,0,0,1,107.61,56Z"/><path class="cls-1" d="M111.53,53.56a.26.26,0,0,1,.07.2v2a.24.24,0,0,1-.25.26.24.24,0,0,1-.17-.07.25.25,0,0,1-.07-.19V54.53l-.51.95a.33.33,0,0,1-.11.14.27.27,0,0,1-.28,0,.33.33,0,0,1-.11-.14l-.51-.94v1.25a.25.25,0,0,1-.07.19.27.27,0,0,1-.18.07.24.24,0,0,1-.17-.07.25.25,0,0,1-.07-.19v-2a.26.26,0,0,1,.07-.2.22.22,0,0,1,.19-.08.28.28,0,0,1,.26.18l.73,1.38.73-1.38a.29.29,0,0,1,.26-.18A.24.24,0,0,1,111.53,53.56Z"/><path class="cls-2" d="M66.09,9.1l-2.62,2.62,2.62,2.62,2.62-2.62ZM57.53.54a1.73,1.73,0,0,0-.45-.33.84.84,0,0,0-.2-.08,2,2,0,0,0-1.33,0,.64.64,0,0,0-.2.08,1.54,1.54,0,0,0-.44.33L43.72,11.72,36.47,19l-1.31,1.31a1.87,1.87,0,0,0,0,2.63l1.31,1.31L43.25,31l2.62-2.62L39.09,21.6,49.24,11.45l7-7L63,11.25h0l2.62-2.62ZM77.27,20.28,76,19,69.19,12.2l-2.62,2.63,6.77,6.77L63.07,31.87l-6.85,6.85L49.45,32l-2.62,2.62,8.08,8.08.14.13a1.33,1.33,0,0,0,.46.27l.17.07.17,0,.15,0,.22,0h.18l.18,0a2,2,0,0,0,.35-.11,1.5,1.5,0,0,0,.45-.27l.15-.13L77.27,22.91a1.85,1.85,0,0,0,0-2.63ZM46.34,28.85l-2.62,2.62,2.62,2.62L49,31.47Z"/><path class="cls-2" d="M66.09,9.1l-2.62,2.62,2.62,2.62,2.62-2.62ZM57.53.54a1.73,1.73,0,0,0-.45-.33.84.84,0,0,0-.2-.08,2,2,0,0,0-1.33,0,.64.64,0,0,0-.2.08,1.54,1.54,0,0,0-.44.33L43.72,11.72,36.47,19l-1.31,1.31a1.87,1.87,0,0,0,0,2.63l1.31,1.31L43.25,31l2.62-2.62L39.09,21.6,49.24,11.45l7-7L63,11.25h0l2.62-2.62ZM77.27,20.28,76,19,69.19,12.2l-2.62,2.63,6.77,6.77L63.07,31.87l-6.85,6.85L49.45,32l-2.62,2.62,8.08,8.08.14.13a1.33,1.33,0,0,0,.46.27l.17.07.17,0,.15,0,.22,0h.18l.18,0a2,2,0,0,0,.35-.11,1.5,1.5,0,0,0,.45-.27l.15-.13L77.27,22.91a1.85,1.85,0,0,0,0-2.63ZM46.34,28.85l-2.62,2.62,2.62,2.62L49,31.47Z"/><path class="cls-2" d="M49.45,12.2l-2.62,2.63,6.29,6.29,2.62-2.62Zm-1.8-1.79a1.86,1.86,0,0,0-2.62,0l-1.31,1.31L36.47,19l-1.31,1.31a1.87,1.87,0,0,0,0,2.63l1.31,1.31L43.25,31l2.62-2.62L39.09,21.6,49,11.72Zm9.88,9.87L56.22,19l-1.31,1.31L53.59,21.6l-9.87,9.87L45,32.78a1.86,1.86,0,0,0,2.62,0l9.88-9.87A1.87,1.87,0,0,0,57.53,20.28Z"/><path class="cls-2" d="M49.45,12.2l-2.62,2.63,6.29,6.29,2.62-2.62Zm-1.8-1.79a1.86,1.86,0,0,0-2.62,0l-1.31,1.31L36.47,19l-1.31,1.31a1.87,1.87,0,0,0,0,2.63l1.31,1.31L43.25,31l2.62-2.62L39.09,21.6,49,11.72Zm9.88,9.87L56.22,19l-1.31,1.31L53.59,21.6l-9.87,9.87L45,32.78a1.86,1.86,0,0,0,2.62,0l9.88-9.87A1.87,1.87,0,0,0,57.53,20.28Z"/><path class="cls-2" d="M49.45,12.2l-2.62,2.63,6.29,6.29,2.62-2.62Zm0,0-2.62,2.63,6.29,6.29,2.62-2.62Zm0,0-2.62,2.63,6.29,6.29,2.62-2.62Zm0,0-2.62,2.63,6.29,6.29,2.62-2.62Zm18-1.79L66.09,9.1l-2.62,2.62h0l-.33.34L56.49,18.7l-1.58,1.58L53.59,21.6l1.32,1.31a1.82,1.82,0,0,0,1.31.54,1.87,1.87,0,0,0,1.31-.54L67.4,13A1.86,1.86,0,0,0,67.4,10.41ZM63,11.25h0l2.62-2.62L57.53.54a1.73,1.73,0,0,0-.45-.33.84.84,0,0,0-.2-.08,1.8,1.8,0,0,0-1.33,0,.64.64,0,0,0-.2.08,1.54,1.54,0,0,0-.44.33L45,10.41A1.86,1.86,0,0,0,45,13l1.31,1.31,2.9-2.89,7-7Zm-13.54.95-2.62,2.63,6.29,6.29,2.62-2.62Zm0,0-2.62,2.63,6.29,6.29,2.62-2.62Zm0,0-2.62,2.63,6.29,6.29,2.62-2.62Z"/><path class="cls-2" d="M59.32,22.08,56.7,24.7,63,31h0l2.62-2.62Zm8.08,8.08-1.31-1.31-2.62,2.62h0l-.39.4-6.85,6.85L49.45,32l-2.62,2.62,8.08,8.08.14.13a1.33,1.33,0,0,0,.46.27l.17.07.17,0,.15,0,.22,0h.18l.18,0a2,2,0,0,0,.35-.11,1.5,1.5,0,0,0,.45-.27l.15-.13,9.87-9.87A1.86,1.86,0,0,0,67.4,30.16Zm-9.87-9.88a1.92,1.92,0,0,0-2.62,0L53.59,21.6,45,30.16a1.86,1.86,0,0,0,0,2.62l1.31,1.31L58.84,21.6Z"/><path class="cls-2" d="M59.32,22.08,56.7,24.7,63,31h0l2.62-2.62Zm8.08,8.08-1.31-1.31-2.62,2.62h0l-.39.4-6.85,6.85L49.45,32l-2.62,2.62,8.08,8.08.14.13a1.33,1.33,0,0,0,.46.27l.17.07.17,0,.15,0,.22,0h.18l.18,0a2,2,0,0,0,.35-.11,1.5,1.5,0,0,0,.45-.27l.15-.13,9.87-9.87A1.86,1.86,0,0,0,67.4,30.16Zm-9.87-9.88a1.92,1.92,0,0,0-2.62,0L53.59,21.6,45,30.16a1.86,1.86,0,0,0,0,2.62l1.31,1.31L58.84,21.6Z"/><path class="cls-2" d="M59.32,22.08,56.7,24.7,63,31h0l2.62-2.62Zm0,0L56.7,24.7,63,31h0l2.62-2.62ZM67.4,10.41a1.86,1.86,0,0,0-2.62,0l-1.31,1.31-7,7-1.58,1.58a1.85,1.85,0,0,0,0,2.63l1.31,1.31,12.49-12.5Zm9.87,9.87L76,19,69.19,12.2l-2.62,2.63,6.77,6.77-9.87,9.87,1.31,1.31a1.84,1.84,0,0,0,1.31.54,1.87,1.87,0,0,0,1.31-.54l9.87-9.87a1.85,1.85,0,0,0,0-2.63Zm-17.95,1.8L56.7,24.7,63,31h0l2.62-2.62Zm0,0L56.7,24.7,63,31h0l2.62-2.62Z"/><path class="cls-2" d="M47.65,30.16l-1.31-1.31-2.62,2.62-.34.33-3.29,3.29a5.12,5.12,0,0,1-7.24,0,5.12,5.12,0,0,1,0-7.24l3.62-3.63L43.25,31l2.62-2.62L39.09,21.6l-1.31-1.32a1.92,1.92,0,0,0-2.62,0L33.85,21.6l-3.62,3.62a8.83,8.83,0,0,0,12.48,12.5l4.94-4.94a1.86,1.86,0,0,0,.55-1.31A1.82,1.82,0,0,0,47.65,30.16Z"/><path class="cls-2" d="M47.65,10.41,46.34,9.1l-2.62,2.62L36.47,19l-3.62-3.62A5.12,5.12,0,1,1,40.09,8.1l3.15,3.15,2.62-2.63L42.71,5.47a8.83,8.83,0,0,0-15.07,6.25A8.78,8.78,0,0,0,30.23,18l3.62,3.63,1.31,1.31a1.86,1.86,0,0,0,2.62,0L47.65,13a1.82,1.82,0,0,0,.55-1.31A1.86,1.86,0,0,0,47.65,10.41Z"/><path class="cls-2" d="M82.21,5.47a8.86,8.86,0,0,0-12.5,0l-3.29,3.3-1.64,1.64a1.86,1.86,0,0,0-.55,1.31A1.82,1.82,0,0,0,64.78,13l1.31,1.31L72.33,8.1a5.14,5.14,0,0,1,8.76,3.62,5.07,5.07,0,0,1-1.51,3.63L76,19,69.19,12.2l-2.62,2.63,8.08,8.08a1.86,1.86,0,0,0,2.62,0L82.21,18a8.84,8.84,0,0,0,0-12.5Z"/><path class="cls-2" d="M82.21,25.22,78.58,21.6l-1.31-1.32A1.85,1.85,0,0,0,76,19.74a1.89,1.89,0,0,0-1.31.54L73.34,21.6l-8.56,8.56a1.82,1.82,0,0,0-.55,1.31,1.86,1.86,0,0,0,.55,1.31l1.31,1.31L76,24.22l3.62,3.63a5.07,5.07,0,0,1,1.51,3.62,5.19,5.19,0,0,1-.39,2,5,5,0,0,1-1.12,1.66,5.13,5.13,0,0,1-7.25,0L69.19,32l-2.63,2.62,3.15,3.15a8.84,8.84,0,1,0,12.5-12.5Z"/><polygon class="cls-2" points="63.47 31.47 63.07 31.87 63.46 31.47 63.47 31.47"/><path class="cls-2" d="M66.09,9.1l-2.62,2.62,2.62,2.62,2.62-2.62ZM57.53.54a1.73,1.73,0,0,0-.45-.33.84.84,0,0,0-.2-.08,2,2,0,0,0-1.33,0,.64.64,0,0,0-.2.08,1.54,1.54,0,0,0-.44.33L43.72,11.72,36.47,19l-1.31,1.31a1.87,1.87,0,0,0,0,2.63l1.31,1.31L43.25,31l2.62-2.62L39.09,21.6,49.24,11.45l7-7L63,11.25h0l2.62-2.62ZM77.27,20.28,76,19,69.19,12.2l-2.62,2.63,6.77,6.77L63.07,31.87l-6.85,6.85L49.45,32l-2.62,2.62,8.08,8.08.14.13a1.33,1.33,0,0,0,.46.27l.17.07.17,0,.15,0,.22,0h.18l.18,0a2,2,0,0,0,.35-.11,1.5,1.5,0,0,0,.45-.27l.15-.13L77.27,22.91a1.85,1.85,0,0,0,0-2.63ZM46.34,28.85l-2.62,2.62,2.62,2.62L49,31.47Z"/><path class="cls-2" d="M66.09,9.1l-2.62,2.62,2.62,2.62,2.62-2.62ZM57.53.54a1.73,1.73,0,0,0-.45-.33.84.84,0,0,0-.2-.08,2,2,0,0,0-1.33,0,.64.64,0,0,0-.2.08,1.54,1.54,0,0,0-.44.33L43.72,11.72,36.47,19l-1.31,1.31a1.87,1.87,0,0,0,0,2.63l1.31,1.31L43.25,31l2.62-2.62L39.09,21.6,49.24,11.45l7-7L63,11.25h0l2.62-2.62ZM77.27,20.28,76,19,69.19,12.2l-2.62,2.63,6.77,6.77L63.07,31.87l-6.85,6.85L49.45,32l-2.62,2.62,8.08,8.08.14.13a1.33,1.33,0,0,0,.46.27l.17.07.17,0,.15,0,.22,0h.18l.18,0a2,2,0,0,0,.35-.11,1.5,1.5,0,0,0,.45-.27l.15-.13L77.27,22.91a1.85,1.85,0,0,0,0-2.63ZM46.34,28.85l-2.62,2.62,2.62,2.62L49,31.47Z"/><path class="cls-2" d="M49.45,12.2l-2.62,2.63,6.29,6.29,2.62-2.62Zm-1.8-1.79a1.86,1.86,0,0,0-2.62,0l-1.31,1.31L36.47,19l-1.31,1.31a1.87,1.87,0,0,0,0,2.63l1.31,1.31L43.25,31l2.62-2.62L39.09,21.6,49,11.72Zm9.88,9.87L56.22,19l-1.31,1.31L53.59,21.6l-9.87,9.87L45,32.78a1.86,1.86,0,0,0,2.62,0l9.88-9.87A1.87,1.87,0,0,0,57.53,20.28Z"/><path class="cls-2" d="M49.45,12.2l-2.62,2.63,6.29,6.29,2.62-2.62Zm-1.8-1.79a1.86,1.86,0,0,0-2.62,0l-1.31,1.31L36.47,19l-1.31,1.31a1.87,1.87,0,0,0,0,2.63l1.31,1.31L43.25,31l2.62-2.62L39.09,21.6,49,11.72Zm9.88,9.87L56.22,19l-1.31,1.31L53.59,21.6l-9.87,9.87L45,32.78a1.86,1.86,0,0,0,2.62,0l9.88-9.87A1.87,1.87,0,0,0,57.53,20.28Z"/><path class="cls-2" d="M49.45,12.2l-2.62,2.63,6.29,6.29,2.62-2.62Zm0,0-2.62,2.63,6.29,6.29,2.62-2.62Zm0,0-2.62,2.63,6.29,6.29,2.62-2.62Zm0,0-2.62,2.63,6.29,6.29,2.62-2.62Zm18-1.79L66.09,9.1l-2.62,2.62h0l-.33.34L56.49,18.7l-1.58,1.58L53.59,21.6l1.32,1.31a1.82,1.82,0,0,0,1.31.54,1.87,1.87,0,0,0,1.31-.54L67.4,13A1.86,1.86,0,0,0,67.4,10.41ZM63,11.25h0l2.62-2.62L57.53.54a1.73,1.73,0,0,0-.45-.33.84.84,0,0,0-.2-.08,1.8,1.8,0,0,0-1.33,0,.64.64,0,0,0-.2.08,1.54,1.54,0,0,0-.44.33L45,10.41A1.86,1.86,0,0,0,45,13l1.31,1.31,2.9-2.89,7-7Zm-13.54.95-2.62,2.63,6.29,6.29,2.62-2.62Zm0,0-2.62,2.63,6.29,6.29,2.62-2.62Zm0,0-2.62,2.63,6.29,6.29,2.62-2.62Z"/><path class="cls-2" d="M59.32,22.08,56.7,24.7,63,31h0l2.62-2.62Zm8.08,8.08-1.31-1.31-2.62,2.62h0l-.39.4-6.85,6.85L49.45,32l-2.62,2.62,8.08,8.08.14.13a1.33,1.33,0,0,0,.46.27l.17.07.17,0,.15,0,.22,0h.18l.18,0a2,2,0,0,0,.35-.11,1.5,1.5,0,0,0,.45-.27l.15-.13,9.87-9.87A1.86,1.86,0,0,0,67.4,30.16Zm-9.87-9.88a1.92,1.92,0,0,0-2.62,0L53.59,21.6,45,30.16a1.86,1.86,0,0,0,0,2.62l1.31,1.31L58.84,21.6Z"/><path class="cls-2" d="M59.32,22.08,56.7,24.7,63,31h0l2.62-2.62Zm8.08,8.08-1.31-1.31-2.62,2.62h0l-.39.4-6.85,6.85L49.45,32l-2.62,2.62,8.08,8.08.14.13a1.33,1.33,0,0,0,.46.27l.17.07.17,0,.15,0,.22,0h.18l.18,0a2,2,0,0,0,.35-.11,1.5,1.5,0,0,0,.45-.27l.15-.13,9.87-9.87A1.86,1.86,0,0,0,67.4,30.16Zm-9.87-9.88a1.92,1.92,0,0,0-2.62,0L53.59,21.6,45,30.16a1.86,1.86,0,0,0,0,2.62l1.31,1.31L58.84,21.6Z"/><path class="cls-2" d="M59.32,22.08,56.7,24.7,63,31h0l2.62-2.62Zm0,0L56.7,24.7,63,31h0l2.62-2.62ZM67.4,10.41a1.86,1.86,0,0,0-2.62,0l-1.31,1.31-7,7-1.58,1.58a1.85,1.85,0,0,0,0,2.63l1.31,1.31,12.49-12.5Zm9.87,9.87L76,19,69.19,12.2l-2.62,2.63,6.77,6.77-9.87,9.87,1.31,1.31a1.84,1.84,0,0,0,1.31.54,1.87,1.87,0,0,0,1.31-.54l9.87-9.87a1.85,1.85,0,0,0,0-2.63Zm-17.95,1.8L56.7,24.7,63,31h0l2.62-2.62Zm0,0L56.7,24.7,63,31h0l2.62-2.62Z"/><path class="cls-2" d="M47.65,30.16l-1.31-1.31-2.62,2.62-.34.33-3.29,3.29a5.12,5.12,0,0,1-7.24,0,5.12,5.12,0,0,1,0-7.24l3.62-3.63L43.25,31l2.62-2.62L39.09,21.6l-1.31-1.32a1.92,1.92,0,0,0-2.62,0L33.85,21.6l-3.62,3.62a8.83,8.83,0,0,0,12.48,12.5l4.94-4.94a1.86,1.86,0,0,0,.55-1.31A1.82,1.82,0,0,0,47.65,30.16Z"/><path class="cls-2" d="M47.65,10.41,46.34,9.1l-2.62,2.62L36.47,19l-3.62-3.62A5.12,5.12,0,1,1,40.09,8.1l3.15,3.15,2.62-2.63L42.71,5.47a8.83,8.83,0,0,0-15.07,6.25A8.78,8.78,0,0,0,30.23,18l3.62,3.63,1.31,1.31a1.86,1.86,0,0,0,2.62,0L47.65,13a1.82,1.82,0,0,0,.55-1.31A1.86,1.86,0,0,0,47.65,10.41Z"/><path class="cls-2" d="M82.21,5.47a8.86,8.86,0,0,0-12.5,0l-3.29,3.3-1.64,1.64a1.86,1.86,0,0,0-.55,1.31A1.82,1.82,0,0,0,64.78,13l1.31,1.31L72.33,8.1a5.14,5.14,0,0,1,8.76,3.62,5.07,5.07,0,0,1-1.51,3.63L76,19,69.19,12.2l-2.62,2.63,8.08,8.08a1.86,1.86,0,0,0,2.62,0L82.21,18a8.84,8.84,0,0,0,0-12.5Z"/><path class="cls-2" d="M82.21,25.22,78.58,21.6l-1.31-1.32A1.85,1.85,0,0,0,76,19.74a1.89,1.89,0,0,0-1.31.54L73.34,21.6l-8.56,8.56a1.82,1.82,0,0,0-.55,1.31,1.86,1.86,0,0,0,.55,1.31l1.31,1.31L76,24.22l3.62,3.63a5.07,5.07,0,0,1,1.51,3.62,5.19,5.19,0,0,1-.39,2,5,5,0,0,1-1.12,1.66,5.13,5.13,0,0,1-7.25,0L69.19,32l-2.63,2.62,3.15,3.15a8.84,8.84,0,1,0,12.5-12.5Z"/><polygon class="cls-2" points="63.47 31.47 63.07 31.87 63.46 31.47 63.47 31.47"/><path class="cls-1" d="M19.44,62.86a4.34,4.34,0,0,0-1.8-1.47,16.1,16.1,0,0,0-3.3-1,20.16,20.16,0,0,1-2.3-.71,2.93,2.93,0,0,1-1.16-.73,1.52,1.52,0,0,1-.38-1,1.61,1.61,0,0,1,.74-1.42,3.6,3.6,0,0,1,2-.48,3.51,3.51,0,0,1,1.95.5,1.78,1.78,0,0,1,.91,1.24.69.69,0,0,0,.7.42H19a.45.45,0,0,0,.35-.15.51.51,0,0,0,.14-.34,3.68,3.68,0,0,0-.78-2,5.46,5.46,0,0,0-2.14-1.69,6.58,6.58,0,0,0-1.71-.54,9.36,9.36,0,0,0-1.63-.13,9.52,9.52,0,0,0-1.65.13,6.84,6.84,0,0,0-1.57.47A4.88,4.88,0,0,0,7.9,55.51a4.08,4.08,0,0,0-.75,2.41A3.77,3.77,0,0,0,8.43,61a10,10,0,0,0,4,1.73c1.11.29,2,.54,2.52.75a3.49,3.49,0,0,1,1.27.74,1.4,1.4,0,0,1,.42,1,1.7,1.7,0,0,1-.83,1.5,4.42,4.42,0,0,1-2.45.55,4.21,4.21,0,0,1-2.27-.53,2.42,2.42,0,0,1-1.06-1.33,1.21,1.21,0,0,0-.3-.33A.77.77,0,0,0,9.34,65H7.22a.47.47,0,0,0-.35.15.49.49,0,0,0-.14.34,3.92,3.92,0,0,0,.82,2.23,5.3,5.3,0,0,0,2.26,1.65,7.34,7.34,0,0,0,1.94.52,12.09,12.09,0,0,0,1.64.11A12.31,12.31,0,0,0,15,69.89a8.7,8.7,0,0,0,1.84-.47,5.11,5.11,0,0,0,2.32-1.69A4.27,4.27,0,0,0,20,65.11,4,4,0,0,0,19.44,62.86Z"/><path class="cls-1" d="M35.88,53.64a.53.53,0,0,0-.41-.16H33.31a.54.54,0,0,0-.4.16.57.57,0,0,0-.16.42v6H26v-6a.55.55,0,0,0-.58-.58H23.2a.55.55,0,0,0-.38.16.6.6,0,0,0-.15.42V69.21a.54.54,0,0,0,.17.4.5.5,0,0,0,.36.15h2.17a.61.61,0,0,0,.42-.16.54.54,0,0,0,.16-.4V63h6.8v6.21a.54.54,0,0,0,.16.4.58.58,0,0,0,.4.16h2.16a.53.53,0,0,0,.56-.56V54.06A.6.6,0,0,0,35.88,53.64Z"/><path class="cls-1" d="M53.62,69.07,48,54.06a.85.85,0,0,0-.84-.58H44.64a.85.85,0,0,0-.84.58l-4.1,11-1.48,4,0,.21a.48.48,0,0,0,.49.49h2.07a.67.67,0,0,0,.67-.44l1.08-2.82h6.88l1.07,2.82a.69.69,0,0,0,.68.44h2.07a.51.51,0,0,0,.34-.14.45.45,0,0,0,.15-.35ZM43.29,63.81l2.63-7.17,2.63,7.17Z"/><path class="cls-1" d="M68.77,69,65.4,63.09a4.63,4.63,0,0,0,2.28-1.66,4.85,4.85,0,0,0,.81-2.86,4.57,4.57,0,0,0-1.62-3.76,6.82,6.82,0,0,0-4.48-1.33h-6l-.17,0a.48.48,0,0,0-.24.14.6.6,0,0,0-.15.42V69.21a.54.54,0,0,0,.16.4.53.53,0,0,0,.23.13.47.47,0,0,0,.17,0h2.14a.61.61,0,0,0,.42-.16.54.54,0,0,0,.16-.4V63.62h3.19l3,5.52a1.4,1.4,0,0,0,.37.45.86.86,0,0,0,.58.18h2.14a.49.49,0,0,0,.34-.14.45.45,0,0,0,.15-.35A.54.54,0,0,0,68.77,69Zm-4.35-8.66a3.09,3.09,0,0,1-2.09.61H59.09V56.09h3.24a3,3,0,0,1,2.09.63,2.35,2.35,0,0,1,.7,1.83A2.29,2.29,0,0,1,64.42,60.36Z"/><path class="cls-1" d="M74.69,53.63a.54.54,0,0,0-.4-.15H72.05a.54.54,0,0,0-.39.15.53.53,0,0,0-.17.41V69.21a.54.54,0,0,0,.17.4.55.55,0,0,0,.39.16h2.24a.54.54,0,0,0,.4-.16.57.57,0,0,0,.15-.4V54A.56.56,0,0,0,74.69,53.63Z"/><path class="cls-1" d="M90.06,53.64a.57.57,0,0,0-.42-.16H77.75a.51.51,0,0,0-.4.16.57.57,0,0,0-.16.42v1.75a.57.57,0,0,0,.17.42.55.55,0,0,0,.39.16h4.31V69.21a.54.54,0,0,0,.16.4.58.58,0,0,0,.4.16H84.8a.53.53,0,0,0,.56-.56V56.39h4.28a.61.61,0,0,0,.42-.16.57.57,0,0,0,.17-.42V54.06A.57.57,0,0,0,90.06,53.64Z"/><path class="cls-1" d="M105.56,53.62a.48.48,0,0,0-.35-.14h-2.09a.65.65,0,0,0-.43.14,1,1,0,0,0-.27.3l-3.93,6.75-3.91-6.75a.85.85,0,0,0-.73-.44H91.76a.51.51,0,0,0-.34.14.45.45,0,0,0-.15.35,1.07,1.07,0,0,0,.07.25L96.86,64v5.24a.54.54,0,0,0,.16.4.58.58,0,0,0,.4.16h2.14a.6.6,0,0,0,.42-.15.57.57,0,0,0,.16-.41V64l5.49-9.75a.43.43,0,0,0,.07-.25A.48.48,0,0,0,105.56,53.62Z"/><path class="cls-1" d="M19.44,62.86a4.34,4.34,0,0,0-1.8-1.47,16.1,16.1,0,0,0-3.3-1,20.16,20.16,0,0,1-2.3-.71,2.93,2.93,0,0,1-1.16-.73,1.52,1.52,0,0,1-.38-1,1.61,1.61,0,0,1,.74-1.42,3.6,3.6,0,0,1,2-.48,3.51,3.51,0,0,1,1.95.5,1.78,1.78,0,0,1,.91,1.24.69.69,0,0,0,.7.42H19a.45.45,0,0,0,.35-.15.51.51,0,0,0,.14-.34,3.68,3.68,0,0,0-.78-2,5.46,5.46,0,0,0-2.14-1.69,6.58,6.58,0,0,0-1.71-.54,9.36,9.36,0,0,0-1.63-.13,9.52,9.52,0,0,0-1.65.13,6.84,6.84,0,0,0-1.57.47A4.88,4.88,0,0,0,7.9,55.51a4.08,4.08,0,0,0-.75,2.41A3.77,3.77,0,0,0,8.43,61a10,10,0,0,0,4,1.73c1.11.29,2,.54,2.52.75a3.49,3.49,0,0,1,1.27.74,1.4,1.4,0,0,1,.42,1,1.7,1.7,0,0,1-.83,1.5,4.42,4.42,0,0,1-2.45.55,4.21,4.21,0,0,1-2.27-.53,2.42,2.42,0,0,1-1.06-1.33,1.21,1.21,0,0,0-.3-.33A.77.77,0,0,0,9.34,65H7.22a.47.47,0,0,0-.35.15.49.49,0,0,0-.14.34,3.92,3.92,0,0,0,.82,2.23,5.3,5.3,0,0,0,2.26,1.65,7.34,7.34,0,0,0,1.94.52,12.09,12.09,0,0,0,1.64.11A12.31,12.31,0,0,0,15,69.89a8.7,8.7,0,0,0,1.84-.47,5.11,5.11,0,0,0,2.32-1.69A4.27,4.27,0,0,0,20,65.11,4,4,0,0,0,19.44,62.86Z"/><path class="cls-1" d="M35.88,53.64a.53.53,0,0,0-.41-.16H33.31a.54.54,0,0,0-.4.16.57.57,0,0,0-.16.42v6H26v-6a.55.55,0,0,0-.58-.58H23.2a.55.55,0,0,0-.38.16.6.6,0,0,0-.15.42V69.21a.54.54,0,0,0,.17.4.5.5,0,0,0,.36.15h2.17a.61.61,0,0,0,.42-.16.54.54,0,0,0,.16-.4V63h6.8v6.21a.54.54,0,0,0,.16.4.58.58,0,0,0,.4.16h2.16a.53.53,0,0,0,.56-.56V54.06A.6.6,0,0,0,35.88,53.64Z"/><path class="cls-1" d="M53.62,69.07,48,54.06a.85.85,0,0,0-.84-.58H44.64a.85.85,0,0,0-.84.58l-4.1,11-1.48,4,0,.21a.48.48,0,0,0,.49.49h2.07a.67.67,0,0,0,.67-.44l1.08-2.82h6.88l1.07,2.82a.69.69,0,0,0,.68.44h2.07a.51.51,0,0,0,.34-.14.45.45,0,0,0,.15-.35ZM43.29,63.81l2.63-7.17,2.63,7.17Z"/><path class="cls-1" d="M68.77,69,65.4,63.09a4.63,4.63,0,0,0,2.28-1.66,4.85,4.85,0,0,0,.81-2.86,4.57,4.57,0,0,0-1.62-3.76,6.82,6.82,0,0,0-4.48-1.33h-6l-.17,0a.48.48,0,0,0-.24.14.6.6,0,0,0-.15.42V69.21a.54.54,0,0,0,.16.4.53.53,0,0,0,.23.13.47.47,0,0,0,.17,0h2.14a.61.61,0,0,0,.42-.16.54.54,0,0,0,.16-.4V63.62h3.19l3,5.52a1.4,1.4,0,0,0,.37.45.86.86,0,0,0,.58.18h2.14a.49.49,0,0,0,.34-.14.45.45,0,0,0,.15-.35A.54.54,0,0,0,68.77,69Zm-4.35-8.66a3.09,3.09,0,0,1-2.09.61H59.09V56.09h3.24a3,3,0,0,1,2.09.63,2.35,2.35,0,0,1,.7,1.83A2.29,2.29,0,0,1,64.42,60.36Z"/><path class="cls-1" d="M74.69,53.63a.54.54,0,0,0-.4-.15H72.05a.54.54,0,0,0-.39.15.53.53,0,0,0-.17.41V69.21a.54.54,0,0,0,.17.4.55.55,0,0,0,.39.16h2.24a.54.54,0,0,0,.4-.16.57.57,0,0,0,.15-.4V54A.56.56,0,0,0,74.69,53.63Z"/><path class="cls-1" d="M90.06,53.64a.57.57,0,0,0-.42-.16H77.75a.51.51,0,0,0-.4.16.57.57,0,0,0-.16.42v1.75a.57.57,0,0,0,.17.42.55.55,0,0,0,.39.16h4.31V69.21a.54.54,0,0,0,.16.4.58.58,0,0,0,.4.16H84.8a.53.53,0,0,0,.56-.56V56.39h4.28a.61.61,0,0,0,.42-.16.57.57,0,0,0,.17-.42V54.06A.57.57,0,0,0,90.06,53.64Z"/><path class="cls-1" d="M105.56,53.62a.48.48,0,0,0-.35-.14h-2.09a.65.65,0,0,0-.43.14,1,1,0,0,0-.27.3l-3.93,6.75-3.91-6.75a.85.85,0,0,0-.73-.44H91.76a.51.51,0,0,0-.34.14.45.45,0,0,0-.15.35,1.07,1.07,0,0,0,.07.25L96.86,64v5.24a.54.54,0,0,0,.16.4.58.58,0,0,0,.4.16h2.14a.6.6,0,0,0,.42-.15.57.57,0,0,0,.16-.41V64l5.49-9.75a.43.43,0,0,0,.07-.25A.48.48,0,0,0,105.56,53.62Z"/><path class="cls-1" d="M107.61,56a.28.28,0,0,1-.08-.2V54H107c-.18,0-.26-.07-.26-.23s.08-.22.26-.22h1.72c.18,0,.27.07.27.22s-.09.23-.27.23h-.58v1.82a.27.27,0,0,1-.07.2.28.28,0,0,1-.21.07A.27.27,0,0,1,107.61,56Z"/><path class="cls-1" d="M111.53,53.56a.26.26,0,0,1,.07.2v2a.24.24,0,0,1-.25.26.24.24,0,0,1-.17-.07.25.25,0,0,1-.07-.19V54.53l-.51.95a.33.33,0,0,1-.11.14.27.27,0,0,1-.28,0,.33.33,0,0,1-.11-.14l-.51-.94v1.25a.25.25,0,0,1-.07.19.27.27,0,0,1-.18.07.24.24,0,0,1-.17-.07.25.25,0,0,1-.07-.19v-2a.26.26,0,0,1,.07-.2.22.22,0,0,1,.19-.08.28.28,0,0,1,.26.18l.73,1.38.73-1.38a.29.29,0,0,1,.26-.18A.24.24,0,0,1,111.53,53.56Z"/></svg>