<svg width="156" height="173" viewBox="0 0 156 173" fill="none" xmlns="http://www.w3.org/2000/svg">
<g clip-path="url(#clip0)">
<path d="M129.889 17.85V153.117H21.5547V17.85H129.889ZM134.06 13.3967H17.3489V157.533H134.06V13.3967Z" fill="#F5EDE1"/>
<path d="M129.889 17.85V153.117H21.5547V17.85H129.889ZM134.06 13.3967H17.3489V157.533H134.06V13.3967Z" fill="white"/>
<path d="M134.41 91.9219V92.9981C130.87 94.2227 129.819 95.2618 129.819 95.2618L129.539 94.3711C129.854 94.1856 130.134 94.0371 130.45 93.8516C131.641 93.2207 132.833 92.627 134.06 92.0703C134.2 92.0332 134.305 91.959 134.41 91.9219Z" fill="#333333"/>
<path d="M21.5547 83.4979C21.5547 83.4979 18.891 85.1678 17.1737 85.4647L16.9283 84.0545L22.0804 81.4197L21.9403 83.4236L21.5547 83.4979Z" fill="#333333"/>
<path d="M15.1821 74.7805C15.5527 69.5892 14.3352 65.2594 12.4629 65.1095C10.5906 64.9597 8.77235 69.0466 8.40179 74.2378C8.03123 79.4291 9.24866 83.7589 11.121 83.9088C12.9933 84.0586 14.8116 79.9717 15.1821 74.7805Z" fill="#333333"/>
<path d="M11.1103 85.6502C11.0753 85.6502 11.0402 85.6502 10.9701 85.6502C10.5145 85.6131 10.0939 85.3533 9.77848 84.9822C7.53539 81.865 6.44889 78.0055 6.72928 74.1089C7.00967 70.2124 8.62189 66.5756 11.2856 63.8665C11.636 63.5325 12.0917 63.347 12.5473 63.3841C13.0029 63.4212 13.4235 63.681 13.7389 64.0521C15.982 67.1693 17.0685 71.0288 16.7881 74.9254C16.5078 78.8219 14.8955 82.4587 12.2319 85.1678C11.9515 85.4647 11.5309 85.6502 11.1103 85.6502ZM12.2319 67.9857C10.9351 69.8413 10.164 72.0679 10.0238 74.3687C9.84858 76.7066 10.3042 79.0075 11.3206 81.0485C12.6174 79.193 13.3885 76.9664 13.5286 74.6656C13.7039 72.3276 13.2483 70.0268 12.2319 67.9857Z" fill="white"/>
<path d="M16.718 98.3421C16.718 98.3421 19.4518 100.049 22.1505 100.235C24.8493 100.42 21.73 98.3421 21.73 98.3421L17.0335 96.9319L16.718 98.3421Z" fill="#333333"/>
<path d="M23.9177 97.6177C25.184 96.1499 23.2678 92.1139 19.6379 88.6031C16.008 85.0923 12.0389 83.4361 10.7726 84.9039C9.50639 86.3717 11.4225 90.4076 15.0524 93.9184C18.6823 97.4292 22.6515 99.0854 23.9177 97.6177Z" fill="#333333"/>
<path d="M23.938 99.3441C20.2229 99.307 16.683 97.8226 13.9492 95.1878C11.2154 92.5529 9.49807 88.9532 9.14759 85.0567C9.11254 84.5742 9.25274 84.0918 9.56817 83.7207C9.88361 83.3496 10.3042 83.1641 10.7598 83.1641C10.7598 83.1641 10.7598 83.1641 10.7949 83.1641C14.4749 83.2012 18.0148 84.6856 20.7486 87.3204C23.4823 89.9552 25.1997 93.5549 25.5502 97.4515C25.5852 97.9339 25.4451 98.4163 25.1296 98.7874C24.8492 99.1585 24.3936 99.3441 23.938 99.3441ZM12.7926 86.838C13.3884 89.0646 14.545 91.0685 16.1573 92.6272C17.7695 94.1858 19.7672 95.262 21.9052 95.6702C21.3094 93.4436 20.1528 91.4396 18.5405 89.881C16.9283 88.3224 14.9306 87.2833 12.7926 86.838Z" fill="white"/>
<path d="M92.3873 157.57C92.3873 157.57 92.3172 152.82 92.9131 152.115C93.5089 151.41 91.2658 151.892 91.2658 151.892L90.8802 158.015L92.3873 157.57Z" fill="#333333"/>
<path d="M128.118 86.8201C128.589 81.6382 127.456 77.2829 125.587 77.0923C123.718 76.9017 121.821 80.9479 121.35 86.1298C120.878 91.3117 122.011 95.667 123.88 95.8576C125.749 96.0482 127.646 92.002 128.118 86.8201Z" fill="#333333"/>
<path d="M123.896 97.5997C123.861 97.5997 123.791 97.5997 123.756 97.5997C123.3 97.5626 122.879 97.3029 122.599 96.8946C120.426 93.7403 119.41 89.8808 119.76 85.9842C120.111 82.0877 121.793 78.488 124.527 75.8161C124.877 75.4821 125.333 75.2965 125.788 75.3707C126.244 75.4078 126.665 75.6676 126.945 76.0758C129.118 79.2302 130.134 83.0897 129.784 86.9862C129.433 90.8828 127.751 94.4825 125.017 97.1544C124.702 97.4513 124.281 97.5997 123.896 97.5997ZM125.333 79.9724C124.001 81.7908 123.195 83.9803 122.984 86.3182C122.774 88.6562 123.195 90.957 124.141 92.9981C125.473 91.1797 126.279 88.9902 126.489 86.6522C126.7 84.3143 126.279 82.0135 125.333 79.9724Z" fill="white"/>
<path d="M50.6098 54.5891C50.5747 54.6634 50.5397 54.7005 50.5046 54.7747C50.5397 54.7005 50.5747 54.6634 50.6098 54.5891C50.8902 54.1809 51.1355 53.7356 51.3808 53.3274C51.1005 53.7356 50.8201 54.1809 50.6098 54.5891Z" fill="white"/>
<path d="M52.6426 51.1006C52.6075 51.4717 52.4673 51.7686 52.2921 52.0283C52.1869 52.1397 52.0818 52.2881 51.9416 52.3623C52.0467 52.1768 52.1519 52.0283 52.222 51.8428C52.3622 51.6201 52.5024 51.3604 52.6426 51.1006Z" fill="white"/>
<path d="M72.3748 59.6732C71.849 58.8939 70.8326 58.7084 70.0966 59.265C69.8863 59.4135 69.676 59.5619 69.4658 59.7475C69.3256 59.8588 69.1503 59.9701 69.0101 60.0814C68.9751 60.1186 68.905 60.1557 68.8699 60.1928C68.8349 60.2299 68.7998 60.2299 68.7648 60.267C68.6596 60.3412 68.5545 60.4154 68.4494 60.4897C68.4494 60.4897 68.4494 60.4897 68.4143 60.4897C67.6783 61.0092 67.433 62.0483 67.8886 62.8647C68.204 63.3843 68.7297 63.6811 69.2905 63.6811C69.5709 63.6811 69.8863 63.6069 70.1667 63.4214C70.342 63.31 70.5172 63.1987 70.6574 63.0874C70.8677 62.9389 71.113 62.7905 71.3233 62.6049C71.5336 62.4565 71.7789 62.271 71.9892 62.1225C72.0243 62.0854 72.0243 62.0854 72.0593 62.0483C72.7603 61.4545 72.9005 60.4526 72.3748 59.6732Z" fill="white"/>
<path d="M70.1317 63.4212C66.6268 65.7963 62.3159 68.0229 57.339 70.0268H57.304C56.9886 70.1753 56.6381 70.2866 56.2876 70.435C55.5516 70.7319 54.7805 71.0288 54.0095 71.2886C53.694 71.3999 53.3786 71.5112 53.0631 71.6226C53.0631 71.6226 53.0632 71.6226 53.0281 71.6226C52.9931 71.6226 52.9931 71.6226 52.958 71.6597H52.923C52.7127 71.7339 52.4673 71.8081 52.257 71.8823C48.0512 73.3667 44.5464 74.2945 42.6889 74.7398C42.4435 74.814 42.2332 74.8512 42.058 74.8883L42.3033 71.2515C42.4786 71.2144 42.6889 71.1401 42.8641 71.103C44.8969 70.5464 48.1914 69.6557 51.9066 68.3198C51.9416 68.3198 51.9416 68.3198 51.9767 68.2826C52.0117 68.2826 52.0468 68.2455 52.0818 68.2455C52.3622 68.1342 52.6426 68.0229 52.958 67.9487C53.3435 67.8002 53.7291 67.6518 54.0796 67.5404C54.1146 67.5033 54.1847 67.5033 54.2197 67.4662C54.8857 67.2065 55.5516 66.9467 56.1825 66.6869C60.949 64.7572 65.0847 62.6048 68.4143 60.3782C67.6783 60.8977 67.433 61.9368 67.8886 62.7532C68.204 63.2728 68.7297 63.5697 69.2905 63.5697C69.5709 63.681 69.8863 63.5696 70.1317 63.4212Z" fill="white"/>
<path d="M107.809 81.9392C106.757 79.5641 104.584 78.1168 101.675 77.8199C97.4343 77.3746 91.0204 80.4548 85.6931 85.4647C85.6581 85.5018 85.623 85.5389 85.5529 85.576L85.5179 85.6131C85.4828 85.6502 85.4478 85.6873 85.4127 85.7244C84.8519 86.4666 84.9571 87.5799 85.6931 88.1737C86.324 88.6932 87.2352 88.6561 87.796 88.0995C87.796 88.0995 87.796 88.0995 87.831 88.0995C87.831 88.0995 87.831 88.0995 87.8661 88.0624C92.9832 83.238 98.5558 80.9743 101.36 81.2712C102.551 81.3825 104.129 81.865 104.829 83.4236C105.566 85.0936 105.04 87.5799 103.357 90.2148C103.322 90.2519 103.322 90.289 103.287 90.3261C102.762 91.1054 102.972 92.1816 103.708 92.7383C103.988 92.9238 104.304 93.0351 104.619 93.0351C105.04 93.0351 105.46 92.8496 105.776 92.5156C105.811 92.4785 105.846 92.4414 105.881 92.4043C105.916 92.3672 105.951 92.33 105.986 92.2929C108.404 88.5448 109.07 84.7967 107.809 81.9392Z" fill="white"/>
<path d="M99.6774 112.332C99.2568 112.332 98.8362 112.147 98.5208 111.813C97.8899 111.145 97.8899 110.032 98.5208 109.364C98.5558 109.326 98.6259 109.252 98.661 109.215C99.2918 108.658 100.238 108.733 100.834 109.364C101.465 110.032 101.465 111.145 100.834 111.813C100.799 111.85 100.729 111.924 100.694 111.961C100.413 112.184 100.028 112.332 99.6774 112.332Z" fill="white"/>
<path d="M87.8661 85.5009C87.2703 84.8701 86.324 84.8701 85.6931 85.4267C85.6581 85.4638 85.623 85.5009 85.5529 85.538L85.5179 85.5752C84.7118 86.4287 83.9057 87.3565 83.1346 88.3584C81.7677 90.1397 80.5761 91.9952 79.6298 93.925C79.6298 93.925 79.6298 93.9621 79.5947 93.9621C79.5597 94.0363 79.5246 94.0734 79.4896 94.1476C79.4896 94.1476 79.4896 94.1476 79.4896 94.1847C79.1041 95.0383 79.4545 96.0774 80.2606 96.4856C80.4709 96.5969 80.7163 96.6711 80.9616 96.6711C81.5574 96.6711 82.1182 96.3371 82.4336 95.7434C82.4336 95.7434 82.4336 95.7434 82.4336 95.7063C82.4336 95.7063 82.4336 95.6691 82.4687 95.6691C83.3449 93.925 84.4314 92.2179 85.6581 90.585C86.359 89.6944 87.06 88.8409 87.8311 88.0615L87.8661 88.0244L87.9012 87.9873C88.5671 87.2822 88.532 86.1689 87.8661 85.5009Z" fill="white"/>
<path d="M82.3635 116.6C82.0481 116.6 81.7677 116.526 81.4873 116.34C80.7163 115.858 80.4709 114.782 80.9266 113.965C81.3822 113.149 82.3986 112.889 83.1697 113.371H83.2047C83.3449 113.446 83.4851 113.557 83.5902 113.705C84.186 114.41 84.151 115.524 83.4851 116.155C83.1346 116.452 82.7491 116.6 82.3635 116.6Z" fill="white"/>
<path d="M79.8751 104.502C79.8751 104.539 79.8751 104.539 79.8751 104.502C79.8751 104.539 79.8751 104.539 79.8751 104.576V104.651C79.805 105.578 79.104 106.246 78.2278 106.246C78.1928 106.246 78.1577 106.246 78.0876 106.246C77.1764 106.172 76.5105 105.356 76.5806 104.391V104.28C76.6156 103.649 76.9661 103.166 77.4568 102.869C77.7372 102.721 78.0175 102.647 78.368 102.684C78.7185 102.721 79.0339 102.869 79.2793 103.055L79.2442 103.203L79.1741 103.5C79.1741 103.5 79.4195 103.574 79.6998 103.686C79.84 103.908 79.9101 104.205 79.8751 104.502Z" fill="white"/>
<path d="M151.549 86.3923C151.549 86.7634 151.479 87.0603 151.304 87.3572C151.023 87.8396 150.532 88.1736 149.972 88.1736C147.764 88.2478 145.556 88.5447 143.348 88.99C142.612 89.1385 141.911 89.324 141.175 89.5096C140.859 89.5838 140.544 89.6951 140.228 89.7694C139.667 89.9178 139.107 90.1033 138.546 90.2889C138.02 90.4744 137.459 90.66 136.934 90.8456C136.794 90.9198 136.618 90.9569 136.443 91.0311C136.093 91.1795 135.742 91.2909 135.392 91.4393C135.076 91.5878 134.726 91.6991 134.41 91.8475C134.305 91.8846 134.165 91.9589 134.06 91.996C132.868 92.5155 131.641 93.1093 130.45 93.7773C130.134 93.9257 129.819 94.1113 129.539 94.2968C123.265 97.8223 117.272 102.795 111.874 108.992L111.454 117.565L109.526 152.189L109.491 153.079H106.196L106.231 152.189L108.159 117.379L108.369 113.334C106.091 116.34 104.023 119.532 102.131 122.872C96.7333 132.446 93.2635 142.837 91.9667 153.116C91.8966 153.599 91.8616 154.044 91.7915 154.527V154.564C91.6513 155.603 91.5812 156.605 91.5462 157.57C91.3709 161.763 92.1069 165.103 93.6491 167.218C94.6304 168.554 95.8921 169.297 97.3642 169.482C98.8713 169.668 100.448 169.074 101.815 167.812C103.953 165.845 105.39 162.505 105.811 158.46C105.846 158.163 105.881 157.867 105.881 157.57H109.175C109.14 157.867 109.14 158.163 109.105 158.46C108.65 163.582 106.827 167.775 103.953 170.41C102.131 172.08 100.028 172.97 97.8899 172.97C97.6095 172.97 97.2941 172.97 97.0137 172.933C94.6655 172.636 92.5976 171.412 91.0905 169.371C89.0577 166.625 88.1114 162.58 88.2867 157.607C88.3217 156.494 88.4269 155.38 88.5671 154.193C88.6021 153.859 88.6372 153.525 88.6722 153.191C89.9339 142.317 93.614 131.296 99.3269 121.165C102.061 116.34 105.18 111.813 108.65 107.694L108.86 103.203L109.211 96.4492C109.211 96.2265 109.281 96.0039 109.351 95.8183V95.7812C109.351 95.7441 109.386 95.707 109.421 95.6699C109.456 95.5957 109.491 95.5214 109.561 95.4843C109.596 95.4472 109.596 95.4101 109.631 95.373C109.666 95.3359 109.701 95.2988 109.736 95.2617C109.771 95.2246 109.806 95.1874 109.841 95.1503C109.876 95.1132 109.911 95.0761 109.947 95.0761C110.017 95.0019 110.087 94.9648 110.192 94.9277C110.227 94.9277 110.262 94.8906 110.297 94.8906C110.332 94.8906 110.367 94.8535 110.402 94.8535C110.437 94.8535 110.437 94.8535 110.472 94.8163C110.507 94.8163 110.577 94.7792 110.612 94.7792C110.647 94.7792 110.683 94.7792 110.753 94.7421C110.823 94.7421 110.858 94.7421 110.928 94.7421C111.839 94.7421 112.575 95.5214 112.575 96.4863V96.5976L112.225 103.797C115.239 100.643 118.428 97.8594 121.723 95.4472C122.178 95.1132 122.634 94.7792 123.09 94.4824C124.281 93.6659 125.473 92.8866 126.7 92.1444C127.471 91.662 128.242 91.2167 129.048 90.8084C129.539 90.5487 130.064 90.2889 130.555 90.0291C131.747 89.4354 132.938 88.8787 134.165 88.3592C134.41 88.2478 134.656 88.1736 134.901 88.0623C135.076 87.9881 135.251 87.9138 135.427 87.8767C135.812 87.7283 136.233 87.5799 136.618 87.4314C137.635 87.0603 138.686 86.7263 139.703 86.4294C141.21 85.9841 142.717 85.6501 144.189 85.3904C145.135 85.2048 146.046 85.0935 146.958 84.9821C147.694 84.9079 148.43 84.8337 149.166 84.7966C149.411 84.7966 149.691 84.7595 149.937 84.7595C150.497 84.7224 151.023 85.0192 151.304 85.4646C151.444 85.7243 151.549 86.0583 151.549 86.3923Z" fill="white"/>
<path d="M59.7924 17.8498H63.087C63.0519 18.1467 63.0169 18.4435 62.9818 18.7404C62.9818 18.7775 62.9818 18.7775 62.9818 18.8146C62.1757 26.4965 60.178 34.2525 57.1288 41.7488C56.9185 42.2312 56.7432 42.7136 56.5329 43.159C55.3763 45.868 54.0795 48.5028 52.6426 51.1005C52.5024 51.3603 52.3622 51.6201 52.222 51.8428C52.1168 52.0283 52.0467 52.1767 51.9416 52.3623C51.7664 52.6592 51.6262 52.9561 51.4509 53.2529C51.4509 53.2901 51.4159 53.29 51.4159 53.3272C51.1355 53.7725 50.8902 54.1807 50.6448 54.5889C50.6098 54.6631 50.5747 54.7002 50.5397 54.7745C50.5046 54.8116 50.4696 54.8487 50.4696 54.9229C48.1213 58.7453 45.5278 62.3078 42.7239 65.5735L42.3384 70.9545L42.3033 71.3256L42.058 74.9624L41.9879 76.0757L40.3757 99.5665C40.3056 100.494 39.6046 101.162 38.7284 101.162C38.6933 101.162 38.6583 101.162 38.6232 101.162C37.712 101.088 37.0461 100.272 37.1162 99.3067L39.184 69.4701C36.0297 72.6987 32.7001 75.5933 29.1953 78.0797C26.4965 79.9723 23.7628 81.6423 21.029 83.0153C19.8374 83.6091 18.6457 84.1658 17.419 84.6482C17.3489 84.6853 17.2788 84.7224 17.2087 84.7224C16.4377 85.0193 15.6666 85.3162 14.9306 85.6131C13.6688 86.0584 12.4071 86.4666 11.1454 86.8006C10.6196 86.949 10.0939 87.0604 9.5682 87.2088C6.93958 87.8026 4.346 88.1366 1.75243 88.2479C0.841169 88.285 0.105155 87.5428 0.0701066 86.5779C0.0350583 85.6131 0.736024 84.8337 1.64728 84.7966C4.10066 84.7224 6.58909 84.3884 9.07752 83.7947C9.32286 83.7204 9.5682 83.6833 9.81354 83.6091C10.129 83.5349 10.4444 83.4607 10.7949 83.3493C10.9701 83.3122 11.1103 83.2751 11.2856 83.2009C11.5309 83.1267 11.8113 83.0525 12.0566 82.9782C12.9328 82.7185 13.809 82.3845 14.6853 82.0876C15.5965 81.7536 16.5078 81.3825 17.419 80.9743C18.6107 80.4176 19.8374 79.861 21.029 79.193C27.6531 75.6304 33.9969 70.5092 39.5695 64.1262L40.1654 55.3682L42.2683 17.8869L42.3384 16.4767C42.3734 15.4376 42.4435 14.3985 42.5837 13.4337C43.2146 8.832 44.9319 5.04675 47.5956 2.59748C49.6635 0.704855 52.1519 -0.2229 54.5702 0.0739815C56.9185 0.370863 58.9863 1.5955 60.4934 3.63656C62.2458 6.01162 63.1921 9.35154 63.3323 13.4337H60.0378C59.9326 10.168 59.1966 7.53314 57.8998 5.78896C56.9185 4.45299 55.6567 3.71078 54.1847 3.52523C54.0095 3.48812 53.8342 3.48812 53.659 3.48812C52.3271 3.48812 50.9602 4.08189 49.7336 5.19519C47.841 6.93937 46.5442 9.72264 45.9483 13.0997C45.9133 13.211 45.9133 13.3223 45.8782 13.3966C45.703 14.3985 45.6329 15.4747 45.5979 16.5509C45.5979 16.588 45.5979 16.588 45.5979 16.6251L45.5278 17.8498L45.4927 18.4435L43.4249 55.5167L43.1445 59.673C44.7917 57.5206 46.3339 55.2569 47.8059 52.8818C47.8059 52.8818 47.8059 52.8818 47.8059 52.8447C48.1213 52.3252 48.4368 51.8056 48.7172 51.2861C48.7172 51.2861 48.7172 51.2861 48.7172 51.249C48.9625 50.8408 49.2078 50.4326 49.4181 50.0243C54.9908 40.1159 58.5657 29.2797 59.6873 18.6662C59.6873 18.5549 59.7223 18.4807 59.7223 18.3693C59.7223 18.3693 59.7223 18.3322 59.7223 18.2951C59.7574 18.1838 59.7574 18.0353 59.7924 17.8498Z" fill="white"/>
<path d="M48.6821 51.3604C48.3667 51.8799 48.0863 52.3994 47.7708 52.919C48.0162 52.3994 48.3316 51.8799 48.6821 51.3604Z" fill="white"/>
<path d="M71.9892 62.0855C71.7439 62.271 71.5336 62.4195 71.3233 62.5679C71.078 62.7535 70.8677 62.9019 70.6574 63.0503C70.4822 63.1617 70.342 63.273 70.1667 63.3843C69.8863 63.5699 69.6059 63.6441 69.2905 63.6441C68.7297 63.6441 68.204 63.3472 67.8886 62.8277C67.3979 62.0113 67.6432 60.9722 68.4143 60.4526C68.4143 60.4526 68.4143 60.4526 68.4494 60.4526C68.5545 60.3784 68.6596 60.3042 68.7648 60.23C68.7998 60.1929 68.8349 60.1929 68.8699 60.1557C68.94 60.1186 68.9751 60.0815 69.0101 60.0444C69.1503 59.9331 69.3256 59.8217 69.4658 59.7104C69.676 59.562 69.8863 59.4135 70.0966 59.228C77.3166 53.8099 81.3121 46.2765 78.9638 42.4913C77.8423 40.6729 75.2838 39.8193 71.8841 40.1533C68.0638 40.5244 63.7178 42.2686 59.6172 45.089C57.5493 46.4992 55.6567 48.132 54.0445 49.8762C53.4136 50.5813 52.8178 51.2864 52.257 51.9915C52.257 51.9915 52.257 51.9915 52.222 52.0286C51.9416 52.4368 51.6262 52.845 51.3808 53.2532C51.5561 52.9564 51.7313 52.6595 51.8715 52.3626C51.9766 52.177 52.0818 52.0286 52.1519 51.843C52.2921 51.5833 52.4323 51.3235 52.5725 51.1008C54.0094 48.5031 55.3062 45.8683 56.4628 43.1593C56.7783 42.8995 57.1287 42.6768 57.4792 42.4171C57.5844 42.3428 57.6895 42.2686 57.7947 42.1944C62.3159 39.0771 67.1876 37.1474 71.5336 36.7392C76.2651 36.2939 79.8401 37.6669 81.6626 40.6358C85.1323 46.1281 80.9265 55.3685 71.9892 62.0855Z" fill="white"/>
<path d="M77.5619 99.3439C77.4217 99.8635 77.2815 100.42 77.1413 100.94C77.0012 101.533 76.896 102.127 76.7909 102.721C70.4121 101.199 64.594 97.4513 60.2831 91.9961C56.0072 86.578 53.4837 79.7497 53.0632 72.6246C53.0281 72.2906 53.0281 71.9566 53.0281 71.6226C53.0281 71.6226 53.0281 71.6226 53.0632 71.6226C53.3786 71.5113 53.694 71.3999 54.0095 71.2886C54.7805 70.9917 55.5516 70.7319 56.2876 70.4351V70.5464C56.2876 70.8804 56.2876 71.2144 56.3226 71.5484C56.7082 85.1307 65.4352 96.5236 77.5619 99.3439Z" fill="white"/>
<path d="M78.368 102.684C78.7185 102.721 79.0339 102.869 79.2793 103.055L79.2442 103.203C78.9638 103.166 78.6835 103.129 78.4381 103.055C78.1227 102.981 77.8073 102.944 77.4918 102.869C77.7372 102.721 78.0526 102.647 78.368 102.684Z" fill="white"/>
<path d="M106.021 92.2559C105.986 92.293 105.951 92.3301 105.916 92.3672C105.881 92.4043 105.846 92.4414 105.811 92.4785C100.063 99.4924 91.8616 103.5 83.2748 103.5C82.5037 103.5 81.7327 103.463 80.9616 103.389C80.6462 103.352 80.3307 103.315 80.0153 103.278C80.0854 102.758 80.1905 102.276 80.2957 101.756C80.4359 101.125 80.6111 100.531 80.7864 99.9006C81.0317 99.9377 81.3121 99.9377 81.5574 99.9748C82.1182 100.012 82.6439 100.049 83.2047 100.049C90.8803 100.049 98.2053 96.4493 103.287 90.2148C103.322 90.1777 103.322 90.1406 103.357 90.1406C103.953 89.3984 104.97 89.3242 105.671 89.9551C106.372 90.5117 106.512 91.5137 106.021 92.2559Z" fill="white"/>
<path d="M110.858 94.7423C110.788 94.7423 110.753 94.7423 110.683 94.7423C110.648 94.7423 110.612 94.7423 110.542 94.7794C110.507 94.7794 110.437 94.8165 110.402 94.8165C110.367 94.8165 110.367 94.8165 110.332 94.8536C110.297 94.8536 110.262 94.8907 110.227 94.8907C110.192 94.8907 110.157 94.9278 110.122 94.9278C110.052 94.9649 109.947 95.002 109.876 95.0762C109.841 95.1134 109.806 95.1134 109.771 95.1505C109.736 95.1876 109.701 95.2247 109.666 95.2618C109.631 95.2989 109.596 95.336 109.561 95.3731C109.526 95.4102 109.526 95.4473 109.491 95.4845C109.456 95.5587 109.386 95.6329 109.351 95.67C109.316 95.7071 109.316 95.7442 109.281 95.7813V95.8185C108.019 98.4904 106.337 101.088 104.374 103.5C102.621 105.653 100.659 107.582 98.626 109.215C98.626 109.215 98.626 109.215 98.5909 109.252C92.7729 113.854 86.7095 115.487 83.0996 113.409C83.0645 113.409 83.0645 113.372 83.0295 113.372C82.679 113.186 82.3635 112.926 82.0481 112.666C79.77 110.588 79.5597 107.211 79.77 104.688V104.614V104.576C79.805 104.317 79.805 104.057 79.8751 103.797C79.805 103.76 79.6999 103.76 79.6298 103.723C79.3143 103.612 79.1041 103.537 79.1041 103.537L79.1741 103.24L79.2092 103.092C78.9639 102.869 78.6484 102.721 78.2979 102.721C77.9825 102.684 77.6671 102.758 77.3867 102.906C77.1764 102.869 76.9311 102.795 76.7208 102.758C76.6507 103.278 76.5806 103.76 76.5455 104.28V104.317V104.391C76.5455 104.391 76.5455 104.391 76.5455 104.428C76.5455 104.428 76.5455 104.428 76.5455 104.465V104.502C76.16 109.104 77.3867 112.963 79.9803 115.301C80.4359 115.71 80.8915 116.081 81.4172 116.377C81.4172 116.377 81.4523 116.377 81.4523 116.415C81.4873 116.415 81.4873 116.452 81.5224 116.452C81.5574 116.452 81.5574 116.489 81.5925 116.489H81.6275C83.1346 117.342 84.887 117.751 86.8147 117.751C90.9504 117.751 95.8221 115.784 100.519 112.073C100.554 112.036 100.589 112.036 100.589 111.998L100.624 111.961C102.832 110.18 104.935 108.102 106.827 105.764C107.528 104.91 108.159 104.057 108.79 103.166C110.122 101.274 111.278 99.3068 112.225 97.2657C112.33 97.0431 112.4 96.7462 112.4 96.4864C112.505 95.5216 111.769 94.7423 110.858 94.7423ZM80.0153 99.8263L80.1555 99.1213L80.9616 99.4552C81.3822 98.1935 81.8729 96.9317 82.4687 95.67C82.4687 95.67 82.4687 95.6329 82.5037 95.6329C82.9243 94.8165 82.6439 93.8145 81.9079 93.3321C81.1369 92.8496 80.1205 93.1094 79.6648 93.9258C79.6648 93.9258 79.6648 93.9629 79.6298 93.9629C79.5947 94.0372 79.5597 94.0743 79.5246 94.1485C79.5246 94.1485 79.5246 94.1485 79.5246 94.1856C78.6835 95.9298 78.0526 97.674 77.5619 99.381C78.0176 99.4924 78.5082 99.6037 78.9639 99.6779C79.3143 99.715 79.6648 99.7521 80.0153 99.8263Z" fill="white"/>
<path d="M80.9616 99.4553C80.9266 99.6038 80.8565 99.7522 80.8214 99.9007C80.6111 100.532 80.4709 101.162 80.3307 101.756C80.2256 102.276 80.1205 102.795 80.0504 103.278C80.0153 103.426 80.0153 103.575 79.9803 103.723C79.9102 103.686 79.805 103.686 79.7349 103.649C79.4195 103.537 79.2092 103.463 79.2092 103.463L79.2793 103.166L79.3143 103.018C79.069 102.795 78.7536 102.647 78.4031 102.647C78.0876 102.61 77.7722 102.684 77.4918 102.832C77.2815 102.795 77.0362 102.721 76.8259 102.684C76.931 102.09 77.0362 101.496 77.1764 100.903C77.2815 100.383 77.4217 99.8264 77.597 99.3069C78.0526 99.4182 78.5433 99.5296 78.9989 99.6038C79.3494 99.678 79.6999 99.7151 80.0504 99.7522L80.1906 99.0471L80.9616 99.4553Z" fill="white"/>
<path d="M80.9616 103.389C80.9265 103.649 80.9265 103.834 80.9616 103.871C81.0667 104.02 80.4709 103.871 79.9802 103.723C80.0153 103.574 80.0153 103.426 80.0503 103.277C80.1204 102.758 80.2256 102.275 80.3307 101.756C80.4709 101.125 80.6462 100.531 80.8214 99.9004C80.8564 99.752 80.9265 99.6035 80.9616 99.4551L81.6626 99.752C81.6626 99.752 81.6275 99.8262 81.6275 99.9746C81.4523 100.605 81.0667 102.498 80.9616 103.389Z" fill="#333333"/>
<path d="M64.2085 17.8499H59.1616V19.0003H64.2085V17.8499Z" fill="#333333"/>
<path d="M110.683 157.57H105.636V158.72H110.683V157.57Z" fill="#333333"/>
<path d="M145.451 92.1076C150.367 92.1076 154.353 90.496 154.353 88.5079C154.353 86.5198 150.367 84.9082 145.451 84.9082C140.534 84.9082 136.548 86.5198 136.548 88.5079C136.548 90.496 140.534 92.1076 145.451 92.1076Z" fill="#333333"/>
<path d="M145.451 93.8518C141.77 93.8518 138.196 92.4045 135.462 89.8068C135.111 89.4728 134.901 88.9904 134.901 88.5079C134.901 88.0255 135.111 87.5431 135.462 87.2091C138.231 84.6114 141.77 83.1641 145.451 83.1641C149.131 83.1641 152.706 84.6114 155.439 87.2091C155.79 87.5431 156 88.0255 156 88.5079C156 88.9904 155.79 89.4728 155.439 89.8068C152.706 92.4045 149.166 93.8518 145.451 93.8518ZM139.282 88.5079C141.14 89.7326 143.278 90.3634 145.451 90.3634C147.659 90.3634 149.796 89.6955 151.619 88.5079C149.761 87.2833 147.624 86.6524 145.451 86.6524C143.278 86.6524 141.14 87.2833 139.282 88.5079Z" fill="white"/>
<path d="M145.253 84.374C148.729 80.693 150.471 76.5693 149.144 75.1636C147.816 73.7578 143.921 75.6023 140.445 79.2834C136.968 82.9644 135.226 87.0881 136.554 88.4938C137.882 89.8996 141.776 88.0551 145.253 84.374Z" fill="#333333"/>
<path d="M136.548 90.2523C136.128 90.2523 135.707 90.0668 135.392 89.7328C135.076 89.3988 134.901 88.9164 134.901 88.3968C135.111 84.5003 136.653 80.8264 139.282 78.0431C141.911 75.2598 145.345 73.627 149.06 73.4043C149.516 73.3672 149.972 73.5528 150.322 73.9239C150.638 74.2579 150.813 74.7403 150.813 75.2598C150.603 79.1564 149.06 82.8303 146.432 85.6136C143.803 88.3968 140.369 90.0297 136.653 90.2523C136.618 90.2523 136.583 90.2523 136.548 90.2523ZM147.238 77.1896C145.135 77.7091 143.172 78.8595 141.63 80.4924C140.088 82.1252 139.002 84.2034 138.511 86.43C140.614 85.9105 142.577 84.76 144.119 83.1272C145.661 81.4943 146.747 79.4533 147.238 77.1896Z" fill="white"/>
<path d="M149.157 101.848C150.484 100.442 148.742 96.3182 145.266 92.6372C141.789 88.9561 137.895 87.1116 136.567 88.5174C135.24 89.9232 136.982 94.0468 140.458 97.7279C143.935 101.409 147.829 103.253 149.157 101.848Z" fill="#333333"/>
<path d="M149.166 103.575C149.131 103.575 149.095 103.575 149.06 103.575C145.38 103.352 141.911 101.719 139.282 98.9358C136.653 96.1526 135.111 92.5158 134.901 88.5821C134.866 88.0996 135.041 87.6172 135.392 87.2461C135.707 86.9121 136.163 86.7266 136.653 86.7266C140.333 86.9492 143.803 88.5821 146.432 91.3653C149.06 94.1486 150.603 97.7854 150.813 101.719C150.848 102.202 150.673 102.684 150.322 103.055C150.007 103.389 149.586 103.575 149.166 103.575ZM138.476 90.5489C138.966 92.7755 140.053 94.8537 141.595 96.4865C143.137 98.1194 145.1 99.2698 147.203 99.7894C146.712 97.5627 145.626 95.4846 144.084 93.8517C142.541 92.2189 140.579 91.0685 138.476 90.5489Z" fill="white"/>
<path d="M112.155 103.76L111.874 109.03L112.505 109.327L112.715 102.127L112.155 103.76Z" fill="#333333"/>
<path d="M57.6895 70.8804C57.2689 71.1031 56.7782 71.3257 56.3226 71.5484C55.0959 72.0679 53.7991 72.439 53.0982 72.6617C52.7477 72.773 52.5374 72.8101 52.5374 72.8101L52.2921 71.9566C52.5023 71.8824 52.7477 71.8081 52.958 71.7339C52.993 71.7339 52.993 71.7339 52.993 71.7339C53.0281 71.7339 53.0281 71.7339 53.0631 71.6968C53.0631 71.6968 53.0631 71.6968 53.0982 71.6968C53.4136 71.5855 53.729 71.4742 54.0445 71.3628C54.8155 71.0659 55.5866 70.8062 56.3226 70.5093C56.6731 70.3608 56.9885 70.2495 57.339 70.1011L57.6895 70.8804Z" fill="#333333"/>
<path d="M57.7596 41.9714C57.7596 41.9714 57.6895 42.1199 57.5493 42.4168C57.0937 43.4187 55.9021 46.0907 54.0796 49.8759C53.3435 51.4345 52.5024 53.2158 51.5561 55.1456L50.6098 54.5889C50.8551 54.1807 51.1005 53.7354 51.3808 53.3272C51.3808 53.2901 51.4159 53.2901 51.4159 53.2529C51.5911 52.9561 51.7664 52.6592 51.9066 52.3623C52.0117 52.1768 52.1168 52.0283 52.1869 51.8428C52.3271 51.583 52.4673 51.3232 52.6075 51.1006C54.0445 48.5028 55.3413 45.868 56.4979 43.159C56.7082 42.6765 56.9185 42.1941 57.0937 41.7488L57.7596 41.9714Z" fill="#333333"/>
<path d="M42.8991 70.9546L42.8641 71.1773L42.6888 74.7769L42.6187 76.0758H41.9528L42.0579 74.9625L42.3033 71.3257V70.9546H42.8991Z" fill="#333333"/>
<path d="M43.1094 59.6731L42.6888 65.5737L43.2496 65.3881L43.6001 58.5969L43.1094 59.6731Z" fill="#333333"/>
<path d="M46.2287 18.5179L45.4576 18.4808L45.4927 17.8871L45.5628 16.6624C45.5628 16.6253 45.5628 16.6253 45.5628 16.5882C45.5978 15.4749 45.703 14.4358 45.8432 13.4338C45.8782 13.3225 45.8782 13.2112 45.9133 13.137L46.6493 13.2112C46.6142 13.1741 46.2287 16.2913 46.2287 18.5179Z" fill="#333333"/>
</g>
<defs>
<clipPath id="clip0">
<rect width="156" height="172.971" fill="white"/>
</clipPath>
</defs>
</svg>
